<svg width="197" height="209" viewBox="0 0 197 209" fill="none" xmlns="http://www.w3.org/2000/svg">
<path d="M164.109 143.282L164.57 143.318C166.383 143.491 173.13 144.402 180.015 148.497C187.95 153.217 196.001 162.135 196.934 178.75L196.936 178.781V203.577C196.936 204.777 196.459 205.927 195.611 206.775C194.815 207.57 193.755 208.039 192.637 208.095L192.412 208.101H47.5325C46.3331 208.101 45.1824 207.623 44.3342 206.775C43.4863 205.927 43.0101 204.776 43.01 203.577V178.97L43.011 178.938C43.9404 162.235 51.9894 153.27 59.9016 148.525C67.7454 143.822 75.3877 143.298 75.6448 143.288L75.6663 143.287L164.089 143.281L164.109 143.282ZM192.718 206.985C192.724 206.985 192.729 206.985 192.735 206.984C192.729 206.985 192.724 206.985 192.718 206.985ZM47.0403 206.964C47.0478 206.965 47.0553 206.966 47.0627 206.967C47.0553 206.966 47.0478 206.965 47.0403 206.964ZM193.028 206.943C193.035 206.942 193.043 206.94 193.051 206.938C193.043 206.94 193.035 206.942 193.028 206.943ZM46.7268 206.902C46.7369 206.905 46.747 206.907 46.7571 206.909C46.747 206.907 46.7369 206.905 46.7268 206.902ZM193.321 206.876C193.335 206.872 193.35 206.868 193.365 206.864C193.35 206.868 193.335 206.872 193.321 206.876ZM46.4241 206.814C46.4341 206.818 46.4443 206.821 46.4543 206.824C46.4443 206.821 46.4341 206.818 46.4241 206.814ZM193.63 206.775C193.641 206.771 193.652 206.766 193.663 206.762C193.652 206.766 193.641 206.771 193.63 206.775ZM46.1331 206.699C46.1418 206.703 46.1506 206.707 46.1594 206.711C46.1506 206.707 46.1418 206.703 46.1331 206.699ZM193.913 206.652C193.927 206.645 193.941 206.638 193.955 206.631C193.941 206.638 193.927 206.645 193.913 206.652ZM45.8499 206.557C45.8596 206.562 45.8693 206.568 45.8792 206.573C45.8693 206.568 45.8596 206.562 45.8499 206.557ZM194.189 206.502C194.205 206.492 194.221 206.482 194.238 206.472C194.221 206.482 194.205 206.492 194.189 206.502ZM194.453 206.324C194.467 206.314 194.48 206.303 194.493 206.293C194.48 206.303 194.467 206.314 194.453 206.324ZM194.833 205.997C194.785 206.045 194.735 206.091 194.685 206.136C194.693 206.129 194.702 206.123 194.71 206.115L194.833 205.997ZM44.8977 205.763C44.9062 205.773 44.9164 205.782 44.925 205.792C44.9119 205.777 44.8979 205.762 44.885 205.746L44.8977 205.763ZM195.034 205.775C195.04 205.769 195.046 205.762 195.051 205.756C195.046 205.762 195.04 205.769 195.034 205.775ZM44.5266 205.213C44.5377 205.233 44.5493 205.253 44.5608 205.273C44.5493 205.253 44.5377 205.233 44.5266 205.213ZM195.383 205.273C195.395 205.253 195.406 205.233 195.417 205.213C195.406 205.233 195.395 205.253 195.383 205.273ZM44.3899 204.931C44.3987 204.951 44.407 204.972 44.4163 204.992C44.407 204.972 44.3987 204.951 44.3899 204.931ZM195.531 204.986C195.537 204.972 195.544 204.957 195.55 204.942C195.544 204.957 195.537 204.972 195.531 204.986ZM195.653 204.679C195.655 204.67 195.658 204.662 195.66 204.653C195.658 204.662 195.655 204.67 195.653 204.679ZM44.1936 204.328C44.1988 204.351 44.2035 204.374 44.2092 204.397C44.2036 204.374 44.1988 204.351 44.1936 204.328ZM195.739 204.384C195.742 204.37 195.744 204.356 195.747 204.343C195.744 204.356 195.742 204.37 195.739 204.384ZM75.9163 152.321C75.3597 152.362 69.8439 152.847 64.2581 156.327C58.5969 159.854 52.7732 166.509 52.0559 179.217L52.0618 199.055H187.896L187.89 179.03C187.17 166.423 181.349 159.817 175.664 156.311C170.001 152.818 164.385 152.355 163.822 152.316L75.9163 152.321ZM44.6252 174.059C44.5771 174.368 44.5322 174.68 44.4895 174.995C44.5322 174.68 44.5771 174.368 44.6252 174.059ZM51.6663 173.481C51.6057 173.784 51.5494 174.09 51.4954 174.4C51.5493 174.09 51.6058 173.784 51.6663 173.482V173.481ZM44.8264 172.873C44.7842 173.103 44.7434 173.335 44.7043 173.569C44.7434 173.335 44.7842 173.103 44.8264 172.873ZM45.7942 168.755C45.5105 169.73 45.2572 170.745 45.0364 171.8C45.2571 170.745 45.5105 169.73 45.7942 168.755ZM52.5598 169.986C52.4949 170.192 52.433 170.401 52.3713 170.611C52.4329 170.401 52.495 170.193 52.5598 169.987V169.986ZM53.7317 166.877C53.4846 167.434 53.2506 168.011 53.0305 168.608L53.1985 168.165C53.3688 167.725 53.5464 167.296 53.7317 166.878V166.877ZM47.4338 164.227C47.3403 164.439 47.2488 164.654 47.1584 164.871C47.1748 164.832 47.1908 164.792 47.2073 164.753L47.4338 164.227ZM55.8049 163.059C55.5639 163.427 55.331 163.807 55.1028 164.198C55.3309 163.807 55.5641 163.427 55.8049 163.06V163.059ZM48.7874 161.491C48.7029 161.644 48.6191 161.798 48.5364 161.953C48.6191 161.798 48.7029 161.644 48.7874 161.491ZM49.7629 159.843C49.6387 160.039 49.5161 160.238 49.3948 160.439C49.5161 160.238 49.6387 160.039 49.7629 159.843ZM51.5442 157.31C51.3942 157.502 51.246 157.697 51.0989 157.896C51.1465 157.831 51.1945 157.768 51.2424 157.704L51.5442 157.31ZM53.0657 155.504C52.689 155.918 52.3182 156.348 51.9553 156.794C52.3182 156.348 52.689 155.918 53.0657 155.504ZM64.2336 155.056C63.4916 155.494 62.7456 155.982 62.0061 156.524C62.7453 155.982 63.491 155.494 64.2327 155.057L64.2336 155.056ZM68.0393 153.181C67.5315 153.386 67.0122 153.613 66.4846 153.863C67.0118 153.614 67.5309 153.387 68.0383 153.182L68.0393 153.181ZM70.051 152.45C69.8209 152.525 69.587 152.605 69.3489 152.688C69.5863 152.605 69.8196 152.525 70.0491 152.451L70.051 152.45ZM66.0315 146.75C65.7424 146.863 65.4506 146.982 65.1555 147.105C65.4506 146.982 65.7424 146.863 66.0315 146.75ZM68.3694 145.924C68.1541 145.992 67.9361 146.065 67.7151 146.14C67.9361 146.065 68.1541 145.992 68.3694 145.924ZM69.9963 145.444C69.8157 145.493 69.6321 145.545 69.4456 145.599C69.6321 145.545 69.8157 145.493 69.9963 145.444ZM74.3118 144.541C74.2369 144.552 74.1596 144.564 74.0793 144.576C74.1623 144.564 74.2424 144.551 74.3196 144.54L74.3118 144.541ZM119.976 55.3154C143.483 55.3157 162.614 74.4406 162.615 97.9648C162.614 121.467 143.489 140.593 119.976 140.593C96.463 140.593 77.3315 121.467 77.3313 97.9648C77.3316 74.4461 96.4626 55.3154 119.976 55.3154ZM117.846 139.438C118.18 139.454 118.515 139.467 118.851 139.476C118.515 139.467 118.18 139.454 117.846 139.438ZM121.539 139.459C121.728 139.452 121.916 139.447 122.104 139.438C121.916 139.447 121.728 139.452 121.539 139.459ZM123.742 139.319C123.893 139.306 124.043 139.294 124.193 139.279C124.043 139.294 123.893 139.306 123.742 139.319ZM115.79 139.282C115.913 139.295 116.036 139.303 116.158 139.314C116.036 139.303 115.913 139.295 115.79 139.282ZM124.731 139.218C124.887 139.2 125.043 139.185 125.198 139.165C125.043 139.185 124.887 139.2 124.731 139.218ZM114.791 139.169C114.904 139.183 115.017 139.195 115.13 139.208C115.017 139.195 114.904 139.183 114.791 139.169ZM113.736 139.023C113.891 139.047 114.048 139.067 114.204 139.089C114.048 139.067 113.891 139.047 113.736 139.023ZM125.799 139.082C125.947 139.061 126.095 139.042 126.242 139.02C126.095 139.042 125.947 139.061 125.799 139.082ZM126.646 138.953C126.86 138.918 127.074 138.885 127.287 138.847C127.074 138.885 126.86 138.918 126.646 138.953ZM112.718 138.855C112.909 138.889 113.1 138.92 113.291 138.951C113.1 138.92 112.909 138.889 112.718 138.855ZM127.552 138.797C127.801 138.751 128.049 138.705 128.296 138.654C128.049 138.705 127.801 138.751 127.552 138.797ZM111.729 138.668C111.91 138.705 112.092 138.738 112.274 138.772C112.092 138.738 111.91 138.705 111.729 138.668ZM128.662 138.575C128.866 138.532 129.069 138.489 129.272 138.442C129.069 138.489 128.866 138.532 128.662 138.575ZM110.766 138.462C110.904 138.493 111.042 138.522 111.18 138.552C111.042 138.522 110.904 138.493 110.766 138.462ZM109.787 138.227C109.907 138.257 110.027 138.285 110.147 138.314C110.027 138.285 109.907 138.257 109.787 138.227ZM129.89 138.293C130.003 138.265 130.117 138.239 130.23 138.21C130.117 138.239 130.003 138.265 129.89 138.293ZM108.792 137.962C108.926 137.999 109.061 138.035 109.196 138.071C109.061 138.035 108.926 137.999 108.792 137.962ZM130.801 138.058C130.952 138.017 131.102 137.978 131.252 137.936C131.102 137.978 130.952 138.017 130.801 138.058ZM107.835 137.682C107.97 137.723 108.106 137.762 108.241 137.802C108.106 137.762 107.97 137.723 107.835 137.682ZM131.854 137.759C131.961 137.727 132.069 137.696 132.176 137.663C132.069 137.696 131.961 137.727 131.854 137.759ZM106.845 137.364C106.997 137.415 107.149 137.464 107.301 137.513C107.149 137.464 106.997 137.415 106.845 137.364ZM132.745 137.48C132.898 137.431 133.051 137.383 133.203 137.332C133.051 137.383 132.898 137.431 132.745 137.48ZM105.923 137.044C106.075 137.099 106.227 137.152 106.38 137.205C106.227 137.152 106.075 137.099 105.923 137.044ZM133.58 137.201C133.771 137.135 133.961 137.069 134.15 137C133.961 137.069 133.771 137.135 133.58 137.201ZM134.55 136.851C134.735 136.781 134.919 136.712 135.103 136.64C134.919 136.712 134.735 136.781 134.55 136.851ZM104.987 136.693C105.115 136.743 105.245 136.792 105.374 136.841C105.245 136.792 105.115 136.743 104.987 136.693ZM135.457 136.497C135.65 136.419 135.843 136.341 136.034 136.261C135.843 136.341 135.65 136.419 135.457 136.497ZM104.049 136.315C104.195 136.376 104.34 136.436 104.487 136.495C104.34 136.436 104.195 136.376 104.049 136.315ZM103.145 135.927C103.286 135.989 103.427 136.051 103.569 136.112C103.427 136.051 103.286 135.989 103.145 135.927ZM136.472 136.072C136.618 136.009 136.764 135.945 136.909 135.88C136.764 135.945 136.618 136.009 136.472 136.072ZM102.24 135.511C102.375 135.575 102.51 135.639 102.646 135.701C102.51 135.639 102.375 135.575 102.24 135.511ZM137.366 135.671C137.535 135.593 137.703 135.516 137.87 135.436C137.703 135.516 137.535 135.593 137.366 135.671ZM101.336 135.069C101.485 135.144 101.634 135.218 101.783 135.291C101.634 135.218 101.485 135.144 101.336 135.069ZM138.22 135.264C138.397 135.177 138.574 135.09 138.749 135.001C138.574 135.09 138.397 135.177 138.22 135.264ZM100.473 134.621C100.608 134.693 100.743 134.765 100.879 134.836C100.743 134.765 100.608 134.693 100.473 134.621ZM139.138 134.799C139.306 134.711 139.474 134.623 139.641 134.533C139.474 134.623 139.306 134.711 139.138 134.799ZM99.6047 134.144C99.7412 134.221 99.8774 134.298 100.015 134.374C99.8774 134.298 99.7412 134.221 99.6047 134.144ZM140.019 134.326C140.176 134.239 140.334 134.152 140.49 134.062C140.334 134.152 140.176 134.239 140.019 134.326ZM98.7512 133.648C98.8792 133.725 99.0072 133.801 99.136 133.876C99.0072 133.801 98.8792 133.725 98.7512 133.648ZM140.946 133.798C141.074 133.722 141.203 133.646 141.33 133.569C141.203 133.646 141.074 133.722 140.946 133.798ZM97.842 133.09C98.0004 133.19 98.1588 133.29 98.3186 133.388C98.1589 133.29 98.0004 133.19 97.842 133.09ZM141.774 133.298C141.917 133.209 142.061 133.12 142.203 133.029C142.061 133.12 141.917 133.209 141.774 133.298ZM97.0715 132.591C97.2137 132.685 97.3559 132.779 97.4993 132.872C97.3559 132.779 97.2137 132.685 97.0715 132.591ZM142.688 132.717C142.787 132.652 142.885 132.587 142.984 132.521C142.885 132.587 142.787 132.652 142.688 132.717ZM121.253 132.618C120.828 132.634 120.403 132.645 119.976 132.646L120.836 132.635C120.975 132.631 121.114 132.623 121.253 132.618ZM96.2571 132.037C96.3825 132.125 96.5076 132.213 96.634 132.299C96.5076 132.213 96.3825 132.125 96.2571 132.037ZM143.49 132.177C143.602 132.099 143.715 132.021 143.827 131.942C143.715 132.021 143.602 132.099 143.49 132.177ZM95.509 131.503C95.6145 131.58 95.7192 131.658 95.8254 131.734C95.7192 131.658 95.6145 131.58 95.509 131.503ZM144.254 131.638C144.383 131.545 144.511 131.452 144.638 131.357C144.511 131.452 144.383 131.545 144.254 131.638ZM119.974 64.3496C101.454 64.3505 86.3827 79.4324 86.3772 97.96C86.3925 106.865 89.9379 115.401 96.2356 121.696C102.533 127.992 111.07 131.534 119.975 131.546C128.881 131.537 137.419 127.996 143.717 121.699C150.014 115.403 153.557 106.866 153.568 97.9609L153.557 97.127C153.335 88.5209 149.821 80.3139 143.72 74.21C137.422 67.9092 128.882 64.3628 119.974 64.3496ZM94.6125 130.829C94.7523 130.937 94.8913 131.046 95.0325 131.152C94.8913 131.046 94.7523 130.937 94.6125 130.829ZM145.063 131.039C145.198 130.936 145.332 130.834 145.466 130.729C145.332 130.834 145.198 130.936 145.063 131.039ZM93.7249 130.124C93.9071 130.273 94.0898 130.421 94.2747 130.567C94.0898 130.421 93.9071 130.273 93.7249 130.124ZM145.788 130.474C145.936 130.356 146.084 130.239 146.23 130.119C146.084 130.239 145.936 130.356 145.788 130.474ZM106.397 129.86C106.661 129.973 106.927 130.082 107.194 130.188C106.927 130.082 106.661 129.973 106.397 129.86ZM92.9836 129.504C93.1691 129.663 93.355 129.821 93.5432 129.977C93.355 129.821 93.1691 129.663 92.9836 129.504ZM146.581 129.827C146.714 129.716 146.847 129.604 146.979 129.491C146.847 129.604 146.714 129.716 146.581 129.827ZM147.359 129.162C147.48 129.056 147.6 128.948 147.72 128.84C147.6 128.948 147.48 129.056 147.359 129.162ZM148.087 128.506C148.196 128.405 148.305 128.305 148.413 128.203C148.305 128.305 148.196 128.405 148.087 128.506ZM148.823 127.812C148.939 127.701 149.053 127.588 149.167 127.476C149.053 127.588 148.939 127.701 148.823 127.812ZM89.2532 125.889C89.6954 126.374 90.1491 126.849 90.6135 127.313L89.9172 126.601C89.6933 126.366 89.4717 126.129 89.2532 125.889ZM149.477 127.167C149.608 127.035 149.739 126.902 149.868 126.768C149.739 126.902 149.608 127.035 149.477 127.167ZM22.927 26.3535H8.96021V118.185H70.6135L70.8489 118.969C71.4372 120.93 72.8444 122.416 74.1868 123.437C74.8501 123.941 75.4756 124.314 75.9329 124.561C76.1535 124.679 76.3331 124.768 76.4563 124.825H77.3245V125.925C77.1088 126.511 76.5164 126.873 76.2249 126.98V127.025H9.31567C4.34187 127.025 0.120361 122.919 0.120361 117.915V26.7021C0.120782 21.7222 4.31255 17.4219 9.31567 17.4219H22.927V26.3535ZM150.189 126.431C150.305 126.307 150.421 126.183 150.535 126.059C150.421 126.183 150.305 126.307 150.189 126.431ZM8.14282 125.837C8.17363 125.842 8.20469 125.844 8.2356 125.849C8.20469 125.844 8.17363 125.842 8.14282 125.837ZM7.74829 125.768C7.80694 125.779 7.866 125.789 7.92505 125.8C7.866 125.789 7.80694 125.779 7.74829 125.768ZM7.38599 125.686C7.43711 125.698 7.48881 125.709 7.54028 125.721C7.48881 125.709 7.43711 125.698 7.38599 125.686ZM150.861 125.7C150.972 125.576 151.083 125.451 151.193 125.326C151.083 125.451 150.972 125.576 150.861 125.7ZM6.99829 125.577C7.06043 125.596 7.12308 125.613 7.18579 125.631C7.12308 125.613 7.06043 125.596 6.99829 125.577ZM6.65356 125.463C6.70699 125.482 6.7608 125.5 6.8147 125.518C6.7608 125.5 6.707 125.482 6.65356 125.463ZM88.6155 125.171C88.6905 125.257 88.7673 125.342 88.843 125.428C88.7673 125.342 88.6905 125.257 88.6155 125.171ZM6.29419 125.326C6.34273 125.346 6.3917 125.365 6.44067 125.384C6.3917 125.365 6.34273 125.346 6.29419 125.326ZM5.91724 125.16C5.98326 125.191 6.04953 125.222 6.11646 125.251C6.04953 125.222 5.98327 125.191 5.91724 125.16ZM5.59009 124.998C5.65154 125.03 5.71331 125.062 5.77563 125.093C5.71331 125.062 5.65154 125.03 5.59009 124.998ZM151.525 124.945C151.632 124.82 151.739 124.692 151.845 124.565C151.739 124.692 151.632 124.82 151.525 124.945ZM5.25122 124.81C5.31207 124.845 5.37301 124.881 5.43481 124.915C5.37301 124.881 5.31207 124.845 5.25122 124.81ZM4.92212 124.605C4.98293 124.645 5.04383 124.685 5.10571 124.723C5.04383 124.685 4.98293 124.645 4.92212 124.605ZM87.9885 124.433C88.0561 124.514 88.1254 124.594 88.1936 124.675C88.1254 124.594 88.0561 124.514 87.9885 124.433ZM142.238 124.539C142.373 124.426 142.509 124.312 142.643 124.196C142.509 124.312 142.373 124.426 142.238 124.539ZM4.60181 124.386C4.6662 124.432 4.7304 124.479 4.79614 124.523C4.7304 124.479 4.6662 124.432 4.60181 124.386ZM4.30884 124.165C4.36545 124.21 4.42195 124.255 4.47974 124.298C4.42196 124.255 4.36545 124.21 4.30884 124.165ZM152.154 124.194C152.254 124.072 152.352 123.948 152.45 123.824C152.352 123.948 152.254 124.072 152.154 124.194ZM4.04028 123.943C4.08825 123.985 4.1359 124.026 4.18481 124.066C4.1359 124.026 4.08825 123.985 4.04028 123.943ZM87.3586 123.653C87.4309 123.745 87.5044 123.835 87.5774 123.926C87.5044 123.835 87.4308 123.745 87.3586 123.653ZM3.35474 123.284C3.27475 123.198 3.19658 123.109 3.12036 123.02C3.12319 123.023 3.12631 123.026 3.12915 123.029L3.35474 123.284ZM152.789 123.396C152.883 123.276 152.974 123.155 153.067 123.033C152.974 123.155 152.883 123.276 152.789 123.396ZM95.4573 122.474C95.7597 122.776 96.0689 123.07 96.3811 123.36C96.2789 123.265 96.1757 123.171 96.0745 123.075L95.4573 122.474ZM86.7473 122.861C86.8495 122.997 86.9541 123.131 87.0579 123.266C86.9541 123.131 86.8495 122.997 86.7473 122.861ZM2.87134 122.711C2.91056 122.762 2.95203 122.811 2.99243 122.861C2.95203 122.811 2.91056 122.762 2.87134 122.711ZM153.376 122.623C153.472 122.494 153.565 122.364 153.659 122.233C153.565 122.364 153.472 122.494 153.376 122.623ZM2.65649 122.417C2.69755 122.476 2.7399 122.533 2.78247 122.591C2.73991 122.533 2.69755 122.476 2.65649 122.417ZM86.1633 122.064C86.274 122.219 86.3866 122.372 86.4993 122.525C86.3866 122.372 86.274 122.219 86.1633 122.064ZM2.45044 122.108C2.47889 122.153 2.50902 122.197 2.53833 122.241C2.50902 122.197 2.47889 122.153 2.45044 122.108ZM2.25708 121.786C2.28292 121.831 2.30948 121.876 2.33618 121.921C2.30948 121.876 2.28292 121.831 2.25708 121.786ZM153.953 121.823C154.045 121.693 154.135 121.561 154.226 121.43C154.135 121.561 154.045 121.693 153.953 121.823ZM85.595 121.25C85.6933 121.395 85.7937 121.537 85.8938 121.681C85.7937 121.537 85.6933 121.395 85.595 121.25ZM2.07056 121.441C2.10092 121.501 2.13249 121.56 2.16431 121.619C2.13249 121.56 2.10092 121.501 2.07056 121.441ZM1.90747 121.1C1.93341 121.157 1.96027 121.214 1.98755 121.271C1.96027 121.214 1.93341 121.157 1.90747 121.1ZM154.512 121.01C154.611 120.863 154.708 120.715 154.805 120.566C154.708 120.715 154.611 120.863 154.512 121.01ZM85.0491 120.427C85.1566 120.593 85.2664 120.758 85.3762 120.923C85.2664 120.758 85.1566 120.593 85.0491 120.427ZM1.76392 120.759C1.78559 120.814 1.80745 120.868 1.83032 120.923C1.80745 120.868 1.78559 120.814 1.76392 120.759ZM1.61646 120.352C1.64037 120.424 1.66474 120.495 1.69067 120.566C1.66474 120.495 1.64036 120.424 1.61646 120.352ZM1.50903 120.001C1.53125 120.08 1.55373 120.159 1.57837 120.237C1.55373 120.159 1.53125 120.08 1.50903 120.001ZM155.068 120.158C155.138 120.047 155.208 119.934 155.278 119.822C155.208 119.934 155.138 120.047 155.068 120.158ZM84.5452 119.627C84.6301 119.765 84.7175 119.902 84.804 120.039C84.7175 119.902 84.6301 119.765 84.5452 119.627ZM1.41431 119.627C1.43223 119.706 1.44966 119.784 1.46997 119.862C1.44966 119.784 1.43223 119.706 1.41431 119.627ZM1.33618 119.236C1.34982 119.315 1.36316 119.393 1.37915 119.471C1.36316 119.393 1.34982 119.315 1.33618 119.236ZM155.619 119.267C155.676 119.173 155.73 119.078 155.785 118.984C155.73 119.078 155.676 119.173 155.619 119.267ZM84.0188 118.745C84.107 118.897 84.1973 119.048 84.2874 119.198C84.1973 119.048 84.107 118.897 84.0188 118.745ZM1.27173 118.799C1.28345 118.901 1.29609 119.002 1.31177 119.103C1.29609 119.002 1.28345 118.901 1.27173 118.799ZM156.086 118.467C156.165 118.328 156.243 118.189 156.321 118.05C156.243 118.189 156.165 118.328 156.086 118.467ZM83.5188 117.858C83.6195 118.042 83.7221 118.224 83.8254 118.406C83.7221 118.224 83.6195 118.042 83.5188 117.858ZM156.565 117.605C156.638 117.469 156.711 117.331 156.783 117.193C156.711 117.331 156.638 117.469 156.565 117.605ZM83.0559 116.99C83.1532 117.178 83.2527 117.365 83.3528 117.551C83.2527 117.365 83.1532 117.178 83.0559 116.99ZM157.039 116.698C157.107 116.566 157.172 116.432 157.238 116.299C157.172 116.432 157.107 116.566 157.039 116.698ZM82.6194 116.121C82.7061 116.299 82.7939 116.475 82.8831 116.651C82.7939 116.475 82.7061 116.299 82.6194 116.121ZM157.463 115.838C157.541 115.675 157.617 115.512 157.693 115.349C157.617 115.512 157.541 115.675 157.463 115.838ZM82.1897 115.214C82.2709 115.391 82.3531 115.567 82.4368 115.743C82.3531 115.567 82.2709 115.391 82.1897 115.214ZM157.889 114.922C157.958 114.768 158.026 114.612 158.093 114.457C158.026 114.612 157.958 114.768 157.889 114.922ZM81.7776 114.285C81.8592 114.475 81.9413 114.665 82.0256 114.854C81.9413 114.665 81.8592 114.475 81.7776 114.285ZM158.291 113.997C158.358 113.838 158.422 113.678 158.487 113.519C158.422 113.678 158.358 113.838 158.291 113.997ZM81.4163 113.417C81.4804 113.576 81.5455 113.735 81.6116 113.894C81.5455 113.735 81.4804 113.576 81.4163 113.417ZM158.663 113.08C158.726 112.921 158.786 112.761 158.846 112.602C158.786 112.761 158.726 112.921 158.663 113.08ZM81.0471 112.468C81.1121 112.641 81.1781 112.815 81.2454 112.987C81.1781 112.815 81.1121 112.641 81.0471 112.468ZM159.031 112.109C159.089 111.947 159.146 111.784 159.203 111.621C159.146 111.784 159.089 111.947 159.031 112.109ZM80.7122 111.538C80.7708 111.707 80.8301 111.876 80.8909 112.044C80.8301 111.876 80.7708 111.707 80.7122 111.538ZM159.365 111.151C159.402 111.042 159.437 110.933 159.473 110.823C159.437 110.933 159.402 111.042 159.365 111.151ZM80.3889 110.565C80.4445 110.74 80.5 110.914 80.5579 111.087C80.5 110.914 80.4445 110.74 80.3889 110.565ZM159.684 110.163C159.706 110.091 159.727 110.019 159.748 109.947C159.727 110.019 159.706 110.091 159.684 110.163ZM80.0881 109.583C80.1438 109.774 80.1997 109.964 80.2581 110.153C80.1997 109.964 80.1438 109.774 80.0881 109.583ZM159.964 109.212C159.998 109.092 160.03 108.971 160.063 108.851C160.03 108.971 159.998 109.092 159.964 109.212ZM79.8225 108.63C79.8701 108.809 79.9181 108.987 79.968 109.165C79.9181 108.987 79.8701 108.809 79.8225 108.63ZM160.23 108.224C160.253 108.133 160.274 108.041 160.296 107.95C160.274 108.041 160.253 108.133 160.23 108.224ZM79.5745 107.647C79.6179 107.829 79.6615 108.009 79.7073 108.189C79.6615 108.009 79.6179 107.829 79.5745 107.647ZM160.467 107.242C160.497 107.111 160.524 106.98 160.553 106.849C160.524 106.98 160.497 107.111 160.467 107.242ZM79.3538 106.677C79.3916 106.853 79.4299 107.029 79.47 107.205C79.4299 107.029 79.3916 106.853 79.3538 106.677ZM160.679 106.264C160.707 106.127 160.732 105.989 160.758 105.852C160.732 105.989 160.707 106.127 160.679 106.264ZM79.135 105.586C79.174 105.795 79.213 106.004 79.2551 106.212C79.213 106.004 79.174 105.795 79.135 105.586ZM160.876 105.233C160.904 105.074 160.929 104.915 160.955 104.755C160.929 104.915 160.904 105.074 160.876 105.233ZM78.9543 104.541C78.9905 104.767 79.0268 104.993 79.0667 105.218C79.0268 104.993 78.9905 104.767 78.9543 104.541ZM78.8108 103.572C78.8394 103.783 78.8679 103.993 78.8997 104.203C78.8679 103.993 78.8394 103.783 78.8108 103.572ZM78.6917 102.606C78.7131 102.798 78.734 102.99 78.7581 103.181C78.734 102.99 78.7131 102.798 78.6917 102.606ZM161.301 102.177C161.314 102.053 161.323 101.929 161.334 101.806C161.323 101.929 161.314 102.053 161.301 102.177ZM78.4846 100.094C78.5196 100.784 78.5724 101.469 78.6409 102.149C78.5724 101.469 78.5196 100.784 78.4846 100.094ZM50.7844 46.3018C58.1152 46.3018 64.4867 48.9441 69.678 54.1279C74.8688 59.2773 77.512 65.6644 77.512 73.0342C77.5119 80.3713 74.8739 86.7446 69.6809 91.9316L69.678 91.9346C64.6543 96.9122 58.5205 99.541 51.4875 99.749L50.804 99.7617H50.7659C43.6309 99.7157 37.4339 97.2356 32.3733 92.4004L31.8879 91.9258C26.701 86.7447 24.058 80.3658 24.0579 73.0342C24.0579 65.6671 26.6976 59.2827 31.8899 54.1289L32.3752 53.6504C37.4283 48.7808 43.6452 46.3018 50.7844 46.3018ZM52.0764 98.623C51.6532 98.6447 51.2264 98.658 50.7961 98.6611C51.2264 98.658 51.6532 98.6447 52.0764 98.623ZM52.304 98.6084C52.4499 98.5998 52.5954 98.5919 52.7405 98.5811C52.5954 98.5919 52.4499 98.5998 52.304 98.6084ZM52.8245 98.5742C53.0022 98.5604 53.1793 98.5454 53.3557 98.5283C53.1793 98.5454 53.0022 98.5604 52.8245 98.5742ZM48.1907 98.5293C48.2651 98.5365 48.3397 98.5422 48.4143 98.5488C48.3397 98.5422 48.2651 98.5365 48.1907 98.5293ZM53.6448 98.4971C53.7521 98.4855 53.8593 98.4747 53.9661 98.4619C53.8593 98.4747 53.7521 98.4855 53.6448 98.4971ZM47.5969 98.4648C47.6479 98.4709 47.6991 98.4757 47.7502 98.4814C47.6991 98.4757 47.6479 98.4709 47.5969 98.4648ZM54.3137 98.417C54.4011 98.4054 54.4884 98.3943 54.5754 98.3818C54.4884 98.3943 54.4011 98.4054 54.3137 98.417ZM46.9661 98.3828C47.0252 98.3912 47.0845 98.3982 47.1438 98.4062C47.0845 98.3982 47.0252 98.3912 46.9661 98.3828ZM46.3333 98.2852C46.4225 98.3001 46.5122 98.3131 46.6018 98.3271C46.5122 98.3131 46.4225 98.3001 46.3333 98.2852ZM54.969 98.3213C55.0397 98.3101 55.1104 98.2999 55.1809 98.2881C55.1104 98.2999 55.0397 98.3101 54.969 98.3213ZM45.6946 98.1699C45.8191 98.194 45.9443 98.216 46.0696 98.2383C45.9443 98.216 45.8191 98.194 45.6946 98.1699ZM55.5754 98.2178C55.6487 98.2044 55.7221 98.1917 55.7952 98.1777C55.7221 98.1917 55.6487 98.2044 55.5754 98.2178ZM45.1077 98.0488C45.2384 98.0773 45.3696 98.1044 45.5012 98.1309C45.3696 98.1044 45.2384 98.0773 45.1077 98.0488ZM56.0852 98.1191C56.2069 98.0943 56.3284 98.0695 56.4495 98.043C56.3284 98.0695 56.2069 98.0943 56.0852 98.1191ZM56.6477 97.998C56.774 97.9693 56.9001 97.9407 57.0256 97.9102C56.9001 97.9407 56.774 97.9693 56.6477 97.998ZM44.5393 97.918C44.626 97.939 44.713 97.9594 44.8 97.9795C44.713 97.9594 44.626 97.939 44.5393 97.918ZM57.2649 97.8496C57.3886 97.8182 57.512 97.7862 57.635 97.7529C57.512 97.7862 57.3886 97.8182 57.2649 97.8496ZM43.9475 97.7676C44.0231 97.7878 44.0992 97.8066 44.175 97.8262C44.0992 97.8066 44.0231 97.7878 43.9475 97.7676ZM57.8518 97.6934C57.9661 97.6613 58.08 97.6283 58.1936 97.5947C58.08 97.6283 57.9661 97.6613 57.8518 97.6934ZM43.3782 97.6074C43.4395 97.6255 43.5012 97.6426 43.5627 97.6602C43.5012 97.6426 43.4395 97.6255 43.3782 97.6074ZM161.509 97.5645C161.507 97.346 161.507 97.1278 161.501 96.9102L161.5 96.8936C161.506 97.1168 161.507 97.3404 161.509 97.5645ZM58.4709 97.5107C58.575 97.4786 58.679 97.4465 58.7825 97.4131C58.679 97.4465 58.575 97.4786 58.4709 97.5107ZM42.7522 97.4141C42.8411 97.4428 42.9304 97.4703 43.0198 97.498C42.9304 97.4703 42.8411 97.4428 42.7522 97.4141ZM42.1506 97.2109C42.2687 97.2525 42.3872 97.2932 42.5061 97.333C42.3872 97.2932 42.2687 97.2525 42.1506 97.2109ZM59.0452 97.3262C59.1477 97.2918 59.2498 97.2564 59.3518 97.2207C59.2498 97.2564 59.1477 97.2918 59.0452 97.3262ZM41.5989 97.0088C41.7118 97.0517 41.8251 97.0936 41.9387 97.1348C41.8251 97.0935 41.7118 97.0517 41.5989 97.0088ZM59.6028 97.1309C59.72 97.0883 59.8369 97.0453 59.9534 97.001C59.8369 97.0453 59.72 97.0883 59.6028 97.1309ZM60.1526 96.9238C60.2682 96.8787 60.3834 96.833 60.4983 96.7861C60.3835 96.833 60.2682 96.8787 60.1526 96.9238ZM41.0168 96.7793C41.1252 96.8237 41.2339 96.8673 41.343 96.9102C41.2339 96.8673 41.1252 96.8237 41.0168 96.7793ZM40.4709 96.5479C40.5835 96.5972 40.6965 96.6457 40.8098 96.6934C40.6965 96.6457 40.5835 96.5973 40.4709 96.5479ZM60.7327 96.6895C60.8428 96.6432 60.9524 96.5958 61.0618 96.5479C60.9524 96.5958 60.8428 96.6432 60.7327 96.6895ZM61.2844 96.4492C61.3979 96.3982 61.5106 96.3457 61.6233 96.293C61.5106 96.3457 61.3978 96.3982 61.2844 96.4492ZM39.9309 96.3027C40.0325 96.3503 40.1344 96.3972 40.2366 96.4434C40.1344 96.3972 40.0325 96.3503 39.9309 96.3027ZM61.8196 96.2002C61.9361 96.1443 62.0525 96.088 62.1682 96.0303C62.0525 96.088 61.9361 96.1443 61.8196 96.2002ZM39.4299 96.0605C39.5082 96.0994 39.5867 96.1378 39.6653 96.1758C39.5867 96.1378 39.5082 96.0994 39.4299 96.0605ZM62.3899 95.9189C62.4985 95.8634 62.6063 95.8063 62.7141 95.749C62.6063 95.8063 62.4985 95.8634 62.3899 95.9189ZM38.8684 95.7725C38.9454 95.8132 39.0225 95.8536 39.0999 95.8936C39.0225 95.8536 38.9454 95.8132 38.8684 95.7725ZM62.9006 95.6494C63.0147 95.5876 63.1282 95.5246 63.2415 95.4609C63.1282 95.5246 63.0147 95.5876 62.9006 95.6494ZM38.3118 95.4678C38.4077 95.5218 38.5033 95.5762 38.5999 95.6289C38.5033 95.5762 38.4077 95.5218 38.3118 95.4678ZM63.4495 95.3428C63.5823 95.2664 63.7143 95.1884 63.8459 95.1094C63.7143 95.1884 63.5823 95.2664 63.4495 95.3428ZM37.8323 95.1904C37.909 95.236 37.9856 95.2815 38.0627 95.3262C37.9856 95.2815 37.909 95.236 37.8323 95.1904ZM63.9377 95.0547C64.0642 94.978 64.1903 94.9004 64.3157 94.8213C64.1903 94.9004 64.0642 94.978 63.9377 95.0547ZM37.2971 94.8633C37.3736 94.9114 37.4498 94.9597 37.5266 95.0068C37.4498 94.9597 37.3736 94.9114 37.2971 94.8633ZM64.4944 94.708C64.6186 94.6282 64.7414 94.546 64.8645 94.4639C64.7414 94.546 64.6186 94.6282 64.4944 94.708ZM36.7756 94.5264C36.8563 94.58 36.9367 94.634 37.0178 94.6865C36.9367 94.634 36.8563 94.58 36.7756 94.5264ZM161.365 94.4561C161.344 94.2111 161.324 93.9664 161.299 93.7227C161.324 93.9664 161.344 94.2111 161.365 94.4561ZM51.6272 94.3721C51.3504 94.3832 51.0715 94.3914 50.7903 94.3936C51.0715 94.3914 51.3504 94.3832 51.6272 94.3721ZM64.9924 94.3789C65.0946 94.3098 65.1956 94.2387 65.2971 94.168C65.1957 94.2387 65.0946 94.3098 64.9924 94.3789ZM48.8518 94.3037C49.1266 94.3269 49.4035 94.3473 49.6829 94.3613C49.4035 94.3473 49.1266 94.3269 48.8518 94.3037ZM52.8479 94.293C52.5306 94.3218 52.2103 94.3449 51.887 94.3613C52.2103 94.3449 52.5306 94.3218 52.8479 94.293ZM36.1575 94.1025C36.2788 94.1885 36.4002 94.2739 36.5227 94.3574C36.4002 94.2739 36.2788 94.1885 36.1575 94.1025ZM35.7219 93.7871C35.8287 93.8661 35.9356 93.9444 36.0432 94.0215C35.9356 93.9444 35.8287 93.8661 35.7219 93.7871ZM65.5315 94.0059C65.6554 93.9174 65.7778 93.8263 65.9006 93.7354C65.7778 93.8263 65.6554 93.9174 65.5315 94.0059ZM65.9993 93.6631C66.1427 93.5558 66.2851 93.4466 66.427 93.3359C66.2851 93.4466 66.1427 93.5558 65.9993 93.6631ZM35.2102 93.3984C35.3087 93.4751 35.4069 93.5519 35.5061 93.627C35.4069 93.5519 35.3087 93.4752 35.2102 93.3984ZM50.7903 52.7803C45.1016 52.7803 40.4433 54.7134 36.4875 58.707L36.4807 58.7148C32.4695 62.6882 30.5364 67.3407 30.5364 73.04C30.5365 78.5214 32.3494 83.0666 36.1018 86.9746L36.4719 87.3506L36.4739 87.3535L36.8469 87.7188C40.7198 91.4359 45.2645 93.2489 50.7893 93.293C56.4505 93.2478 61.1196 91.308 65.1174 87.3428C69.1133 83.351 71.0441 78.6967 71.0442 73.04C71.0442 67.3456 69.1108 62.687 65.1174 58.7314L65.1135 58.7275C61.1035 54.712 56.4423 52.7803 50.7903 52.7803ZM66.5081 93.2725C66.6073 93.1944 66.7055 93.1149 66.804 93.0352C66.7055 93.1149 66.6073 93.1944 66.5081 93.2725ZM34.678 92.9727C34.7984 93.0716 34.9186 93.1702 35.0403 93.2666C34.9186 93.1702 34.7984 93.0716 34.678 92.9727ZM34.2346 92.6006C34.3405 92.6915 34.4461 92.7822 34.553 92.8711C34.4461 92.7822 34.3405 92.6915 34.2346 92.6006ZM67.011 92.8672C67.1157 92.7807 67.2197 92.6929 67.3235 92.6045C67.2197 92.6929 67.1157 92.7807 67.011 92.8672ZM69.8 90.2148C69.5104 90.5315 69.2121 90.8451 68.9036 91.1533C68.465 91.5879 68.0175 92.0033 67.5618 92.4004C67.8558 92.1442 68.147 91.8811 68.4338 91.6094L68.9036 91.1533C69.2121 90.8451 69.5104 90.5315 69.8 90.2148ZM161.104 92.1348C161.082 91.9826 161.062 91.8304 161.039 91.6787C161.062 91.8304 161.082 91.9826 161.104 92.1348ZM33.5754 92.0186C33.5841 92.0265 33.5931 92.0341 33.6018 92.042C33.4442 91.8981 33.2875 91.752 33.1321 91.6035L33.5754 92.0186ZM160.954 91.1611C160.924 90.9802 160.896 90.7993 160.864 90.6191C160.896 90.7993 160.924 90.9802 160.954 91.1611ZM160.799 90.2822C160.761 90.081 160.724 89.8799 160.683 89.6797C160.724 89.8799 160.761 90.0809 160.799 90.2822ZM69.8674 90.1406C69.9923 90.0031 70.1162 89.8656 70.2375 89.7266C70.1162 89.8656 69.9923 90.0031 69.8674 90.1406ZM64.0676 89.7598C64.1498 89.6933 64.2321 89.6265 64.3137 89.5586C64.2321 89.6265 64.1498 89.6933 64.0676 89.7598ZM70.427 89.5049C70.502 89.4171 70.5771 89.3296 70.6506 89.2412C70.5771 89.3296 70.502 89.4171 70.427 89.5049ZM30.9485 89.2715C30.9884 89.3193 31.0293 89.3664 31.0696 89.4141C31.0293 89.3664 30.9884 89.3193 30.9485 89.2715ZM70.7336 89.1387C70.8378 89.0122 70.9409 88.8855 71.0422 88.7578C70.9409 88.8855 70.8378 89.0122 70.7336 89.1387ZM160.549 89.0537C160.521 88.9264 160.495 88.7988 160.466 88.6719C160.495 88.7988 160.521 88.9264 160.549 89.0537ZM64.9866 88.9756C65.022 88.9437 65.0586 88.913 65.094 88.8809L65.1067 88.8691C65.0671 88.9052 65.0263 88.9399 64.9866 88.9756ZM30.5403 88.7705C30.5915 88.835 30.6436 88.8988 30.6956 88.9629C30.6436 88.8988 30.5915 88.835 30.5403 88.7705ZM71.2327 88.5146C71.2895 88.4413 71.3457 88.3677 71.4016 88.2939C71.3457 88.3677 71.2895 88.4413 71.2327 88.5146ZM30.1506 88.2676C30.2103 88.3465 30.2716 88.4244 30.3323 88.5029C30.2716 88.4244 30.2103 88.3465 30.1506 88.2676ZM160.334 88.124C160.296 87.966 160.258 87.8077 160.218 87.6504C160.258 87.8077 160.296 87.966 160.334 88.124ZM29.8088 87.8047C29.8506 87.8626 29.8935 87.9199 29.9358 87.9775C29.8935 87.9199 29.8506 87.8626 29.8088 87.8047ZM71.6379 87.9775C71.6908 87.9055 71.7432 87.8332 71.7952 87.7607C71.7432 87.8332 71.6908 87.9055 71.6379 87.9775ZM66.8616 87.0947C66.701 87.2745 66.5375 87.4537 66.3694 87.6309C66.5375 87.4537 66.701 87.2745 66.8616 87.0947ZM71.9163 87.5898C71.9913 87.4834 72.0657 87.3768 72.1389 87.2695C72.0657 87.3768 71.9913 87.4834 71.9163 87.5898ZM29.4377 87.2754C29.4835 87.3424 29.5299 87.4089 29.5764 87.4756C29.5299 87.4089 29.4835 87.3424 29.4377 87.2754ZM160.061 87.0645C160.027 86.9387 159.994 86.8128 159.958 86.6875C159.994 86.8128 160.027 86.9387 160.061 87.0645ZM72.3372 86.9746C72.383 86.9054 72.4288 86.8362 72.4739 86.7666C72.4288 86.8362 72.383 86.9054 72.3372 86.9746ZM29.1106 86.7852C29.1463 86.8401 29.1828 86.8945 29.219 86.9492C29.1828 86.8945 29.1463 86.8401 29.1106 86.7852ZM72.6428 86.5C72.6939 86.419 72.7452 86.3383 72.7952 86.2568C72.7452 86.3383 72.6939 86.419 72.6428 86.5ZM28.7629 86.2334C28.8006 86.2948 28.839 86.3558 28.8772 86.417C28.839 86.3558 28.8006 86.2948 28.7629 86.2334ZM159.817 86.2031C159.769 86.0404 159.721 85.8777 159.671 85.7158C159.721 85.8777 159.769 86.0404 159.817 86.2031ZM28.4446 85.7002C28.504 85.8029 28.5652 85.9048 28.6262 86.0068C28.5652 85.9048 28.504 85.8029 28.4446 85.7002ZM72.9768 85.9551C73.0196 85.8831 73.0628 85.8115 73.1047 85.7393C73.0628 85.8115 73.0196 85.8831 72.9768 85.9551ZM73.262 85.4619C73.3177 85.3629 73.3727 85.2637 73.427 85.1641C73.3727 85.2637 73.3177 85.3629 73.262 85.4619ZM28.1604 85.1934C28.2021 85.2695 28.2448 85.3451 28.2874 85.4209C28.2448 85.3451 28.2021 85.2695 28.1604 85.1934ZM159.453 85.0371C159.423 84.9456 159.394 84.8539 159.364 84.7627C159.394 84.8539 159.423 84.9456 159.453 85.0371ZM73.5461 84.9443C73.6027 84.8379 73.6582 84.7311 73.7131 84.624C73.6582 84.7311 73.6027 84.8379 73.5461 84.9443ZM27.8586 84.624C27.9126 84.7293 27.9681 84.8339 28.0237 84.9385C27.9681 84.8339 27.9126 84.7293 27.8586 84.624ZM73.8264 84.4004C73.8773 84.2985 73.9274 84.1963 73.9768 84.0938C73.9274 84.1963 73.8773 84.2985 73.8264 84.4004ZM27.5979 84.0996C27.6444 84.196 27.6917 84.2919 27.7395 84.3877C27.6917 84.2919 27.6444 84.196 27.5979 84.0996ZM63.134 61.2812C63.9904 61.2222 64.8353 61.5057 65.4827 62.0693C66.13 62.6331 66.527 63.4308 66.5862 64.2871C66.6453 65.1435 66.3618 65.9883 65.7981 66.6357L65.7971 66.6367L51.3118 83.2383L51.3088 83.2422C51.0044 83.5881 50.6305 83.8665 50.2112 84.0576C49.7918 84.2487 49.3361 84.3488 48.8752 84.3516H48.8713C48.0916 84.3533 47.3381 84.0707 46.7512 83.5576L38.7122 76.5977C38.3915 76.3198 38.1279 75.981 37.9377 75.6016C37.7474 75.2217 37.6333 74.8075 37.6028 74.3838C37.5724 73.9603 37.6261 73.5348 37.76 73.1318C37.894 72.7287 38.106 72.3554 38.384 72.0342C38.6621 71.713 39.0013 71.4501 39.3811 71.2598C39.7608 71.0695 40.1743 70.9554 40.5979 70.9248C41.0216 70.8943 41.4477 70.9471 41.8508 71.0811C42.2537 71.2149 42.6265 71.4273 42.9475 71.7051L48.554 76.5508L60.9163 62.3838C61.48 61.7368 62.278 61.3404 63.134 61.2812ZM159.175 84.2188C159.125 84.075 159.075 83.9311 159.023 83.7881C159.075 83.9311 159.125 84.075 159.175 84.2188ZM27.3274 83.5186C27.3785 83.6322 27.4307 83.7455 27.4836 83.8584C27.4307 83.7455 27.3785 83.6322 27.3274 83.5186ZM74.0989 83.8369C74.1397 83.7495 74.1802 83.662 74.22 83.5742C74.1802 83.6621 74.1397 83.7495 74.0989 83.8369ZM158.859 83.3506C158.795 83.1822 158.732 83.014 158.666 82.8467C158.732 83.014 158.795 83.1822 158.859 83.3506ZM74.3469 83.2891C74.3922 83.1855 74.4369 83.0817 74.4807 82.9775C74.4369 83.0817 74.3922 83.1855 74.3469 83.2891ZM48.8694 83.252C48.9344 83.2515 48.9992 83.2465 49.0637 83.2402C48.9992 83.2465 48.9344 83.2515 48.8694 83.252ZM27.0862 82.9639C27.1259 83.0585 27.1663 83.1529 27.2073 83.2471C27.1663 83.1529 27.1259 83.0585 27.0862 82.9639ZM49.1438 83.2305C49.1884 83.2245 49.2325 83.2168 49.2766 83.208C49.2325 83.2167 49.1884 83.2245 49.1438 83.2305ZM48.3293 83.1816C48.362 83.1902 48.3949 83.1971 48.428 83.2041C48.3949 83.1971 48.362 83.1902 48.3293 83.1816ZM48.1624 83.1299C48.1889 83.1392 48.2156 83.148 48.2424 83.1562C48.2156 83.148 48.1889 83.1392 48.1624 83.1299ZM47.9954 83.0625C48.02 83.0736 48.0446 83.0846 48.0696 83.0947C48.0446 83.0846 48.02 83.0736 47.9954 83.0625ZM49.7551 83.0566C49.8169 83.0285 49.8762 82.9956 49.9348 82.9619C49.8762 82.9956 49.8169 83.0285 49.7551 83.0566ZM47.8303 82.9785C47.8578 82.994 47.8852 83.0093 47.9133 83.0234C47.8852 83.0092 47.8578 82.994 47.8303 82.9785ZM47.6497 82.8652C47.6855 82.8905 47.7218 82.9146 47.759 82.9375C47.7218 82.9146 47.6855 82.8905 47.6497 82.8652ZM49.9934 82.9268C50.0382 82.8991 50.0817 82.8697 50.1243 82.8389C50.0816 82.8697 50.0382 82.8991 49.9934 82.9268ZM74.5793 82.7373C74.6173 82.6442 74.6539 82.5506 74.6907 82.457C74.6539 82.5506 74.6173 82.6442 74.5793 82.7373ZM26.8792 82.4541C26.9122 82.5383 26.9457 82.6223 26.9797 82.7061C26.9457 82.6223 26.9122 82.5383 26.8792 82.4541ZM158.507 82.4502C158.432 82.2649 158.358 82.0795 158.281 81.8955C158.358 82.0795 158.432 82.2649 158.507 82.4502ZM26.635 81.8047C26.6771 81.9216 26.7201 82.0381 26.7639 82.1543C26.7201 82.0381 26.6771 81.9216 26.635 81.8047ZM74.8186 82.127C74.8511 82.0404 74.8818 81.9532 74.9133 81.8662C74.8818 81.9532 74.8511 82.0404 74.8186 82.127ZM26.4602 81.3008C26.4966 81.4095 26.5336 81.5179 26.5715 81.626C26.5336 81.5179 26.4966 81.4095 26.4602 81.3008ZM75.0002 81.626C75.0387 81.5163 75.0757 81.4062 75.1125 81.2959C75.0757 81.4062 75.0387 81.5163 75.0002 81.626ZM158.102 81.4814C158.033 81.322 157.964 81.1624 157.893 81.0039C157.964 81.1624 158.033 81.3219 158.102 81.4814ZM75.2053 81.0176C75.2395 80.9112 75.2722 80.8043 75.3049 80.6973C75.2722 80.8043 75.2395 80.9112 75.2053 81.0176ZM26.2834 80.751C26.3094 80.835 26.3348 80.9192 26.3616 81.0029C26.3347 80.9192 26.3094 80.835 26.2834 80.751ZM157.7 80.5859C157.62 80.4127 157.541 80.2394 157.458 80.0674C157.541 80.2394 157.62 80.4127 157.7 80.5859ZM26.1067 80.1504C26.1327 80.243 26.1588 80.3355 26.1858 80.4277C26.1588 80.3355 26.1327 80.243 26.1067 80.1504ZM75.386 80.4277C75.4148 80.3295 75.4414 80.2306 75.469 80.1318C75.4414 80.2306 75.4148 80.3295 75.386 80.4277ZM75.5442 79.8594C75.5796 79.7267 75.6135 79.5935 75.6467 79.46C75.6135 79.5935 75.5796 79.7267 75.5442 79.8594ZM25.9446 79.542C25.9681 79.6352 25.9912 79.7285 26.0159 79.8213C25.9912 79.7285 25.9682 79.6352 25.9446 79.542ZM157.24 79.6211C157.174 79.4884 157.109 79.3555 157.042 79.2236C157.109 79.3555 157.174 79.4884 157.24 79.6211ZM25.8088 78.9805C25.8312 79.0783 25.8537 79.176 25.8772 79.2734C25.8537 79.176 25.8312 79.0783 25.8088 78.9805ZM75.6946 79.2666C75.7172 79.1725 75.7385 79.078 75.76 78.9834C75.7385 79.078 75.7172 79.1725 75.6946 79.2666ZM156.754 78.6699C156.694 78.5562 156.635 78.4422 156.574 78.3291C156.635 78.4422 156.694 78.5562 156.754 78.6699ZM75.8333 78.6533C75.8548 78.5523 75.8754 78.4511 75.8958 78.3496C75.8754 78.4511 75.8548 78.5523 75.8333 78.6533ZM25.6702 78.3291C25.6915 78.4357 25.7119 78.5424 25.7346 78.6484C25.7119 78.5424 25.6915 78.4357 25.6702 78.3291ZM25.5432 77.6484C25.5668 77.7859 25.5907 77.923 25.6165 78.0596C25.5907 77.923 25.5668 77.7859 25.5432 77.6484ZM75.9534 78.0596C75.9832 77.9013 76.0114 77.7424 76.0383 77.583C76.0114 77.7424 75.9832 77.9013 75.9534 78.0596ZM156.314 77.8535C156.23 77.702 156.145 77.5508 156.059 77.4004C156.145 77.5508 156.23 77.702 156.314 77.8535ZM76.0549 77.4844C76.0784 77.3419 76.1002 77.199 76.1213 77.0557C76.1002 77.199 76.0784 77.3419 76.0549 77.4844ZM25.4553 77.0996C25.4728 77.2164 25.49 77.333 25.509 77.4492C25.49 77.333 25.4728 77.2164 25.4553 77.0996ZM155.859 77.0557C155.759 76.8847 155.658 76.7143 155.556 76.5449C155.658 76.7143 155.759 76.8847 155.859 77.0557ZM76.1506 76.8535C76.1763 76.6697 76.2001 76.4851 76.2219 76.2998C76.2001 76.4851 76.1763 76.6697 76.1506 76.8535ZM29.6526 76.2822C29.6581 76.3221 29.6654 76.3616 29.6711 76.4014C29.6615 76.3344 29.6509 76.2675 29.6418 76.2002L29.6526 76.2822ZM76.2278 76.249C76.25 76.0574 76.2702 75.8651 76.2883 75.6719C76.2702 75.8651 76.25 76.0574 76.2278 76.249ZM155.294 76.1182C155.219 75.9971 155.144 75.8761 155.068 75.7559C155.144 75.8761 155.219 75.9971 155.294 76.1182ZM29.5325 75.2236C29.5467 75.3816 29.5619 75.5389 29.5793 75.6953C29.5601 75.5224 29.5439 75.3485 29.5286 75.1738L29.5325 75.2236ZM76.2942 75.6113C76.311 75.4281 76.3259 75.2442 76.3391 75.0596C76.3259 75.2442 76.311 75.4281 76.2942 75.6113ZM72.0237 75.457C72.0331 75.3629 72.0427 75.2685 72.051 75.1738C72.0427 75.2685 72.0331 75.3629 72.0237 75.457ZM154.724 75.2236C154.664 75.1323 154.604 75.041 154.543 74.9502C154.604 75.041 154.664 75.1323 154.724 75.2236ZM29.4905 74.6865C29.5012 74.8465 29.5137 75.0056 29.5276 75.1641C29.5127 74.9944 29.4997 74.8238 29.4885 74.6523L29.4905 74.6865ZM76.345 74.9775C76.3582 74.7836 76.3689 74.589 76.3782 74.3936C76.3689 74.589 76.3582 74.7836 76.345 74.9775ZM72.0735 74.8848C72.0793 74.8081 72.086 74.7313 72.0911 74.6543C72.086 74.7313 72.0793 74.8081 72.0735 74.8848ZM154.184 74.4229C154.116 74.3238 154.048 74.2244 153.979 74.126C154.048 74.2244 154.116 74.3238 154.184 74.4229ZM72.1047 74.4092C72.1096 74.3208 72.1165 74.2324 72.1204 74.1436V74.126C72.1163 74.2207 72.1099 74.315 72.1047 74.4092ZM76.3821 74.332C76.3916 74.1197 76.3997 73.9065 76.4045 73.6924V73.6914C76.3997 73.9059 76.3917 74.1194 76.3821 74.332ZM38.6965 74.126C38.6958 74.1857 38.6961 74.2459 38.7004 74.3057C38.6961 74.2459 38.6958 74.1857 38.6965 74.126ZM38.7092 73.917C38.7044 73.9608 38.7006 74.0047 38.6985 74.0488C38.7006 74.0047 38.7044 73.9608 38.7092 73.917ZM29.4358 73.0391C29.4358 73.3377 29.443 73.6342 29.4534 73.9277C29.4495 73.8171 29.4451 73.7061 29.4426 73.5947L29.4358 73.0391ZM38.8713 73.3037C38.8466 73.3609 38.8237 73.4192 38.804 73.4785L38.7473 73.6807C38.7332 73.7433 38.7225 73.8066 38.7141 73.8701C38.7318 73.7374 38.7615 73.6062 38.804 73.4785C38.8237 73.4192 38.8466 73.3609 38.8713 73.3037ZM153.65 73.665C153.552 73.5303 153.454 73.3962 153.355 73.2627C153.454 73.3962 153.552 73.5303 153.65 73.665ZM38.9641 73.1162C38.9397 73.1603 38.917 73.2052 38.8958 73.251C38.917 73.2053 38.9397 73.1603 38.9641 73.1162ZM39.3528 72.6104C39.3051 72.6561 39.2594 72.7039 39.2161 72.7539L39.0862 72.9189C39.0481 72.9728 39.0135 73.0289 38.9807 73.0859C39.0484 72.9685 39.1269 72.8569 39.2161 72.7539C39.2594 72.7038 39.3051 72.656 39.3528 72.6104ZM153.093 72.9141C152.987 72.7741 152.88 72.6346 152.773 72.4961C152.88 72.6346 152.987 72.7741 153.093 72.9141ZM39.4895 72.4912C39.4511 72.5223 39.4134 72.5542 39.3772 72.5879C39.4134 72.5542 39.4511 72.5222 39.4895 72.4912ZM42.2288 72.5371C42.1785 72.4936 42.1255 72.4536 42.0715 72.415C42.1254 72.4536 42.1785 72.4936 42.2288 72.5371ZM40.0461 72.166C39.9878 72.1891 39.9305 72.215 39.8743 72.2432L39.6907 72.3457C39.6392 72.3782 39.5897 72.4135 39.5413 72.4502C39.6454 72.3713 39.7569 72.302 39.8743 72.2432C39.9305 72.215 39.9878 72.1891 40.0461 72.166ZM42.0432 72.3955C42.0018 72.3669 41.9595 72.34 41.9163 72.3145C41.9595 72.34 42.0018 72.3669 42.0432 72.3955ZM40.2366 72.1016C40.1902 72.115 40.1443 72.1299 40.0989 72.1465C40.1443 72.1299 40.1902 72.115 40.2366 72.1016ZM152.463 72.1035C152.349 71.9609 152.235 71.8189 152.119 71.6777C152.235 71.8189 152.349 71.9609 152.463 72.1035ZM40.3157 72.0791C40.3039 72.082 40.2923 72.0857 40.2805 72.0889C40.3427 72.0723 40.4055 72.0578 40.469 72.0469L40.3157 72.0791ZM76.3655 71.4336C76.3594 71.3246 76.3542 71.2159 76.3469 71.1074C76.3542 71.2159 76.3594 71.3246 76.3655 71.4336ZM151.867 71.373C151.749 71.2313 151.63 71.0903 151.51 70.9502C151.63 71.0903 151.749 71.2313 151.867 71.373ZM151.171 70.5605C151.068 70.443 150.963 70.3264 150.859 70.21C150.963 70.3264 151.068 70.443 151.171 70.5605ZM29.5862 70.3076C29.5839 70.3281 29.5816 70.3486 29.5793 70.3691C29.5976 70.2045 29.6182 70.0408 29.6399 69.8779L29.5862 70.3076ZM25.3381 69.8242C25.3255 69.9342 25.3153 70.0447 25.304 70.1553C25.3153 70.0447 25.3255 69.9342 25.3381 69.8242ZM76.2649 70.1553C76.2536 70.0447 76.2424 69.9343 76.2297 69.8242C76.2424 69.9343 76.2536 70.0447 76.2649 70.1553ZM150.558 69.8779C150.425 69.7331 150.291 69.5893 150.156 69.4463C150.291 69.5893 150.425 69.7331 150.558 69.8779ZM29.6848 69.5645C29.6703 69.6628 29.6551 69.7613 29.6418 69.8604C29.6551 69.7613 29.6703 69.6628 29.6848 69.5645ZM76.1848 69.46C76.1757 69.3896 76.1671 69.3192 76.1575 69.249C76.1671 69.3192 76.1757 69.3896 76.1848 69.46ZM149.861 69.1367C149.746 69.0184 149.631 68.9011 149.516 68.7842C149.631 68.9011 149.746 69.0184 149.861 69.1367ZM25.51 68.5889C25.4948 68.6817 25.4812 68.7749 25.467 68.8682C25.4812 68.7749 25.4948 68.6817 25.51 68.5889ZM76.1018 68.8682C76.0876 68.7749 76.0731 68.6818 76.0579 68.5889C76.073 68.6818 76.0876 68.7749 76.1018 68.8682ZM149.163 68.4307C149.028 68.2971 148.892 68.1649 148.755 68.0332C148.892 68.1649 149.028 68.2971 149.163 68.4307ZM25.6165 67.9814C25.595 68.0953 25.5759 68.2097 25.5559 68.3242C25.5759 68.2097 25.595 68.0953 25.6165 67.9814ZM76.0129 68.3242C75.993 68.2097 75.9729 68.0954 75.9514 67.9814C75.9729 68.0954 75.993 68.2097 76.0129 68.3242ZM148.472 67.7627C148.327 67.6256 148.181 67.4895 148.033 67.3545C148.181 67.4895 148.327 67.6256 148.472 67.7627ZM25.7317 67.4102C25.7198 67.466 25.709 67.5221 25.6975 67.5781C25.709 67.5221 25.7198 67.466 25.7317 67.4102ZM75.8713 67.5781C75.8595 67.5204 75.8474 67.4628 75.8352 67.4053C75.8474 67.4628 75.8595 67.5204 75.8713 67.5781ZM75.7668 67.0947C75.7413 66.9818 75.7157 66.8691 75.6887 66.7568C75.7157 66.8691 75.7413 66.9818 75.7668 67.0947ZM147.746 67.0938C147.607 66.9681 147.467 66.8435 147.325 66.7197C147.467 66.8435 147.607 66.9681 147.746 67.0938ZM26.0227 66.1914C26.0009 66.2735 25.9802 66.356 25.9592 66.4385C25.9802 66.356 26.0009 66.2735 26.0227 66.1914ZM75.6096 66.4385C75.5886 66.3559 75.567 66.2736 75.5452 66.1914C75.567 66.2736 75.5886 66.3559 75.6096 66.4385ZM146.963 66.4053C146.838 66.298 146.712 66.1918 146.585 66.0859C146.712 66.1918 146.838 66.298 146.963 66.4053ZM64.969 65.9141C65.011 65.8658 65.0499 65.8151 65.0872 65.7637C65.0499 65.8151 65.011 65.8658 64.969 65.9141ZM26.1936 65.584C26.1663 65.6768 26.1397 65.77 26.1135 65.8633C26.1397 65.77 26.1663 65.6768 26.1936 65.584ZM75.4553 65.8633C75.4291 65.77 75.4025 65.6768 75.3752 65.584C75.4025 65.6768 75.4291 65.77 75.4553 65.8633ZM146.189 65.7578C146.074 65.664 145.958 65.5711 145.842 65.4785C145.958 65.5711 146.074 65.664 146.189 65.7578ZM65.1428 65.6807C65.1637 65.6488 65.1843 65.6168 65.2034 65.584C65.1843 65.6168 65.1637 65.6488 65.1428 65.6807ZM65.2307 65.5312C65.2518 65.4925 65.2726 65.4539 65.2913 65.4141C65.2726 65.4539 65.2518 65.4925 65.2307 65.5312ZM65.3206 65.3467C65.3396 65.3021 65.3583 65.2576 65.3743 65.2119C65.3584 65.2576 65.3395 65.3021 65.3206 65.3467ZM26.3616 65.0342C26.3348 65.1179 26.3093 65.2021 26.2834 65.2861C26.3093 65.202 26.3348 65.1179 26.3616 65.0342ZM75.2854 65.2861C75.2603 65.2046 75.2352 65.1232 75.2092 65.042C75.2352 65.1232 75.2603 65.2046 75.2854 65.2861ZM65.3889 65.166C65.4056 65.1144 65.4211 65.0625 65.4338 65.0098C65.4211 65.0625 65.4056 65.1144 65.3889 65.166ZM145.437 65.1582C145.302 65.0532 145.166 64.95 145.03 64.8467C145.166 64.95 145.302 65.0532 145.437 65.1582ZM65.4417 64.9756C65.4544 64.9188 65.4649 64.8615 65.4729 64.8037C65.4649 64.8615 65.4543 64.9188 65.4417 64.9756ZM75.0901 64.6797C75.0609 64.5932 75.0313 64.507 75.0012 64.4209C75.0313 64.507 75.0609 64.5932 75.0901 64.6797ZM26.5667 64.4229C26.5369 64.5079 26.5076 64.5932 26.4788 64.6787C26.5076 64.5932 26.5369 64.5079 26.5667 64.4229ZM144.643 64.5557C144.521 64.4657 144.399 64.3768 144.277 64.2881C144.399 64.3768 144.521 64.4657 144.643 64.5557ZM65.4895 64.3633C65.485 64.2976 65.4756 64.2325 65.4651 64.168C65.4756 64.2325 65.485 64.2976 65.4895 64.3633ZM74.9133 64.1748C74.8768 64.074 74.8399 63.9733 74.802 63.873C74.8399 63.9733 74.8768 64.074 74.9133 64.1748ZM26.7717 63.8604C26.7324 63.9643 26.6934 64.0683 26.6555 64.1729C26.6934 64.0683 26.7324 63.9643 26.7717 63.8604ZM65.4495 64.0859C65.4421 64.0495 65.4343 64.0134 65.425 63.9775C65.4343 64.0134 65.4421 64.0495 65.4495 64.0859ZM143.832 63.9697C143.704 63.8796 143.576 63.7908 143.447 63.7021C143.576 63.7908 143.704 63.8796 143.832 63.9697ZM65.3948 63.873C65.3856 63.8438 65.3759 63.8149 65.3655 63.7861C65.3759 63.8149 65.3856 63.8438 65.3948 63.873ZM65.3362 63.71C65.3206 63.6714 65.3042 63.6333 65.2864 63.5957C65.3042 63.6333 65.3206 63.6714 65.3362 63.71ZM26.9846 63.3184C26.9483 63.4078 26.9115 63.497 26.8762 63.5869C26.9115 63.497 26.9483 63.4078 26.9846 63.3184ZM74.6877 63.5771C74.6507 63.4829 74.6136 63.3887 74.5754 63.2949C74.6136 63.3887 74.6507 63.4829 74.6877 63.5771ZM65.2542 63.5293C65.233 63.4885 65.2105 63.4486 65.1868 63.4092C65.2105 63.4486 65.233 63.4885 65.2542 63.5293ZM143.031 63.4189C142.89 63.3241 142.747 63.2308 142.605 63.1377C142.747 63.2308 142.89 63.3241 143.031 63.4189ZM65.1584 63.3623C65.1316 63.3201 65.1024 63.2795 65.0725 63.2393C65.1024 63.2795 65.1316 63.3201 65.1584 63.3623ZM65.0393 63.1934C65.0133 63.1601 64.9853 63.1284 64.9573 63.0967C64.9853 63.1284 65.0133 63.1601 65.0393 63.1934ZM74.4622 63.0234C74.4214 62.9268 74.3802 62.8304 74.3381 62.7344C74.3802 62.8304 74.4214 62.9268 74.4622 63.0234ZM27.2092 62.7832C27.1812 62.8475 27.1536 62.912 27.1262 62.9766C27.1536 62.912 27.1812 62.8475 27.2092 62.7832ZM62.0344 62.833C62.008 62.8539 61.9828 62.8763 61.9573 62.8984C61.9828 62.8763 62.008 62.8539 62.0344 62.833ZM142.21 62.8828C142.051 62.7815 141.89 62.6822 141.73 62.583C141.89 62.6822 142.051 62.7815 142.21 62.8828ZM62.1926 62.7197C62.1595 62.7413 62.1269 62.7637 62.095 62.7871C62.1269 62.7637 62.1595 62.7413 62.1926 62.7197ZM62.3684 62.6172C62.3313 62.6366 62.295 62.6572 62.259 62.6787C62.295 62.6572 62.3313 62.6366 62.3684 62.6172ZM62.5569 62.5303C62.5167 62.5465 62.4768 62.5634 62.4377 62.582C62.4768 62.5634 62.5167 62.5465 62.5569 62.5303ZM62.7629 62.458C62.7118 62.4728 62.6613 62.4893 62.6116 62.5078C62.6613 62.4893 62.7118 62.4728 62.7629 62.458ZM74.2356 62.5029C74.1883 62.398 74.1398 62.2937 74.0911 62.1895C74.1398 62.2937 74.1883 62.398 74.2356 62.5029ZM62.9993 62.4033C62.9327 62.4146 62.8668 62.4288 62.802 62.4463C62.9345 62.4107 63.0714 62.3875 63.2102 62.3779L62.9993 62.4033ZM27.4905 62.1621C27.4474 62.2537 27.4044 62.3454 27.3625 62.4375C27.4044 62.3453 27.4474 62.2537 27.4905 62.1621ZM141.365 62.3594C141.189 62.2533 141.012 62.1494 140.834 62.0459C141.012 62.1494 141.189 62.2533 141.365 62.3594ZM73.9709 61.9365C73.9229 61.837 73.8748 61.7376 73.8254 61.6387C73.8748 61.7376 73.9229 61.837 73.9709 61.9365ZM27.7366 61.6533C27.6912 61.7443 27.646 61.8353 27.6018 61.9268C27.646 61.8353 27.6912 61.7443 27.7366 61.6533ZM140.526 61.8662C140.356 61.769 140.184 61.674 140.013 61.5791C140.184 61.674 140.356 61.769 140.526 61.8662ZM73.7102 61.4111C73.6436 61.2814 73.5761 61.1521 73.5071 61.0234C73.5761 61.1521 73.6436 61.2814 73.7102 61.4111ZM139.624 61.3652C139.471 61.2825 139.316 61.202 139.161 61.1211C139.316 61.202 139.471 61.2825 139.624 61.3652ZM138.737 60.9004C138.561 60.8111 138.384 60.7245 138.207 60.6377C138.384 60.7245 138.561 60.8112 138.737 60.9004ZM73.428 60.877C73.3624 60.7566 73.2955 60.6369 73.2278 60.5176C73.2955 60.6369 73.3624 60.7566 73.428 60.877ZM28.2903 60.6074C28.2512 60.6769 28.2124 60.7466 28.1741 60.8164C28.2124 60.7466 28.2512 60.6769 28.2903 60.6074ZM137.875 60.4746C137.687 60.3842 137.497 60.2966 137.307 60.209C137.497 60.2966 137.687 60.3842 137.875 60.4746ZM73.136 60.3574C73.0642 60.2332 72.9914 60.1095 72.9172 59.9863C72.9913 60.1095 73.0642 60.2332 73.136 60.3574ZM28.6077 60.0615C28.5601 60.1412 28.5126 60.2207 28.4661 60.3008C28.5126 60.2207 28.5601 60.1412 28.6077 60.0615ZM136.957 60.0479C136.785 59.9703 136.611 59.8955 136.438 59.8203C136.611 59.8955 136.785 59.9703 136.957 60.0479ZM72.8167 59.8193C72.7412 59.6963 72.6639 59.5742 72.5862 59.4521C72.6639 59.5742 72.7412 59.6963 72.8167 59.8193ZM136.014 59.6377C135.854 59.5707 135.694 59.5065 135.533 59.4414C135.694 59.5065 135.854 59.5707 136.014 59.6377ZM72.4895 59.3008C72.4113 59.1801 72.3317 59.0601 72.2512 58.9404C72.3317 59.0601 72.4113 59.1801 72.4895 59.3008ZM29.2239 59.0811C29.1812 59.1454 29.1389 59.2098 29.0969 59.2744C29.1389 59.2098 29.1812 59.1454 29.2239 59.0811ZM135.097 59.2646C134.934 59.2006 134.769 59.1392 134.605 59.0771C134.769 59.1392 134.934 59.2006 135.097 59.2646ZM134.125 58.8975C134.001 58.8525 133.877 58.8105 133.752 58.7666C133.877 58.8105 134.001 58.8525 134.125 58.8975ZM72.1155 58.7393C72.0693 58.6721 72.0217 58.6059 71.9749 58.5391C72.0217 58.6059 72.0693 58.6721 72.1155 58.7393ZM133.165 58.5625C133.037 58.5194 132.908 58.4784 132.779 58.4365C132.908 58.4784 133.037 58.5194 133.165 58.5625ZM71.7786 58.2617C71.707 58.1625 71.634 58.0642 71.5608 57.9658C71.634 58.0642 71.707 58.1625 71.7786 58.2617ZM132.22 58.2568C132.034 58.1992 131.846 58.1449 131.658 58.0898C131.846 58.1449 132.034 58.1992 132.22 58.2568ZM131.281 57.9785C131.063 57.917 130.845 57.8588 130.626 57.8008C130.845 57.8588 131.063 57.917 131.281 57.9785ZM65.2219 57.3057C65.4467 57.5148 65.6711 57.7282 65.8918 57.9492C65.6711 57.7282 65.4467 57.5148 65.2219 57.3057ZM71.425 57.7832C71.3407 57.6719 71.2547 57.5615 71.1682 57.4512C71.2547 57.5615 71.3407 57.6719 71.425 57.7832ZM130.29 57.7109C130.064 57.6528 129.836 57.5993 129.608 57.5449C129.836 57.5993 130.064 57.6528 130.29 57.7109ZM129.298 57.4697C129.022 57.4061 128.744 57.3471 128.466 57.2891C128.744 57.3471 129.022 57.4061 129.298 57.4697ZM71.0334 57.2783C70.9581 57.1839 70.8808 57.0908 70.804 56.9971C70.8808 57.0908 70.9581 57.1839 71.0334 57.2783ZM128.321 57.2578C128.11 57.2147 127.899 57.1747 127.687 57.1348C127.899 57.1747 128.11 57.2147 128.321 57.2578ZM65.1077 57.1982C64.9904 57.0905 64.8725 56.9844 64.7542 56.8799C64.8725 56.9844 64.9904 57.0905 65.1077 57.1982ZM127.253 57.0537C127.074 57.0219 126.894 56.9934 126.714 56.9639C126.894 56.9934 127.074 57.0219 127.253 57.0537ZM126.266 56.8906C126.085 56.863 125.903 56.8388 125.721 56.8135C125.903 56.8388 126.085 56.863 126.266 56.8906ZM122.188 56.4736C122.609 56.4959 123.029 56.5258 123.448 56.5605C123.029 56.5258 122.609 56.4959 122.188 56.4736ZM70.2307 56.3193C70.0965 56.1663 69.9601 56.0143 69.8215 55.8633C69.9601 56.0143 70.0965 56.1663 70.2307 56.3193ZM67.0168 53.1855C67.2761 53.4014 67.5315 53.6247 67.7854 53.8525C67.5315 53.6247 67.2761 53.4014 67.0168 53.1855ZM66.1584 52.501C66.1221 52.4732 66.0865 52.4446 66.05 52.417C66.0865 52.4446 66.1221 52.4732 66.1584 52.501ZM65.677 52.1416C65.632 52.1088 65.5874 52.0755 65.5422 52.043C65.5874 52.0755 65.632 52.1088 65.677 52.1416ZM65.2854 51.8623C65.1959 51.7995 65.1069 51.7362 65.0168 51.6748C65.1069 51.7363 65.1959 51.7995 65.2854 51.8623ZM51.9231 51.7051C52.1981 51.7175 52.4708 51.7361 52.7415 51.7578C52.4708 51.7361 52.1981 51.7175 51.9231 51.7051ZM51.345 51.6865C51.4694 51.6892 51.5935 51.6927 51.717 51.6973C51.5935 51.6927 51.4694 51.6883 51.345 51.6855L50.7903 51.6797L51.345 51.6865ZM64.7854 51.5195C64.6967 51.4605 64.608 51.4016 64.5188 51.3438C64.608 51.4016 64.6967 51.4605 64.7854 51.5195ZM64.2336 51.1631C64.151 51.1111 64.0687 51.0587 63.9856 51.0078C64.0687 51.0587 64.151 51.1111 64.2336 51.1631ZM63.762 50.873C63.6635 50.8142 63.5651 50.7556 63.4661 50.6982C63.5651 50.7556 63.6635 50.8142 63.762 50.873ZM63.2102 50.5527C63.1154 50.4994 63.0204 50.4466 62.925 50.3945C63.0204 50.4466 63.1154 50.4993 63.2102 50.5527ZM62.7014 50.2744C62.5966 50.2186 62.4915 50.1635 62.386 50.1094C62.4915 50.1636 62.5966 50.2186 62.7014 50.2744ZM92.1819 17.4219C97.7788 17.422 101.463 21.7643 101.463 26.7031V44.2939L100.536 44.4424C100.536 44.4425 100.534 44.4429 100.531 44.4434C100.525 44.4445 100.513 44.4465 100.497 44.4492C100.466 44.4548 100.415 44.4635 100.349 44.4766C100.215 44.503 100.012 44.5457 99.7483 44.6084C99.3527 44.7026 98.8214 44.8426 98.1829 45.041L97.509 45.2598C96.38 45.6412 95.6135 46.1423 95.1418 46.5293C94.9055 46.7233 94.7417 46.8903 94.6428 47C94.5934 47.0548 94.5601 47.0956 94.5422 47.1182C94.5366 47.1252 94.5321 47.1304 94.5295 47.1338L92.5305 50.0059V26.3535H78.5647V17.4219H92.1819ZM62.137 49.9834C62.0466 49.9383 61.9563 49.8935 61.8655 49.8496C61.9563 49.8935 62.0466 49.9383 62.137 49.9834ZM61.5667 49.708C61.4942 49.6742 61.4217 49.6405 61.3489 49.6074C61.4217 49.6405 61.4942 49.6742 61.5667 49.708ZM60.9641 49.4365C60.9145 49.415 60.8645 49.3942 60.8147 49.373C60.8645 49.3942 60.9145 49.415 60.9641 49.4365ZM60.4641 49.2266C60.3775 49.1913 60.2904 49.1572 60.2034 49.123C60.2904 49.1573 60.3775 49.1913 60.4641 49.2266ZM59.887 49.001C59.8165 48.9744 59.7458 48.9487 59.675 48.9229C59.7458 48.9487 59.8165 48.9744 59.887 49.001ZM59.3333 48.7998C59.2469 48.7697 59.1603 48.7401 59.0735 48.7109C59.1603 48.7401 59.2469 48.7697 59.3333 48.7998ZM58.7385 48.6006C58.6723 48.5794 58.6057 48.5597 58.5393 48.5391C58.6057 48.5597 58.6723 48.5794 58.7385 48.6006ZM58.1829 48.4297C58.0888 48.4021 57.9942 48.3761 57.8997 48.3496C57.9942 48.3761 58.0888 48.4021 58.1829 48.4297ZM57.594 48.2656C57.5184 48.2455 57.4424 48.2265 57.3665 48.207C57.4424 48.2265 57.5184 48.2455 57.594 48.2656ZM56.9758 48.1094C56.917 48.0953 56.858 48.082 56.7991 48.0684C56.858 48.082 56.917 48.0953 56.9758 48.1094ZM56.3997 47.9785C56.3124 47.9599 56.2246 47.9435 56.137 47.9258C56.2246 47.9435 56.3124 47.9599 56.3997 47.9785ZM55.8079 47.8604C55.7263 47.845 55.6446 47.8301 55.5627 47.8154C55.6446 47.8301 55.7263 47.845 55.8079 47.8604ZM55.1838 47.75C55.1078 47.7376 55.0316 47.7266 54.9553 47.7148C55.0316 47.7266 55.1078 47.7376 55.1838 47.75ZM54.5901 47.6592C54.4969 47.6462 54.4034 47.6351 54.3098 47.623C54.4034 47.6351 54.4969 47.6462 54.5901 47.6592ZM52.7229 47.4668C52.5604 47.4557 52.3973 47.4468 52.2336 47.4385C52.3973 47.4468 52.5604 47.4557 52.7229 47.4668ZM98.4348 43.8174C98.4479 43.8136 98.461 43.8103 98.4739 43.8066L98.4836 43.8037C98.4675 43.8083 98.4512 43.8127 98.4348 43.8174ZM99.9319 43.4414C99.7405 43.4821 99.4889 43.5381 99.1848 43.6152C99.4889 43.5381 99.7405 43.4821 99.9319 43.4414ZM50.7063 0.900391C58.5966 0.90057 65.7862 6.03434 68.0618 13.251H68.8196C73.1586 13.251 76.594 16.8029 76.594 21.1123V30.8789C76.594 34.2458 74.047 36.1494 71.4036 36.1494H30.093C27.0803 36.1491 24.8235 33.9071 24.8235 30.8789V21.1123C24.8235 16.7858 28.356 13.2511 32.678 13.251H33.3557C35.6263 6.03395 42.8165 0.900495 50.7063 0.900391ZM29.6604 35.0293C29.7295 35.0355 29.7991 35.0407 29.8694 35.0439L30.094 35.0498C29.947 35.0498 29.8023 35.0421 29.6604 35.0293ZM71.7356 35.0361C71.7532 35.0348 71.7708 35.0337 71.7883 35.0322C71.7708 35.0337 71.7532 35.0348 71.7356 35.0361ZM29.4407 35.0039C29.4882 35.0105 29.5361 35.0163 29.5842 35.0215C29.536 35.0163 29.4882 35.0105 29.4407 35.0039ZM29.2493 34.9736C29.2932 34.9817 29.3375 34.9883 29.3821 34.9951C29.3375 34.9883 29.2932 34.9817 29.2493 34.9736ZM72.1194 34.9902C72.1357 34.9876 72.152 34.9853 72.1682 34.9824C72.152 34.9853 72.1357 34.9876 72.1194 34.9902ZM72.2678 34.9629C72.3004 34.9564 72.3331 34.9506 72.3655 34.9434C72.3331 34.9506 72.3004 34.9564 72.2678 34.9629ZM29.0481 34.9307C29.0724 34.9363 29.0968 34.942 29.1213 34.9473C29.0968 34.942 29.0724 34.9363 29.0481 34.9307ZM72.4202 34.9297C72.4659 34.9189 72.5117 34.9088 72.5569 34.8965C72.5117 34.9088 72.4659 34.9189 72.4202 34.9297ZM72.6028 34.8828C72.6452 34.8708 72.6877 34.859 72.7297 34.8457C72.6877 34.859 72.6452 34.8708 72.6028 34.8828ZM72.8372 34.8096C72.8617 34.801 72.8861 34.7922 72.9104 34.7832C72.8861 34.7922 72.8617 34.801 72.8372 34.8096ZM28.4934 34.7627C28.5052 34.7672 28.5168 34.772 28.5286 34.7764C28.5168 34.772 28.5052 34.7672 28.4934 34.7627ZM73.0051 34.7461C73.0293 34.7365 73.0534 34.7268 73.0774 34.7168C73.0534 34.7268 73.0293 34.7365 73.0051 34.7461ZM73.179 34.6729C73.2078 34.6599 73.2364 34.6465 73.2649 34.6328C73.2364 34.6465 73.2078 34.6599 73.179 34.6729ZM28.1145 34.5957C28.1411 34.6091 28.1676 34.6229 28.1946 34.6357C28.1676 34.6229 28.1411 34.6091 28.1145 34.5957ZM73.3352 34.5986C73.3657 34.5833 73.396 34.5678 73.426 34.5518C73.396 34.5678 73.3657 34.5833 73.3352 34.5986ZM27.9622 34.5146C27.9784 34.5237 27.9945 34.5331 28.011 34.542C27.9945 34.5331 27.9784 34.5237 27.9622 34.5146ZM73.5217 34.498C73.5433 34.4857 73.5649 34.4736 73.5862 34.4609C73.5649 34.4736 73.5433 34.4857 73.5217 34.498ZM27.7913 34.415C27.8116 34.4277 27.8322 34.4398 27.8528 34.4521C27.8322 34.4398 27.8116 34.4277 27.7913 34.415ZM73.6819 34.4014C73.7054 34.3864 73.729 34.3719 73.7522 34.3564C73.729 34.3719 73.7054 34.3864 73.6819 34.4014ZM73.8284 34.3037C73.8618 34.2803 73.8953 34.2569 73.928 34.2324C73.8953 34.2569 73.8618 34.2803 73.8284 34.3037ZM27.4739 34.1934C27.4948 34.2096 27.516 34.2254 27.5374 34.2412C27.516 34.2254 27.4948 34.2096 27.4739 34.1934ZM73.9739 34.1963C74.0072 34.1705 74.0409 34.1451 74.0735 34.1182C74.0409 34.1451 74.0072 34.1705 73.9739 34.1963ZM74.1301 34.0693C74.16 34.0436 74.1889 34.0169 74.218 33.9902C74.1889 34.0169 74.16 34.0436 74.1301 34.0693ZM74.2561 33.9551C74.2899 33.9232 74.323 33.8906 74.3557 33.8574C74.323 33.8906 74.2899 33.9232 74.2561 33.9551ZM74.4026 33.8096C74.4249 33.7861 74.4472 33.7624 74.469 33.7383C74.4472 33.7624 74.4249 33.7861 74.4026 33.8096ZM74.5442 33.6514C74.563 33.6292 74.5815 33.6067 74.5999 33.584C74.5815 33.6067 74.563 33.6292 74.5442 33.6514ZM74.6594 33.5088C74.681 33.4807 74.703 33.4527 74.7239 33.4238C74.703 33.4527 74.681 33.4807 74.6594 33.5088ZM26.6204 33.2803C26.6389 33.3081 26.6587 33.335 26.678 33.3623C26.6587 33.335 26.6389 33.3081 26.6204 33.2803ZM74.7834 33.3389C74.7949 33.322 74.8064 33.3052 74.8176 33.2881C74.8064 33.3052 74.7949 33.322 74.7834 33.3389ZM26.512 33.1074C26.5324 33.1418 26.554 33.1754 26.5754 33.209C26.554 33.1754 26.5324 33.1418 26.512 33.1074ZM74.8909 33.1719C74.9016 33.1542 74.9116 33.1361 74.9221 33.1182C74.9116 33.1361 74.9016 33.1542 74.8909 33.1719ZM26.4172 32.9395C26.4402 32.9827 26.4641 33.0252 26.4885 33.0674C26.4641 33.0252 26.4402 32.9827 26.4172 32.9395ZM74.9866 33.0059C75.0023 32.9769 75.0174 32.9475 75.0325 32.918C75.0174 32.9475 75.0023 32.9769 74.9866 33.0059ZM26.3372 32.7793C26.3492 32.8046 26.3618 32.8295 26.3743 32.8545C26.3618 32.8295 26.3492 32.8046 26.3372 32.7793ZM75.0764 32.8301C75.0911 32.7994 75.1054 32.7685 75.1194 32.7373C75.1054 32.7685 75.0911 32.7994 75.0764 32.8301ZM26.2512 32.5859C26.2651 32.6194 26.2795 32.6526 26.2942 32.6855C26.2795 32.6526 26.2651 32.6194 26.2512 32.5859ZM75.1624 32.6367C75.1748 32.6067 75.1867 32.5764 75.1985 32.5459C75.1867 32.5764 75.1748 32.6067 75.1624 32.6367ZM26.1799 32.4014C26.195 32.4434 26.2105 32.4851 26.2268 32.5264C26.2105 32.4851 26.195 32.4434 26.1799 32.4014ZM75.2346 32.4492C75.2472 32.4141 75.2591 32.3786 75.2708 32.3428C75.2591 32.3786 75.2472 32.4141 75.2346 32.4492ZM26.1194 32.2197C26.13 32.2542 26.1412 32.2883 26.1526 32.3223C26.1412 32.2883 26.13 32.2542 26.1194 32.2197ZM75.303 32.2412C75.3119 32.2115 75.3201 32.1815 75.3284 32.1514C75.3201 32.1815 75.3119 32.2115 75.303 32.2412ZM26.0647 32.0215C26.0739 32.0575 26.083 32.0934 26.093 32.1289C26.083 32.0934 26.0739 32.0575 26.0647 32.0215ZM75.3596 32.0322C75.3696 31.9913 75.379 31.9499 75.3879 31.9082C75.379 31.9499 75.3696 31.9913 75.3596 32.0322ZM25.9963 31.7129C25.9981 31.7227 26.0004 31.7324 26.0022 31.7422C25.9898 31.6758 25.9785 31.6088 25.969 31.541L25.9963 31.7129ZM51.3293 26.7568C51.1236 26.7721 50.916 26.7832 50.7063 26.7832L51.1321 26.7725C51.1981 26.7691 51.2637 26.7617 51.3293 26.7568ZM100.309 25.75C100.299 25.6641 100.29 25.5784 100.279 25.4932C100.29 25.5784 100.299 25.6641 100.309 25.75ZM50.7063 11.3613C46.7386 11.3615 43.5454 14.5538 43.5452 18.5215V18.5244C43.5432 19.4649 43.7272 20.3964 44.0862 21.2656C44.4452 22.135 44.9719 22.9257 45.637 23.5908C46.302 24.2559 47.0928 24.7825 47.9622 25.1416C48.8314 25.5005 49.763 25.6845 50.7034 25.6826H50.7063L51.0754 25.6738C54.8702 25.4828 57.8665 22.3655 57.8665 18.5215C57.8663 14.5538 54.6739 11.3615 50.7063 11.3613ZM100.258 25.3691C100.245 25.2865 100.233 25.204 100.218 25.1221C100.233 25.204 100.245 25.2865 100.258 25.3691ZM100.173 24.9004C100.16 24.8407 100.149 24.7809 100.135 24.7217C100.149 24.7809 100.16 24.8407 100.173 24.9004ZM100.095 24.5674C100.078 24.5008 100.062 24.4342 100.043 24.3682C100.062 24.4342 100.078 24.5008 100.095 24.5674ZM99.9573 24.0811C99.9492 24.0556 99.9412 24.0302 99.9329 24.0049C99.9412 24.0302 99.9492 24.0556 99.9573 24.0811ZM99.8518 23.7744C99.8341 23.7255 99.8167 23.6764 99.7981 23.6279C99.8167 23.6765 99.8341 23.7255 99.8518 23.7744ZM99.719 23.4326C99.6965 23.3784 99.6742 23.3242 99.6506 23.2705C99.6742 23.3242 99.6966 23.3784 99.719 23.4326ZM99.5793 23.1143C99.5459 23.0422 99.5123 22.9703 99.4768 22.8994C99.5123 22.9703 99.5459 23.0422 99.5793 23.1143ZM99.4114 22.7734C99.3766 22.7069 99.3415 22.6407 99.3049 22.5752C99.3415 22.6407 99.3766 22.7069 99.4114 22.7734ZM99.2092 22.4092C99.1805 22.3605 99.152 22.3117 99.1223 22.2637C99.152 22.3117 99.1805 22.3605 99.2092 22.4092ZM99.0139 22.0947C98.9716 22.0301 98.9291 21.9657 98.885 21.9023C98.9291 21.9657 98.9716 22.0301 99.0139 22.0947ZM98.8069 21.7939C98.7664 21.7379 98.7258 21.682 98.6838 21.627C98.7258 21.682 98.7664 21.7379 98.8069 21.7939ZM98.5559 21.4648C98.5214 21.4219 98.4868 21.3791 98.4514 21.3369C98.4868 21.3791 98.5214 21.4219 98.5559 21.4648ZM98.3176 21.1816C98.2733 21.1316 98.2285 21.0821 98.1829 21.0332C98.2285 21.0821 98.2733 21.1316 98.3176 21.1816ZM75.4944 21.1123C75.4944 20.9998 75.4919 20.8876 75.4866 20.7764L75.4856 20.7656C75.4913 20.8804 75.4944 20.9962 75.4944 21.1123ZM98.0725 20.917C98.0149 20.8578 97.9562 20.7996 97.8967 20.7422C97.9562 20.7996 98.0149 20.8578 98.0725 20.917ZM97.8098 20.6592C97.7452 20.5987 97.6793 20.5397 97.6125 20.4814C97.6793 20.5398 97.7452 20.5987 97.8098 20.6592ZM97.5178 20.3994C97.4573 20.3482 97.3955 20.2984 97.3333 20.249C97.3955 20.2984 97.4573 20.3482 97.5178 20.3994ZM75.4407 20.2646C75.4337 20.2079 75.4276 20.1511 75.4192 20.0947C75.4276 20.1511 75.4337 20.2079 75.4407 20.2646ZM97.2004 20.1445C97.1494 20.1059 97.0972 20.0687 97.0452 20.0312C97.0972 20.0687 97.1494 20.1058 97.2004 20.1445ZM75.4026 19.9971C75.3907 19.9241 75.3787 19.8514 75.3645 19.7793C75.3787 19.8514 75.3907 19.9241 75.4026 19.9971ZM96.8782 19.9131C96.8265 19.8779 96.7736 19.8445 96.7209 19.8105C96.7736 19.8445 96.8265 19.8779 96.8782 19.9131ZM96.5598 19.707C96.5 19.6705 96.4392 19.6356 96.3782 19.6006C96.4392 19.6356 96.5 19.6705 96.5598 19.707ZM75.3108 19.5322C75.3043 19.5045 75.2981 19.4768 75.2913 19.4492C75.2981 19.4768 75.3043 19.5045 75.3108 19.5322ZM96.2209 19.5117C96.1634 19.4804 96.1047 19.4509 96.0461 19.4209C96.1047 19.4509 96.1634 19.4804 96.2209 19.5117ZM75.26 19.333C75.2411 19.2626 75.2215 19.1926 75.2004 19.123C75.2215 19.1926 75.2411 19.2626 75.26 19.333ZM95.8547 19.3252C95.8054 19.3016 95.7553 19.2794 95.7053 19.2568C95.7553 19.2794 95.8054 19.3016 95.8547 19.3252ZM26.2209 19.1318C26.2034 19.1888 26.1872 19.2462 26.1711 19.3037C26.1872 19.2462 26.2034 19.1888 26.2209 19.1318ZM95.4983 19.165C95.447 19.1436 95.395 19.1239 95.343 19.1035C95.395 19.1239 95.447 19.1436 95.4983 19.165ZM95.1077 19.0137C95.0709 19.0005 95.0334 18.9892 94.9963 18.9766C95.0334 18.9892 95.0709 19.0005 95.1077 19.0137ZM75.1292 18.9014C75.1223 18.8812 75.1157 18.8609 75.1086 18.8408C75.1157 18.8609 75.1223 18.8812 75.1292 18.9014ZM94.7307 18.8896C94.6758 18.873 94.6202 18.8583 94.5647 18.8428C94.6202 18.8583 94.6758 18.873 94.7307 18.8896ZM94.3352 18.7803C94.2916 18.7694 94.2474 18.7602 94.2034 18.75C94.2474 18.7602 94.2916 18.7694 94.3352 18.7803ZM75.0432 18.665C75.0247 18.6166 75.0061 18.5684 74.9866 18.5205C75.0061 18.5684 75.0247 18.6166 75.0432 18.665ZM26.4426 18.5215C26.4295 18.5529 26.4172 18.5846 26.4045 18.6162C26.4172 18.5846 26.4295 18.5529 26.4426 18.5215ZM74.9221 18.3691C74.9002 18.3192 74.8787 18.2691 74.8557 18.2197C74.8787 18.2691 74.9002 18.3192 74.9221 18.3691ZM26.7102 17.9551C26.6907 17.9918 26.6724 18.0293 26.6536 18.0664C26.6724 18.0293 26.6907 17.9918 26.7102 17.9551ZM74.7766 18.0586C74.759 18.0234 74.742 17.988 74.7239 17.9531C74.742 17.988 74.759 18.0234 74.7766 18.0586ZM74.6331 17.7871C74.6095 17.7449 74.5861 17.7028 74.5618 17.6611C74.5861 17.7028 74.6095 17.7449 74.6331 17.7871ZM26.8733 17.667C26.8513 17.7038 26.8301 17.7411 26.8088 17.7783C26.8301 17.7411 26.8513 17.7038 26.8733 17.667ZM74.4758 17.5205C74.45 17.4787 74.4245 17.4367 74.3977 17.3955C74.4245 17.4367 74.45 17.4787 74.4758 17.5205ZM27.2288 17.1299C27.1986 17.1711 27.1692 17.213 27.1399 17.2549C27.1692 17.213 27.1986 17.1711 27.2288 17.1299ZM74.301 17.251C74.274 17.2116 74.2468 17.1725 74.219 17.1338C74.2468 17.1725 74.274 17.2116 74.301 17.251ZM74.1106 16.9873C74.0845 16.9529 74.0583 16.9186 74.0315 16.8848C74.0583 16.9186 74.0845 16.9529 74.1106 16.9873ZM27.6487 16.6113C27.6064 16.6586 27.5647 16.7064 27.5237 16.7549C27.5647 16.7064 27.6064 16.6586 27.6487 16.6113ZM73.9065 16.7314C73.8744 16.6932 73.8417 16.6556 73.8088 16.6182C73.8417 16.6556 73.8744 16.6932 73.9065 16.7314ZM27.8674 16.3789C27.8237 16.4234 27.781 16.4689 27.7385 16.5146C27.781 16.4689 27.8237 16.4234 27.8674 16.3789ZM73.7161 16.5146C73.6791 16.4742 73.6417 16.4341 73.6038 16.3945C73.6417 16.4341 73.6791 16.4742 73.7161 16.5146ZM28.0715 16.1797C28.0322 16.2165 27.9938 16.2542 27.9553 16.292C27.9938 16.2542 28.0322 16.2165 28.0715 16.1797ZM73.4885 16.2773C73.4563 16.2454 73.4237 16.2139 73.3909 16.1826C73.4237 16.2139 73.4563 16.2454 73.4885 16.2773ZM73.2473 16.0498C73.2214 16.0265 73.1955 16.0033 73.1692 15.9805C73.1955 16.0033 73.2214 16.0265 73.2473 16.0498ZM28.5657 15.7588C28.5247 15.7904 28.4838 15.822 28.4436 15.8545C28.4838 15.822 28.5247 15.7904 28.5657 15.7588ZM73.0139 15.8486C72.9772 15.8186 72.94 15.7891 72.9026 15.7598C72.94 15.7891 72.9772 15.8186 73.0139 15.8486ZM72.7805 15.666C72.7275 15.6264 72.6736 15.5879 72.6194 15.5498C72.6736 15.5879 72.7275 15.6264 72.7805 15.666ZM28.8059 15.582C28.7706 15.6069 28.7352 15.6317 28.7004 15.6572C28.7352 15.6317 28.7706 15.6069 28.8059 15.582ZM72.5305 15.4883C72.4819 15.4553 72.4326 15.4233 72.3831 15.3916C72.4326 15.4233 72.4819 15.4553 72.5305 15.4883ZM29.3665 15.2266C29.3235 15.2509 29.2808 15.2755 29.2385 15.3008C29.2808 15.2755 29.3235 15.2509 29.3665 15.2266ZM72.2307 15.2959C72.2036 15.2796 72.176 15.264 72.1487 15.248C72.176 15.264 72.2036 15.2796 72.2307 15.2959ZM29.6868 15.0566C29.6256 15.0871 29.5643 15.1171 29.5042 15.1494C29.5643 15.1171 29.6256 15.0871 29.6868 15.0566ZM71.9631 15.1436C71.9222 15.1214 71.8806 15.1004 71.8391 15.0791C71.8806 15.1004 71.9222 15.1214 71.9631 15.1436ZM29.9465 14.9336C29.8933 14.9574 29.8399 14.9808 29.7874 15.0059C29.8399 14.9808 29.8933 14.9574 29.9465 14.9336ZM71.6868 15.002C71.6352 14.9772 71.5828 14.9541 71.5305 14.9307C71.5828 14.9541 71.6352 14.9772 71.6868 15.002ZM71.4016 14.873C71.3405 14.8471 71.2781 14.8239 71.2161 14.7998C71.2781 14.8239 71.3405 14.8471 71.4016 14.873ZM30.5579 14.6963C30.4984 14.7161 30.4389 14.7354 30.3801 14.7568C30.4389 14.7354 30.4984 14.7161 30.5579 14.6963ZM71.0979 14.7539C71.0511 14.7368 71.0036 14.7212 70.9563 14.7051C71.0036 14.7212 71.0511 14.7368 71.0979 14.7539ZM31.2043 14.5156C31.1377 14.5306 31.0711 14.5455 31.0051 14.5625C31.0711 14.5455 31.1377 14.5306 31.2043 14.5156ZM70.4856 14.5625C70.4265 14.5472 70.3667 14.5342 70.3069 14.5205C70.3667 14.5342 70.4265 14.5472 70.4856 14.5625ZM70.1458 14.4844C70.1244 14.48 70.1028 14.4768 70.0813 14.4727C70.1028 14.4768 70.1244 14.48 70.1458 14.4844ZM32.3313 14.3604C32.3127 14.3613 32.2942 14.3632 32.2756 14.3643C32.4088 14.3563 32.5429 14.3516 32.678 14.3516L32.3313 14.3604ZM66.7415 12.7988C66.7335 12.7777 66.7261 12.7564 66.718 12.7354C66.7261 12.7564 66.7335 12.7777 66.7415 12.7988ZM66.2571 11.6592C66.2048 11.5485 66.1498 11.4394 66.095 11.3301C66.1498 11.4394 66.2048 11.5485 66.2571 11.6592ZM35.3274 11.3145C35.2702 11.4284 35.2139 11.5428 35.1594 11.6582C35.2139 11.5428 35.2702 11.4284 35.3274 11.3145ZM65.9641 11.0723C65.9033 10.9564 65.8403 10.8418 65.7766 10.7275C65.8403 10.8418 65.9033 10.9564 65.9641 11.0723ZM35.637 10.7295C35.579 10.8337 35.5217 10.9384 35.4661 11.0439C35.5217 10.9384 35.579 10.8337 35.637 10.7295ZM65.6389 10.4824C65.5778 10.3772 65.5139 10.2737 65.4504 10.1699C65.5139 10.2737 65.5778 10.3772 65.6389 10.4824ZM35.968 10.1621C35.914 10.2504 35.8612 10.3394 35.8088 10.4287C35.8612 10.3394 35.914 10.2504 35.968 10.1621ZM65.2786 9.8916C65.2208 9.80142 65.1604 9.71304 65.1008 9.62402C65.1604 9.71304 65.2208 9.80142 65.2786 9.8916ZM36.3489 9.57031C36.2819 9.66967 36.2154 9.7693 36.1506 9.87012C36.2154 9.7693 36.2819 9.66967 36.3489 9.57031ZM64.9124 9.34473C64.84 9.24138 64.7654 9.13975 64.6907 9.03809C64.7654 9.13975 64.84 9.24138 64.9124 9.34473ZM36.7405 9.01367C36.666 9.11471 36.5928 9.21663 36.5208 9.31934C36.5928 9.21663 36.666 9.11471 36.7405 9.01367ZM64.5227 8.81055C64.4358 8.69644 64.346 8.58452 64.2561 8.47266C64.346 8.58452 64.4358 8.69644 64.5227 8.81055ZM37.1555 8.47461C37.0752 8.57457 36.9951 8.67461 36.9172 8.77637C36.9951 8.67461 37.0752 8.57457 37.1555 8.47461ZM64.1106 8.29199C64.0241 8.18741 63.9351 8.08493 63.8459 7.98242C63.9351 8.08493 64.0241 8.18741 64.1106 8.29199ZM37.6028 7.94141C37.5141 8.04277 37.4262 8.14463 37.3401 8.24805C37.4262 8.14463 37.5141 8.04277 37.6028 7.94141ZM63.6584 7.76758C63.5756 7.67547 63.4905 7.58543 63.4055 7.49512C63.4905 7.58543 63.5756 7.67547 63.6584 7.76758ZM38.0461 7.4541C37.9598 7.54534 37.8745 7.63739 37.7903 7.73047C37.8745 7.63739 37.9598 7.54534 38.0461 7.4541ZM63.2063 7.28418C63.0976 7.17255 62.9861 7.06379 62.8743 6.95508C62.9861 7.06379 63.0977 7.17255 63.2063 7.28418ZM38.4768 7.01562C38.4032 7.08794 38.3293 7.1598 38.2571 7.2334C38.3293 7.1598 38.4032 7.08794 38.4768 7.01562ZM62.7297 6.8125C62.6192 6.70751 62.5053 6.60602 62.3918 6.50391C62.5053 6.60602 62.6192 6.70751 62.7297 6.8125ZM38.9885 6.5332C38.9111 6.60329 38.8332 6.67271 38.7571 6.74414C38.8332 6.67271 38.9111 6.60328 38.9885 6.5332ZM62.2258 6.35254C62.1125 6.25314 61.9962 6.15706 61.8801 6.06055C61.9962 6.15706 62.1125 6.25314 62.2258 6.35254ZM39.5198 6.07129C39.4251 6.15017 39.3304 6.22877 39.2375 6.30957C39.3304 6.22877 39.4251 6.15017 39.5198 6.07129ZM60.6184 5.10156C60.9945 5.36047 61.3598 5.63349 61.7131 5.91992C61.3598 5.6335 60.9945 5.36046 60.6184 5.10156ZM40.0598 5.63965C39.9621 5.71474 39.8639 5.78913 39.7678 5.86621C39.8639 5.78913 39.9621 5.71474 40.0598 5.63965ZM40.6262 5.22168C40.5151 5.30016 40.4043 5.37901 40.2952 5.45996C40.4043 5.37901 40.5151 5.30016 40.6262 5.22168ZM41.1897 4.83984C41.0757 4.91386 40.9619 4.98791 40.8499 5.06445C40.9619 4.98791 41.0757 4.91386 41.1897 4.83984ZM60.5334 5.0459C60.3758 4.93871 60.2172 4.83264 60.0559 4.73047C60.2172 4.83265 60.3758 4.93871 60.5334 5.0459ZM41.7014 4.52051C41.6126 4.57395 41.5235 4.6267 41.4358 4.68164C41.5235 4.6267 41.6126 4.57395 41.7014 4.52051ZM59.8225 4.58887C59.7092 4.51952 59.5967 4.44869 59.4817 4.38184C59.5967 4.44869 59.7092 4.51952 59.8225 4.58887ZM42.2766 4.18848C42.1975 4.23214 42.1177 4.2745 42.0393 4.31934C42.1177 4.2745 42.1975 4.23214 42.2766 4.18848ZM59.1858 4.2168C59.085 4.16075 58.9851 4.10295 58.8831 4.04883C58.9851 4.10295 59.085 4.16075 59.1858 4.2168ZM42.8958 3.8623C42.811 3.9048 42.7258 3.94643 42.6418 3.99023C42.7258 3.94643 42.811 3.9048 42.8958 3.8623ZM58.5784 3.89355C58.4784 3.84296 58.3786 3.7919 58.2776 3.74316C58.3786 3.7919 58.4784 3.84296 58.5784 3.89355ZM43.5686 3.54297C43.4609 3.59139 43.3529 3.63894 43.2463 3.68945C43.3529 3.63894 43.4609 3.59139 43.5686 3.54297ZM57.9963 3.61328C57.8768 3.55818 57.7578 3.50171 57.637 3.44922C57.7578 3.50171 57.8768 3.55818 57.9963 3.61328ZM44.2063 3.27148C44.0948 3.31646 43.9828 3.36004 43.8723 3.40723C43.9828 3.36004 44.0948 3.31646 44.2063 3.27148ZM57.3811 3.34277C57.2594 3.29219 57.1378 3.24127 57.0149 3.19336C57.1378 3.24127 57.2594 3.29219 57.3811 3.34277ZM44.8225 3.03613C44.7189 3.07348 44.6147 3.1092 44.512 3.14844C44.6147 3.1092 44.7189 3.07348 44.8225 3.03613ZM56.7014 3.07715C56.593 3.03723 56.4846 2.99681 56.3752 2.95898C56.4846 2.99681 56.593 3.03723 56.7014 3.07715ZM56.0227 2.84277C55.9226 2.81051 55.8227 2.77757 55.7219 2.74707C55.8227 2.77757 55.9226 2.81051 56.0227 2.84277ZM46.1252 2.62305C46.0272 2.64999 45.9288 2.67549 45.8313 2.7041C45.9288 2.67549 46.0272 2.64999 46.1252 2.62305ZM55.3811 2.64941C55.2736 2.61923 55.1661 2.58871 55.0579 2.56055C55.1661 2.58871 55.2736 2.61923 55.3811 2.64941ZM54.6887 2.46973C54.5844 2.44501 54.4801 2.42029 54.3752 2.39746C54.4801 2.42029 54.5844 2.44501 54.6887 2.46973ZM47.7249 2.2627C47.5402 2.29516 47.3561 2.32889 47.1731 2.36719C47.3561 2.32889 47.5402 2.29516 47.7249 2.2627ZM54.0608 2.33301C53.9326 2.30757 53.8041 2.28333 53.675 2.26074C53.8041 2.28333 53.9326 2.30757 54.0608 2.33301ZM48.301 2.17188C48.1552 2.19248 48.0094 2.21208 47.8645 2.23633C48.0094 2.21208 48.1552 2.19248 48.301 2.17188ZM53.3489 2.20703C53.2365 2.18956 53.1239 2.17251 53.011 2.15723C53.1239 2.17251 53.2365 2.18956 53.3489 2.20703ZM52.637 2.11133C52.5281 2.09901 52.4191 2.0874 52.3098 2.07715C52.4191 2.08741 52.5281 2.09901 52.637 2.11133ZM49.9963 2.01465C49.7558 2.02462 49.5162 2.03964 49.2776 2.05957C49.5123 2.03996 49.7481 2.02559 49.9846 2.01562L49.9963 2.01465ZM51.9475 2.04785C51.8292 2.03927 51.7108 2.03154 51.592 2.02539C51.7108 2.03154 51.8292 2.03927 51.9475 2.04785ZM3.35474 123.284C3.44255 123.379 3.53209 123.473 3.62427 123.563C3.5321 123.473 3.44254 123.379 3.35474 123.284ZM1.23462 118.374C1.24152 118.49 1.24991 118.606 1.26196 118.721C1.24991 118.606 1.24152 118.49 1.23462 118.374Z" fill="#FF52DB"/>
</svg>
