<svg width="49" height="49" viewBox="0 0 49 49" fill="none" xmlns="http://www.w3.org/2000/svg">
<rect width="49" height="49" rx="7" fill="#FCE7F3"/>
<path d="M28.3334 33.125V31.2083C28.3334 30.1917 27.9295 29.2166 27.2106 28.4978C26.4917 27.7789 25.5167 27.375 24.5 27.375H18.75C17.7334 27.375 16.7583 27.7789 16.0394 28.4978C15.3206 29.2166 14.9167 30.1917 14.9167 31.2083V33.125" stroke="#E60076" stroke-width="1.91667" stroke-linecap="round" stroke-linejoin="round"/>
<path d="M21.625 23.5417C23.7421 23.5417 25.4584 21.8254 25.4584 19.7083C25.4584 17.5912 23.7421 15.875 21.625 15.875C19.5079 15.875 17.7917 17.5912 17.7917 19.7083C17.7917 21.8254 19.5079 23.5417 21.625 23.5417Z" stroke="#E60076" stroke-width="1.91667" stroke-linecap="round" stroke-linejoin="round"/>
<path d="M31.2084 20.6667V26.4167M34.0834 23.5417H28.3334" stroke="#E60076" stroke-width="1.91667" stroke-linecap="round" stroke-linejoin="round"/>
</svg>
