<svg width="59" height="58" viewBox="0 0 59 58" fill="none" xmlns="http://www.w3.org/2000/svg">
<path d="M29.5 0.162109C23.7863 0.162109 18.201 1.85641 13.4502 5.03076C8.69946 8.20512 4.99669 12.7169 2.81016 17.9957C0.623631 23.2745 0.0515353 29.083 1.16622 34.6869C2.2809 40.2908 5.0323 45.4383 9.07249 49.4785C13.1127 53.5187 18.2602 56.2701 23.8641 57.3848C29.468 58.4995 35.2766 57.9274 40.5553 55.7409C45.8341 53.5543 50.3459 49.8516 53.5202 45.1008C56.6946 40.35 58.3889 34.7647 58.3889 29.051C58.3889 21.3892 55.3453 14.0412 49.9275 8.62347C44.5098 3.20575 37.1618 0.162109 29.5 0.162109ZM43.3125 39.1441C41.507 44.5607 36.7945 46.0774 32.6597 46.3663V49.9774C32.6597 50.576 32.422 51.15 31.9987 51.5733C31.5754 51.9965 31.0014 52.2343 30.4028 52.2343C29.8042 52.2343 29.2302 51.9965 28.8069 51.5733C28.3836 51.15 28.1458 50.576 28.1458 49.9774V46.3663C23.9997 45.9775 20.067 44.3478 16.8611 41.6899C16.6442 41.4872 16.4693 41.2437 16.3464 40.9734C16.2236 40.703 16.1551 40.4112 16.1451 40.1144C16.135 39.8176 16.1835 39.5218 16.2878 39.2438C16.3921 38.9658 16.5501 38.711 16.7528 38.4941C16.9555 38.2771 17.199 38.1022 17.4693 37.9793C17.7396 37.8565 18.0315 37.7881 18.3283 37.778C18.625 37.7679 18.9209 37.8164 19.1989 37.9207C19.4769 38.025 19.7317 38.183 19.9486 38.3857C22.3111 40.2894 25.1546 41.5018 28.1639 41.8885V30.5496C25.7656 30.1817 23.4712 29.3144 21.4292 28.0038C19.712 26.9268 18.4267 25.2821 17.7966 23.3557C17.1666 21.4292 17.2316 19.3428 17.9806 17.4593C19.0458 14.7329 22.35 11.6274 28.1639 11.1218V7.83572C28.1639 7.23714 28.4017 6.66308 28.8249 6.23982C29.2482 5.81656 29.8223 5.57878 30.4208 5.57878C31.0194 5.57878 31.5935 5.81656 32.0167 6.23982C32.44 6.66308 32.6778 7.23714 32.6778 7.83572V11.1941C35.9053 11.5516 38.9691 12.8022 41.525 14.8052C41.8793 15.222 42.0701 15.7532 42.062 16.3002C42.0539 16.8471 41.8475 17.3725 41.4811 17.7786C41.1147 18.1848 40.6132 18.444 40.07 18.5082C39.5268 18.5723 38.9787 18.437 38.5278 18.1274C36.8038 16.8665 34.7936 16.0538 32.6778 15.7621V26.8302C33.7611 27.0649 34.9167 27.3177 36.1264 27.6968C37.5257 28.0457 38.8387 28.6775 39.9846 29.5532C41.1304 30.4289 42.0848 31.5299 42.7889 32.7885C43.7944 34.7552 43.9826 37.0393 43.3125 39.1441Z" fill="#028036"/>
<path d="M34.7722 32.0118C34.05 31.7952 33.3458 31.6146 32.6597 31.4702V41.8702C36.2708 41.5091 38.2028 40.2452 39.0333 37.7174C39.3102 36.7667 39.2133 35.7462 38.7625 34.8646C38.3211 34.1471 37.7407 33.5252 37.0554 33.0353C36.3702 32.5454 35.5939 32.1974 34.7722 32.0118Z" fill="#028036"/>
<path d="M22.1695 19.084C21.7927 20.02 21.7681 21.0609 22.1001 22.0137C22.4321 22.9665 23.0982 23.7667 23.9751 24.2659C25.2509 25.085 26.6735 25.6491 28.1639 25.927V15.5993C24.3723 16.0506 22.6209 17.9284 22.1695 19.084Z" fill="#028036"/>
</svg>
