<svg width="49" height="49" viewBox="0 0 49 49" fill="none" xmlns="http://www.w3.org/2000/svg">
<rect width="49" height="49" rx="7" fill="#DBFCE7"/>
<path d="M24.5 13.9583V35.0416M29.7708 15.875H22.5833C21.4396 15.875 20.3427 16.3293 19.5339 17.1381C18.7252 17.9468 18.2708 19.0437 18.2708 20.1875C18.2708 21.3312 18.7252 22.4281 19.5339 23.2369C20.3427 24.0456 21.4396 24.5 22.5833 24.5H26.4166C26.983 24.5 27.5438 24.6115 28.067 24.8282C28.5902 25.045 29.0656 25.3626 29.466 25.7631C29.8665 26.1635 30.1842 26.6389 30.4009 27.1622C30.6176 27.6854 30.7291 28.2462 30.7291 28.8125C30.7291 29.3788 30.6176 29.9396 30.4009 30.4628C30.1842 30.986 29.8665 31.4614 29.466 31.8619C29.0656 32.2623 28.5902 32.58 28.067 32.7967C27.5438 33.0134 26.983 33.125 26.4166 33.125H19.2291" stroke="#00A63E" stroke-width="1.91667" stroke-linecap="round" stroke-linejoin="round"/>
</svg>
