<svg width="65" height="66" viewBox="0 0 65 66" fill="none" xmlns="http://www.w3.org/2000/svg">
<path d="M27.3089 46.1641L14.7727 33.625L18.9505 29.4473L27.3089 37.8027L44.0198 21.0889L48.2005 25.2695L27.3089 46.1641Z" fill="#00BC9B"/>
<path fill-rule="evenodd" clip-rule="evenodd" d="M0 33.4185C0 15.4696 14.5511 0.918457 32.5 0.918457C50.4489 0.918457 65 15.4696 65 33.4185C65 51.3673 50.4489 65.9185 32.5 65.9185C14.5511 65.9185 0 51.3673 0 33.4185ZM32.5 60.0094C29.008 60.0094 25.5503 59.3216 22.3241 57.9853C19.0979 56.6489 16.1666 54.6903 13.6974 52.2211C11.2282 49.7519 9.26952 46.8205 7.9332 43.5944C6.59688 40.3682 5.90909 36.9104 5.90909 33.4185C5.90909 29.9265 6.59688 26.4687 7.9332 23.2426C9.26952 20.0164 11.2282 17.085 13.6974 14.6158C16.1666 12.1467 19.0979 10.188 22.3241 8.85166C25.5503 7.51534 29.008 6.82755 32.5 6.82755C39.5523 6.82755 46.3158 9.62908 51.3026 14.6158C56.2894 19.6026 59.0909 26.3661 59.0909 33.4185C59.0909 40.4708 56.2894 47.2343 51.3026 52.2211C46.3158 57.2078 39.5523 60.0094 32.5 60.0094Z" fill="#00BC9B"/>
</svg>
