<svg width="49" height="49" viewBox="0 0 49 49" fill="none" xmlns="http://www.w3.org/2000/svg">
<rect width="49" height="49" rx="7" fill="#D0FAE5"/>
<path d="M22.8162 28.6342L18.75 24.5671L20.1051 23.212L22.8162 25.9221L28.2365 20.5009L29.5926 21.8569L22.8162 28.6342Z" fill="#009966"/>
<path fill-rule="evenodd" clip-rule="evenodd" d="M13.9583 24.5C13.9583 18.6781 18.6781 13.9583 24.5 13.9583C30.3219 13.9583 35.0416 18.6781 35.0416 24.5C35.0416 30.3219 30.3219 35.0416 24.5 35.0416C18.6781 35.0416 13.9583 30.3219 13.9583 24.5ZM24.5 33.125C23.3673 33.125 22.2458 32.9019 21.1993 32.4684C20.1529 32.035 19.2021 31.3997 18.4012 30.5988C17.6003 29.7979 16.965 28.8471 16.5315 27.8006C16.0981 26.7542 15.875 25.6326 15.875 24.5C15.875 23.3673 16.0981 22.2458 16.5315 21.1993C16.965 20.1529 17.6003 19.2021 18.4012 18.4012C19.2021 17.6003 20.1529 16.965 21.1993 16.5315C22.2458 16.0981 23.3673 15.875 24.5 15.875C26.7875 15.875 28.9813 16.7837 30.5988 18.4012C32.2163 20.0187 33.125 22.2125 33.125 24.5C33.125 26.7875 32.2163 28.9813 30.5988 30.5988C28.9813 32.2163 26.7875 33.125 24.5 33.125Z" fill="#009966"/>
</svg>
