<svg width="63" height="59" viewBox="0 0 63 59" fill="none" xmlns="http://www.w3.org/2000/svg">
<path d="M35.4836 0.418479C33.0174 0.42765 30.5665 0.673334 28.215 1.07799C16.2955 3.12906 9.57686 8.50782 5.95153 16.0613C10.2416 15.7231 14.4729 15.3632 18.5911 15.389C21.9053 15.4099 25.1463 15.6804 28.286 16.4132C30.3681 16.8995 31.6741 18.7265 32.0802 20.8231C32.4862 22.9198 32.1981 25.3977 31.3854 27.987L31.346 28.1126L31.2817 28.2274C30.2149 30.1228 27.947 31.6317 25.0564 33.2291C22.1659 34.8268 18.6388 36.3826 15.1238 37.7354C11.609 39.0882 8.11287 40.2339 5.28674 40.9922C4.28977 41.2597 3.38323 41.4758 2.57441 41.6394C2.88708 45.9652 3.47628 50.4467 4.22476 54.9768C23.4822 49.6616 41.8139 43.8755 59.6822 37.8493C63.2466 31.6715 63.7953 25.8364 62.0141 20.2382C58.9365 10.5658 53.6441 5.36272 47.5536 2.70578C43.7471 1.04519 39.5942 0.403193 35.4838 0.418479H35.4836ZM12.9147 18.0774C11.6695 18.1483 10.4044 18.238 9.13073 18.3325L3.17392 38.9467C3.639 38.8369 4.12718 38.7156 4.65192 38.5748C5.2339 38.4175 5.81393 38.2529 6.39188 38.081C7.76928 33.7635 12.3429 19.8193 12.9147 18.0774ZM6.49633 18.5307C5.00266 18.6455 3.49689 18.7605 1.97354 18.86C1.92956 18.9218 1.87541 18.9916 1.79239 19.175C1.57524 19.6545 1.32854 20.4838 1.1173 21.499C0.69468 23.5295 0.37926 26.3247 0.195781 29.1248C0.0125769 31.9249 -0.0419854 34.7441 0.0318186 36.8485C0.0686518 37.9007 0.140394 38.7808 0.230003 39.3443C0.2366 39.3868 0.240723 39.3876 0.24787 39.4263C0.311091 39.4249 0.389843 39.4201 0.460349 39.4174L6.49633 18.5307ZM25.8085 18.6047C23.665 18.6047 21.8695 20.3531 21.8695 22.5168C21.8695 24.6804 23.665 26.4292 25.8085 26.4292C27.952 26.4292 29.7475 24.6805 29.7475 22.5168C29.7475 20.3531 27.952 18.6047 25.8085 18.6047ZM25.8085 21.106C26.6496 21.106 27.2736 21.7407 27.2736 22.5168C27.2736 23.293 26.6496 23.9279 25.8085 23.9279C24.9674 23.9279 24.3434 23.2929 24.3434 22.5168C24.3434 21.7407 24.9674 21.106 25.8085 21.106ZM57.4453 41.2366C40.4295 46.9322 22.9615 52.4043 4.65055 57.4527C4.70731 57.7747 4.76187 58.0961 4.81987 58.4182C25.1066 54.7149 40.0003 48.8348 55.8587 43.2487C56.4074 42.5941 56.9366 41.9231 57.4455 41.2365L57.4453 41.2366Z" fill="#A437E2"/>
</svg>
