<svg width="49" height="49" viewBox="0 0 49 49" fill="none" xmlns="http://www.w3.org/2000/svg">
<rect width="49" height="49" rx="7" fill="#F3E8FF"/>
<path d="M31.7708 27.9375C31.7708 28.5729 31.5184 29.1823 31.0691 29.6316C30.6198 30.0809 30.0104 30.3334 29.375 30.3334C28.7396 30.3334 28.1302 30.0809 27.6809 29.6316C27.2316 29.1823 26.9791 28.5729 26.9791 27.9375C26.9791 27.3021 27.2316 26.6927 27.6809 26.2434C28.1302 25.7941 28.7396 25.5417 29.375 25.5417C30.0104 25.5417 30.6198 25.7941 31.0691 26.2434C31.5184 26.6927 31.7708 27.3021 31.7708 27.9375ZM22.1875 27.9375C22.1875 28.5729 21.9351 29.1823 21.4858 29.6316C21.0365 30.0809 20.4271 30.3334 19.7916 30.3334C19.1562 30.3334 18.5468 30.0809 18.0975 29.6316C17.6482 29.1823 17.3958 28.5729 17.3958 27.9375C17.3958 27.3021 17.6482 26.6927 18.0975 26.2434C18.5468 25.7941 19.1562 25.5417 19.7916 25.5417C20.4271 25.5417 21.0365 25.7941 21.4858 26.2434C21.9351 26.6927 22.1875 27.3021 22.1875 27.9375Z" stroke="#9810FA" stroke-width="1.4375"/>
<path d="M26.9792 27.9375H22.1875M27.4583 26.0208V17.875C27.4583 16.5199 27.4583 15.8424 27.0367 15.4217C26.6169 15 25.9394 15 24.5833 15H17.875C16.5199 15 15.8424 15 15.4217 15.4217C15 15.8414 15 16.519 15 17.875V25.5417C15 26.4377 15 26.8852 15.1926 27.2187C15.3188 27.4373 15.5002 27.6187 15.7187 27.7449C16.0522 27.9375 16.4998 27.9375 17.3958 27.9375M27.9375 17.3958H29.6635C30.4589 17.3958 30.8566 17.3958 31.1862 17.5827C31.5159 17.7686 31.72 18.1098 32.1293 18.7921L33.7575 21.5042C33.9606 21.8435 34.0622 22.014 34.1149 22.2019C34.1667 22.3907 34.1667 22.5881 34.1667 22.9839V25.5417C34.1667 26.4377 34.1667 26.8852 33.974 27.2187C33.8479 27.4373 33.6664 27.6187 33.4479 27.7449C33.1144 27.9375 32.6669 27.9375 31.7708 27.9375" stroke="#9810FA" stroke-width="1.4375" stroke-linecap="round" stroke-linejoin="round"/>
<path d="M22.0217 22.6667L23.4458 21.5416C24.2038 20.9417 24.5833 20.6427 24.5833 20.2708M24.5833 20.2708C24.5833 19.899 24.2038 19.6 23.4458 19.0001L22.0217 17.875M24.5833 20.2708H17.875" stroke="#9810FA" stroke-width="1.4375" stroke-linecap="round" stroke-linejoin="round"/>
</svg>
