<svg width="49" height="49" viewBox="0 0 49 49" fill="none" xmlns="http://www.w3.org/2000/svg">
<rect width="49" height="49" rx="7" fill="#FFE2E2"/>
<path d="M24.5 16.8334C22.4667 16.8334 20.5166 17.6411 19.0789 19.0789C17.6411 20.5166 16.8334 22.4667 16.8334 24.5C16.8334 26.5333 17.6411 28.4834 19.0789 29.9212C20.5166 31.359 22.4667 32.1667 24.5 32.1667C26.5333 32.1667 28.4834 31.359 29.9212 29.9212C31.359 28.4834 32.1667 26.5333 32.1667 24.5C32.1667 22.4667 31.359 20.5166 29.9212 19.0789C28.4834 17.6411 26.5333 16.8334 24.5 16.8334ZM14.9167 24.5C14.9167 19.2071 19.2071 14.9167 24.5 14.9167C29.7929 14.9167 34.0834 19.2071 34.0834 24.5C34.0834 29.7929 29.7929 34.0834 24.5 34.0834C19.2071 34.0834 14.9167 29.7929 14.9167 24.5ZM20.4683 20.4683C20.648 20.2887 20.8917 20.1877 21.1459 20.1877C21.4 20.1877 21.6437 20.2887 21.8234 20.4683L24.5 23.1449L27.1766 20.4683C27.265 20.3768 27.3708 20.3038 27.4877 20.2535C27.6046 20.2033 27.7304 20.1769 27.8576 20.1758C27.9849 20.1747 28.1111 20.1989 28.2289 20.2471C28.3466 20.2953 28.4536 20.3665 28.5436 20.4564C28.6336 20.5464 28.7047 20.6534 28.7529 20.7712C28.8011 20.889 28.8254 21.0152 28.8243 21.1424C28.8232 21.2697 28.7967 21.3954 28.7465 21.5123C28.6963 21.6292 28.6233 21.735 28.5317 21.8234L25.8551 24.5L28.5317 27.1766C28.7063 27.3574 28.8029 27.5995 28.8007 27.8507C28.7985 28.102 28.6977 28.3424 28.5201 28.5201C28.3424 28.6977 28.102 28.7985 27.8507 28.8007C27.5995 28.8029 27.3574 28.7063 27.1766 28.5317L24.5 25.8551L21.8234 28.5317C21.6427 28.7063 21.4006 28.8029 21.1493 28.8007C20.898 28.7985 20.6577 28.6977 20.48 28.5201C20.3023 28.3424 20.2015 28.102 20.1993 27.8507C20.1971 27.5995 20.2937 27.3574 20.4683 27.1766L23.1449 24.5L20.4683 21.8234C20.2887 21.6437 20.1877 21.4 20.1877 21.1459C20.1877 20.8917 20.2887 20.648 20.4683 20.4683Z" fill="#E7000B"/>
</svg>
