<svg width="65" height="66" viewBox="0 0 65 66" fill="none" xmlns="http://www.w3.org/2000/svg">
<path d="M32.5 7.41846C25.6044 7.41846 18.9912 10.1577 14.1152 15.0337C9.23928 19.9096 6.5 26.5228 6.5 33.4185C6.5 40.3141 9.23928 46.9273 14.1152 51.8032C18.9912 56.6792 25.6044 59.4185 32.5 59.4185C39.3956 59.4185 46.0088 56.6792 50.8848 51.8032C55.7607 46.9273 58.5 40.3141 58.5 33.4185C58.5 26.5228 55.7607 19.9096 50.8848 15.0337C46.0088 10.1577 39.3956 7.41846 32.5 7.41846ZM0 33.4185C0 15.4687 14.5503 0.918457 32.5 0.918457C50.4497 0.918457 65 15.4687 65 33.4185C65 51.3682 50.4497 65.9185 32.5 65.9185C14.5503 65.9185 0 51.3682 0 33.4185ZM18.8273 19.7457C19.4367 19.1364 20.2632 18.7942 21.125 18.7942C21.9868 18.7942 22.8133 19.1364 23.4227 19.7457L32.5 28.823L41.5773 19.7457C41.8771 19.4353 42.2357 19.1877 42.6322 19.0174C43.0287 18.847 43.4552 18.7574 43.8867 18.7536C44.3182 18.7499 44.7462 18.8321 45.1456 18.9955C45.545 19.1589 45.9079 19.4003 46.213 19.7054C46.5182 20.0106 46.7595 20.3734 46.9229 20.7729C47.0863 21.1723 47.1686 21.6002 47.1648 22.0318C47.1611 22.4633 47.0714 22.8898 46.9011 23.2863C46.7307 23.6828 46.4832 24.0414 46.1728 24.3412L37.0955 33.4185L46.1728 42.4957C46.7648 43.1087 47.0923 43.9296 47.0849 44.7818C47.0775 45.6339 46.7357 46.449 46.1332 47.0516C45.5306 47.6542 44.7154 47.996 43.8633 48.0034C43.0112 48.0108 42.1902 47.6832 41.5773 47.0912L32.5 38.014L23.4227 47.0912C22.8098 47.6832 21.9888 48.0108 21.1367 48.0034C20.2846 47.996 19.4694 47.6542 18.8668 47.0516C18.2643 46.449 17.9225 45.6339 17.9151 44.7818C17.9077 43.9296 18.2352 43.1087 18.8273 42.4957L27.9045 33.4185L18.8273 24.3412C18.218 23.7317 17.8757 22.9052 17.8757 22.0435C17.8757 21.1817 18.218 20.3552 18.8273 19.7457Z" fill="#F94252"/>
</svg>
