<svg width="49" height="49" viewBox="0 0 49 49" fill="none" xmlns="http://www.w3.org/2000/svg">
<rect width="49" height="49" rx="7" fill="#EDE9FE"/>
<path d="M24.5 33.125C22.4875 33.125 20.7066 32.5142 19.1573 31.2927C17.608 30.0711 16.6017 28.5097 16.1385 26.6083C16.0747 26.3688 16.1226 26.1493 16.2823 25.95C16.442 25.7506 16.6576 25.6347 16.9292 25.6021C17.1847 25.5701 17.4163 25.6181 17.624 25.7458C17.8316 25.8736 17.9753 26.0653 18.0552 26.3208C18.4385 27.7583 19.2292 28.9323 20.4271 29.8427C21.625 30.7531 22.9826 31.2083 24.5 31.2083C26.3687 31.2083 27.9542 30.5576 29.2562 29.2562C30.5583 27.9548 31.209 26.3694 31.2083 24.5C31.2077 22.6306 30.557 21.0455 29.2562 19.7448C27.9554 18.444 26.37 17.7929 24.5 17.7917C23.3979 17.7917 22.3677 18.0472 21.4094 18.5583C20.451 19.0694 19.6444 19.7722 18.9896 20.6667H20.6667C20.9382 20.6667 21.166 20.7587 21.35 20.9427C21.534 21.1267 21.6256 21.3541 21.625 21.625C21.6244 21.8959 21.5324 22.1237 21.349 22.3083C21.1656 22.4929 20.9382 22.5846 20.6667 22.5833H16.8333C16.5618 22.5833 16.3344 22.4913 16.151 22.3073C15.9676 22.1233 15.8756 21.8959 15.875 21.625V17.7917C15.875 17.5201 15.967 17.2927 16.151 17.1093C16.335 16.926 16.5624 16.834 16.8333 16.8333C17.1042 16.8327 17.332 16.9247 17.5166 17.1093C17.7013 17.294 17.7929 17.5214 17.7917 17.7917V19.0854C18.6062 18.0632 19.6007 17.2726 20.775 16.7135C21.9492 16.1545 23.1909 15.875 24.5 15.875C25.6979 15.875 26.8201 16.1028 27.8666 16.5583C28.9131 17.0138 29.8235 17.6284 30.5979 18.4021C31.3722 19.1758 31.9871 20.0862 32.4427 21.1334C32.8982 22.1805 33.1256 23.3027 33.125 24.5C33.1244 25.6973 32.8969 26.8195 32.4427 27.8666C31.9884 28.9138 31.3735 29.8242 30.5979 30.5979C29.8223 31.3716 28.9118 31.9865 27.8666 32.4427C26.8214 32.8988 25.6992 33.1263 24.5 33.125ZM25.4583 24.1167L27.8542 26.5125C28.0299 26.6882 28.1177 26.9118 28.1177 27.1833C28.1177 27.4549 28.0299 27.6785 27.8542 27.8542C27.6785 28.0299 27.4549 28.1177 27.1833 28.1177C26.9118 28.1177 26.6882 28.0299 26.5125 27.8542L23.8292 25.1708C23.7333 25.075 23.6615 24.9673 23.6135 24.8479C23.5656 24.7284 23.5417 24.6045 23.5417 24.476V20.6667C23.5417 20.3951 23.6337 20.1677 23.8177 19.9843C24.0017 19.801 24.2291 19.709 24.5 19.7083C24.7709 19.7077 24.9987 19.7997 25.1833 19.9843C25.3679 20.169 25.4596 20.3964 25.4583 20.6667V24.1167Z" fill="#7F22FE"/>
</svg>
