<svg width="65" height="66" viewBox="0 0 65 66" fill="none" xmlns="http://www.w3.org/2000/svg">
<path d="M32.5 65.9184C24.9167 65.9184 18.206 63.617 12.3681 59.014C6.53009 54.411 2.73843 48.5273 0.993056 41.3629C0.752315 40.4601 0.93287 39.6332 1.53472 38.8821C2.13657 38.1309 2.94907 37.694 3.97222 37.5712C4.93518 37.4509 5.80787 37.6314 6.59028 38.1129C7.37268 38.5944 7.91435 39.3166 8.21528 40.2796C9.65972 45.6962 12.6389 50.1198 17.1528 53.5504C21.6667 56.9809 26.7824 58.6962 32.5 58.6962C39.5417 58.6962 45.5156 56.2443 50.4219 51.3404C55.3282 46.4365 57.7802 40.4625 57.7778 33.4184C57.7754 26.3744 55.3234 20.4016 50.4219 15.5001C45.5205 10.5986 39.5465 8.14549 32.5 8.14068C28.3472 8.14068 24.4653 9.10364 20.8542 11.0296C17.2431 12.9555 14.2037 15.6036 11.7361 18.974H18.0556C19.0787 18.974 19.9369 19.3207 20.6303 20.014C21.3236 20.7073 21.6691 21.5644 21.6667 22.5851C21.6643 23.6059 21.3176 24.4641 20.6267 25.1598C19.9357 25.8556 19.0787 26.201 18.0556 26.1962H3.61111C2.58796 26.1962 1.73093 25.8496 1.04 25.1562C0.349074 24.4629 0.00240741 23.6059 0 22.5851V8.14068C0 7.11753 0.346667 6.26049 1.04 5.56957C1.73333 4.87864 2.59037 4.53197 3.61111 4.52957C4.63185 4.52716 5.49009 4.87383 6.18583 5.56957C6.88157 6.26531 7.22704 7.12234 7.22222 8.14068V13.0157C10.2917 9.16382 14.0388 6.18466 18.4636 4.07818C22.8884 1.9717 27.5672 0.918457 32.5 0.918457C37.0139 0.918457 41.2425 1.7767 45.1858 3.49318C49.1292 5.20966 52.5597 7.52558 55.4775 10.441C58.3953 13.3563 60.7124 16.7869 62.4289 20.7326C64.1454 24.6784 65.0024 28.907 65 33.4184C64.9976 37.9299 64.1405 42.1585 62.4289 46.1043C60.7172 50.05 58.4001 53.4806 55.4775 56.3959C52.5549 59.3113 49.1243 61.6284 45.1858 63.3473C41.2473 65.0662 37.0187 65.9232 32.5 65.9184ZM36.1111 31.974L45.1389 41.0018C45.8009 41.6638 46.1319 42.5064 46.1319 43.5296C46.1319 44.5527 45.8009 45.3953 45.1389 46.0573C44.4768 46.7194 43.6343 47.0504 42.6111 47.0504C41.588 47.0504 40.7454 46.7194 40.0833 46.0573L29.9722 35.9462C29.6111 35.5851 29.3403 35.1795 29.1597 34.7293C28.9792 34.2791 28.8889 33.8121 28.8889 33.3282V18.974C28.8889 17.9509 29.2356 17.0938 29.9289 16.4029C30.6222 15.712 31.4793 15.3653 32.5 15.3629C33.5207 15.3605 34.379 15.7072 35.0747 16.4029C35.7705 17.0986 36.1159 17.9557 36.1111 18.974V31.974Z" fill="#A07BDF"/>
</svg>
