<svg width="65" height="66" viewBox="0 0 65 66" fill="none" xmlns="http://www.w3.org/2000/svg">
<path d="M16.25 37.5586C17.6042 37.5586 18.7557 37.0852 19.7047 36.1383C20.6537 35.1915 21.1272 34.0399 21.125 32.6836C21.1228 31.3272 20.6494 30.1767 19.7047 29.2321C18.7601 28.2874 17.6085 27.8129 16.25 27.8086C14.8915 27.8042 13.741 28.2787 12.7985 29.2321C11.856 30.1854 11.3815 31.3359 11.375 32.6836C11.3685 34.0312 11.843 35.1828 12.7985 36.1383C13.754 37.0938 14.9045 37.5672 16.25 37.5586ZM32.5 37.5586C33.8541 37.5586 35.0057 37.0852 35.9547 36.1383C36.9037 35.1915 37.3771 34.0399 37.375 32.6836C37.3728 31.3272 36.8994 30.1767 35.9547 29.2321C35.0101 28.2874 33.8585 27.8129 32.5 27.8086C31.1415 27.8042 29.991 28.2787 29.0485 29.2321C28.106 30.1854 27.6315 31.3359 27.625 32.6836C27.6185 34.0312 28.093 35.1828 29.0485 36.1383C30.004 37.0938 31.1545 37.5672 32.5 37.5586ZM48.75 37.5586C50.1041 37.5586 51.2557 37.0852 52.2047 36.1383C53.1537 35.1915 53.6271 34.0399 53.625 32.6836C53.6228 31.3272 53.1494 30.1767 52.2047 29.2321C51.2601 28.2874 50.1085 27.8129 48.75 27.8086C47.3915 27.8042 46.241 28.2787 45.2985 29.2321C44.356 30.1854 43.8815 31.3359 43.875 32.6836C43.8685 34.0312 44.343 35.1828 45.2985 36.1383C46.254 37.0938 47.4045 37.5672 48.75 37.5586ZM32.5 65.1835C28.0042 65.1835 23.7792 64.3299 19.825 62.6226C15.8708 60.9152 12.4312 58.6001 9.50625 55.6773C6.58125 52.7545 4.26617 49.3149 2.561 45.3586C0.855837 41.4022 0.00217078 37.1772 4.11392e-06 32.6836C-0.00216255 28.1899 0.851504 23.9649 2.561 20.0086C4.2705 16.0523 6.58558 12.6127 9.50625 9.68984C12.4269 6.76701 15.8665 4.45192 19.825 2.74459C23.7835 1.03726 28.0085 0.183594 32.5 0.183594C36.9915 0.183594 41.2165 1.03726 45.175 2.74459C49.1335 4.45192 52.5731 6.76701 55.4937 9.68984C58.4144 12.6127 60.7305 16.0523 62.4422 20.0086C64.1539 23.9649 65.0065 28.1899 65 32.6836C64.9935 37.1772 64.1398 41.4022 62.439 45.3586C60.7381 49.3149 58.4231 52.7545 55.4937 55.6773C52.5644 58.6001 49.1248 60.9163 45.175 62.6258C41.2251 64.3353 37.0001 65.1879 32.5 65.1835ZM32.5 58.6836C39.7583 58.6836 45.9062 56.1648 50.9437 51.1273C55.9812 46.0898 58.5 39.9419 58.5 32.6836C58.5 25.4252 55.9812 19.2773 50.9437 14.2398C45.9062 9.20234 39.7583 6.68359 32.5 6.68359C25.2417 6.68359 19.0937 9.20234 14.0562 14.2398C9.01875 19.2773 6.5 25.4252 6.5 32.6836C6.5 39.9419 9.01875 46.0898 14.0562 51.1273C19.0937 56.1648 25.2417 58.6836 32.5 58.6836Z" fill="#FFBB31"/>
</svg>
