<svg width="49" height="49" viewBox="0 0 49 49" fill="none" xmlns="http://www.w3.org/2000/svg">
<rect width="49" height="49" rx="7" fill="#FFEDD4"/>
<path d="M24.5833 32.1667C26.6167 32.1667 28.5667 31.359 30.0045 29.9212C31.4423 28.4834 32.25 26.5333 32.25 24.5C32.25 22.4667 31.4423 20.5166 30.0045 19.0789C28.5667 17.6411 26.6167 16.8334 24.5833 16.8334C22.55 16.8334 20.6 17.6411 19.1622 19.0789C17.7244 20.5166 16.9167 22.4667 16.9167 24.5C16.9167 26.5333 17.7244 28.4834 19.1622 29.9212C20.6 31.359 22.55 32.1667 24.5833 32.1667ZM24.5833 14.9167C25.8418 14.9167 27.088 15.1646 28.2507 15.6462C29.4134 16.1278 30.4699 16.8337 31.3598 17.7236C32.2497 18.6135 32.9556 19.6699 33.4372 20.8326C33.9188 21.9953 34.1667 23.2415 34.1667 24.5C34.1667 27.0417 33.157 29.4792 31.3598 31.2765C29.5625 33.0737 27.125 34.0834 24.5833 34.0834C19.2837 34.0834 15 29.7709 15 24.5C15 21.9584 16.0097 19.5208 17.8069 17.7236C19.6041 15.9264 22.0417 14.9167 24.5833 14.9167ZM25.0625 19.7084V24.7396L29.375 27.2984L28.6562 28.4771L23.625 25.4584V19.7084H25.0625Z" fill="#F6520B"/>
</svg>
