<svg width="49" height="49" viewBox="0 0 49 49" fill="none" xmlns="http://www.w3.org/2000/svg">
<rect width="49" height="49" rx="7" fill="#DBEAFE"/>
<path d="M25.1449 15.4806C24.7856 15.1211 24.2981 14.9191 23.7898 14.919H16.9167C16.4083 14.919 15.9208 15.1209 15.5614 15.4804C15.2019 15.8398 15 16.3273 15 16.8357V23.7088C15.0001 24.2171 15.2021 24.7046 15.5616 25.0639L23.9029 33.4053C24.3385 33.8381 24.9276 34.081 25.5417 34.081C26.1557 34.081 26.7448 33.8381 27.1804 33.4053L33.4862 27.0994C33.9191 26.6638 34.162 26.0747 34.162 25.4607C34.162 24.8466 33.9191 24.2575 33.4862 23.8219L25.1449 15.4806Z" stroke="#155DFC" stroke-width="1.91667" stroke-linecap="round" stroke-linejoin="round"/>
<path d="M20.2708 20.669C20.5355 20.669 20.75 20.4545 20.75 20.1899C20.75 19.9252 20.5355 19.7107 20.2708 19.7107C20.0062 19.7107 19.7917 19.9252 19.7917 20.1899C19.7917 20.4545 20.0062 20.669 20.2708 20.669Z" fill="#155DFC" stroke="#155DFC" stroke-width="1.91667" stroke-linecap="round" stroke-linejoin="round"/>
</svg>
