<svg width="65" height="66" viewBox="0 0 65 66" fill="none" xmlns="http://www.w3.org/2000/svg">
<path d="M11.375 16.9336C10.0821 16.9336 8.84209 16.42 7.92785 15.5057C7.01361 14.5915 6.5 13.3515 6.5 12.0586C6.5 10.7657 7.01361 9.52569 7.92785 8.61145C8.84209 7.69721 10.0821 7.18359 11.375 7.18359C12.6679 7.18359 13.9079 7.69721 14.8221 8.61145C15.7364 9.52569 16.25 10.7657 16.25 12.0586C16.25 13.3515 15.7364 14.5915 14.8221 15.5057C13.9079 16.42 12.6679 16.9336 11.375 16.9336ZM63.0825 31.8186L33.8325 2.56859C32.6625 1.39859 31.0375 0.683594 29.25 0.683594H6.5C2.8925 0.683594 0 3.57609 0 7.18359V29.9336C0 31.7211 0.715 33.3461 1.9175 34.5161L31.135 63.7661C32.3375 64.9361 33.9625 65.6836 35.75 65.6836C37.5375 65.6836 39.1625 64.9361 40.3325 63.7661L63.0825 41.0161C64.285 39.8461 65 38.2211 65 36.4336C65 34.6136 64.2525 32.9886 63.0825 31.8186Z" fill="#009EF5"/>
</svg>

