<svg xmlns="http://www.w3.org/2000/svg" viewBox="0 0 416.48 441.64"><defs><style>.cls-1{fill:none;}.cls-2{fill:#8cbbe6;}.cls-3{fill:#fbd5c4;}.cls-4{fill:#ec6453;}.cls-5{fill:#fff;}.cls-6{fill:#192e35;}</style></defs><g id="Capa_2" data-name="Capa 2"><g id="Capa_1-2" data-name="Capa 1"><path class="cls-1" d="M111.87,117.61l2.73,3.61c2.08,2.77,4.3,5.71,6.68,8.65-.5-1.51-.88-2.83-1.15-4Z"/><path class="cls-2" d="M348.54,281.19a1.25,1.25,0,1,0,1-2.29l-4.86-2.12c-1.17.45-2.35.84-3.56,1.18Z"/><path class="cls-2" d="M159.85,91.53l-4-10.19a36,36,0,0,0-1.17,3.85l11.86,30.24a1.26,1.26,0,0,0,1.17.79,1.2,1.2,0,0,0,.45-.09,1.24,1.24,0,0,0,.71-1.62L165,104.64a.39.39,0,0,1-.08-.1A26,26,0,0,1,159.85,91.53Z"/><path class="cls-2" d="M211.85,91c.75-.1,1.49-.16,2.24-.19v-65a1.25,1.25,0,1,0-2.5,0V84.61A25.94,25.94,0,0,1,211.85,91Z"/><path class="cls-2" d="M68,351a1.25,1.25,0,0,0,0,1.77,1.27,1.27,0,0,0,1.77,0l17.6-17.61c.43-1.62,1-3.34,1.59-5.12Z"/><path class="cls-2" d="M348.77,86.33A1.24,1.24,0,1,0,347,84.57l-25.27,25.27c-.93,2.15-1.86,4.26-2.78,6.31Z"/><path class="cls-2" d="M340.72,359.05a1.25,1.25,0,0,0,1.76-1.77l-14.63-14.63a15.68,15.68,0,0,1-.34,3.19Z"/><path class="cls-2" d="M384.05,221.86H359c.42.84.81,1.68,1.18,2.5h23.19l.15-.83A8.46,8.46,0,0,1,384.05,221.86Z"/><path class="cls-2" d="M351.71,163.77a1.25,1.25,0,0,0-.92-2.32l-32.86,12.89a21,21,0,0,1,3,1.52Z"/><path class="cls-2" d="M65.07,273.55a1.25,1.25,0,0,0,.46,2.41,1.2,1.2,0,0,0,.45-.09l4.36-1.71q-.65-1-1.26-2.19Z"/><path class="cls-2" d="M107.53,112.29c1.37,1.52,2.82,3.35,4.34,5.32l8.26,8.27a20.19,20.19,0,0,1-.58-4.12L97.44,99.65a7.09,7.09,0,0,1-1.74,1.8l6.74,6.74A17.12,17.12,0,0,1,107.53,112.29Z"/><path class="cls-2" d="M252.44,117.72a1.24,1.24,0,0,0,.5.1,1.26,1.26,0,0,0,1.15-.75l16.83-38.56a1.25,1.25,0,1,0-2.29-1L251.8,116.07A1.25,1.25,0,0,0,252.44,117.72Z"/><path class="cls-2" d="M105.8,175.25a1.25,1.25,0,1,0,1-2.29L84.05,163l-7.77-.66Z"/><path class="cls-2" d="M15.55,213a1.25,1.25,0,0,0,0,2.5H78c.45-.82.9-1.66,1.37-2.5Z"/><path class="cls-2" d="M112.49,382.47c-4.54,22.51.22,32.21.38,56.67h9.64c-.8-6.38-3.83-32.13-2.59-44,.28-2.75,4.37-19.17,8.64-35.82-3-.69-6.1-1.41-9.31-2.19C116.23,367.68,113.5,377.46,112.49,382.47Z"/><path class="cls-2" d="M232.49,400.25,251,397V347.4c-6.44,1.48-12.71,2.77-18.47,3.69Z"/><path class="cls-2" d="M210.61,352.82c-1.58,0-3.15,0-4.7-.08-.32,9.6-.55,15.58-.56,15.82a1.25,1.25,0,0,1-1.11,1.19,43.88,43.88,0,0,1-4.61.17c-3.28,0-8.42-.18-15.78-.92a34.7,34.7,0,0,1-3.52,3.33c-10.28,8.44-23.51,10-31.89,10a55,55,0,0,1-8.12-.53,1.25,1.25,0,0,1,.39-2.47c.22,0,23,3.45,38-8.94.67-.55,1.31-1.14,1.93-1.74a470.24,470.24,0,0,1-49.68-8.8c-4.25,16.59-8.33,32.91-8.6,35.53-1.21,11.67,1.92,38.09,2.63,43.76h111L239,410.78v-.1l.94-9.2-21.36,3.77a1.25,1.25,0,0,1-.44-2.46l11.93-2.1a1.35,1.35,0,0,1,0-.29V351.47l-2.7.36A138.43,138.43,0,0,1,210.61,352.82Z"/><polygon class="cls-2" points="243.78 439.14 240.52 420.11 238.58 439.14 243.78 439.14"/><path class="cls-2" d="M253.46,346.82v49.74l5.75-1a1.25,1.25,0,0,1,.43,2.47l-17.18,3-1,9.79,4.86,28.32h92.56l-21.06-86.73c-3.21-.88-5.34.47-9,2.78a72.59,72.59,0,0,1-6.51,3.8c-1.39.69-2.72,1.3-4,1.85,3.26,8.42,7,11.89,10.1,13.17a9.81,9.81,0,0,0,9.18-1.07,1.25,1.25,0,0,1,1.5,2,12.84,12.84,0,0,1-7.17,2.28,11.65,11.65,0,0,1-4.43-.89c-4.66-1.92-8.5-6.81-11.5-14.58A44.38,44.38,0,0,1,280.87,365a6.87,6.87,0,0,1-.7,0,1.26,1.26,0,0,1-1.17-1.15c0-.33-.69-9.35-1.84-22.95C269.51,342.86,261.4,345,253.46,346.82Z"/><path class="cls-3" d="M218.79,96.9s.94,18.73-19.88,29.7c3.83,14.11,16.21,23.29,28.45,20.74l.66-.17a23,23,0,0,0,9-9.35,31.19,31.19,0,0,0,2.75-21.16,33.8,33.8,0,0,0-2.27-6.92C234.25,109.31,225.64,107.21,218.79,96.9Z"/><path class="cls-3" d="M269.65,161.62a1.24,1.24,0,0,1-1-1.37c1.22-9.22,7-15.69,11.72-20.9,1.28-1.42,2.49-2.76,3.52-4.06,1.24-1.57,2.42-3.19,3.54-4.83,3.19-12,2.2-15.42,1.25-16.42-.27-.28-.78-.62-2.07-.3-2.68.66-6.73,9.23-8.67,13.35-.69,1.45-1.28,2.71-1.74,3.55l-.94,1.72c-6.37,11.63-11.4,20.81-12.47,27.41s-.13,17.3-.12,17.41l1,7.26,1.08,0Z"/><path class="cls-3" d="M321,105.11c1.28-3,1.06-5.61-.54-6.51-1.3-.73-3.5-.23-5.33,2,1.36,1.85,2,5.06.85,9.9-1.07,4.37-2.16,8.7-3.22,12.93C315.38,118.11,318.27,111.69,321,105.11Z"/><path class="cls-3" d="M304.28,167.28c-.16-5.4-.34-18.7,1.31-25.44,1.15-4.68,2.41-9.66,3.71-14.83,1.4-5.52,2.85-11.25,4.27-17.07,1.23-5,.18-8-1.4-8.65s-4.62.53-7.55,4.94c-1.73,2.61-3.61,6-5.6,9.67-3.65,6.64-7.78,14.18-13.15,20.95-1.08,1.35-2.31,2.72-3.62,4.17-4.68,5.21-10,11.11-11.11,19.56a1.24,1.24,0,0,1-1.4,1.07.32.32,0,0,1-.09,0l-4.9,22.84a66.63,66.63,0,0,0,17-2.06c9.28-2.46,17.53-8.67,22.46-12.38l.19-.15C304.36,169,304.31,168.16,304.28,167.28Zm4.86-62.54a1.25,1.25,0,0,1,2.18,1.24c-4,7-3.79,10.44-3.33,11.89a2.61,2.61,0,0,0,1,1.44,1.25,1.25,0,0,1-.52,2.38,1.23,1.23,0,0,1-.53-.11,4.8,4.8,0,0,1-2.29-3C304.56,115.37,305.75,110.7,309.14,104.74Z"/><path class="cls-3" d="M154.7,161c-2-6.39-8.3-14.77-16.27-25.37l-1.16-1.56c-.58-.76-1.34-1.92-2.23-3.26-2.51-3.8-7.75-11.71-10.49-12-1.32-.13-1.78.28-2,.6-.8,1.12-1.27,4.7,3.58,16.07,1.35,1.47,2.74,2.9,4.2,4.28,1.2,1.13,2.59,2.29,4.06,3.52,5.37,4.48,12.06,10.06,14.59,19a1.26,1.26,0,0,1-.78,1.5l8.11,21.91,1.06-.17-.07-7.38C157.29,178.1,156.71,167.42,154.7,161Z"/><path class="cls-3" d="M88.89,108.66c-1.46,1.13-1.31,3.69.39,6.53,3.66,6.12,7.43,12.06,10.78,17-1.66-4-3.35-8.16-5-12.34-1.87-4.62-1.66-7.89-.58-9.92C92.32,107.94,90.07,107.75,88.89,108.66Z"/><path class="cls-3" d="M148.1,163.84a1.26,1.26,0,0,1-1.54-.87c-2.32-8.2-8.41-13.28-13.78-17.76-1.5-1.26-2.92-2.44-4.18-3.63-6.28-5.93-11.45-12.8-16-18.86-2.49-3.3-4.84-6.43-6.93-8.77-3.53-3.94-6.64-4.75-8.17-3.81s-2.09,4-.16,8.77c2.25,5.57,4.52,11.07,6.69,16.36,2,4.9,4,9.63,5.76,14.07,2.6,6.44,4.31,19.62,4.93,25q.15,1.31.21,2.58l.21.12c5.41,3,14.46,7.94,24,9.05a66.09,66.09,0,0,0,17.17-.39l-8.11-21.91S148.14,163.83,148.1,163.84Zm-41.64-37.47a4.72,4.72,0,0,1-1.85,3.24,1.2,1.2,0,0,1-.68.2,1.24,1.24,0,0,1-.7-2.28,2.59,2.59,0,0,0,.79-1.72c.2-1.49-.18-4.93-5-11.15a1.25,1.25,0,0,1,.22-1.75,1.23,1.23,0,0,1,1.75.22C105.19,118.54,107,123,106.46,126.37Z"/><path class="cls-4" d="M22.51,139l18.29-2.4a8.74,8.74,0,0,0,7.51-9.78L35.65,30.46A8.71,8.71,0,0,0,25.87,23L7.59,25.35A8.73,8.73,0,0,0,.08,35.14l12.65,96.33h0A8.67,8.67,0,0,0,22.51,139Zm-7.3-7.84h0L2.55,34.81a6.23,6.23,0,0,1,5.36-7l18.29-2.4a6.17,6.17,0,0,1,4.6,1.23,6.25,6.25,0,0,1,2.38,4.13l12.65,96.33a6.23,6.23,0,0,1-5.36,7l-18.28,2.4A6.21,6.21,0,0,1,15.21,131.14Z"/><path class="cls-4" d="M54,170.26a8.73,8.73,0,0,0-9.78-7.51L26,165.15a8.73,8.73,0,0,0-7.51,9.79l2.95,22.48A8.72,8.72,0,0,0,30,205a8.88,8.88,0,0,0,1.15-.07l18.29-2.4A8.73,8.73,0,0,0,57,192.74Zm-.76,27.41a6.19,6.19,0,0,1-4.13,2.38l-18.28,2.4a6.21,6.21,0,0,1-7-5.36l-2.95-22.48a6.22,6.22,0,0,1,5.36-7l18.28-2.4a5.73,5.73,0,0,1,.82,0,6.21,6.21,0,0,1,6.16,5.41l3,22.48A6.17,6.17,0,0,1,53.26,197.67Z"/><path class="cls-4" d="M386.07,347.38l-15.61-2.83a8.73,8.73,0,0,0-10.14,7L356.79,371a8.72,8.72,0,0,0,7,10.14L379.43,384a9.26,9.26,0,0,0,1.57.14,8.73,8.73,0,0,0,8.57-7.16l3.53-19.46A8.73,8.73,0,0,0,386.07,347.38Zm4.57,9.69-3.53,19.46a6.23,6.23,0,0,1-7.24,5l-15.61-2.83a6.24,6.24,0,0,1-5-7.24L362.78,352a6.17,6.17,0,0,1,7.24-5l15.61,2.83A6.23,6.23,0,0,1,390.64,357.07Z"/><path class="cls-4" d="M409.32,219.34l-15.62-2.83a8.71,8.71,0,0,0-9.65,5.35,8.46,8.46,0,0,0-.49,1.67l-.15.83-15.66,86.27a8.74,8.74,0,0,0,7,10.14l15.61,2.83a9.37,9.37,0,0,0,1.58.14,8.71,8.71,0,0,0,8.56-7.16l15.81-87.1A8.73,8.73,0,0,0,409.32,219.34Zm4.56,9.69-15.81,87.1a6.23,6.23,0,0,1-7.23,5l-15.61-2.83a6.23,6.23,0,0,1-5-7.24L386,224a6.24,6.24,0,0,1,7.24-5l15.61,2.83A6.23,6.23,0,0,1,413.88,229Z"/><path class="cls-4" d="M84.05,163l1.44.12a7.46,7.46,0,0,0,8.08-6.81l1.64-19.19a7.48,7.48,0,0,0-6.81-8.08L73,127.77A7.46,7.46,0,0,0,65,134.58l-1.64,19.18a7.47,7.47,0,0,0,6.81,8.08l6.15.53Z"/><path class="cls-4" d="M75.28,101.59l15.35,1.31a7.4,7.4,0,0,0,5.07-1.45,7.09,7.09,0,0,0,1.74-1.8,7.38,7.38,0,0,0,1.27-3.56L106.1,9.42a7.46,7.46,0,0,0-6.8-8.08L83.94,0a7.47,7.47,0,0,0-8.08,6.81L68.47,93.51A7.47,7.47,0,0,0,75.28,101.59Z"/><path class="cls-4" d="M258.06,184.06s1.17.17,3.08.28l-.93-6.88c0-.5-1-11.12.13-18.09a28.5,28.5,0,0,1,1-4.15,77.1,77.1,0,0,1,4.52-10.57,58,58,0,0,0-13.63-4.08l-.23-.36a1.21,1.21,0,0,1-.88.18c-6.72-1.24-10.63-.7-12.74,0-.34.56-.7,1.1-1.07,1.62,2.95,6.34,12.77,27.83,20.62,50.46l-1.31-6.93a1.26,1.26,0,0,1,1.41-1.47Z"/><path class="cls-4" d="M297.33,258.45c-14.08-12.19-25.51-29.06-31.83-39.72,7.8,39.07,15,132.27,15.91,143.75,2.66-.09,10-.82,19.8-5.73a67,67,0,0,0,6.3-3.67c4.77-3,8-5.08,14.25-1.72,1.7-1.51,6.22-6.81,1.6-17.22C319,324.27,303.71,280.82,297.33,258.45Z"/><path class="cls-4" d="M189.78,141.16l.29-1.39c-16.34-.47-29,2.17-39.94,7.63,3.32,4.86,5.78,9.11,7,12.84,2.11,6.73,2.69,17.38,2.71,17.83l.06,7c1.88-.39,3-.71,3-.72a1.26,1.26,0,0,1,1.12.22,1.23,1.23,0,0,1,.48,1L164,196c.54,1.25,2.16,5.87.25,13.36-1,3.91-12.8,36.52-32.27,57.17a1.26,1.26,0,0,1-1.77,0,1.34,1.34,0,0,1-.3-.48,1.24,1.24,0,0,1,.25-1.29c19.11-20.26,30.7-52.23,31.67-56.07,1.94-7.65-.18-11.87-.2-11.91a1.39,1.39,0,0,1-.15-.63l.39-9a69.21,69.21,0,0,1-23,1.38c-8.27-1-16.06-4.62-21.66-7.59l-2.9,4.39C100.8,189.11,79.36,230.65,76.85,238c-5.9,17.11-5.29,29.95-1.46,38.82a29.91,29.91,0,0,0,7.26,6.08,1.25,1.25,0,0,1,.53.65l.23-.09a31,31,0,0,0,4.34,2.08c14,5.48,30.21,1.55,37.84-5.4,9.07-8.28,27.29-27.55,47.36-63.71a1.24,1.24,0,0,1,1.34-.6,1.09,1.09,0,0,1,.36.12,1.25,1.25,0,0,1,.49,1.7c-20.25,36.46-38.68,56-47.86,64.33a28.17,28.17,0,0,1-5.61,3.91c-5.62,14.05-23.79,46.72-24.78,61.82a26,26,0,0,0,.37,6.86,2.49,2.49,0,0,1,.19-.3c1.12-1.57,3.34-2.35,6.7-2.35a47.47,47.47,0,0,1,10.94,1.66c57.52,14.2,82.57,14.05,87.81,13.81.41-10.91,3.56-97.94,2-143.33C203.76,192.72,192.6,151.23,189.78,141.16Zm-79.12,48.32a1.25,1.25,0,0,1,1.74-.31c.17.11,16.76,11.47,43.07,7a1.25,1.25,0,1,1,.42,2.46,76.1,76.1,0,0,1-12.73,1.09c-19.8,0-31.61-8.12-32.2-8.53A1.25,1.25,0,0,1,110.66,189.48Z"/><path class="cls-4" d="M195.52,95.56c-4.28,4.28-4.4,9.71-3.77,13.44a30.31,30.31,0,0,1,2.12-5A24.71,24.71,0,0,1,207.1,92.18a12.62,12.62,0,0,0-3.09-.4A11.74,11.74,0,0,0,195.52,95.56Z"/><path class="cls-4" d="M356.25,221.84c-3.63-7.06-29-44.23-41.52-45.82a1.27,1.27,0,0,1-.77-.41l-5.18-5.82c-.8.54-1.82,1.32-3,2.22-5.08,3.82-13.57,10.22-23.32,12.8a69.13,69.13,0,0,1-23,1.92l1.66,8.81a1.24,1.24,0,0,1-.05.66s-1.52,4.51,1.5,11.81c1.51,3.66,17.54,33.65,39.34,51a1.22,1.22,0,0,1,.43,1.24,1.16,1.16,0,0,1-.23.52,1.24,1.24,0,0,1-1.34.41c.58,1.93,1.2,4,1.87,6.13,2.83,1.88,5.44,3.53,7.77,4.9,9.56,5.62,26.59,7.06,38.56-.25.58-.36,1.17-.76,1.76-1.19l.38.08a1.25,1.25,0,0,1,.42-.71C356.41,266.19,371.3,251.11,356.25,221.84ZM269,197.26l-1.95,0a1.24,1.24,0,0,1-1.22-1.28,1.26,1.26,0,0,1,1.28-1.22c26.73.66,41.48-13,41.63-13.09a1.25,1.25,0,0,1,1.71,1.82C309.79,184,295.46,197.26,269,197.26Z"/><path class="cls-5" d="M22.19,136.5l18.28-2.4a6.23,6.23,0,0,0,5.36-7L33.18,30.79a6.25,6.25,0,0,0-2.38-4.13,6.17,6.17,0,0,0-4.6-1.23L7.91,27.83a6.23,6.23,0,0,0-5.36,7l12.66,96.33h0A6.21,6.21,0,0,0,22.19,136.5Z"/><path class="cls-5" d="M51.54,170.59a6.21,6.21,0,0,0-6.16-5.41,5.73,5.73,0,0,0-.82,0l-18.28,2.4a6.22,6.22,0,0,0-5.36,7l2.95,22.48a6.21,6.21,0,0,0,7,5.36l18.28-2.4a6.21,6.21,0,0,0,5.36-7Z"/><path class="cls-5" d="M385.63,349.84,370,347a6.27,6.27,0,0,0-1.13-.11,6.23,6.23,0,0,0-6.11,5.12l-3.53,19.45a6.24,6.24,0,0,0,5,7.24l15.61,2.83a6.23,6.23,0,0,0,7.24-5l3.53-19.46A6.23,6.23,0,0,0,385.63,349.84Z"/><path class="cls-5" d="M408.87,221.8,393.26,219a6.24,6.24,0,0,0-7.24,5l-15.81,87.09a6.23,6.23,0,0,0,5,7.24l15.61,2.83a6.23,6.23,0,0,0,7.23-5L413.88,229A6.23,6.23,0,0,0,408.87,221.8Z"/><path class="cls-5" d="M119.25,357.11c-1.56-.37-3.15-.76-4.76-1.16-2.22-.54-4.11-.92-5.73-1.18-3.33,11.58-6.42,22.55-7.51,27.94-2.85,14.14-2,23-.93,34.14.6,6.26,1.28,13.32,1.33,22.29h11.22c-.16-24.46-4.92-34.16-.38-56.67C113.5,377.46,116.23,367.68,119.25,357.11Z"/><path class="cls-5" d="M260.22,209a26.72,26.72,0,0,1-2-7.86c-7.68-24-18.74-48.55-22.61-56.91a23.85,23.85,0,0,1-7.52,5.76c1.89,3.12,4.25,8.26.15,9.38-7.59,2.07-18.19-6.91-21.94-10.39a29.93,29.93,0,0,1-8.28-7c-1.79,0-3.59.06-5.39.12,3.41,12.35,13.68,51.76,14.74,81.88,1.24,35.41-.39,96-1.37,126.32a137.63,137.63,0,0,0,21-.89c14.24-1.74,33-6.61,49.58-10.9l.38-.1c-3.15-37-9.46-103.83-15.8-127.43C260.7,210,260.38,209.35,260.22,209ZM246.44,255.2c-.1,0-10.12.79-18.25,3.95a1.42,1.42,0,0,1-.45.08,1.25,1.25,0,0,1-.46-2.41,75.47,75.47,0,0,1,19-4.11,1.25,1.25,0,1,1,.18,2.49Zm11.91-8.56c-12.76-.47-39.71,9.82-45.71,16.27a1.23,1.23,0,0,1-.91.4,1.24,1.24,0,0,1-.92-2.1c6.44-6.92,34.09-17.57,47.63-17.07a1.25,1.25,0,0,1,1.2,1.3A1.24,1.24,0,0,1,258.35,246.64Z"/><path class="cls-5" d="M105.11,300.34c-7,14.09-15.76,31.63-16.4,41.38-.69,10.49,4.32,14.51,7.61,16a2.74,2.74,0,0,1,.24-1.27,1.68,1.68,0,0,1,.15-.3,4,4,0,0,1,.55-1.64,26,26,0,0,1-.37-6.86c1-15.1,19.16-47.77,24.78-61.82a39.3,39.3,0,0,1-11.36,3.89C108.86,292.82,107.07,296.4,105.11,300.34Z"/><path class="cls-5" d="M222.35,149.3a20,20,0,0,0,5.67-2.13l-.66.17c-12.24,2.55-24.62-6.63-28.45-20.74a50.67,50.67,0,0,1-4.95,2.28C198,142.79,210.27,151.82,222.35,149.3Z"/><path class="cls-5" d="M114.28,185.37l2.9-4.39c-1.18-.62-2.27-1.22-3.24-1.75-1.32-.73-2.45-1.35-3.32-1.77L106.33,184a1.28,1.28,0,0,1-.71.52c-12.17,3.37-32,43.77-34.56,51.27-7.37,21.39-1.7,34.12,4.33,41C71.56,267.9,71,255.06,76.85,238,79.36,230.65,100.8,189.11,114.28,185.37Z"/><path class="cls-6" d="M399.82,438.94H341.4l-20.71-85.31.56.31a1.23,1.23,0,0,0,1.32,0,13.51,13.51,0,0,0,4.94-8.06,15.68,15.68,0,0,0,.34-3.19,23,23,0,0,0-2.2-9.52c-3.5-7.9-14.55-39-21.87-62.08,1.9,1.22,3.68,2.33,5.32,3.29,5.32,3.13,12.81,5.14,20.65,5.14A42.88,42.88,0,0,0,341.12,278c1.21-.34,2.39-.73,3.56-1.18a35.14,35.14,0,0,0,5.55-2.71,29.12,29.12,0,0,0,9.92-10c4.93-7.81,8.59-20.81.07-39.71-.37-.82-.76-1.66-1.18-2.5-.19-.39-.37-.77-.57-1.16-2.75-5.34-22.94-36-37.56-44.84a21,21,0,0,0-3-1.52,13,13,0,0,0-2.4-.73L310,167.34a1.26,1.26,0,0,0-1.55-.26c-.44.25-1,.61-1.58,1,0-.3,0-.6,0-.9-.32-11,.15-20.3,1.24-24.77q1-4.17,2.15-8.63a1.26,1.26,0,0,0,.13-.17c2.37-4.13,5.46-10.4,8.66-17.49.92-2.05,1.85-4.16,2.78-6.31.53-1.25,1.06-2.5,1.59-3.77,2.18-5.22.49-8.46-1.62-9.65S316,95.55,313.22,99l-.05,0c-2.53-1.1-6.64-.15-10.63,5.84-1.79,2.71-3.7,6.18-5.71,9.86-1.67,3-3.45,6.26-5.39,9.51,1.45-8,.27-10.63-.93-11.89a4.34,4.34,0,0,0-4.48-1c-3.54.87-6.91,7.46-10.33,14.71-.67,1.42-1.25,2.64-1.67,3.42l-.95,1.72c-2.22,4.05-4.27,7.81-6.07,11.29A60.68,60.68,0,0,0,251.84,138a1,1,0,0,0-.24-.09,34.21,34.21,0,0,0-11.62-.49,35,35,0,0,0-9.68-41,24.88,24.88,0,0,0-16.21-5.59c-.75,0-1.49.09-2.24.19a26.11,26.11,0,1,0-46.93,13.53.39.39,0,0,0,.08.1,26.09,26.09,0,0,0,25.45,10,35.92,35.92,0,0,0,5.71,24.84c-1.41,0-2.82.06-4.23.12-.25-.87-.39-1.36-.41-1.4s0,0,0-.06l-.06-.13a2.13,2.13,0,0,0-.16-.25l-.1-.11a2.48,2.48,0,0,0-.26-.19l-.1-.05a1.19,1.19,0,0,0-.41-.11c-1.17-.08-22.87-1.43-41.87,7.84-2.39-3.38-5.13-7-8.11-11l-1.16-1.56c-.53-.7-1.28-1.83-2.14-3.14-4.43-6.69-8.71-12.73-12.33-13.09a4.33,4.33,0,0,0-4.29,1.64,6,6,0,0,0-1,3.79,20.19,20.19,0,0,0,.58,4.12c.27,1.16.65,2.48,1.15,4-2.38-2.94-4.6-5.88-6.68-8.65l-2.73-3.61c-1.52-2-3-3.8-4.34-5.32a17.12,17.12,0,0,0-5.09-4.1c-2.61-1.28-4.8-1.08-6.26-.17l-.05,0c-3.28-3-6.8-2.88-8.77-1.37s-3.13,4.93-.23,9.79A281.08,281.08,0,0,0,104,141.9l.16.16c1.16,2.82,2.29,5.57,3.35,8.22,1.72,4.27,3.5,13.37,4.77,24.34,0,.3.05.6.08.9-.65-.33-1.23-.61-1.71-.8a1.25,1.25,0,0,0-1.49.48l-4.63,7c-8,2.66-17.79,17.41-25.16,30.76-.47.84-.92,1.68-1.37,2.5a183,183,0,0,0-9.26,19.47c-5.9,17.12-3.8,29.05.38,37q.61,1.15,1.26,2.19a33.26,33.26,0,0,0,7.59,8.47c.36.29.71.55,1,.79a32.93,32.93,0,0,0,7.85,4.4,41.62,41.62,0,0,0,15,2.7,45.38,45.38,0,0,0,5.47-.33c-1.32,2.74-2.84,5.8-4.45,9C98,309,92.28,320.49,89,330c-.62,1.78-1.16,3.5-1.59,5.12a35.13,35.13,0,0,0-1.16,6.41c-1,15.67,9.79,18.91,12.07,19.42a22.59,22.59,0,0,0,5.18,3.26c-2.13,7.58-3.88,14.14-4.66,18-2.93,14.5-2,23.94-1,34.87.59,6.15,1.25,13.1,1.32,21.85H17a1.25,1.25,0,1,0,0,2.5H99.78a1.24,1.24,0,0,0,.63.2H340.47a1.24,1.24,0,0,0,.65-.2h58.7a1.25,1.25,0,0,0,0-2.5Zm-76.46-104.8c4.62,10.41.1,15.71-1.6,17.22-6.27-3.36-9.48-1.32-14.25,1.72a67,67,0,0,1-6.3,3.67c-9.77,4.91-17.14,5.64-19.8,5.73C280.54,351,273.3,257.8,265.5,218.73c6.32,10.66,17.75,27.53,31.83,39.72C303.71,280.82,319,324.27,323.36,334.14ZM308.78,169.79l5.18,5.82a1.27,1.27,0,0,0,.77.41c12.53,1.59,37.89,38.76,41.52,45.82,15.05,29.27.16,44.35-4.76,48.28a1.25,1.25,0,0,0-.42.71l-.38-.08c-.59.43-1.18.83-1.76,1.19-12,7.31-29,5.87-38.56.25-2.33-1.37-4.94-3-7.77-4.9-.67-2.15-1.29-4.2-1.87-6.13a1.24,1.24,0,0,0,1.34-.41,1.16,1.16,0,0,0,.23-.52,1.22,1.22,0,0,0-.43-1.24c-21.8-17.33-37.83-47.32-39.34-51-3-7.3-1.52-11.77-1.5-11.81a1.24,1.24,0,0,0,.05-.66l-1.66-8.81a69.13,69.13,0,0,0,23-1.92c9.75-2.58,18.24-9,23.32-12.8C307,171.11,308,170.33,308.78,169.79Zm11.7-71.19c1.6.9,1.82,3.46.54,6.51-2.75,6.58-5.64,13-8.24,18.36,1.06-4.23,2.15-8.56,3.22-12.93,1.19-4.84.51-8.05-.85-9.9C317,98.37,319.18,97.87,320.48,98.6Zm-45.2,33.76.94-1.72c.46-.84,1-2.1,1.74-3.55,1.94-4.12,6-12.69,8.67-13.35,1.29-.32,1.8,0,2.07.3.95,1,1.94,4.47-1.25,16.42-1.12,1.64-2.3,3.26-3.54,4.83-1,1.3-2.24,2.64-3.52,4.06-4.68,5.21-10.5,11.68-11.72,20.9a1.24,1.24,0,0,0,1,1.37.32.32,0,0,0,.09,0,1.24,1.24,0,0,0,1.4-1.07c1.13-8.45,6.43-14.35,11.11-19.56,1.31-1.45,2.54-2.82,3.62-4.17,5.37-6.77,9.5-14.31,13.15-20.95,2-3.63,3.87-7.06,5.6-9.67,2.93-4.41,5.9-5.66,7.55-4.94s2.63,3.64,1.4,8.65c-1.42,5.82-2.87,11.55-4.27,17.07-1.3,5.17-2.56,10.15-3.71,14.83-1.65,6.74-1.47,20-1.31,25.44,0,.88.08,1.74.16,2.59l-.19.15c-4.93,3.71-13.18,9.92-22.46,12.38a66.63,66.63,0,0,1-17,2.06l-1.08,0-1-7.26c0-.11-1-10.75.12-17.41S268.91,144,275.28,132.36Zm-24.13,8a1.21,1.21,0,0,0,.88-.18l.23.36a58,58,0,0,1,13.63,4.08,77.1,77.1,0,0,0-4.52,10.57,28.5,28.5,0,0,0-1,4.15c-1.13,7-.18,17.59-.13,18.09l.93,6.88c-1.91-.11-3-.27-3.08-.28a1.26,1.26,0,0,0-1.41,1.47l1.31,6.93c-7.85-22.63-17.67-44.12-20.62-50.46.37-.52.73-1.06,1.07-1.62C240.52,139.69,244.43,139.15,251.15,140.39ZM195.52,95.56A11.74,11.74,0,0,1,204,91.78a12.62,12.62,0,0,1,3.09.4A24.71,24.71,0,0,0,193.87,104a30.31,30.31,0,0,0-2.12,5C191.12,105.27,191.24,99.84,195.52,95.56ZM194,128.88a50.67,50.67,0,0,0,4.95-2.28c20.82-11,19.88-29.7,19.88-29.7,6.85,10.31,15.46,12.41,18.69,12.84a33.8,33.8,0,0,1,2.27,6.92A31.19,31.19,0,0,1,237,137.82a23,23,0,0,1-9,9.35,20,20,0,0,1-5.67,2.13C210.27,151.82,198,142.79,194,128.88Zm4,13a29.93,29.93,0,0,0,8.28,7c3.75,3.48,14.35,12.46,21.94,10.39,4.1-1.12,1.74-6.26-.15-9.38a23.85,23.85,0,0,0,7.52-5.76c3.87,8.36,14.93,32.93,22.61,56.91a26.72,26.72,0,0,0,2,7.86c.16.38.48,1.05.93,1.95,6.34,23.6,12.65,90.4,15.8,127.43l-.38.1c-16.56,4.29-35.34,9.16-49.58,10.9a137.63,137.63,0,0,1-21,.89c1-30.28,2.61-90.91,1.37-126.32C206.3,193.8,196,154.39,192.62,142,194.42,142,196.22,141.94,198,141.92Zm34.48,209.17c5.76-.92,12-2.21,18.47-3.69V397l-18.47,3.25ZM89.28,115.19c-1.7-2.84-1.85-5.4-.39-6.53,1.18-.91,3.43-.72,5.56,1.26-1.08,2-1.29,5.3.58,9.92,1.68,4.18,3.37,8.31,5,12.34C96.71,127.25,92.94,121.31,89.28,115.19Zm25.44,59.15c-.62-5.38-2.33-18.56-4.93-25-1.79-4.44-3.74-9.17-5.76-14.07-2.17-5.29-4.44-10.79-6.69-16.36-1.93-4.79-1.31-7.85.16-8.77s4.64-.13,8.17,3.81c2.09,2.34,4.44,5.47,6.93,8.77,4.55,6.06,9.72,12.93,16,18.86,1.26,1.19,2.68,2.37,4.18,3.63,5.37,4.48,11.46,9.56,13.78,17.76a1.26,1.26,0,0,0,1.54.87s.06,0,.09-.05a1.26,1.26,0,0,0,.78-1.5c-2.53-8.94-9.22-14.52-14.59-19-1.47-1.23-2.86-2.39-4.06-3.52-1.46-1.38-2.85-2.81-4.2-4.28-4.85-11.37-4.38-15-3.58-16.07.23-.32.69-.73,2-.6,2.74.27,8,8.18,10.49,12,.89,1.34,1.65,2.5,2.23,3.26l1.16,1.56c8,10.6,14.26,19,16.27,25.37s2.59,17.11,2.59,17.16l.07,7.38-1.06.17a66.09,66.09,0,0,1-17.17.39c-9.53-1.11-18.58-6.08-24-9.05l-.21-.12Q114.87,175.65,114.72,174.34Zm-26,167.38c.64-9.75,9.38-27.29,16.4-41.38,2-3.94,3.75-7.52,5.2-10.61a39.3,39.3,0,0,0,11.36-3.89,28.17,28.17,0,0,0,5.61-3.91c9.18-8.37,27.61-27.87,47.86-64.33a1.25,1.25,0,0,0-.49-1.7,1.09,1.09,0,0,0-.36-.12,1.24,1.24,0,0,0-1.34.6c-20.07,36.16-38.29,55.43-47.36,63.71-7.63,7-23.87,10.88-37.84,5.4a31,31,0,0,1-4.34-2.08l-.23.09a1.25,1.25,0,0,0-.53-.65,29.91,29.91,0,0,1-7.26-6.08c-6-6.91-11.7-19.64-4.33-41,2.59-7.5,22.39-47.9,34.56-51.27a1.28,1.28,0,0,0,.71-.52l4.29-6.49c.87.42,2,1,3.32,1.77,1,.53,2.06,1.13,3.24,1.75,5.6,3,13.39,6.62,21.66,7.59a69.21,69.21,0,0,0,23-1.38l-.39,9a1.39,1.39,0,0,0,.15.63s2.14,4.26.2,11.91c-1,3.84-12.56,35.81-31.67,56.07a1.24,1.24,0,0,0-.25,1.29,1.34,1.34,0,0,0,.3.48,1.26,1.26,0,0,0,1.77,0c19.47-20.65,31.28-53.26,32.27-57.17,1.91-7.49.29-12.11-.25-13.36l.44-10.34a1.23,1.23,0,0,0-.48-1,1.26,1.26,0,0,0-1.12-.22s-1.13.33-3,.72l-.06-7c0-.45-.6-11.1-2.71-17.83-1.17-3.73-3.63-8-7-12.84,11-5.46,23.6-8.1,39.94-7.63l-.29,1.39c2.82,10.07,14,51.56,15.08,82.85,1.6,45.39-1.55,132.42-2,143.33-5.24.24-30.29.39-87.81-13.81a47.47,47.47,0,0,0-10.94-1.66c-3.36,0-5.58.78-6.7,2.35a2.49,2.49,0,0,0-.19.3,4,4,0,0,0-.55,1.64,1.68,1.68,0,0,0-.15.3,2.74,2.74,0,0,0-.24,1.27C93,356.23,88,352.21,88.71,341.72Zm24.16,97.42H101.65c-.05-9-.73-16-1.33-22.29-1.08-11.17-1.92-20,.93-34.14,1.09-5.39,4.18-16.36,7.51-27.94,1.62.26,3.51.64,5.73,1.18,1.61.4,3.2.79,4.76,1.16,3.21.78,6.31,1.5,9.31,2.19-4.27,16.65-8.36,33.07-8.64,35.82-1.24,11.89,1.79,37.64,2.59,44Zm12.16,0c-.71-5.67-3.84-32.09-2.63-43.76.27-2.62,4.35-18.94,8.6-35.53a470.24,470.24,0,0,0,49.68,8.8c-.62.6-1.26,1.19-1.93,1.74-15.06,12.39-37.82,9-38,8.94a1.25,1.25,0,0,0-.39,2.47,55,55,0,0,0,8.12.53c8.38,0,21.61-1.56,31.89-10a34.7,34.7,0,0,0,3.52-3.33c7.36.74,12.5.92,15.78.92a43.88,43.88,0,0,0,4.61-.17,1.25,1.25,0,0,0,1.11-1.19c0-.24.24-6.22.56-15.82,1.55.05,3.12.08,4.7.08a138.43,138.43,0,0,0,16.68-1l2.7-.36V400.4a1.35,1.35,0,0,0,0,.29l-11.93,2.1a1.25,1.25,0,0,0,.44,2.46l21.36-3.77-.94,9.2v.1l-2.89,28.36Zm113.55,0,1.94-19,3.26,19Zm7.74,0-4.86-28.32,1-9.79,17.18-3a1.25,1.25,0,0,0-.43-2.47l-5.75,1V346.82c7.94-1.86,16-4,23.7-5.94,1.15,13.6,1.82,22.62,1.84,22.95a1.26,1.26,0,0,0,1.17,1.15,6.87,6.87,0,0,0,.7,0A44.38,44.38,0,0,0,296,361.76c3,7.77,6.84,12.66,11.5,14.58a11.65,11.65,0,0,0,4.43.89,12.84,12.84,0,0,0,7.17-2.28,1.25,1.25,0,0,0-1.5-2,9.81,9.81,0,0,1-9.18,1.07c-3.09-1.28-6.84-4.75-10.1-13.17,1.28-.55,2.61-1.16,4-1.85a72.59,72.59,0,0,0,6.51-3.8c3.63-2.31,5.76-3.66,9-2.78l21.06,86.73Z"/><path class="cls-6" d="M246.26,252.71a75.47,75.47,0,0,0-19,4.11,1.25,1.25,0,0,0,.46,2.41,1.42,1.42,0,0,0,.45-.08c8.13-3.16,18.15-3.94,18.25-3.95a1.25,1.25,0,1,0-.18-2.49Z"/><path class="cls-6" d="M211.73,263.31a1.23,1.23,0,0,0,.91-.4c6-6.45,33-16.74,45.71-16.27a1.24,1.24,0,0,0,1.29-1.2,1.25,1.25,0,0,0-1.2-1.3c-13.54-.5-41.19,10.15-47.63,17.07a1.24,1.24,0,0,0,.92,2.1Z"/><path class="cls-6" d="M156.34,99c1.66-2.8-2.48-5.86-2-11.53a15.7,15.7,0,0,1,.37-2.23,36,36,0,0,1,1.17-3.85c1.46-4.13,3.14-8,1.35-8.88-3.76-1.94-12.35,5.06-11.43,15S154.69,101.75,156.34,99Z"/><path class="cls-6" d="M167.53,65.54c1.34-5.09-6.56-7.16-7.9-2.08S166.19,70.62,167.53,65.54Z"/><path class="cls-6" d="M307.9,121.58a1.23,1.23,0,0,0,.53.11,1.25,1.25,0,0,0,.52-2.38,2.61,2.61,0,0,1-1-1.44c-.46-1.45-.65-4.91,3.33-11.89a1.25,1.25,0,0,0-2.18-1.24c-3.39,6-4.58,10.63-3.53,13.89A4.8,4.8,0,0,0,307.9,121.58Z"/><path class="cls-6" d="M267.06,194.73a1.26,1.26,0,0,0-1.28,1.22,1.24,1.24,0,0,0,1.22,1.28l1.95,0c26.51,0,40.84-13.23,41.45-13.8a1.25,1.25,0,0,0-1.71-1.82C308.54,181.77,293.79,195.39,267.06,194.73Z"/><path class="cls-6" d="M99.23,112.91a1.25,1.25,0,0,0-.22,1.75c4.83,6.22,5.21,9.66,5,11.15a2.59,2.59,0,0,1-.79,1.72,1.24,1.24,0,0,0,.7,2.28,1.2,1.2,0,0,0,.68-.2,4.72,4.72,0,0,0,1.85-3.24c.57-3.37-1.27-7.83-5.48-13.24A1.23,1.23,0,0,0,99.23,112.91Z"/><path class="cls-6" d="M155.89,198.66a1.25,1.25,0,1,0-.42-2.46c-26.31,4.44-42.9-6.92-43.07-7a1.25,1.25,0,0,0-1.44,2.05c.59.41,12.4,8.53,32.2,8.53A76.1,76.1,0,0,0,155.89,198.66Z"/></g></g></svg>