<svg width="500" height="500" viewBox="0 0 500 500" fill="none" xmlns="http://www.w3.org/2000/svg">
<path opacity="0.5" d="M401.866 158.449C400.367 158.851 398.801 158.331 397.762 157.179C397.48 156.866 397.188 156.56 396.888 156.26C396.585 155.956 396.276 155.663 395.962 155.38C394.814 154.344 394.296 152.784 394.696 151.29L396.065 146.185L379.436 141.725L378.066 146.827C377.664 148.324 376.442 149.438 374.924 149.756C374.089 149.931 373.261 150.151 372.445 150.416C370.976 150.893 369.367 150.535 368.275 149.443L364.547 145.716L352.37 157.895L356.098 161.623C357.19 162.715 357.548 164.324 357.071 165.793C356.806 166.609 356.586 167.436 356.411 168.272C356.093 169.789 354.98 171.012 353.482 171.414L348.379 172.784L352.84 189.413L357.969 188.04C359.46 187.641 361.018 188.159 362.052 189.305C362.334 189.618 362.625 189.924 362.925 190.224C363.225 190.524 363.532 190.815 363.844 191.097C364.996 192.137 365.515 193.702 365.112 195.2L363.737 200.308L380.366 204.768L381.728 199.676C382.129 198.179 383.349 197.064 384.865 196.745C385.703 196.568 386.534 196.346 387.353 196.079C388.823 195.6 390.433 195.958 391.526 197.051L395.253 200.777L407.431 188.598L403.704 184.872C402.611 183.779 402.253 182.169 402.732 180.698C402.999 179.879 403.221 179.049 403.398 178.21C403.718 176.693 404.832 175.473 406.329 175.072L411.421 173.709L406.96 157.081L401.866 158.449ZM389.886 183.218C384.379 188.725 375.439 188.726 369.931 183.219C364.423 177.712 364.433 168.781 369.94 163.274C375.447 157.767 384.368 157.767 389.875 163.273C395.382 168.78 395.393 177.71 389.886 183.218Z" fill="#EBEBEB"/>
<path d="M127.278 86.726C125.779 87.128 124.213 86.608 123.174 85.456C122.892 85.143 122.6 84.837 122.3 84.537C121.997 84.233 121.688 83.94 121.374 83.657C120.227 82.621 119.708 81.061 120.108 79.567L121.477 74.462L104.848 70.002L103.478 75.105C103.076 76.602 101.854 77.716 100.336 78.034C99.5011 78.209 98.6741 78.429 97.8571 78.694C96.3881 79.171 94.7791 78.813 93.6871 77.721L89.9591 73.994L77.7851 86.172L81.5131 89.9C82.6051 90.992 82.9631 92.601 82.4861 94.069C82.2211 94.885 82.0011 95.712 81.8261 96.548C81.5081 98.065 80.3951 99.288 78.8971 99.69L73.7941 101.06L78.2551 117.689L83.3841 116.316C84.8751 115.917 86.4331 116.435 87.4671 117.581C87.7491 117.894 88.0401 118.2 88.3401 118.5C88.6401 118.8 88.9471 119.091 89.2591 119.373C90.4111 120.413 90.9301 121.978 90.5271 123.476L89.1521 128.584L105.781 133.044L107.143 127.952C107.544 126.455 108.764 125.34 110.28 125.021C111.118 124.844 111.949 124.622 112.768 124.355C114.238 123.876 115.848 124.234 116.941 125.327L120.667 129.053L132.845 116.874L129.118 113.148C128.025 112.055 127.667 110.445 128.146 108.974C128.413 108.155 128.635 107.325 128.812 106.486C129.132 104.969 130.246 103.749 131.743 103.348L136.835 101.985L132.374 85.356L127.278 86.726ZM115.298 111.495C109.791 117.002 100.851 117.003 95.3431 111.496C89.8361 105.989 89.8451 97.058 95.3521 91.551C100.859 86.044 109.78 86.044 115.287 91.55C120.795 97.058 120.805 105.988 115.298 111.495Z" fill="#EBEBEB"/>
<path opacity="0.5" d="M76.007 158.335C75.397 157.983 75.061 157.314 75.098 156.611C75.108 156.42 75.113 156.228 75.113 156.036C75.113 155.841 75.108 155.648 75.098 155.457C75.062 154.756 75.397 154.089 76.004 153.739L78.081 152.541L74.177 145.775L72.1 146.972C71.49 147.323 70.741 147.289 70.152 146.904C69.828 146.692 69.492 146.497 69.145 146.321C68.521 146.003 68.119 145.372 68.119 144.671V142.279H60.305V144.671C60.305 145.372 59.904 146.003 59.279 146.321C58.932 146.498 58.596 146.693 58.272 146.904C57.683 147.289 56.934 147.324 56.324 146.972L54.247 145.775L50.343 152.541L52.429 153.746C53.035 154.096 53.369 154.763 53.333 155.462C53.323 155.653 53.319 155.844 53.319 156.037C53.319 156.229 53.324 156.421 53.333 156.612C53.369 157.315 53.033 157.984 52.423 158.335L50.343 159.532L54.247 166.298L56.318 165.102C56.927 164.75 57.676 164.784 58.265 165.168C58.591 165.38 58.928 165.575 59.277 165.753C59.902 166.071 60.304 166.702 60.304 167.404V169.795H68.118V167.404C68.118 166.703 68.52 166.071 69.145 165.753C69.494 165.576 69.831 165.381 70.157 165.168C70.746 164.784 71.495 164.75 72.104 165.102L74.175 166.298L78.079 159.532L76.007 158.335ZM64.216 162.438C60.682 162.438 57.814 159.57 57.814 156.036C57.814 152.502 60.682 149.64 64.216 149.64C67.75 149.64 70.612 152.502 70.612 156.036C70.612 159.57 67.75 162.438 64.216 162.438Z" fill="#EBEBEB"/>
<path d="M447.58 213.656C446.97 213.304 446.635 212.635 446.671 211.932C446.681 211.741 446.686 211.549 446.686 211.357C446.686 211.163 446.681 210.969 446.671 210.778C446.635 210.077 446.969 209.41 447.577 209.06L449.654 207.862L445.75 201.096L443.673 202.293C443.064 202.644 442.314 202.61 441.725 202.225C441.401 202.013 441.065 201.818 440.718 201.642C440.094 201.324 439.693 200.693 439.693 199.992V197.6H431.879V199.992C431.879 200.693 431.478 201.324 430.853 201.642C430.506 201.819 430.17 202.013 429.846 202.225C429.257 202.61 428.508 202.645 427.898 202.293L425.821 201.096L421.917 207.862L424.003 209.067C424.609 209.417 424.943 210.083 424.907 210.783C424.897 210.974 424.892 211.165 424.892 211.358C424.892 211.551 424.897 211.742 424.907 211.933C424.943 212.636 424.607 213.305 423.997 213.656L421.917 214.854L425.821 221.62L427.892 220.424C428.501 220.072 429.25 220.106 429.839 220.49C430.165 220.703 430.502 220.898 430.851 221.075C431.476 221.393 431.878 222.024 431.878 222.726V225.117H439.692V222.726C439.692 222.025 440.094 221.393 440.719 221.075C441.068 220.898 441.405 220.703 441.731 220.49C442.32 220.106 443.069 220.072 443.678 220.424L445.749 221.62L449.653 214.854L447.58 213.656ZM435.79 217.758C432.256 217.758 429.388 214.89 429.388 211.356C429.388 207.822 432.256 204.96 435.79 204.96C439.324 204.96 442.186 207.822 442.186 211.356C442.186 214.89 439.324 217.758 435.79 217.758Z" fill="#EBEBEB"/>
<path d="M299.646 300.887V465.595H402.84V300.887H299.646ZM393.471 408.595H309.016V364.156H393.471V408.595ZM393.471 353.575H309.016V309.136H393.471V353.575Z" fill="#DBDBDB"/>
<path d="M449.505 300.888H402.844V465.591H449.505V300.888Z" fill="#EBEBEB"/>
<path d="M329.086 309.132H309.017V353.569H329.086V309.132Z" fill="#EBEBEB"/>
<path d="M393.472 418.51H309.544V454.878H393.472V418.51Z" stroke="#EBEBEB" stroke-width="0.5" stroke-miterlimit="10"/>
<path d="M359.844 426.43H343.173V432.523H359.844V426.43Z" fill="#EBEBEB"/>
<path d="M329.086 364.16H309.017V408.597H329.086V364.16Z" fill="#EBEBEB"/>
<path d="M381.919 408.594V367.626H367.799V408.594H381.919Z" fill="#A6A6A6"/>
<path d="M381.919 402.016V393.177H367.799V402.016H381.919Z" fill="#DBDBDB"/>
<path d="M381.92 386.064V380.82H367.8V386.064H381.92Z" fill="#DBDBDB"/>
<path d="M369.324 319.287H333.642V353.575H369.324V319.287Z" fill="#EBEBEB"/>
<path d="M382.884 319.287H369.324V353.575H382.884V319.287Z" fill="#C7C7C7"/>
<path d="M333.642 336.431H369.324L341.458 337.313L333.642 336.431Z" fill="#C7C7C7"/>
<path d="M369.324 349.432H333.642L361.509 350.315L369.324 349.432Z" fill="#C7C7C7"/>
<path d="M333.642 326.847H356.244L336.153 327.567L333.642 326.847Z" fill="#C7C7C7"/>
<path d="M369.324 344.385H346.723L366.814 345.105L369.324 344.385Z" fill="#C7C7C7"/>
<path d="M342.202 323.03H367.694L363.445 323.462L342.202 323.03Z" fill="#C7C7C7"/>
<path d="M337.111 340.106H362.603L358.354 340.538L337.111 340.106Z" fill="#C7C7C7"/>
<path d="M352.788 330.112H369.324L372.279 331.264L352.788 330.112Z" fill="#EBEBEB"/>
<path d="M329.086 330.112H345.623L348.578 331.264L329.086 330.112Z" fill="#EBEBEB"/>
<path d="M350.306 345.521H333.769L330.815 346.673L350.306 345.521Z" fill="#EBEBEB"/>
<path d="M369.324 341.608H382.603L385.558 342.76L369.324 341.608Z" fill="#C7C7C7"/>
<path d="M373.959 336.431H384.257L382.885 335.488L373.959 336.431Z" fill="#C7C7C7"/>
<path d="M393.473 364.889H381.92V408.595H393.473V364.889Z" fill="#EBEBEB"/>
<path d="M387.696 373.51C386.368 373.51 385.291 372.433 385.291 371.105C385.291 369.777 386.368 368.7 387.696 368.7C389.024 368.7 390.101 369.777 390.101 371.105C390.101 372.433 389.024 373.51 387.696 373.51Z" fill="white"/>
<path d="M387.696 372.479C386.936 372.479 386.321 371.863 386.321 371.104C386.321 370.344 386.937 369.729 387.696 369.729C388.455 369.729 389.071 370.345 389.071 371.104C389.071 371.863 388.455 372.479 387.696 372.479Z" fill="#A6A6A6"/>
<path d="M393.472 401.711V391.076H381.919V401.711H393.472Z" fill="white"/>
<path d="M367.8 399.573H324.094V408.658H367.8V399.573Z" fill="#C7C7C7"/>
<path d="M359.178 404.116C359.178 402.788 360.255 401.711 361.583 401.711C362.911 401.711 363.988 402.788 363.988 404.116C363.988 405.444 362.911 406.521 361.583 406.521C360.255 406.521 359.178 405.444 359.178 404.116Z" fill="white"/>
<path d="M360.208 404.116C360.208 403.356 360.824 402.741 361.583 402.741C362.343 402.741 362.958 403.357 362.958 404.116C362.958 404.875 362.342 405.491 361.583 405.491C360.824 405.491 360.208 404.875 360.208 404.116Z" fill="#A6A6A6"/>
<path d="M330.978 408.659H341.612V399.574H330.978V408.659Z" fill="white"/>
<path d="M48.809 465.595C177.704 464.983 322.296 464.978 451.191 465.595C322.296 466.212 177.704 466.207 48.809 465.595Z" fill="#263238"/>
<path d="M98.718 350.224C99.569 356.047 99.251 362.051 97.831 367.751C97.164 370.419 96.249 372.992 95.146 375.499C93.752 378.706 92.294 381.837 92.646 385.345C92.985 385.571 91.823 385.535 91.785 385.193C82.409 379.856 70.384 378.877 63.169 370.148C59.751 366.015 58.027 360.776 57.21 355.536C56.322 349.831 56.076 343.514 57.548 337.891C58.788 333.135 61.568 328.547 66.037 326.217C70.65 323.818 76.691 324.018 81.548 325.526C92.025 328.781 97.236 340.088 98.718 350.224Z" fill="#FFC727"/>
<path d="M103.531 419.633C102.251 415.368 100.973 411.103 99.6591 406.848C97.0861 398.515 94.4121 390.212 91.4511 382.007C89.6781 377.093 87.8071 372.226 85.8391 367.405C86.1751 364.377 86.3071 361.36 86.9581 358.342C87.7421 354.707 88.8811 351.196 89.9411 347.638C90.0061 347.419 89.6521 347.304 89.5621 347.512C87.4571 352.413 84.7101 358.684 84.6411 364.489C82.3521 359.035 79.9051 353.655 77.2721 348.359C77.1231 343.844 76.9591 339.468 77.6851 334.924C77.7181 334.72 77.4071 334.658 77.3691 334.863C76.6651 338.678 76.1681 342.769 76.4521 346.722C74.4361 342.743 72.3131 338.811 70.0541 334.941C69.8501 334.592 69.3681 334.949 69.5471 335.292C73.0711 342.077 76.3391 349.004 79.4051 356.023C75.1571 352.256 70.0141 349.405 64.7051 347.51C64.4721 347.427 64.2961 347.765 64.5331 347.864C70.5761 350.39 75.6491 353.961 80.4331 358.391C82.6371 363.53 84.7371 368.715 86.7361 373.933C80.8691 368.182 72.8411 364.398 65.0751 362.369C64.8101 362.3 64.7401 362.705 64.9951 362.782C73.9821 365.488 80.9641 370.583 87.7981 376.704C88.5921 378.815 89.3721 380.93 90.1361 383.049C93.0321 391.084 95.7761 399.174 98.4081 407.299C99.6701 411.194 100.911 415.095 102.13 419.004C103.442 423.209 104.466 427.649 106.173 431.709C106.336 432.097 107.033 432.008 106.944 431.544C106.175 427.516 104.709 423.559 103.531 419.633Z" fill="#263238"/>
<path d="M87.978 342.015C86.299 344.589 85.177 347.42 84.601 350.433C84.586 350.51 84.707 350.556 84.736 350.478C85.781 347.642 87.01 344.902 88.397 342.218C88.538 341.945 88.136 341.773 87.978 342.015Z" fill="#263238"/>
<path d="M71.2511 361.551C68.8241 360.171 65.603 359.081 62.836 358.718C62.76 358.708 62.7121 358.82 62.7911 358.853C64.1441 359.414 65.565 359.806 66.934 360.333C68.309 360.861 69.6501 361.503 71.0391 361.986C71.3291 362.086 71.5261 361.708 71.2511 361.551Z" fill="#263238"/>
<path d="M66.539 338.051C65.686 337.486 64.779 336.762 63.832 336.38C63.683 336.32 63.553 336.504 63.676 336.617C64.426 337.308 65.472 337.821 66.344 338.348C66.516 338.451 66.708 338.163 66.539 338.051Z" fill="#263238"/>
<path d="M130.327 382.07C123.574 384.075 116.786 385.927 110.035 387.909C109.449 388.085 98.0321 366.21 102.158 354.94C105.971 344.509 114.702 336.703 125.111 333.16C129.933 331.522 135.861 330.146 140.955 331.27C145.484 332.273 148.683 335.979 150.155 340.238C152.16 346.027 151.492 352.932 150.401 358.843C149.387 364.323 147.382 369.721 143.756 374.027C140.168 378.291 135.591 380.509 130.327 382.07Z" fill="#FFC727"/>
<path d="M140.118 361.28C135.818 363.448 131.462 365.019 126.877 366.493C124.006 367.416 120.791 368.248 118.038 369.693C120.89 363.335 124.019 357.11 127.341 350.941C131.704 349.678 136.292 347.71 139.581 344.622C139.76 344.454 139.53 344.201 139.335 344.338C135.737 346.881 131.768 348.408 127.787 350.127C128.686 348.467 129.59 346.809 130.516 345.155C130.774 344.695 130.14 344.238 129.83 344.685C126.291 349.793 123.107 355.206 120.235 360.8C119.523 355.865 119.266 351.056 119.541 346.035C119.548 345.907 119.364 345.897 119.345 346.021C118.51 351.331 118.549 356.95 119.511 362.245C117.143 366.972 114.985 371.815 113.047 376.718C112.276 373.772 111.275 370.873 110.607 367.903C109.646 363.629 109.194 359.274 109.637 354.903C109.65 354.775 109.462 354.766 109.441 354.889C108.131 362.639 109.326 371.39 112.275 378.752C111.146 381.704 110.069 384.667 109.084 387.634C104.042 402.828 100.934 418.494 100.121 434.488C100.102 434.857 100.649 434.894 100.692 434.529C102.527 418.84 105.767 403.223 110.756 388.226C112.715 382.339 114.969 376.622 117.442 371.012C121.43 369.834 125.404 368.234 129.322 366.877C133.145 365.553 137.062 364.022 140.271 361.509C140.395 361.411 140.257 361.209 140.118 361.28Z" fill="#263238"/>
<path d="M146.415 354.925C142.285 356.394 138.37 358.45 134.244 359.939C134.051 360.009 134.163 360.315 134.358 360.275C138.724 359.374 143.054 358.024 146.571 355.162C146.707 355.052 146.558 354.874 146.415 354.925Z" fill="#263238"/>
<path d="M112.691 346.014C112.741 345.795 112.421 345.669 112.354 345.894C111.222 349.701 110.44 353.741 111.542 357.632C111.585 357.784 111.825 357.789 111.834 357.614C112.032 353.694 111.813 349.879 112.691 346.014Z" fill="#263238"/>
<path d="M129.757 337.22C128.373 338.987 127.875 341.496 127.965 343.694C127.971 343.839 128.203 343.924 128.242 343.752C128.745 341.574 129.587 339.589 130.255 337.474C130.353 337.163 129.953 336.97 129.757 337.22Z" fill="#263238"/>
<path d="M50.002 391.719C51.982 398.002 56.685 406.688 64.136 406.757C68.965 406.803 73.829 406.231 78.67 406.162C83.854 406.082 89.05 406.093 94.223 406.402C94.647 406.425 93.602 390.878 81.142 383.307C77.651 381.186 73.383 380.514 69.423 379.656C64.891 378.672 60.222 378.008 55.575 378.214C52.714 378.328 50.333 378.935 49.315 381.865C48.251 384.932 49.052 388.732 50.002 391.719Z" fill="#FFC727"/>
<path d="M55.362 383.855C58.39 384.634 61.445 385.528 64.483 386.493C63.671 385.651 62.878 384.797 61.972 384.044C60.667 382.959 59.231 382.093 57.831 381.142C57.714 381.063 57.784 380.838 57.934 380.897C60.697 381.983 63.57 384.251 65.282 386.741C69.069 387.965 72.82 389.315 76.43 390.796C78.992 391.847 81.355 393.102 83.568 394.555C82.773 393.017 82.048 391.439 80.985 390.061C79.332 387.918 77.094 386.724 74.93 385.202C74.725 385.058 74.899 384.77 75.124 384.87C80.013 387.043 82.987 390.57 84.841 395.407C87.397 397.23 89.737 399.358 91.909 401.824C100.152 411.188 106.645 423.646 106.668 436.359C106.669 436.662 106.182 436.748 106.124 436.433C103.785 423.805 98.798 412.465 90.403 402.664C89.813 401.976 89.208 401.32 88.59 400.686C86.323 400.448 84.077 400.146 81.78 400.181C79.127 400.221 76.495 400.571 73.855 400.785C69.505 401.138 64.696 401.189 60.772 399.001C60.599 398.905 60.716 398.604 60.91 398.674C69.657 401.855 78.83 397.82 87.598 399.717C83.857 396.13 79.609 393.426 74.668 391.378C74.401 391.267 74.132 391.164 73.864 391.056C68.251 391.731 62.324 393.193 56.858 391.369C56.695 391.315 56.761 391.068 56.929 391.11C62.212 392.43 67.277 390.77 72.49 390.506C66.814 388.296 61.03 386.538 55.334 384.344C54.856 384.16 54.845 383.722 55.362 383.855Z" fill="#263238"/>
<path d="M52.886 389.382C55.626 389.833 58.301 389.847 61.056 390.001C61.118 390.005 61.139 390.1 61.071 390.115C58.384 390.719 55.445 390.347 52.828 389.589C52.694 389.55 52.752 389.36 52.886 389.382Z" fill="#263238"/>
<path d="M71.339 383.993C72.829 384.509 74.217 385.772 75.383 386.805C75.525 386.931 75.334 387.186 75.177 387.072C74.492 386.573 73.786 386.103 73.073 385.643C72.424 385.224 71.698 384.89 71.103 384.397C70.919 384.243 71.117 383.916 71.339 383.993Z" fill="#263238"/>
<path d="M115.334 404.224C115.242 404.43 115.54 404.624 115.655 404.407C115.666 404.407 115.666 404.407 115.666 404.396C115.712 404.453 115.769 404.51 115.86 404.522C120.896 405.609 125.954 406.719 131.081 407.177C135.201 407.543 139.95 407.772 143.556 405.38C148.443 402.141 151.659 393.478 149.015 387.973C145.891 381.438 136.472 384.986 131.745 387.309C124.478 390.857 118.642 396.853 115.334 404.224Z" fill="#FFC727"/>
<path d="M111.68 407.245C114.452 404.533 117.518 402.275 120.768 400.327C122.996 396.544 126.416 393.403 129.985 390.934C130.164 390.81 130.316 391.093 130.152 391.22C127.075 393.589 124.673 396.368 122.386 399.39C126.022 397.361 129.867 395.69 133.789 394.204C135.154 391.7 137.379 389.356 139.914 388.067C139.965 388.041 140.029 388.112 139.979 388.151C137.768 389.882 135.993 391.679 134.447 393.956C136.764 393.091 139.104 392.286 141.442 391.511C141.653 391.441 141.732 391.761 141.532 391.839C137.369 393.466 133.113 395.181 128.988 397.16C134.195 397.858 138.883 398.02 144.179 397.115C144.318 397.091 144.38 397.291 144.238 397.331C139.128 398.79 133.27 399.059 128.12 397.572C125.489 398.865 122.92 400.276 120.474 401.854C122.521 401.588 124.579 401.947 126.653 402.359C130.271 403.078 133.808 403.715 137.512 403.588C137.65 403.584 137.686 403.81 137.546 403.834C131.247 404.918 125.29 402.055 119.047 402.8C116.735 404.389 114.548 406.144 112.544 408.111C108.62 411.962 105.48 416.566 103.06 421.492C100.432 426.841 99.006 432.512 96.882 438.038C96.789 438.281 96.451 438.187 96.494 437.931C98.315 427.031 103.74 415.013 111.68 407.245Z" fill="#263238"/>
<path d="M130.679 392.299C131.046 391.548 131.689 390.907 132.293 390.342C132.821 389.847 133.465 389.208 134.153 388.95C134.216 388.926 134.251 389.012 134.214 389.055C133.698 389.641 132.978 390.071 132.422 390.632C131.86 391.198 131.396 391.858 130.828 392.414C130.747 392.49 130.633 392.393 130.679 392.299Z" fill="#263238"/>
<path d="M141.069 395.683C142.002 395.449 142.992 395.465 143.941 395.272C144.902 395.076 145.795 394.733 146.726 394.438C146.848 394.399 146.92 394.579 146.812 394.642C145.279 395.552 142.859 396.327 141.069 395.976C140.919 395.946 140.929 395.718 141.069 395.683Z" fill="#263238"/>
<path d="M85.7231 424.5L86.5491 433.89L89.3561 465.595H114.186L117.691 433.89L118.727 424.5H85.7231Z" fill="#37474F"/>
<path d="M85.7231 424.5L86.5491 433.89H117.691L118.727 424.5H85.7231Z" fill="#263238"/>
<path d="M83.2649 429.557H121.186V421.939H83.2649V429.557Z" fill="#37474F"/>
<path d="M402.491 311.227V297.203H250V269.004H402.491V254.989L451.191 283.103L402.491 311.227Z" fill="#FFC727"/>
<g opacity="0.4">
<path d="M402.491 311.227V297.203H250V269.004H402.491V254.989L451.191 283.103L402.491 311.227Z" fill="black"/>
</g>
<path d="M250 297.204C205.953 297.204 165.553 274.974 141.928 237.739C128.952 217.287 122.093 193.62 122.093 169.296C122.093 142.753 130.152 117.294 145.397 95.6701C169.359 61.6821 208.463 41.3901 250 41.3901C288.027 41.3901 323.828 58.1461 348.223 87.3631C367.366 110.289 377.907 139.387 377.907 169.298C377.907 184.844 375.145 200.043 369.698 214.472C360.613 238.533 344.653 259.104 323.542 273.962C301.935 289.167 276.505 297.204 250 297.204ZM250 69.5891C217.619 69.5891 187.131 85.4141 168.443 111.92C156.568 128.764 150.291 148.604 150.291 169.298C150.291 188.263 155.633 206.706 165.738 222.633C184.162 251.67 215.662 269.006 250 269.006C270.664 269.006 290.482 262.746 307.312 250.901C323.785 239.307 336.235 223.266 343.316 204.512C347.557 193.278 349.708 181.43 349.708 169.298C349.708 145.981 341.493 123.302 326.577 105.437C307.555 82.6551 279.644 69.5891 250 69.5891Z" fill="#FFC727"/>
<path opacity="0.4" d="M250 297.204C205.953 297.204 165.553 274.974 141.928 237.739C128.952 217.287 122.093 193.62 122.093 169.296C122.093 142.753 130.152 117.294 145.397 95.6701C169.359 61.6821 208.463 41.3901 250 41.3901C288.027 41.3901 323.828 58.1461 348.223 87.3631C367.366 110.289 377.907 139.387 377.907 169.298C377.907 184.844 375.145 200.043 369.698 214.472C360.613 238.533 344.653 259.104 323.542 273.962C301.935 289.167 276.505 297.204 250 297.204ZM250 69.5891C217.619 69.5891 187.131 85.4141 168.443 111.92C156.568 128.764 150.291 148.604 150.291 169.298C150.291 188.263 155.633 206.706 165.738 222.633C184.162 251.67 215.662 269.006 250 269.006C270.664 269.006 290.482 262.746 307.312 250.901C323.785 239.307 336.235 223.266 343.316 204.512C347.557 193.278 349.708 181.43 349.708 169.298C349.708 145.981 341.493 123.302 326.577 105.437C307.555 82.6551 279.644 69.5891 250 69.5891Z" fill="black"/>
<path d="M377.911 169.301C377.911 184.839 375.148 200.038 369.696 214.466C360.616 238.529 344.655 259.105 323.544 273.957C301.934 289.166 276.508 297.202 250.001 297.202V269.003C270.661 269.003 290.485 262.743 307.311 250.899C323.789 239.309 336.234 223.264 343.321 204.512C347.56 193.279 349.713 181.426 349.713 169.301C349.713 145.981 341.498 123.299 326.58 105.44C307.554 82.6551 279.646 69.5901 250 69.5901C217.618 69.5901 187.135 85.4101 168.439 111.917C164.999 116.795 162.01 121.965 159.509 127.361L172.349 132.07L129.186 168.108L119.551 112.706L132.964 117.622C136.367 109.924 140.531 102.573 145.4 95.6741C169.36 61.6851 208.462 41.3911 250 41.3911C288.031 41.3911 323.825 58.1511 348.227 87.3651C367.364 110.29 377.911 139.382 377.911 169.301Z" fill="#FFC727"/>
<g opacity="0.3">
<path d="M377.911 169.301C377.911 184.839 375.148 200.038 369.696 214.466C360.616 238.529 344.655 259.105 323.544 273.957C301.934 289.166 276.508 297.202 250.001 297.202V269.003C270.661 269.003 290.485 262.743 307.311 250.899C323.789 239.309 336.234 223.264 343.321 204.512C347.56 193.279 349.713 181.426 349.713 169.301C349.713 145.981 341.498 123.299 326.58 105.44C307.554 82.6551 279.646 69.5901 250 69.5901C217.618 69.5901 187.135 85.4101 168.439 111.917C164.999 116.795 162.01 121.965 159.509 127.361L172.349 132.07L129.186 168.108L119.551 112.706L132.964 117.622C136.367 109.924 140.531 102.573 145.4 95.6741C169.36 61.6851 208.462 41.3911 250 41.3911C288.031 41.3911 323.825 58.1511 348.227 87.3651C367.364 110.29 377.911 139.382 377.911 169.301Z" fill="black"/>
</g>
<path d="M377.911 169.301C377.911 184.839 375.148 200.038 369.696 214.466C360.616 238.529 344.655 259.105 323.544 273.957C301.934 289.166 276.508 297.202 250.001 297.202V269.003C270.661 269.003 290.485 262.743 307.311 250.899C323.789 239.309 336.234 223.264 343.321 204.512C347.56 193.279 349.713 181.426 349.713 169.301C349.713 145.981 341.498 123.299 326.58 105.44C307.554 82.6549 279.646 69.5899 250 69.5899C245.93 69.5899 241.926 69.8159 238.006 70.2569L240.675 83.6609L187.426 65.5849L229.696 28.5029L232.488 42.5179C238.203 41.7659 244.068 41.3899 250 41.3899C288.031 41.3899 323.825 58.1499 348.227 87.3639C367.364 110.29 377.911 139.382 377.911 169.301Z" fill="#FFC727"/>
<g opacity="0.2">
<path d="M377.911 169.301C377.911 184.839 375.148 200.038 369.696 214.466C360.616 238.529 344.655 259.105 323.544 273.957C301.934 289.166 276.508 297.202 250.001 297.202V269.003C270.661 269.003 290.485 262.743 307.311 250.899C323.789 239.309 336.234 223.264 343.321 204.512C347.56 193.279 349.713 181.426 349.713 169.301C349.713 145.981 341.498 123.299 326.58 105.44C307.554 82.6549 279.646 69.5899 250 69.5899C245.93 69.5899 241.926 69.8159 238.006 70.2569L240.675 83.6609L187.426 65.5849L229.696 28.5029L232.488 42.5179C238.203 41.7659 244.068 41.3899 250 41.3899C288.031 41.3899 323.825 58.1499 348.227 87.3639C367.364 110.29 377.911 139.382 377.911 169.301Z" fill="black"/>
</g>
<path d="M377.911 169.301C377.911 184.839 375.148 200.038 369.696 214.466C360.616 238.529 344.655 259.105 323.544 273.957C301.934 289.166 276.508 297.202 250.001 297.202V269.003C270.661 269.003 290.485 262.743 307.311 250.899C323.789 239.309 336.234 223.264 343.321 204.512C347.56 193.279 349.713 181.426 349.713 169.301C349.713 148.744 343.331 128.685 331.581 111.982L321.091 120.742L311.466 65.3311L364.264 84.6941L353.295 93.8591C369.216 115.658 377.911 142.136 377.911 169.301Z" fill="#FFC727"/>
<g opacity="0.1">
<path d="M377.911 169.301C377.911 184.839 375.148 200.038 369.696 214.466C360.616 238.529 344.655 259.105 323.544 273.957C301.934 289.166 276.508 297.202 250.001 297.202V269.003C270.661 269.003 290.485 262.743 307.311 250.899C323.789 239.309 336.234 223.264 343.321 204.512C347.56 193.279 349.713 181.426 349.713 169.301C349.713 148.744 343.331 128.685 331.581 111.982L321.091 120.742L311.466 65.3311L364.264 84.6941L353.295 93.8591C369.216 115.658 377.911 142.136 377.911 169.301Z" fill="black"/>
</g>
<path d="M379.903 227.119L366.537 222.071C357.137 242.872 342.389 260.694 323.543 273.957C301.933 289.166 276.507 297.202 250 297.202H48.809V269.003H250C270.66 269.003 290.484 262.743 307.31 250.899C321.522 240.907 332.736 227.597 340.087 212.088L327.294 207.257L370.796 171.632L379.903 227.119Z" fill="#FFC727"/>
<path d="M184.891 127.435C167.604 137.211 136.154 166.962 138.463 175.233C143.118 191.911 169.675 213.204 175.234 217.724C178.466 220.352 191.718 190.848 188.675 187.596C185.121 183.798 169.994 173.463 169.938 171.435C169.895 169.89 182.49 153.351 191.776 139.278C202.547 122.954 193.13 122.774 184.891 127.435Z" fill="#EB9481"/>
<path d="M170.923 212.871C173.312 215.756 185.427 228.011 189.561 230.668C193.695 233.324 206.146 240.106 208.502 237.147C210.858 234.187 207.371 231.911 207.371 231.911C207.371 231.911 213.082 233.942 215.182 230.747C217.282 227.552 211.742 224.188 211.742 224.188C211.742 224.188 217.759 225.846 219.626 222.51C221.492 219.173 215.355 216.724 215.355 216.724C215.355 216.724 220.786 218.497 221.167 215.1C221.625 211.015 211.244 208.878 206.899 205.603C205.912 204.86 187.977 189.105 187.977 189.105L170.923 212.871Z" fill="#EB9481"/>
<path d="M215.877 216.942C208.246 215.352 205.183 213.337 199.665 208.004C199.558 207.9 199.378 208.037 199.481 208.156C204.408 213.87 207.886 216.953 215.819 217.316C216.207 217.334 216.24 217.018 215.877 216.942Z" fill="#263238"/>
<path d="M212.35 224.302C204.569 221.959 201.226 219.802 195.037 214.641C194.949 214.568 194.817 214.709 194.899 214.79C200.547 220.361 204.087 223.356 212.17 224.676C212.536 224.736 212.706 224.409 212.35 224.302Z" fill="#263238"/>
<path d="M207.065 231.637C199.695 228.824 195.929 226.618 190.563 220.836C190.436 220.7 190.226 220.871 190.339 221.02C195.237 227.447 199.916 230.236 206.955 231.851C207.435 231.962 207.528 231.814 207.065 231.637Z" fill="#263238"/>
<path d="M184.516 185.633C184.516 185.633 194.281 185.823 198.552 186.852C202.823 187.882 217.329 197.578 215.413 200.829C212.939 205.028 203.462 201.08 199.073 198.54C199.073 198.54 193.359 208.258 185.944 206.896C178.531 205.535 184.516 185.633 184.516 185.633Z" fill="#EB9481"/>
<path d="M214.356 201.761C209.338 203.962 203.792 200.256 199.35 198.11C199.012 197.947 198.762 198.161 198.688 198.444C196.021 202.357 191.12 207.101 186.121 207.151C185.975 207.153 185.957 207.36 186.104 207.379C191.472 208.053 196.668 203.786 199.315 199.313C203.836 201.585 209.561 205.057 214.379 201.809C214.406 201.789 214.387 201.747 214.356 201.761Z" fill="#263238"/>
<path d="M187.894 183.755L167.639 213.997C167.639 213.997 135.455 184.195 137.241 173.161C139.027 162.127 167.453 136.117 182.974 127.51C198.495 118.903 199.827 127.715 192.914 139.344C186.001 150.973 170.87 171.483 171.166 172.055C171.462 172.627 187.894 183.755 187.894 183.755Z" fill="#455A64"/>
<path d="M172.837 200.114C174.683 198.383 176.489 196.61 178.294 194.837C179.161 193.986 180.036 193.141 180.875 192.263C181.778 191.317 182.781 190.418 183.613 189.411C183.671 189.341 183.592 189.252 183.517 189.307C182.463 190.077 181.508 191.024 180.508 191.866C179.579 192.647 178.686 193.473 177.784 194.286C175.906 195.981 174.028 197.676 172.19 199.414C168.507 202.896 164.936 206.471 161.398 210.099C161.313 210.186 161.434 210.319 161.527 210.238C165.36 206.927 169.141 203.579 172.837 200.114Z" fill="#263238"/>
<path d="M192.916 139.341C185.996 150.971 170.866 171.481 171.166 172.051C171.466 172.631 187.896 183.751 187.896 183.751L167.636 214.001C167.636 214.001 142.346 190.571 137.846 177.571L193.846 124.141C198.486 124.961 197.566 131.511 192.916 139.341Z" fill="#37474F"/>
<path d="M143.213 392.848C143.213 392.848 142.142 440.744 142.141 440.777C142.405 449.623 142.794 457.374 143.37 461.365C143.37 461.387 143.37 461.408 143.38 461.43C143.595 462.936 143.837 463.894 144.114 464.143C144.135 464.165 144.146 464.186 144.168 464.197C146.854 465.902 217.612 465.854 220.079 465.022C222.557 464.2 220.368 457.093 217.621 454.904C214.852 452.715 187.764 440.617 187.764 440.617L187.263 392.756L143.213 392.848Z" fill="#EB9481"/>
<path d="M142.354 431.283C142.354 431.283 142.142 440.746 142.142 440.779C142.406 449.625 142.795 457.376 143.371 461.367C143.371 461.389 143.371 461.41 143.381 461.432C143.683 462.917 143.945 463.897 144.115 464.145C144.136 464.167 144.147 464.188 144.169 464.199C146.855 465.904 217.613 465.856 220.08 465.024C222.558 464.202 220.369 457.095 217.622 454.906C214.853 452.717 187.765 440.619 187.765 440.619L187.559 430.978L142.354 431.283Z" fill="white"/>
<path d="M192.097 440.527C187.367 439.877 181.668 440.872 178.246 444.383C178.113 444.519 178.309 444.705 178.458 444.651C183.013 442.971 187.287 441.828 192.106 441.12C192.446 441.071 192.436 440.574 192.097 440.527Z" fill="#263238"/>
<path d="M195.578 442.404C190.848 441.754 185.149 442.748 181.727 446.26C181.594 446.396 181.79 446.582 181.939 446.527C186.495 444.847 190.768 443.705 195.588 442.997C195.928 442.948 195.917 442.451 195.578 442.404Z" fill="#263238"/>
<path d="M199.06 444.281C194.33 443.631 188.631 444.625 185.209 448.137C185.076 448.273 185.271 448.46 185.421 448.404C189.976 446.724 194.25 445.581 199.069 444.874C199.409 444.825 199.399 444.328 199.06 444.281Z" fill="#263238"/>
<path d="M220.081 465.024C217.61 465.859 146.858 465.907 144.166 464.196C143.131 463.564 142.523 453.255 142.146 440.777C142.143 440.647 142.14 440.516 142.138 440.386L187.783 439.845L187.766 440.619C187.766 440.619 214.856 452.714 217.621 454.907C220.363 457.092 222.553 464.2 220.081 465.024Z" fill="#37474F"/>
<path d="M142.131 440.38L142.142 440.784C142.528 453.255 143.126 463.566 144.166 464.198C145.385 464.973 160.731 465.386 177.31 465.537C197.147 465.709 218.737 465.484 220.085 465.031C222.554 464.198 220.358 457.093 217.621 454.904C214.856 452.716 187.768 440.62 187.768 440.62L187.788 439.852L172.565 440.029L142.131 440.38Z" fill="#FFC727"/>
<path d="M219.278 462.281C207.351 461.996 159.219 461.974 147.408 462.598C147.312 462.603 147.312 462.669 147.408 462.673C159.223 463.213 207.354 462.846 219.279 462.476C219.53 462.468 219.53 462.287 219.278 462.281Z" fill="#263238"/>
<path opacity="0.1" d="M172.564 440.027C173.884 447.639 175.879 458.856 177.31 465.536C197.147 465.708 218.737 465.483 220.085 465.03C222.554 464.197 220.358 457.092 217.621 454.903C214.856 452.715 187.768 440.619 187.768 440.619L187.788 439.851L172.564 440.027Z" fill="black"/>
<path d="M138.729 440.205L189.913 440.69C189.913 440.69 191.204 351.423 191.425 323.63C191.678 291.887 189.879 196.664 189.879 196.664H151.611C151.611 196.664 141.341 217.648 147.21 241.264L148.833 326.218L138.729 440.205Z" fill="#263238"/>
<path d="M142.524 431.241C143.844 430.999 145.26 431.011 146.6 430.916C148.113 430.809 149.62 430.696 151.135 430.632C154.047 430.509 156.959 430.459 159.874 430.447C165.751 430.424 171.629 430.471 177.503 430.654C180.846 430.758 184.187 430.891 187.525 431.082C187.656 431.09 187.65 431.288 187.52 431.293C181.694 431.505 175.864 431.596 170.035 431.709C164.218 431.821 158.379 431.936 152.562 431.823C150.891 431.791 149.221 431.776 147.552 431.681C145.904 431.587 144.175 431.679 142.545 431.439C142.447 431.423 142.407 431.262 142.524 431.241Z" fill="#37474F"/>
<path d="M185.227 384.24C185.823 370.461 185.651 351.741 186.029 337.954C186.785 310.377 186.974 282.788 186.626 255.203C186.431 239.726 186.017 224.253 185.556 208.783C185.551 208.606 185.82 208.615 185.829 208.789C187.294 236.484 187.852 264.233 187.884 291.964C187.916 319.553 187.951 352.075 186.589 379.631C185.824 395.097 185.883 411.571 184.427 426.989C184.415 427.122 184.211 427.121 184.217 426.984C184.84 413.068 184.625 398.158 185.227 384.24Z" fill="#37474F"/>
<path d="M197.198 393.707C197.198 393.707 197.589 439.985 197.588 440.017C197.617 448.868 197.799 456.626 198.268 460.631C198.267 460.653 198.266 460.674 198.276 460.696C198.451 462.207 198.667 463.171 198.938 463.428C198.959 463.45 198.969 463.472 198.99 463.483C201.63 465.259 272.364 467.096 274.852 466.329C277.35 465.574 275.352 458.41 272.664 456.149C269.954 453.887 243.198 441.072 243.198 441.072L242.368 394.818L197.198 393.707Z" fill="#EB9481"/>
<path d="M197.508 430.515C197.508 430.515 197.589 439.984 197.587 440.016C197.616 448.867 197.798 456.625 198.267 460.63C198.266 460.652 198.265 460.673 198.275 460.695C198.537 462.187 198.773 463.174 198.937 463.427C198.958 463.449 198.968 463.471 198.989 463.482C201.629 465.258 272.363 467.095 274.851 466.328C277.349 465.573 275.351 458.409 272.663 456.148C269.953 453.886 243.197 441.071 243.197 441.071L243.248 431.428L197.508 430.515Z" fill="white"/>
<path d="M247.532 441.097C242.821 440.321 237.098 441.164 233.583 444.583C233.447 444.715 233.637 444.907 233.788 444.856C238.386 443.298 242.689 442.269 247.526 441.69C247.867 441.649 247.869 441.152 247.532 441.097Z" fill="#263238"/>
<path d="M250.962 443.065C246.251 442.289 240.528 443.131 237.013 446.551C236.876 446.683 237.067 446.875 237.218 446.824C241.817 445.266 246.119 444.238 250.956 443.658C251.297 443.617 251.3 443.12 250.962 443.065Z" fill="#263238"/>
<path d="M254.393 445.035C249.682 444.259 243.959 445.102 240.444 448.522C240.308 448.654 240.498 448.846 240.649 448.794C245.247 447.236 249.55 446.207 254.386 445.628C254.727 445.587 254.73 445.09 254.393 445.035Z" fill="#263238"/>
<path d="M274.854 466.329C272.362 467.098 201.634 465.262 198.988 463.481C197.97 462.821 197.637 452.5 197.592 440.017C197.593 439.887 197.593 439.756 197.594 439.626L243.238 440.3L243.2 441.074C243.2 441.074 269.958 453.886 272.664 456.152C275.347 458.408 277.347 465.571 274.854 466.329Z" fill="#FFC727"/>
<path d="M274.124 463.565C262.209 462.963 214.095 461.659 202.271 461.969C202.175 461.972 202.173 462.037 202.269 462.044C214.066 462.899 262.189 463.813 274.12 463.761C274.371 463.759 274.376 463.578 274.124 463.565Z" fill="#263238"/>
<path d="M173.813 245.651C173.824 245.683 194.81 311.834 195.189 323.998C195.513 334.366 194.186 440.78 194.186 440.78L247.342 441.096C247.342 441.096 242.852 332.578 242.022 321.769C240.47 301.561 222.767 246.085 210.106 196.664H152.8C152.8 196.664 153.298 222.546 165.069 241.264C165.069 241.264 170.399 243.732 173.813 245.651Z" fill="#263238"/>
<path d="M197.011 430.981C203.151 430.804 209.519 430.623 215.662 430.776C221.752 430.928 227.861 431.021 233.943 431.383C237.394 431.589 240.837 431.704 244.28 432.044C244.394 432.055 244.39 432.222 244.276 432.229C238.139 432.586 231.978 432.515 225.833 432.459C219.735 432.403 213.641 432.338 207.547 432.059C204.096 431.9 200.654 431.727 197.208 431.488C196.836 431.461 196.639 430.992 197.011 430.981Z" fill="#37474F"/>
<path d="M208.634 227.846C210.528 234.17 212.127 240.588 213.822 246.968C215.532 253.399 217.235 259.831 218.929 266.267C222.206 278.716 225.443 291.188 227.9 303.83C230.372 316.552 231.87 329.366 232.149 342.327C232.433 355.503 232.158 368.698 232.068 381.875C231.978 395.125 231.867 408.374 231.638 421.622C231.609 423.27 231.574 424.916 231.513 426.564C231.507 426.723 231.271 426.716 231.267 426.558C230.915 413.381 231.102 400.176 231.145 386.995C231.188 373.813 231.362 360.624 231.25 347.442C231.138 334.325 230.134 321.325 227.87 308.399C225.648 295.714 222.523 283.212 219.283 270.756C217.435 263.65 215.568 256.549 213.724 249.442C211.868 242.288 209.883 235.151 208.251 227.941C208.196 227.693 208.562 227.604 208.634 227.846Z" fill="#37474F"/>
<path d="M186.959 246.929C184.312 246.882 181.672 246.702 179.065 246.214C176.433 245.721 173.975 244.847 171.417 244.093C168.99 243.378 166.408 243.267 163.919 242.867C161.394 242.461 158.873 241.8 156.569 240.678C156.46 240.625 156.369 240.788 156.478 240.844C158.765 242.015 161.067 243.123 163.522 243.898C166.042 244.693 168.677 244.802 171.235 245.428C173.866 246.072 176.4 246.927 179.106 247.24C181.728 247.543 184.38 247.534 186.989 247.107C187.09 247.087 187.055 246.93 186.959 246.929Z" fill="#37474F"/>
<path d="M190.312 299.577C189.809 297.617 189.335 295.65 188.803 293.697C187.727 289.747 186.635 285.793 185.441 281.876C183.068 274.092 180.828 266.259 178.318 258.517C176.894 254.127 175.619 249.68 173.948 245.375C173.907 245.269 173.755 245.315 173.778 245.426C174.617 249.44 175.806 253.368 176.87 257.327C177.933 261.283 179.072 265.219 180.213 269.153C182.48 276.97 184.699 284.805 187.175 292.56C187.869 294.734 188.582 296.902 189.333 299.058C190.1 301.26 190.703 303.533 191.623 305.679C191.673 305.796 191.833 305.746 191.812 305.623C191.457 303.578 190.827 301.586 190.312 299.577Z" fill="#37474F"/>
<path d="M301.576 193.473L306.641 178.385L295.397 173.61C296.021 167.547 295.439 161.532 293.783 155.878L304.044 149.735L296.954 135.471L285.668 140.044C281.989 135.36 277.403 131.35 272.025 128.321L274.861 117.057L259.773 111.992L255.231 122.68C248.922 121.834 242.633 122.322 236.716 123.949L231.114 114.586L216.862 121.67L220.941 131.769C215.865 135.6 211.553 140.49 208.371 146.262L198.428 143.758L193.36 158.856L202.92 162.916C202.054 169.564 202.67 176.185 204.572 182.364L195.954 187.514L203.041 201.756L212.721 197.852C216.705 202.87 221.752 207.084 227.678 210.135L225.148 220.195L240.236 225.26L244.542 215.138C250.938 215.77 257.288 215.05 263.208 213.172L268.886 222.663L283.148 215.582L278.749 204.684C283.379 200.874 287.313 196.128 290.213 190.626L301.576 193.473ZM243.056 191.254C230.56 187.423 223.532 174.182 227.363 161.686C231.194 149.19 244.435 142.162 256.931 145.993C269.437 149.827 276.464 163.068 272.634 175.564C268.803 188.059 255.562 195.087 243.056 191.254Z" fill="#DBDBDB"/>
<path d="M244.084 187.921C233.444 184.659 227.44 173.349 230.702 162.709C233.964 152.069 245.275 146.066 255.915 149.328C266.555 152.59 272.558 163.9 269.296 174.54C266.034 185.18 254.724 191.183 244.084 187.921ZM255.328 151.24C245.742 148.301 235.552 153.709 232.614 163.295C229.676 172.881 235.084 183.07 244.67 186.009C254.256 188.948 264.445 183.54 267.383 173.954C270.322 164.368 264.914 154.179 255.328 151.24Z" fill="#DBDBDB"/>
<path d="M206.844 138.475C202.985 138.845 196.598 131.666 194.701 126.69C194.573 126.348 195.519 123.071 196.48 119.033C197.054 116.581 197.635 113.837 197.984 111.294L213.397 117.358C213.397 117.358 211.097 122.471 210.516 126.908C210.471 127.279 210.461 127.629 210.482 127.966C210.481 128.015 210.487 128.075 210.481 128.142C210.53 130.169 210.573 138.115 206.844 138.475Z" fill="#EB9481"/>
<path d="M210.481 127.965C210.478 128.011 210.484 128.079 210.479 128.147C209.966 128.145 209.422 128.106 208.824 128.007C199.489 126.342 198.48 115.494 198.434 111.477L213.399 117.362C213.399 117.362 211.098 122.478 210.51 126.907C210.473 127.28 210.459 127.633 210.481 127.965Z" fill="#263238"/>
<path d="M192.552 95.3137C191.764 101.228 197.424 117.003 202.028 119.968C208.702 124.267 218.29 123.199 221.604 115.483C224.817 108.003 217.077 87.5757 212.059 85.0187C204.669 81.2527 193.716 86.5777 192.552 95.3137Z" fill="#EB9481"/>
<path d="M210.654 102.411C210.632 102.373 210.588 102.49 210.604 102.533C210.999 103.591 211.275 104.869 210.427 105.551C210.401 105.572 210.422 105.625 210.456 105.608C211.58 105.043 211.198 103.35 210.654 102.411Z" fill="#263238"/>
<path d="M209.321 101.618C207.557 102.069 208.589 105.564 210.224 105.146C211.832 104.734 210.799 101.239 209.321 101.618Z" fill="#263238"/>
<path d="M216.729 100.598C216.725 100.554 216.829 100.624 216.84 100.669C217.126 101.761 217.637 102.965 218.722 103.035C218.756 103.037 218.769 103.093 218.731 103.098C217.487 103.283 216.824 101.679 216.729 100.598Z" fill="#263238"/>
<path d="M217.362 99.1818C219.064 98.5358 220.232 101.987 218.655 102.586C217.103 103.176 215.935 99.7238 217.362 99.1818Z" fill="#263238"/>
<path d="M207.469 100.427C207.91 100.167 208.273 99.8529 208.682 99.5499C209.144 99.2079 209.547 98.9839 209.748 98.4199C209.856 98.1179 209.649 97.6929 209.365 97.5609C208.704 97.2519 208.034 97.5289 207.462 97.9179C206.841 98.3399 206.47 98.8229 206.255 99.5409C206.047 100.237 206.888 100.77 207.469 100.427Z" fill="#263238"/>
<path d="M218.193 97.023C217.685 97.087 217.206 97.062 216.697 97.073C216.123 97.086 215.667 97.155 215.162 96.833C214.891 96.66 214.795 96.198 214.938 95.919C215.271 95.27 215.97 95.079 216.661 95.035C217.41 94.988 218 95.142 218.609 95.578C219.201 96.001 218.863 96.938 218.193 97.023Z" fill="#263238"/>
<path d="M212.415 112.587C212.749 112.764 213.111 113.036 213.514 112.953C213.9 112.873 214.291 112.573 214.597 112.337C214.627 112.314 214.673 112.34 214.66 112.379C214.502 112.878 213.988 113.312 213.46 113.373C212.945 113.432 212.577 113.08 212.326 112.667C212.29 112.609 212.366 112.561 212.415 112.587Z" fill="#263238"/>
<path d="M212.595 109.01C213.478 109.771 214.521 110.021 215.54 109.923C215.996 109.882 216.452 109.763 216.884 109.592C216.971 109.564 217.055 109.529 217.129 109.488C217.205 109.455 217.274 109.425 217.355 109.381C217.476 109.326 217.515 109.201 217.501 109.075L217.498 109.067C217.485 109.027 217.475 108.996 217.455 108.959C217.455 108.959 217.455 108.959 217.452 108.951L217.422 108.857C217.198 108.017 216.743 106.773 216.743 106.773C217.092 106.836 218.852 107.075 218.698 106.647C217.418 103.106 215.994 99.1681 213.972 95.9141C213.91 95.8031 213.737 95.8841 213.782 96.0001C214.878 99.4521 216.573 102.688 217.729 106.138C217.178 106.096 216.267 105.987 215.833 106.124C215.725 106.193 216.756 108.512 216.826 108.897C216.826 108.897 216.831 108.913 216.831 108.939C215.483 109.532 214.303 109.421 212.666 108.882C212.569 108.844 212.505 108.943 212.595 109.01Z" fill="#263238"/>
<path d="M216.267 109.314C216.267 109.314 215.823 110.53 214.917 111.188C214.584 111.432 214.198 111.603 213.744 111.615C212.812 111.643 212.556 110.856 212.515 110.131C212.478 109.535 212.595 108.977 212.595 108.977C212.595 108.977 214.207 109.787 216.267 109.314Z" fill="#263238"/>
<path d="M214.917 111.189C214.584 111.433 214.198 111.604 213.744 111.616C212.812 111.644 212.556 110.857 212.515 110.132C213.47 109.953 214.573 110.311 214.917 111.189Z" fill="#FF97B8"/>
<path d="M195.406 110.827C199.674 109.645 200.09 103.911 197.702 100.26C197.702 100.26 209.294 97.8098 206.679 88.7328C206.679 88.7328 211.017 91.9718 216.085 90.3258L217.686 93.0138C218.706 92.2838 218.772 88.6278 215.097 87.0788C215.097 87.0788 213.337 82.7158 209.13 81.2118C204.923 79.7078 202.295 82.6048 202.295 82.6048C202.295 82.6048 198.931 81.3558 195.036 83.3218C191.141 85.2878 190.779 89.6018 190.779 89.6018C190.779 89.6018 185.664 92.5918 186.109 96.8178C186.554 101.045 189.492 102.945 189.492 102.945C189.492 102.945 188.657 104.962 190.533 108.04C191.74 110.022 194.125 111.182 195.406 110.827Z" fill="#263238"/>
<path d="M206.155 88.0317C206.485 88.7307 206.771 89.4487 206.948 90.1937C207.161 90.9277 207.26 91.6847 207.289 92.4357C207.318 93.9377 206.848 95.4267 205.854 96.5337C204.93 97.7227 203.497 98.3657 202.135 99.0027C201.41 99.2347 200.695 99.5207 199.953 99.7137C199.206 99.8957 198.454 100.061 197.702 100.261C198.471 100.183 199.238 100.07 200.012 99.9737C200.776 99.8317 201.52 99.5867 202.28 99.3957C203.72 98.8187 205.221 98.1487 206.267 96.8877C207.315 95.6587 207.832 94.0027 207.705 92.4177C207.574 90.8337 207.01 89.3217 206.155 88.0317Z" fill="#263238"/>
<path d="M190.78 89.604C189.393 90.108 188.102 90.899 187.012 91.934C185.921 92.96 185.106 94.36 184.936 95.908C184.882 96.683 184.963 97.445 185.148 98.176C185.311 98.914 185.604 99.63 186.008 100.271C186.804 101.559 188.065 102.557 189.493 102.947C188.152 102.345 187.044 101.309 186.368 100.059C185.705 98.82 185.347 97.342 185.476 95.96C185.535 95.264 185.747 94.586 186.061 93.954C186.4 93.334 186.816 92.751 187.308 92.226C188.292 91.175 189.491 90.31 190.78 89.604Z" fill="#263238"/>
<path d="M202.296 82.6078C203.221 81.8578 204.242 81.2388 205.327 80.8278C206.411 80.4198 207.574 80.2428 208.697 80.4158C209.821 80.5858 210.87 81.1118 211.79 81.8188C212.704 82.5368 213.505 83.4178 214.188 84.3948C213.698 83.3008 212.959 82.3188 212.058 81.4978C211.157 80.6768 210.017 80.0768 208.779 79.8788C207.543 79.7008 206.269 79.9198 205.167 80.4438C204.06 80.9568 203.069 81.6928 202.296 82.6078Z" fill="#263238"/>
<path d="M213.68 91.1497C212.289 91.1367 210.937 90.9767 209.682 90.5297C209.047 90.3247 208.464 90.0027 207.907 89.6367C207.335 89.2797 206.878 88.7797 206.381 88.2837C206.689 88.9047 207.094 89.5117 207.65 89.9667C208.185 90.4417 208.822 90.8097 209.5 91.0417C210.178 91.2727 210.887 91.4097 211.596 91.4197C212.303 91.4327 213.012 91.3677 213.68 91.1497Z" fill="#263238"/>
<path d="M198.745 107.996C198.745 107.996 194.106 103.436 191.97 105.185C189.835 106.934 194.003 114.02 196.988 114.54C199.973 115.06 200.509 112.306 200.509 112.306L198.745 107.996Z" fill="#EB9481"/>
<path d="M193.216 107.186C193.171 107.19 193.173 107.255 193.215 107.264C195.32 107.693 196.688 109.317 197.76 111.065C197.043 110.449 196.176 110.199 195.334 111.073C195.29 111.119 195.354 111.19 195.407 111.168C196.177 110.847 196.781 110.879 197.443 111.42C197.911 111.803 198.28 112.33 198.652 112.804C198.776 112.962 199.075 112.81 198.971 112.62C198.963 112.606 198.954 112.592 198.946 112.578C198.532 110.072 195.943 106.939 193.216 107.186Z" fill="#263238"/>
<path d="M193.25 124.928L194.072 118.691L211.297 128.607L211.8 134.73L193.25 124.928Z" fill="#EBEBEB"/>
<path d="M143.574 208.499C143.704 208.721 217.377 222.204 218.187 221.593C219.319 220.732 221.892 148.427 210.52 132.017C207.72 127.977 196.873 122.278 192.875 124.155C182.508 129.022 175.017 141.856 170.296 149.273C166.801 154.768 162.022 164.363 157.485 174.268C149.988 190.582 143.115 207.698 143.574 208.499Z" fill="#455A64"/>
<path d="M201.005 144.89C206.469 163.492 216.684 192.211 228.465 197.682C234.236 200.362 265.16 193.563 274.502 191.326C278.466 190.377 266.271 163.242 261.913 163.212C257.628 163.182 239.047 168.626 236.885 167.235C234.144 165.472 224.706 150.252 214.095 137.03C201.624 121.489 196.566 129.778 201.005 144.89Z" fill="#EB9481"/>
<path d="M298.083 153.968C299.179 155.999 296.178 158.134 296.178 158.134C296.178 158.134 298.655 158.883 299.858 161.058C301.236 163.549 297.934 166.802 297.934 166.802C297.934 166.802 300.284 168.079 301.323 170.504C302.402 173.021 299.539 176.778 299.539 176.778C299.539 176.778 301.074 179.17 300.469 181.911C299.435 186.597 292.528 189.051 288.154 190.655C283.78 192.26 269.869 192.713 267.227 193.067L256.689 165.08C256.689 165.08 274.258 152.305 279.669 151.149C284.228 150.175 295.744 149.634 298.083 153.968Z" fill="#EB9481"/>
<path d="M296.076 158.05C290.981 157.923 285.865 159.015 280.941 160.123C280.831 160.148 280.871 160.319 280.981 160.293C285.866 159.134 291.179 159.254 296.1 158.292C296.236 158.265 296.214 158.054 296.076 158.05Z" fill="#263238"/>
<path d="M297.707 166.468C296.554 166.474 295.405 166.86 294.303 167.167C293.117 167.497 291.937 167.848 290.762 168.216C288.41 168.954 286.075 169.746 283.764 170.606C283.662 170.644 283.694 170.81 283.804 170.776C286.149 170.044 288.506 169.348 290.88 168.715C292.068 168.398 293.259 168.092 294.452 167.794C295.561 167.516 296.755 167.316 297.783 166.796C297.935 166.72 297.881 166.468 297.707 166.468Z" fill="#263238"/>
<path d="M299.439 176.806C298.436 176.771 297.347 177.282 296.408 177.598C295.344 177.957 294.277 178.309 293.208 178.656C291.071 179.35 288.934 180.042 286.775 180.661C286.667 180.692 286.706 180.862 286.815 180.831C289.013 180.214 291.218 179.626 293.41 178.989C294.487 178.676 295.561 178.358 296.634 178.033C297.546 177.757 298.718 177.516 299.478 176.911C299.521 176.877 299.489 176.807 299.439 176.806Z" fill="#263238"/>
<path d="M254.965 163.162L265.236 197.997C265.236 197.997 229.627 202.716 223.085 196.74C211.972 186.589 202.33 157.379 199.459 142.035C196.588 126.691 204.039 123.366 213.888 135.854C223.737 148.342 236.281 165.87 237.052 166.469C237.823 167.069 254.965 163.162 254.965 163.162Z" fill="#455A64"/>
<path d="M252.87 181.554C252.166 179.123 251.406 176.71 250.646 174.296C250.281 173.138 249.926 171.974 249.524 170.828C249.091 169.594 248.745 168.292 248.226 167.094C248.19 167.01 248.074 167.041 248.089 167.133C248.296 168.422 248.707 169.702 249.003 170.975C249.277 172.157 249.607 173.329 249.923 174.501C250.58 176.944 251.238 179.386 251.952 181.814C253.382 186.677 254.946 191.481 256.573 196.281C256.612 196.396 256.785 196.349 256.756 196.23C255.545 191.31 254.279 186.421 252.87 181.554Z" fill="#263238"/>
<path d="M219.343 192.096C216.93 189.103 209.198 174.184 204.338 158.152C203.031 153.841 201.753 149.521 200.44 145.212C200.428 145.172 200.359 145.184 200.367 145.226C200.821 147.9 201.398 150.543 202.059 153.166C201.982 152.994 201.912 152.819 201.832 152.648C201.341 151.6 200.812 150.569 200.288 149.537C200.257 149.475 200.153 149.526 200.179 149.59C200.614 150.686 201.04 151.792 201.521 152.869C201.826 153.553 202.166 154.217 202.498 154.886C202.805 156.025 203.099 157.17 203.468 158.293C213.45 188.742 218.899 191.615 219.165 192.154C219.218 192.266 219.419 192.19 219.343 192.096Z" fill="#263238"/>
<path d="M274.87 79.347C273.571 91.769 262.441 100.79 250.019 99.491C244.999 98.966 240.536 96.835 237.08 93.653L225.765 95.314L231.426 85.532C230.052 82.19 229.474 78.47 229.874 74.641C231.173 62.219 242.303 53.198 254.724 54.497C267.148 55.796 276.169 66.925 274.87 79.347Z" fill="white"/>
<path d="M274.87 79.3471C274.397 83.4761 272.888 87.5241 270.305 90.8121C269.712 91.6741 268.948 92.3931 268.255 93.1721C267.469 93.8571 266.736 94.6071 265.868 95.1931C264.214 96.4671 262.355 97.4661 260.412 98.2311C258.478 99.0451 256.398 99.4331 254.323 99.6831C253.277 99.7391 252.229 99.8351 251.181 99.7431C250.131 99.7191 249.085 99.6071 248.051 99.4171C243.912 98.6681 239.992 96.7301 236.861 93.8921L237.129 93.9741L225.825 95.7091L225.005 95.8351L225.42 95.1121L231.048 85.3111L231.022 85.6981C228.28 79.2421 228.898 71.5541 232.415 65.5391C234.168 62.5271 236.613 59.9321 239.499 57.9961C242.383 56.0551 245.728 54.8381 249.152 54.3741C252.58 53.9191 256.107 54.2311 259.38 55.3191C262.649 56.4201 265.646 58.2711 268.102 60.6671C273.095 65.4151 275.605 72.5371 274.87 79.3471ZM274.87 79.3471C275.557 72.5311 272.998 65.4531 268.002 60.7701C265.522 58.4281 262.52 56.6531 259.28 55.6241C256.035 54.6081 252.563 54.3661 249.22 54.8701C245.88 55.3831 242.645 56.6271 239.879 58.5601C237.12 60.4981 234.793 63.0311 233.112 65.9411C231.398 68.8441 230.51 72.1721 230.241 75.5111C230.029 78.8621 230.576 82.2531 231.833 85.3641L231.915 85.5661L231.807 85.7511L226.112 95.5141L225.707 94.9171L237.033 93.3311L237.189 93.3091L237.3 93.4141C240.294 96.2241 244.083 98.1861 248.13 98.9931C249.141 99.1971 250.167 99.3251 251.198 99.3661C252.228 99.4751 253.26 99.3981 254.293 99.3611C256.341 99.1501 258.406 98.8041 260.334 98.0311C262.269 97.3061 264.141 96.3551 265.79 95.0911C266.657 94.5151 267.391 93.7731 268.179 93.0971C268.873 92.3271 269.64 91.6151 270.236 90.7611C272.833 87.5011 274.369 83.4741 274.87 79.3471Z" fill="#263238"/>
<path d="M249.508 89.8932L239.848 80.1142L243.094 76.9082L248.737 82.6192L260.461 64.2402L264.308 66.6932L249.508 89.8932Z" fill="#FFC727"/>
</svg>
