<svg width="66" height="63" viewBox="0 0 66 63" fill="none" xmlns="http://www.w3.org/2000/svg">
<path d="M35.9175 1.62995C34.7757 -0.543318 31.225 -0.543318 30.0832 1.62995L0.383689 58.1218C0.117346 58.6282 -0.0143992 59.1954 0.00124771 59.7683C0.0168946 60.3412 0.179402 60.9003 0.472987 61.3912C0.766572 61.8822 1.18125 62.2883 1.67675 62.5702C2.17226 62.8521 2.73173 63.0001 3.30084 63H62.6998C63.2689 63.0012 63.8286 62.8539 64.3243 62.5724C64.82 62.2909 65.2348 61.8848 65.5283 61.3939C65.8218 60.9029 65.9839 60.3437 65.9989 59.7708C66.0138 59.1979 65.8811 58.6309 65.6137 58.1251L35.9175 1.62995ZM36.3003 53.0309H29.7004V46.3848H36.3003V53.0309ZM29.7004 39.7387V23.1234H36.3003L36.3036 39.7387H29.7004Z" fill="#FFD98D"/>
<path d="M29.7004 39.7387V23.1234H36.3003L36.3036 39.7387H29.7004Z" fill="#2B2B2B"/>
<path d="M36.3003 53.0309H29.7004V46.3848H36.3003V53.0309Z" fill="#2B2B2B"/>
</svg>
