<svg width="16" height="18" viewBox="0 0 16 18" fill="none" xmlns="http://www.w3.org/2000/svg">
<path fill-rule="evenodd" clip-rule="evenodd" d="M8.01739 0.571533C5.90756 0.571533 3.98551 1.26843 2.84815 1.8378C2.7454 1.88918 2.64949 1.93932 2.56043 1.9882C2.38387 2.08442 2.23347 2.1741 2.1139 2.25304L3.40772 4.15782L4.0168 4.40023C6.39707 5.60111 9.58913 5.60111 11.9699 4.40023L12.6612 4.04151L13.8845 2.25304C13.6308 2.08821 13.3673 1.93894 13.0955 1.80604C11.9638 1.24273 10.0875 0.571533 8.01786 0.571533M5.00889 2.7276C4.55084 2.6414 4.09836 2.52785 3.65388 2.38756C4.7193 1.9144 6.30692 1.41229 8.01786 1.41229C9.20285 1.41229 10.3234 1.6533 11.2501 1.95878C10.1641 2.11151 9.00528 2.37075 7.90109 2.68977C7.03231 2.94106 6.01686 2.91397 5.00889 2.7276ZM12.4636 5.09292L12.3487 5.15084C9.73019 6.47176 6.25694 6.47176 3.63846 5.15084L3.52963 5.09572C-0.404629 9.41206 -3.40799 17.3852 8.01739 17.3852C19.4428 17.3852 16.3665 9.264 12.4636 5.09292ZM7.53209 8.97907C7.28433 8.97907 7.04672 9.07749 6.87153 9.25269C6.69634 9.42788 6.59792 9.66549 6.59792 9.91324C6.59792 10.161 6.69634 10.3986 6.87153 10.5738C7.04672 10.749 7.28433 10.8474 7.53209 10.8474V8.97907ZM8.46626 8.0449V7.57782H7.53209V8.0449C7.03657 8.0449 6.56135 8.24174 6.21097 8.59213C5.86059 8.94251 5.66375 9.41773 5.66375 9.91324C5.66375 10.4088 5.86059 10.884 6.21097 11.2344C6.56135 11.5847 7.03657 11.7816 7.53209 11.7816V13.6499C7.12572 13.6499 6.77961 13.3907 6.6507 13.0273C6.63157 12.9679 6.60072 12.9128 6.55996 12.8655C6.5192 12.8182 6.46936 12.7795 6.4134 12.7518C6.35744 12.7241 6.29648 12.7079 6.23414 12.7041C6.1718 12.7004 6.10934 12.7091 6.05045 12.7299C5.99157 12.7507 5.93745 12.7832 5.89131 12.8252C5.84516 12.8673 5.80793 12.9182 5.7818 12.975C5.75568 13.0317 5.74119 13.0931 5.73921 13.1555C5.73722 13.2179 5.74777 13.2801 5.77024 13.3384C5.89902 13.7027 6.13762 14.0182 6.45315 14.2413C6.76869 14.4644 7.14565 14.5842 7.53209 14.5841V15.0512H8.46626V14.5841C8.96177 14.5841 9.43699 14.3873 9.78738 14.0369C10.1378 13.6865 10.3346 13.2113 10.3346 12.7158C10.3346 12.2202 10.1378 11.745 9.78738 11.3946C9.43699 11.0443 8.96177 10.8474 8.46626 10.8474V8.97907C8.87262 8.97907 9.21873 9.23831 9.34765 9.6017C9.36678 9.66115 9.39763 9.71616 9.43839 9.76348C9.47915 9.8108 9.52898 9.84947 9.58495 9.87719C9.64091 9.90492 9.70187 9.92114 9.76421 9.92489C9.82655 9.92865 9.88901 9.91986 9.94789 9.89906C10.0068 9.87825 10.0609 9.84585 10.107 9.80376C10.1532 9.76168 10.1904 9.71077 10.2165 9.65404C10.2427 9.59731 10.2572 9.53592 10.2591 9.4735C10.2611 9.41108 10.2506 9.34889 10.2281 9.29062C10.0993 8.92627 9.86073 8.61081 9.54519 8.38771C9.22966 8.16461 8.8527 8.04484 8.46626 8.0449ZM8.46626 11.7816V13.6499C8.71402 13.6499 8.95163 13.5515 9.12682 13.3763C9.30201 13.2011 9.40043 12.9635 9.40043 12.7158C9.40043 12.468 9.30201 12.2304 9.12682 12.0552C8.95163 11.88 8.71402 11.7816 8.46626 11.7816Z" fill="#028036"/>
</svg>
