<svg width="33" height="33" viewBox="0 0 33 33" fill="none" xmlns="http://www.w3.org/2000/svg">
<path d="M16.5 0C7.38581 0 0 7.38787 0 16.5C0 25.6121 7.38581 33 16.5 33C25.6142 33 33 25.6121 33 16.5C33 7.38787 25.6142 0 16.5 0ZM24.1457 21.2293C24.5324 21.616 24.7497 22.1406 24.7497 22.6875C24.7497 23.2344 24.5324 23.759 24.1457 24.1457C23.759 24.5324 23.2344 24.7497 22.6875 24.7497C22.1406 24.7497 21.616 24.5324 21.2293 24.1457L16.5 19.4164L11.7707 24.1457C11.5796 24.3379 11.3524 24.4904 11.1021 24.5945C10.8519 24.6986 10.5835 24.7521 10.3125 24.7521C10.0415 24.7521 9.77312 24.6986 9.52287 24.5945C9.27262 24.4904 9.04541 24.3379 8.85431 24.1457C8.46765 23.7589 8.25044 23.2344 8.25044 22.6875C8.25044 22.1406 8.46765 21.6161 8.85431 21.2293L13.5836 16.5L8.85431 11.7707C8.46758 11.384 8.25031 10.8594 8.25031 10.3125C8.25031 9.76557 8.46758 9.24105 8.85431 8.85431C9.24105 8.46758 9.76557 8.25031 10.3125 8.25031C10.8594 8.25031 11.384 8.46758 11.7707 8.85431L16.5 13.5836L21.2293 8.85431C21.616 8.46758 22.1406 8.25031 22.6875 8.25031C23.2344 8.25031 23.759 8.46758 24.1457 8.85431C24.5324 9.24105 24.7497 9.76557 24.7497 10.3125C24.7497 10.8594 24.5324 11.384 24.1457 11.7707L19.4164 16.5L24.1457 21.2293Z" fill="#FF0460"/>
</svg>
