<svg width="18" height="17" viewBox="0 0 18 17" fill="none" xmlns="http://www.w3.org/2000/svg">
<path d="M10.1382 7.60132e-05C9.43354 0.00269642 8.73327 0.0728917 8.06144 0.188507C4.65585 0.774526 2.73624 2.31132 1.70044 4.46946C2.92618 4.37283 4.13512 4.26999 5.31175 4.27738C6.25865 4.28333 7.18467 4.36064 8.0817 4.56999C8.67661 4.70895 9.04973 5.23093 9.16577 5.82997C9.28177 6.42901 9.19946 7.137 8.96727 7.87679L8.956 7.91268L8.93762 7.94548C8.63283 8.48703 7.98487 8.91812 7.15899 9.37455C6.3331 9.83102 5.32537 10.2755 4.3211 10.662C3.31686 11.0486 2.31796 11.3759 1.5105 11.5926C1.22565 11.669 0.966638 11.7307 0.735547 11.7775C0.824881 13.0134 0.993222 14.2939 1.20708 15.5882C6.70921 14.0695 11.9468 12.4164 17.0521 10.6946C18.0705 8.92952 18.2272 7.26234 17.7183 5.66286C16.839 2.89932 15.3269 1.41272 13.5867 0.65359C12.4992 0.179137 11.3126 -0.00429134 10.1382 7.60132e-05H10.1382ZM3.6899 5.04548C3.33414 5.06573 2.97268 5.09137 2.60878 5.11837L0.906833 11.0081C1.03972 10.9768 1.1792 10.9421 1.32912 10.9019C1.4954 10.8569 1.66112 10.8099 1.82625 10.7608C2.21979 9.52721 3.52655 5.54316 3.6899 5.04548ZM1.85609 5.17499C1.42933 5.20778 0.999113 5.24066 0.563868 5.26908C0.551302 5.28675 0.53583 5.30668 0.512112 5.35909C0.450069 5.49607 0.379583 5.73302 0.319229 6.02309C0.19848 6.60323 0.10836 7.40186 0.0559375 8.20188C0.0035934 9.0019 -0.0119958 9.8074 0.00909102 10.4087C0.0196148 10.7093 0.0401125 10.9607 0.0657152 11.1217C0.0676001 11.1339 0.0687781 11.1341 0.0708201 11.1452C0.0888833 11.1448 0.111384 11.1434 0.131528 11.1426L1.85609 5.17499ZM7.37386 5.19615C6.76144 5.19615 6.24844 5.6957 6.24844 6.31387C6.24844 6.93205 6.76144 7.43172 7.37386 7.43172C7.98628 7.43172 8.49928 6.93209 8.49928 6.31387C8.49928 5.6957 7.98628 5.19615 7.37386 5.19615ZM7.37386 5.91081C7.61418 5.91081 7.79246 6.09213 7.79246 6.31387C7.79246 6.53566 7.61418 6.71706 7.37386 6.71706C7.13354 6.71706 6.95526 6.53562 6.95526 6.31387C6.95526 6.09213 7.13354 5.91081 7.37386 5.91081ZM16.4129 11.6624C11.5513 13.2897 6.56043 14.8532 1.32873 16.2956C1.34494 16.3876 1.36053 16.4794 1.37711 16.5714C7.17332 15.5133 11.4287 13.8333 15.9596 12.2373C16.1164 12.0503 16.2676 11.8585 16.413 11.6624L16.4129 11.6624Z" fill="#57137E"/>
</svg>
