<svg width="18" height="17" viewBox="0 0 18 17" fill="none" xmlns="http://www.w3.org/2000/svg">
<path d="M0 8.27596C0 8.64115 0.288908 8.86189 0.646635 8.86189C0.867374 8.86189 1.04234 8.75542 1.19459 8.60317L8.62018 1.83947C8.70361 1.75572 8.79515 1.72521 8.89383 1.72521C8.98537 1.72521 9.06912 1.75572 9.16002 1.83947L16.5781 8.60317C16.7379 8.75542 16.9128 8.86189 17.1261 8.86189C17.4835 8.86189 17.7727 8.64115 17.7727 8.27596C17.7727 8.04775 17.689 7.9033 17.5445 7.77378L14.9119 5.37746V0.880879C14.9119 0.5462 14.6989 0.333252 14.3643 0.333252H13.3677C13.0405 0.333252 12.8123 0.5462 12.8123 0.880879V3.46774L9.79918 0.713377C9.533 0.462449 9.20579 0.341043 8.88636 0.341043C8.56662 0.341043 8.2472 0.462774 7.97322 0.713702L0.228205 7.77378C0.0912171 7.9033 0 8.04775 0 8.27596ZM2.1759 14.6592C2.1759 15.7168 2.81507 16.3333 3.8876 16.3333H6.96918V10.9235C6.96918 10.5736 7.20485 10.3457 7.55479 10.3457H10.2407C10.5906 10.3457 10.8188 10.5736 10.8188 10.9235V16.3333H13.8926C14.9651 16.3333 15.5968 15.7168 15.5968 14.6592V9.09009L9.13729 3.26973C9.05354 3.19377 8.96232 3.15579 8.87111 3.15579C8.78736 3.15579 8.70361 3.19377 8.61239 3.27752L2.1759 9.12807V14.6592Z" fill="#4B4B4B"/>
</svg>
