<svg width="16" height="18" viewBox="0 0 16 18" fill="none" xmlns="http://www.w3.org/2000/svg">
<path fill-rule="evenodd" clip-rule="evenodd" d="M7.52889 0.13474C7.67016 0.0466882 7.83341 0 8 0C8.1666 0 8.32984 0.0466882 8.47111 0.13474L14.608 3.9597L8 7.83608L1.392 3.9597L7.52889 0.13474ZM0.00711419 5.20426C0.00227611 5.24218 -9.9116e-05 5.28038 3.16717e-06 5.31861V12.4101C2.8116e-06 12.5604 0.0383475 12.7083 0.111431 12.8398C0.184515 12.9713 0.289936 13.0821 0.417781 13.1618L7.11111 17.3333V9.37138L0.00711419 5.20426ZM8.88889 17.3333L15.5822 13.1618C15.7101 13.0821 15.8155 12.9713 15.8886 12.8398C15.9617 12.7083 16 12.5604 16 12.4101V5.31861C16 5.28049 15.9973 5.24149 15.9929 5.20426L8.88889 9.3705V17.3333Z" fill="#0E43FF"/>
</svg>
