<svg width="16" height="17" viewBox="0 0 16 17" fill="none" xmlns="http://www.w3.org/2000/svg">
<path d="M12.0001 1.71841C13.2068 2.4151 14.2105 3.41485 14.912 4.61869C15.6135 5.82252 15.9885 7.1887 15.9997 8.58197C16.011 9.97524 15.6582 11.3473 14.9762 12.5623C14.2942 13.7773 13.3068 14.7931 12.1115 15.5092C10.9163 16.2253 9.55481 16.6169 8.16178 16.645C6.76875 16.6732 5.39251 16.3371 4.16929 15.67C2.94608 15.0028 1.91832 14.0278 1.18775 12.8414C0.457175 11.6549 0.049128 10.2983 0.00400014 8.9057L0 8.6465L0.00400014 8.38729C0.0488032 7.00567 0.450844 5.65923 1.17093 4.47924C1.89101 3.29925 2.90456 2.32598 4.11276 1.65432C5.32097 0.982653 6.6826 0.635516 8.0649 0.646749C9.44721 0.657982 10.803 1.0272 12.0001 1.71841ZM8.0001 3.84644C7.80415 3.84646 7.61502 3.9184 7.46859 4.04861C7.32216 4.17882 7.22861 4.35824 7.20569 4.55285L7.20009 4.64645V8.6465L7.20729 8.7513C7.22553 8.8901 7.27987 9.02168 7.36489 9.1329L7.43449 9.2129L9.83452 11.6129L9.90972 11.6785C10.05 11.7874 10.2226 11.8465 10.4001 11.8465C10.5777 11.8465 10.7502 11.7874 10.8905 11.6785L10.9657 11.6121L11.0321 11.5369C11.141 11.3966 11.2001 11.2241 11.2001 11.0465C11.2001 10.8689 11.141 10.6964 11.0321 10.5561L10.9657 10.4809L8.80011 8.31449V4.64645L8.79451 4.55285C8.77158 4.35824 8.67803 4.17882 8.5316 4.04861C8.38517 3.9184 8.19605 3.84646 8.0001 3.84644Z" fill="#E8A41C"/>
</svg>
