<svg width="18" height="19" viewBox="0 0 18 19" fill="none" xmlns="http://www.w3.org/2000/svg">
<path d="M7.16752 7.64243C6.41152 7.64243 5.6725 7.41817 5.04399 6.99804C4.41547 6.57791 3.9257 5.98078 3.63665 5.28222C3.34759 4.58366 3.27225 3.81505 3.42015 3.07365C3.56805 2.33225 3.93255 1.65139 4.46752 1.11721C5.0025 0.583029 5.6839 0.219541 6.42551 0.0727373C7.16713 -0.074066 7.93562 0.00241367 8.63376 0.292499C9.33189 0.582585 9.9283 1.07324 10.3475 1.70238C10.7667 2.33152 10.9899 3.07086 10.9887 3.82687C10.9857 4.83888 10.582 5.8085 9.86589 6.52357C9.14975 7.23864 8.17954 7.64094 7.16752 7.64243ZM7.16752 1.13619C6.63536 1.13619 6.11514 1.294 5.67266 1.58965C5.23018 1.88531 4.88531 2.30553 4.68166 2.79719C4.47801 3.28885 4.42473 3.82985 4.52855 4.35179C4.63237 4.87373 4.88863 5.35316 5.26493 5.72946C5.64123 6.10576 6.12066 6.36202 6.6426 6.46584C7.16454 6.56966 7.70554 6.51638 8.1972 6.31273C8.68886 6.10908 9.10908 5.76421 9.40474 5.32173C9.70039 4.87925 9.8582 4.35903 9.8582 3.82687C9.8582 3.11326 9.57472 2.42887 9.07012 1.92427C8.56552 1.41967 7.88114 1.13619 7.16752 1.13619Z" fill="white"/>
<path d="M8.15117 17.1785C8.02762 17.0549 7.93232 16.906 7.87182 16.742C7.81132 16.5781 7.78706 16.403 7.8007 16.2288H1.13054V12.9615C1.93181 12.106 2.90392 11.4285 3.98385 10.9727C5.06378 10.517 6.22743 10.2933 7.39936 10.3161H7.80635C7.78041 10.1266 7.79853 9.93362 7.85932 9.75225C7.9201 9.57087 8.02191 9.40596 8.15682 9.27035L8.22465 9.20817C7.95897 9.20817 7.65938 9.17425 7.39936 9.17425C6.02033 9.14151 4.65126 9.41562 3.39114 9.97677C2.13102 10.5379 1.01134 11.3721 0.113054 12.4189C0.0396693 12.5167 0 12.6357 0 12.7581V16.2288C0 16.5286 0.11911 16.8162 0.331126 17.0282C0.543143 17.2402 0.830699 17.3593 1.13054 17.3593H8.30944L8.15117 17.1785Z" fill="white"/>
<path d="M17.9078 12.453L16.7772 12.1081C16.6965 11.8316 16.5866 11.5644 16.4494 11.3111L17.0146 10.2597C17.033 10.2177 17.0375 10.1708 17.0273 10.1261C17.0171 10.0813 16.9929 10.041 16.9581 10.011L16.1385 9.19135C16.1075 9.1578 16.0661 9.13565 16.021 9.12847C15.9759 9.12129 15.9296 9.12951 15.8898 9.15179L14.8497 9.71705C14.5939 9.57246 14.3227 9.45681 14.0413 9.37224L13.6965 8.2417C13.6819 8.20009 13.6541 8.16436 13.6174 8.13989C13.5807 8.11542 13.5371 8.10354 13.493 8.10604H12.3342C12.2897 8.10553 12.2463 8.11962 12.2105 8.14617C12.1748 8.17271 12.1487 8.21024 12.1364 8.25301L11.7916 9.38355C11.5085 9.46592 11.2354 9.57968 10.9776 9.72271L9.94879 9.15744C9.90977 9.13559 9.8645 9.12761 9.82036 9.13479C9.77621 9.14198 9.73581 9.16391 9.70573 9.19701L8.86913 10.011C8.83811 10.0437 8.81815 10.0852 8.81206 10.1299C8.80598 10.1745 8.81408 10.2199 8.83522 10.2597L9.40048 11.2885C9.25111 11.5434 9.13162 11.8146 9.04437 12.0968L7.91383 12.436C7.87106 12.4484 7.83353 12.4744 7.80699 12.5101C7.78044 12.5459 7.76634 12.5893 7.76686 12.6338V13.7926C7.7702 13.8335 7.78613 13.8723 7.81246 13.9036C7.83878 13.935 7.8742 13.9575 7.91383 13.9679L9.04437 14.3127C9.12791 14.59 9.24165 14.8572 9.38353 15.1097L8.81826 16.1894C8.79669 16.2281 8.78833 16.2727 8.79445 16.3166C8.80057 16.3605 8.82084 16.4011 8.85217 16.4324L9.67181 17.2521C9.70383 17.284 9.74511 17.305 9.78976 17.3121C9.83442 17.3192 9.88019 17.3121 9.92053 17.2916L10.9776 16.7264C11.229 16.862 11.4943 16.9701 11.769 17.0486L12.1081 18.1791C12.122 18.221 12.1485 18.2575 12.1839 18.2838C12.2193 18.3101 12.2619 18.3249 12.306 18.3261H13.4648C13.5091 18.3257 13.5521 18.3113 13.5876 18.2848C13.6232 18.2584 13.6494 18.2214 13.6626 18.1791L14.0074 17.0203C14.2782 16.941 14.5397 16.833 14.7875 16.6981L15.8558 17.2634C15.8951 17.2843 15.9401 17.2917 15.984 17.2845C16.0279 17.2774 16.0683 17.2561 16.0989 17.2238L16.9581 16.455C16.9812 16.4219 16.9936 16.3824 16.9936 16.342C16.9936 16.3016 16.9812 16.2621 16.9581 16.2289L16.3929 15.1662C16.5301 14.9169 16.64 14.6535 16.7207 14.3805L17.8512 14.0357C17.894 14.0233 17.9315 13.9973 17.9581 13.9616C17.9846 13.9258 17.9987 13.8824 17.9982 13.8379V12.6508C18.0034 12.6126 17.9977 12.5738 17.9816 12.5388C17.9656 12.5038 17.94 12.474 17.9078 12.453ZM12.9165 15.0984C12.5426 15.0995 12.1768 14.9896 11.8654 14.7826C11.5541 14.5756 11.3112 14.2807 11.1676 13.9355C11.024 13.5903 10.9861 13.2102 11.0588 12.8435C11.1315 12.4767 11.3114 12.1398 11.5758 11.8754C11.8402 11.611 12.1771 11.4311 12.5439 11.3584C12.9106 11.2858 13.2907 11.3236 13.6359 11.4672C13.9811 11.6108 14.2759 11.8537 14.483 12.165C14.69 12.4764 14.7999 12.8422 14.7988 13.2161C14.7973 13.7148 14.5985 14.1927 14.2458 14.5454C13.8931 14.8981 13.4152 15.0969 12.9165 15.0984Z" fill="white"/>
</svg>
