<svg width="19" height="18" viewBox="0 0 19 18" fill="none" xmlns="http://www.w3.org/2000/svg">
<path d="M8.1242 6.90441C9.99399 6.90441 11.5098 5.38865 11.5098 3.51886C11.5098 1.64907 9.99399 0.133301 8.1242 0.133301C6.25441 0.133301 4.73865 1.64907 4.73865 3.51886C4.73865 5.38865 6.25441 6.90441 8.1242 6.90441Z" fill="#6B21A8"/>
<path d="M9.123 16.7903C8.93653 16.6059 8.81485 16.366 8.77619 16.1066C8.73754 15.8472 8.78399 15.5822 8.90858 15.3514L9.20764 14.7872L8.59259 14.601C8.34179 14.5225 8.12344 14.3643 7.97069 14.1504C7.81794 13.9366 7.73912 13.6787 7.74621 13.416V12.2593C7.74573 11.9978 7.82941 11.743 7.98487 11.5326C8.14034 11.3223 8.35934 11.1676 8.60952 11.0913L9.22457 10.9051L8.93115 10.3408C8.81021 10.1132 8.76419 9.85319 8.79965 9.59788C8.83511 9.34256 8.95024 9.10495 9.12864 8.91889C8.69453 8.86209 8.25735 8.83194 7.81956 8.82861C6.52646 8.79817 5.24257 9.05345 4.05947 9.57623C2.87637 10.099 1.82321 10.8764 0.975098 11.853V16.226C0.975098 16.3757 1.03455 16.5192 1.14037 16.625C1.24618 16.7309 1.38971 16.7903 1.53936 16.7903H9.123Z" fill="#6B21A8"/>
<path d="M18.8621 12.073L17.7336 11.7345C17.6556 11.4558 17.5457 11.1869 17.4063 10.9332L17.9706 9.88372C17.9924 9.84477 18.0004 9.79957 17.9932 9.75551C17.986 9.71145 17.9641 9.67111 17.9311 9.64109L17.1129 8.81727C17.0814 8.7866 17.0412 8.76636 16.9978 8.7593C16.9544 8.75223 16.9099 8.75868 16.8703 8.77777L15.8264 9.34203C15.5695 9.20231 15.2992 9.08889 15.0195 9.00348L14.6753 7.87496C14.6602 7.83335 14.6325 7.79745 14.5962 7.77219C14.5598 7.74693 14.5165 7.73355 14.4722 7.73389H13.2985C13.2545 7.73512 13.212 7.74986 13.1767 7.7761C13.1413 7.80235 13.1149 7.83883 13.101 7.8806L12.7625 9.00912C12.4777 9.09275 12.2032 9.20821 11.9443 9.35332L10.923 8.78906C10.8833 8.76795 10.838 8.75987 10.7934 8.76594C10.7489 8.77202 10.7073 8.79195 10.6747 8.82291L9.84527 9.63545C9.81261 9.66692 9.79109 9.70818 9.78397 9.75297C9.77684 9.79777 9.7845 9.84366 9.80578 9.88372L10.37 10.9107C10.2187 11.1655 10.0957 11.436 10.0033 11.7176L8.87475 12.0618C8.83206 12.0741 8.7946 12.1001 8.7681 12.1358C8.7416 12.1714 8.72753 12.2148 8.72804 12.2593V13.416C8.72753 13.4604 8.7416 13.5038 8.7681 13.5395C8.7946 13.5751 8.83206 13.6011 8.87475 13.6135L10.0033 13.9577C10.0879 14.234 10.2014 14.5007 10.3418 14.7533L9.77756 15.8254C9.75628 15.8654 9.74863 15.9113 9.75575 15.9561C9.76288 16.0009 9.7844 16.0422 9.81706 16.0736L10.6578 16.8918C10.6904 16.9228 10.7319 16.9427 10.7765 16.9488C10.821 16.9549 10.8664 16.9468 10.9061 16.9257L11.9612 16.3614C12.2122 16.4968 12.4771 16.6047 12.7512 16.683L13.0898 17.8398C13.104 17.8824 13.1312 17.9196 13.1677 17.9459C13.2041 17.9722 13.2479 17.9864 13.2929 17.9865H14.4496C14.4936 17.9853 14.5362 17.9705 14.5715 17.9443C14.6068 17.918 14.6332 17.8815 14.6471 17.8398L14.9857 16.683C15.2564 16.6052 15.5176 16.4973 15.7644 16.3614L16.8308 16.9257C16.8705 16.9468 16.9158 16.9549 16.9604 16.9488C17.005 16.9427 17.0465 16.9228 17.0791 16.8918L17.9029 16.0736C17.9339 16.041 17.9538 15.9995 17.9599 15.955C17.9659 15.9104 17.9579 15.8651 17.9367 15.8254L17.3725 14.7646C17.5072 14.5172 17.615 14.2562 17.6941 13.9859L18.8226 13.6417C18.865 13.628 18.9023 13.6019 18.9295 13.5666C18.9567 13.5313 18.9726 13.4887 18.975 13.4442V12.2762C18.9764 12.2353 18.9666 12.1948 18.9467 12.159C18.9268 12.1232 18.8976 12.0935 18.8621 12.073ZM13.8797 14.7363C13.5067 14.7375 13.1418 14.6279 12.8312 14.4215C12.5205 14.2151 12.2781 13.9211 12.1345 13.5769C11.991 13.2326 11.9529 12.8535 12.025 12.4875C12.0971 12.1216 12.2761 11.7852 12.5395 11.5211C12.8028 11.257 13.1386 11.0769 13.5043 11.0037C13.8701 10.9306 14.2493 10.9675 14.594 11.11C14.9387 11.2525 15.2334 11.4941 15.4407 11.8041C15.648 12.1141 15.7587 12.4787 15.7587 12.8517C15.7587 13.3506 15.5609 13.8291 15.2087 14.1824C14.8565 14.5356 14.3786 14.7349 13.8797 14.7363Z" fill="#6B21A8"/>
</svg>
