<svg width="73" height="58" viewBox="0 0 73 58" fill="none" xmlns="http://www.w3.org/2000/svg">
<path d="M35.4836 0.000266046C33.0174 0.00943748 30.5665 0.255121 28.215 0.659776C16.2955 2.71084 9.57686 8.08961 5.95153 15.6431C10.2416 15.3049 14.4729 14.945 18.5911 14.9708C21.9053 14.9917 25.1463 15.2622 28.286 15.995C30.3681 16.4813 31.6741 18.3083 32.0802 20.4049C32.4862 22.5015 32.1981 24.9795 31.3854 27.5688L31.346 27.6944L31.2817 27.8092C30.2149 29.7046 27.947 31.2134 25.0564 32.8109C22.1659 34.4086 18.6388 35.9644 15.1238 37.3172C11.609 38.67 8.11287 39.8157 5.28674 40.574C4.28977 40.8415 3.38323 41.0576 2.57441 41.2211C2.88708 45.547 3.47628 50.0285 4.22476 54.5586C23.4822 49.2434 41.8139 43.4573 59.6822 37.4311C63.2466 31.2533 63.7953 25.4182 62.0141 19.82C58.9365 10.1476 53.6441 4.9445 47.5536 2.28757C43.7471 0.626981 39.5942 -0.0150197 35.4838 0.000266046H35.4836ZM12.9147 17.6592C11.6695 17.73 10.4044 17.8198 9.13073 17.9143L3.17392 38.5285C3.639 38.4187 4.12718 38.2974 4.65192 38.1566C5.2339 37.9993 5.81393 37.8346 6.39188 37.6628C7.76928 33.3452 12.3429 19.401 12.9147 17.6592ZM6.49633 18.1125C5.00266 18.2272 3.49689 18.3423 1.97354 18.4418C1.92956 18.5036 1.87541 18.5734 1.79239 18.7568C1.57524 19.2362 1.32854 20.0656 1.1173 21.0808C0.69468 23.1113 0.37926 25.9065 0.195781 28.7066C0.0125769 31.5066 -0.0419854 34.3259 0.0318186 36.4303C0.0686518 37.4825 0.140394 38.3626 0.230003 38.9261C0.2366 38.9686 0.240723 38.9694 0.24787 39.008C0.311091 39.0067 0.389843 39.0019 0.460349 38.9992L6.49633 18.1125ZM25.8085 18.1865C23.665 18.1865 21.8695 19.9349 21.8695 22.0986C21.8695 24.2622 23.665 26.011 25.8085 26.011C27.952 26.011 29.7475 24.2623 29.7475 22.0986C29.7475 19.9349 27.952 18.1865 25.8085 18.1865ZM25.8085 20.6878C26.6496 20.6878 27.2736 21.3225 27.2736 22.0986C27.2736 22.8748 26.6496 23.5097 25.8085 23.5097C24.9674 23.5097 24.3434 22.8747 24.3434 22.0986C24.3434 21.3225 24.9674 20.6878 25.8085 20.6878ZM57.4453 40.8184C40.4295 46.514 22.9615 51.986 4.65054 57.0345C4.70731 57.3565 4.76187 57.6779 4.81987 58C25.1066 54.2967 40.0003 48.4165 55.8587 42.8304C56.4074 42.1759 56.9366 41.5049 57.4455 40.8183L57.4453 40.8184Z" fill="white"/>
<path d="M67.8438 36.9062H62.0938V31.1562C62.0938 30.2031 61.7151 29.289 61.0412 28.6151C60.3672 27.9411 59.4531 27.5625 58.5 27.5625C57.5469 27.5625 56.6328 27.9411 55.9588 28.6151C55.2849 29.289 54.9062 30.2031 54.9062 31.1562V36.9062H49.1562C48.2031 36.9062 47.289 37.2849 46.6151 37.9588C45.9411 38.6328 45.5625 39.5469 45.5625 40.5C45.5625 41.4531 45.9411 42.3672 46.6151 43.0412C47.289 43.7151 48.2031 44.0938 49.1562 44.0938H54.9062V49.8438C54.9062 50.7969 55.2849 51.711 55.9588 52.3849C56.6328 53.0589 57.5469 53.4375 58.5 53.4375C59.4531 53.4375 60.3672 53.0589 61.0412 52.3849C61.7151 51.711 62.0938 50.7969 62.0938 49.8438V44.0938H67.8438C68.7969 44.0938 69.711 43.7151 70.3849 43.0412C71.0589 42.3672 71.4375 41.4531 71.4375 40.5C71.4375 39.5469 71.0589 38.6328 70.3849 37.9588C69.711 37.2849 68.7969 36.9062 67.8438 36.9062Z" fill="white" stroke="#57137E" stroke-width="2.875"/>
</svg>
