<svg width="37" height="37" viewBox="0 0 37 37" fill="none" xmlns="http://www.w3.org/2000/svg">
<path d="M29.2105 29.2105C30.2435 29.2105 31.2341 29.6209 31.9645 30.3513C32.6949 31.0817 33.1053 32.0723 33.1053 33.1053C33.1053 34.1382 32.6949 35.1289 31.9645 35.8593C31.2341 36.5897 30.2435 37 29.2105 37C28.1776 37 27.1869 36.5897 26.4565 35.8593C25.7261 35.1289 25.3158 34.1382 25.3158 33.1053C25.3158 32.0723 25.7261 31.0817 26.4565 30.3513C27.1869 29.6209 28.1776 29.2105 29.2105 29.2105ZM29.2105 31.1579C28.6941 31.1579 28.1987 31.3631 27.8335 31.7283C27.4683 32.0935 27.2632 32.5888 27.2632 33.1053C27.2632 33.6217 27.4683 34.1171 27.8335 34.4823C28.1987 34.8475 28.6941 35.0526 29.2105 35.0526C29.727 35.0526 30.2223 34.8475 30.5875 34.4823C30.9527 34.1171 31.1579 33.6217 31.1579 33.1053C31.1579 32.5888 30.9527 32.0935 30.5875 31.7283C30.2223 31.3631 29.727 31.1579 29.2105 31.1579ZM11.6842 29.2105C12.7172 29.2105 13.7078 29.6209 14.4382 30.3513C15.1686 31.0817 15.5789 32.0723 15.5789 33.1053C15.5789 34.1382 15.1686 35.1289 14.4382 35.8593C13.7078 36.5897 12.7172 37 11.6842 37C10.6513 37 9.66062 36.5897 8.93022 35.8593C8.19981 35.1289 7.78947 34.1382 7.78947 33.1053C7.78947 32.0723 8.19981 31.0817 8.93022 30.3513C9.66062 29.6209 10.6513 29.2105 11.6842 29.2105ZM11.6842 31.1579C11.1677 31.1579 10.6724 31.3631 10.3072 31.7283C9.94201 32.0935 9.73684 32.5888 9.73684 33.1053C9.73684 33.6217 9.94201 34.1171 10.3072 34.4823C10.6724 34.8475 11.1677 35.0526 11.6842 35.0526C12.2007 35.0526 12.696 34.8475 13.0612 34.4823C13.4264 34.1171 13.6316 33.6217 13.6316 33.1053C13.6316 32.5888 13.4264 32.0935 13.0612 31.7283C12.696 31.3631 12.2007 31.1579 11.6842 31.1579ZM33.1053 5.84211H6.36789L11.3337 17.5263H27.2632C27.9058 17.5263 28.4705 17.2147 28.8211 16.7474L34.6632 8.95789C34.9163 8.62684 35.0526 8.21789 35.0526 7.78947C35.0526 7.273 34.8475 6.77768 34.4823 6.41248C34.1171 6.04727 33.6217 5.84211 33.1053 5.84211ZM27.2632 19.4737H11.4311L9.93158 22.5116L9.73684 23.3684C9.73684 23.8849 9.94201 24.3802 10.3072 24.7454C10.6724 25.1106 11.1677 25.3158 11.6842 25.3158H33.1053V27.2632H11.6842C10.6513 27.2632 9.66062 26.8528 8.93022 26.1224C8.19981 25.392 7.78947 24.4014 7.78947 23.3684C7.78889 22.7077 7.95643 22.0576 8.27632 21.4795L9.67842 18.6168L2.60947 1.94737H0V0H3.89474L5.55 3.89474H33.1053C34.1382 3.89474 35.1289 4.30507 35.8593 5.03548C36.5897 5.76588 37 6.75653 37 7.78947C37 8.76316 36.6689 9.58105 36.1237 10.2432L30.4568 17.8184C29.7558 18.8116 28.5874 19.4737 27.2632 19.4737Z" fill="#4B4B4B"/>
</svg>
