<svg width="52" height="52" viewBox="0 0 52 52" fill="none" xmlns="http://www.w3.org/2000/svg">
<path d="M43.3334 0H8.66671C6.28337 0 4.33337 1.95 4.33337 4.33333V47.6667C4.33337 50.05 6.28337 52 8.66671 52H43.3334C45.7167 52 47.6667 50.05 47.6667 47.6667V4.33333C47.6667 1.95 45.7167 0 43.3334 0ZM17.3334 43.3333C17.3334 44.525 16.3584 45.5 15.1667 45.5H10.8334C9.64171 45.5 8.66671 44.525 8.66671 43.3333V42.25C8.66671 41.0583 9.64171 40.0833 10.8334 40.0833H15.1667C16.3584 40.0833 17.3334 41.0583 17.3334 42.25V43.3333ZM17.3334 34.6667C17.3334 35.8583 16.3584 36.8333 15.1667 36.8333H10.8334C9.64171 36.8333 8.66671 35.8583 8.66671 34.6667V33.5833C8.66671 32.3917 9.64171 31.4167 10.8334 31.4167H15.1667C16.3584 31.4167 17.3334 32.3917 17.3334 33.5833V34.6667ZM17.3334 26C17.3334 27.1917 16.3584 28.1667 15.1667 28.1667H10.8334C9.64171 28.1667 8.66671 27.1917 8.66671 26V24.9167C8.66671 23.725 9.64171 22.75 10.8334 22.75H15.1667C16.3584 22.75 17.3334 23.725 17.3334 24.9167V26ZM30.3334 43.3333C30.3334 44.525 29.3584 45.5 28.1667 45.5H23.8334C22.6417 45.5 21.6667 44.525 21.6667 43.3333V42.25C21.6667 41.0583 22.6417 40.0833 23.8334 40.0833H28.1667C29.3584 40.0833 30.3334 41.0583 30.3334 42.25V43.3333ZM30.3334 34.6667C30.3334 35.8583 29.3584 36.8333 28.1667 36.8333H23.8334C22.6417 36.8333 21.6667 35.8583 21.6667 34.6667V33.5833C21.6667 32.3917 22.6417 31.4167 23.8334 31.4167H28.1667C29.3584 31.4167 30.3334 32.3917 30.3334 33.5833V34.6667ZM30.3334 26C30.3334 27.1917 29.3584 28.1667 28.1667 28.1667H23.8334C22.6417 28.1667 21.6667 27.1917 21.6667 26V24.9167C21.6667 23.725 22.6417 22.75 23.8334 22.75H28.1667C29.3584 22.75 30.3334 23.725 30.3334 24.9167V26ZM43.3334 43.3333C43.3334 44.525 42.3584 45.5 41.1667 45.5H36.8334C35.6417 45.5 34.6667 44.525 34.6667 43.3333V42.25C34.6667 41.0583 35.6417 40.0833 36.8334 40.0833H41.1667C42.3584 40.0833 43.3334 41.0583 43.3334 42.25V43.3333ZM43.3334 34.6667C43.3334 35.8583 42.3584 36.8333 41.1667 36.8333H36.8334C35.6417 36.8333 34.6667 35.8583 34.6667 34.6667V33.5833C34.6667 32.3917 35.6417 31.4167 36.8334 31.4167H41.1667C42.3584 31.4167 43.3334 32.3917 43.3334 33.5833V34.6667ZM43.3334 26C43.3334 27.1917 42.3584 28.1667 41.1667 28.1667H36.8334C35.6417 28.1667 34.6667 27.1917 34.6667 26V24.9167C34.6667 23.725 35.6417 22.75 36.8334 22.75H41.1667C42.3584 22.75 43.3334 23.725 43.3334 24.9167V26ZM43.3334 16.25C43.3334 17.4417 42.3584 18.4167 41.1667 18.4167H10.8334C9.64171 18.4167 8.66671 17.4417 8.66671 16.25V7.58333C8.66671 6.39167 9.64171 5.41667 10.8334 5.41667H41.1667C42.3584 5.41667 43.3334 6.39167 43.3334 7.58333V16.25Z" fill="white"/>
</svg>
