<svg width="232" height="232" viewBox="0 0 232 232" fill="none" xmlns="http://www.w3.org/2000/svg">
<path d="M39.7029 40.6999C38.7185 41.6841 38.12 42.9888 38.0162 44.377C37.9124 45.7651 38.3101 47.1443 39.1372 48.264L39.7029 48.915L70.9668 80.1867C55.7296 90.8781 44.8494 106.696 40.3152 124.75C39.9663 126.236 40.2163 127.8 41.0112 129.104C41.8061 130.408 43.0821 131.346 44.5633 131.717C46.0446 132.087 47.6121 131.86 48.9273 131.084C50.2424 130.309 51.1994 129.046 51.5916 127.571C55.6201 111.547 65.5231 97.6218 79.3369 88.5568L93.3645 102.584C87.7612 108.44 84.6735 116.256 84.7629 124.36C84.8523 132.464 88.1116 140.211 93.8427 145.941C99.5738 151.671 107.321 154.929 115.425 155.017C123.529 155.105 131.345 152.016 137.199 146.411L183.072 192.292C184.109 193.332 185.501 193.941 186.969 193.996C188.437 194.051 189.871 193.549 190.983 192.589C192.096 191.63 192.804 190.285 192.965 188.826C193.126 187.366 192.729 185.899 191.853 184.72L191.287 184.069L143.911 136.685L143.918 136.669L90.0552 82.8372L90.0707 82.8217L81.2899 74.0641L47.918 40.6999C46.8282 39.6114 45.3508 39 43.8105 39C42.2702 39 40.7928 39.6114 39.7029 40.6999ZM115.499 66.1202C107.749 66.1202 100.231 67.2673 93.1088 69.414L102.696 78.9932C119.277 75.7099 136.487 78.924 150.765 87.9711C165.044 97.0181 175.3 111.206 179.414 127.602C179.815 129.066 180.774 130.315 182.084 131.082C183.395 131.848 184.953 132.072 186.426 131.704C187.899 131.337 189.17 130.407 189.967 129.115C190.764 127.823 191.023 126.27 190.69 124.789C186.491 108.027 176.811 93.1488 163.187 82.519C149.564 71.8892 132.779 66.1172 115.499 66.1202ZM117.01 93.3231L146.468 122.773C146.087 115.085 142.861 107.812 137.417 102.369C131.972 96.9264 124.699 93.7021 117.01 93.3231Z" fill="#4B4B4B"/>
</svg>
