<svg width="48" height="48" viewBox="0 0 48 48" fill="none" xmlns="http://www.w3.org/2000/svg">
<path d="M48 24C48 27.25 47.3646 30.3542 46.0938 33.3125C44.8229 36.2708 43.1146 38.8229 40.9688 40.9688C38.8229 43.1146 36.2708 44.8229 33.3125 46.0938C30.3542 47.3646 27.25 48 24 48C20.4167 48 17.0104 47.2448 13.7812 45.7344C10.5521 44.224 7.80208 42.0938 5.53125 39.3438C5.38542 39.1354 5.31771 38.901 5.32812 38.6406C5.33854 38.3802 5.42708 38.1667 5.59375 38L9.875 33.6875C10.0833 33.5 10.3438 33.4062 10.6562 33.4062C10.9896 33.4479 11.2292 33.5729 11.375 33.7812C12.8958 35.7604 14.7604 37.2917 16.9688 38.375C19.1771 39.4583 21.5208 40 24 40C26.1667 40 28.2344 39.5781 30.2031 38.7344C32.1719 37.8906 33.875 36.75 35.3125 35.3125C36.75 33.875 37.8906 32.1719 38.7344 30.2031C39.5781 28.2344 40 26.1667 40 24C40 21.8333 39.5781 19.7656 38.7344 17.7969C37.8906 15.8281 36.75 14.125 35.3125 12.6875C33.875 11.25 32.1719 10.1094 30.2031 9.26562C28.2344 8.42188 26.1667 8 24 8C21.9583 8 20 8.36979 18.125 9.10938C16.25 9.84896 14.5833 10.9062 13.125 12.2812L17.4062 16.5938C18.0521 17.2188 18.1979 17.9375 17.8438 18.75C17.4896 19.5833 16.875 20 16 20H2C1.45833 20 0.989583 19.8021 0.59375 19.4062C0.197917 19.0104 0 18.5417 0 18V4C0 3.125 0.416667 2.51042 1.25 2.15625C2.0625 1.80208 2.78125 1.94792 3.40625 2.59375L7.46875 6.625C9.69792 4.52083 12.2448 2.89062 15.1094 1.73438C17.974 0.578125 20.9375 0 24 0C27.25 0 30.3542 0.635417 33.3125 1.90625C36.2708 3.17708 38.8229 4.88542 40.9688 7.03125C43.1146 9.17708 44.8229 11.7292 46.0938 14.6875C47.3646 17.6458 48 20.75 48 24ZM28 15V29C28 29.2917 27.9062 29.5312 27.7188 29.7188C27.5312 29.9062 27.2917 30 27 30H17C16.7083 30 16.4688 29.9062 16.2812 29.7188C16.0938 29.5312 16 29.2917 16 29V27C16 26.7083 16.0938 26.4688 16.2812 26.2812C16.4688 26.0938 16.7083 26 17 26H24V15C24 14.7083 24.0938 14.4688 24.2812 14.2812C24.4688 14.0938 24.7083 14 25 14H27C27.2917 14 27.5312 14.0938 27.7188 14.2812C27.9062 14.4688 28 14.7083 28 15Z" fill="#6B21A8"/>
</svg>
