<svg width="39" height="39" viewBox="0 0 39 39" fill="none" xmlns="http://www.w3.org/2000/svg">
<path fill-rule="evenodd" clip-rule="evenodd" d="M19.5 0C8.73048 0 0 8.73048 0 19.5C0 30.2694 8.73048 39 19.5 39C30.2694 39 39 30.2694 39 19.5C39 8.73048 30.2695 0 19.5 0ZM19.5 35.1C10.8982 35.1 3.90003 28.1018 3.90003 19.5C3.90003 10.8981 10.8981 3.90003 19.5 3.90003C28.1018 3.90003 35.1 10.8981 35.1 19.5C35.1 28.1018 28.1018 35.1 19.5 35.1ZM26.8432 12.5331L29.6006 15.2905L17.55 27.3916L10.3213 20.1629L13.0787 17.4055L17.55 21.8768L26.8432 12.5331Z" fill="#19B931"/>
</svg>
