<svg width="37" height="37" viewBox="0 0 37 37" fill="none" xmlns="http://www.w3.org/2000/svg">
<path fill-rule="evenodd" clip-rule="evenodd" d="M18.5 0C28.7157 0 37 8.28424 37 18.5C37 28.7157 28.7157 37 18.5 37C8.28424 37 0 28.7157 0 18.5C0 8.28424 8.28424 0 18.5 0ZM18.5 3.70003C10.3397 3.70003 3.70003 10.3396 3.70003 18.5C3.70003 26.6604 10.3396 33.3 18.5 33.3C26.6604 33.3 33.3 26.6604 33.3 18.5C33.3 10.3396 26.6604 3.70003 18.5 3.70003ZM22.7421 11.6421L25.3579 14.2579L21.1159 18.5L25.3579 22.7421L22.7421 25.3579L18.5 21.1159L14.2579 25.3579L11.6421 22.7421L15.8841 18.5L11.6421 14.2579L14.2579 11.6421L18.5 15.8841L22.7421 11.6421Z" fill="#DB072E"/>
</svg>
