<svg width="49" height="49" viewBox="0 0 49 49" fill="none" xmlns="http://www.w3.org/2000/svg">
<circle cx="24.5" cy="24.5" r="24.5" fill="#F3F4F6"/>
<path d="M36.26 36.75L30.224 30.714M30.224 30.714C31.1928 29.7452 31.9613 28.595 32.4856 27.3292C33.0099 26.0634 33.2798 24.7067 33.2798 23.3366C33.2798 21.9665 33.0099 20.6099 32.4856 19.3441C31.9613 18.0782 31.1928 16.9281 30.224 15.9593C29.2552 14.9905 28.1051 14.222 26.8392 13.6977C25.5734 13.1734 24.2168 12.9035 22.8467 12.9035C21.4766 12.9035 20.1199 13.1734 18.8541 13.6977C17.5883 14.222 16.4381 14.9905 15.4693 15.9593C13.5127 17.9159 12.4135 20.5696 12.4135 23.3366C12.4135 26.1037 13.5127 28.7574 15.4693 30.714C17.4259 32.6706 20.0796 33.7698 22.8467 33.7698C25.6137 33.7698 28.2674 32.6706 30.224 30.714Z" stroke="#99A1AF" stroke-width="2.98075" stroke-linecap="round" stroke-linejoin="round"/>
</svg>
