<svg width="131" height="131" viewBox="0 0 131 131" fill="none" xmlns="http://www.w3.org/2000/svg">
<path d="M24.9111 8.67554H106.089C110.395 8.67554 114.524 10.3861 117.569 13.4308C120.614 16.4756 122.325 20.6052 122.325 24.9111V106.089C122.325 110.395 120.614 114.524 117.569 117.569C114.524 120.614 110.395 122.325 106.089 122.325H24.9111C20.6052 122.325 16.4756 120.614 13.4308 117.569C10.3861 114.524 8.67554 110.395 8.67554 106.089V24.9111C8.67554 20.6052 10.3861 16.4756 13.4308 13.4308C16.4756 10.3861 20.6052 8.67554 24.9111 8.67554ZM24.9111 41.1467V106.089H106.089V41.1467H24.9111ZM65.5 85.0964L54.0215 96.5749C53.2727 97.3503 52.3769 97.9687 51.3865 98.3941C50.3961 98.8196 49.3309 99.0435 48.253 99.0529C47.1751 99.0623 46.1062 98.8569 45.1085 98.4487C44.1109 98.0405 43.2045 97.4377 42.4423 96.6755C41.6801 95.9133 41.0774 95.007 40.6692 94.0093C40.261 93.0117 40.0556 91.9427 40.065 90.8649C40.0744 89.787 40.2983 88.7218 40.7237 87.7314C41.1492 86.741 41.7676 85.8452 42.5429 85.0964L54.0215 73.6178L42.5429 62.1393C41.7676 61.3904 41.1492 60.4947 40.7237 59.5043C40.2983 58.5139 40.0744 57.4487 40.065 56.3708C40.0556 55.2929 40.261 54.224 40.6692 53.2263C41.0774 52.2287 41.6801 51.3223 42.4423 50.5601C43.2045 49.7979 44.1109 49.1951 45.1085 48.787C46.1062 48.3788 47.1751 48.1734 48.253 48.1828C49.3309 48.1921 50.3961 48.4161 51.3865 48.8415C52.3769 49.267 53.2727 49.8854 54.0215 50.6607L65.5 62.1393L76.9786 50.6607C77.7274 49.8854 78.6232 49.267 79.6136 48.8415C80.604 48.4161 81.6692 48.1921 82.7471 48.1828C83.825 48.1734 84.8939 48.3788 85.8916 48.787C86.8892 49.1951 87.7956 49.7979 88.5578 50.5601C89.32 51.3223 89.9227 52.2287 90.3309 53.2263C90.7391 54.224 90.9445 55.2929 90.9351 56.3708C90.9257 57.4487 90.7018 58.5139 90.2763 59.5043C89.8509 60.4947 89.2325 61.3904 88.4571 62.1393L76.9786 73.6178L88.4571 85.0964C89.9359 86.6274 90.7541 88.678 90.7356 90.8064C90.7171 92.9349 89.8634 94.9709 88.3583 96.476C86.8532 97.9811 84.8171 98.8349 82.6887 98.8534C80.5602 98.8719 78.5096 98.0536 76.9786 96.5749L65.5 85.0964Z" fill="#DB072E"/>
</svg>
