<svg width="485" height="63" viewBox="0 0 485 63" fill="none" xmlns="http://www.w3.org/2000/svg">
<path d="M65.7704 49L72.971 15.1759H82.2353L75.0348 49H65.7704ZM94.5102 49H85.4981L92.6986 15.1759H107.742L108.338 46.2253L107.696 46.5922L114.369 15.1759H123.381L116.181 49H101.023L100.404 18.0653L101.16 17.6983L94.5102 49ZM135.755 49H126.743L133.943 15.1759H148.986L149.583 46.2253L148.941 46.5922L155.614 15.1759H164.626L157.425 49H142.267L141.648 18.0653L142.405 17.6983L135.755 49ZM184.062 49.5962C181.54 49.5962 179.247 49.0688 177.183 48.0139C175.134 46.9591 173.506 45.3921 172.299 43.313C171.091 41.2338 170.487 38.6655 170.487 35.6079C170.487 32.6268 170.953 29.8674 171.886 27.3296C172.818 24.7766 174.148 22.5522 175.876 20.6565C177.603 18.7456 179.667 17.2626 182.067 16.2078C184.483 15.1377 187.166 14.6026 190.116 14.6026C192.685 14.6026 194.993 15.1224 197.042 16.1619C199.09 17.2015 200.711 18.7456 201.903 20.7941C203.111 22.8427 203.715 25.3881 203.715 28.4303C203.715 31.3962 203.241 34.1632 202.293 36.7316C201.361 39.2846 200.023 41.5319 198.28 43.4735C196.537 45.3997 194.466 46.9056 192.066 47.991C189.665 49.0612 186.998 49.5962 184.062 49.5962ZM184.888 42.4416C186.539 42.4416 187.961 42.0211 189.153 41.1803C190.346 40.3395 191.324 39.2311 192.089 37.8552C192.853 36.4793 193.419 34.9659 193.785 33.3148C194.152 31.6484 194.336 29.9897 194.336 28.3386C194.336 26.657 194.106 25.3422 193.648 24.3944C193.189 23.4313 192.578 22.7509 191.813 22.3535C191.064 21.956 190.223 21.7572 189.291 21.7572C187.624 21.7572 186.195 22.1547 185.003 22.9497C183.81 23.7446 182.832 24.8071 182.067 26.1372C181.318 27.4672 180.768 28.9501 180.416 30.5859C180.065 32.2217 179.889 33.8881 179.889 35.585C179.889 38.1839 180.37 39.9802 181.334 40.9739C182.297 41.9524 183.482 42.4416 184.888 42.4416ZM214.148 49L213.551 15.1759H223.573L222.403 43.7028H222.059L232.562 15.1759H243.041L228.09 49H214.148ZM240.429 49L255.495 15.1759H270.195L270.814 49H261.756L262.077 20.7024H262.123L250.313 49H240.429ZM248.822 41.8912L250.313 34.9429H267.007L265.517 41.8912H248.822Z" fill="#6B21A8"/>
<path d="M307.986 49.5139C305.17 49.5139 302.81 49.0666 300.907 48.1721C299.003 47.2776 297.567 45.9264 296.596 44.1184C295.625 42.2913 295.14 40.017 295.14 37.2955C295.14 36.8578 295.14 36.5057 295.14 36.2393C295.14 35.9538 295.14 35.5922 295.14 35.1545H297.367C297.367 35.5922 297.367 35.9443 297.367 36.2107C297.367 36.4772 297.367 36.8292 297.367 37.267C297.367 40.8069 298.271 43.4047 300.079 45.0604C301.887 46.6972 304.485 47.5155 307.872 47.5155C311.431 47.5155 314.096 46.7923 315.865 45.3459C317.654 43.8805 318.549 41.7584 318.549 38.9798C318.549 37.0386 318.102 35.4494 317.207 34.2124C316.332 32.9563 315.095 31.9 313.496 31.0436C311.916 30.1872 310.042 29.3974 307.872 28.6742C305.398 27.8558 303.228 26.9233 301.363 25.8765C299.498 24.8107 298.052 23.5261 297.024 22.0226C295.996 20.5001 295.483 18.6064 295.483 16.3416C295.483 14.1911 295.968 12.3831 296.938 10.9176C297.928 9.45218 299.327 8.34834 301.135 7.6061C302.962 6.84483 305.132 6.4642 307.644 6.4642C310.327 6.4642 312.621 6.8829 314.524 7.72029C316.427 8.53865 317.883 9.80426 318.892 11.5171C319.919 13.2109 320.433 15.371 320.433 17.9974C320.433 18.4922 320.433 18.9014 320.433 19.2249C320.433 19.5294 320.433 19.9291 320.433 20.4239H318.206C318.206 19.9481 318.206 19.558 318.206 19.2535C318.206 18.93 318.206 18.5303 318.206 18.0545C318.206 14.6669 317.283 12.2213 315.437 10.7178C313.61 9.21428 311.031 8.46253 307.701 8.46253C304.523 8.46253 302.058 9.11912 300.307 10.4323C298.556 11.7455 297.681 13.7153 297.681 16.3416C297.681 18.3019 298.166 19.9291 299.137 21.2233C300.126 22.4984 301.478 23.5737 303.19 24.4491C304.903 25.3056 306.854 26.1049 309.043 26.8471C311.517 27.6655 313.62 28.579 315.352 29.5877C317.103 30.5964 318.435 31.8334 319.348 33.2989C320.281 34.7643 320.747 36.6294 320.747 38.8942C320.747 41.1209 320.252 43.0241 319.263 44.6037C318.292 46.1833 316.855 47.4013 314.952 48.2578C313.068 49.0952 310.746 49.5139 307.986 49.5139ZM358.892 8.86219H346.731L347.387 7.6632V49H345.161V7.6632L345.903 8.86219H333.684V6.89242H358.892V8.86219ZM383.85 49.5139C381.509 49.5139 379.359 49.0285 377.398 48.0579C375.438 47.0683 373.735 45.6409 372.288 43.7758C370.861 41.8917 369.748 39.6174 368.948 36.9529C368.168 34.2885 367.778 31.272 367.778 27.9034C367.778 24.5348 368.177 21.5278 368.977 18.8824C369.776 16.2179 370.899 13.9722 372.345 12.1452C373.792 10.2991 375.486 8.89074 377.427 7.92013C379.387 6.94951 381.528 6.4642 383.85 6.4642C386.172 6.4642 388.313 6.94951 390.273 7.92013C392.233 8.89074 393.937 10.2991 395.383 12.1452C396.83 13.9722 397.943 16.2179 398.723 18.8824C399.523 21.5278 399.922 24.5348 399.922 27.9034C399.922 31.272 399.523 34.2885 398.723 36.9529C397.943 39.6174 396.83 41.8917 395.383 43.7758C393.956 45.6409 392.262 47.0683 390.302 48.0579C388.342 49.0285 386.191 49.5139 383.85 49.5139ZM383.85 47.5155C386.553 47.5155 388.941 46.7352 391.015 45.1746C393.109 43.595 394.736 41.3398 395.897 38.4089C397.077 35.459 397.667 31.9571 397.667 27.9034C397.667 23.8306 397.068 20.3478 395.869 17.455C394.689 14.5432 393.061 12.326 390.987 10.8034C388.912 9.26186 386.534 8.49108 383.85 8.49108C381.186 8.49108 378.807 9.26186 376.713 10.8034C374.639 12.326 373.002 14.5432 371.803 17.455C370.623 20.3478 370.033 23.8306 370.033 27.9034C370.033 31.9762 370.623 35.478 371.803 38.4089C373.002 41.3398 374.639 43.595 376.713 45.1746C378.807 46.7352 381.186 47.5155 383.85 47.5155ZM442.878 35.0974C442.878 36.696 442.583 38.3423 441.993 40.0361C441.403 41.7109 440.518 43.2715 439.338 44.7179C438.158 46.1452 436.683 47.3062 434.913 48.2007C433.143 49.0761 431.069 49.5139 428.69 49.5139C425.416 49.5139 422.609 48.6099 420.268 46.8018C417.946 44.9938 416.157 42.4721 414.901 39.2368C413.664 36.0014 413.046 32.2426 413.046 27.9605C413.046 23.6593 413.664 19.9006 414.901 16.6842C416.157 13.4679 417.946 10.9652 420.268 9.17622C422.609 7.36821 425.416 6.4642 428.69 6.4642C431.468 6.4642 433.838 7.0637 435.798 8.2627C437.758 9.46169 439.309 10.9842 440.451 12.8303C441.593 14.6764 442.326 16.57 442.649 18.5113C442.802 19.3106 442.878 20.0814 442.878 20.8236H440.651C440.651 20.2907 440.604 19.6722 440.508 18.968C440.261 17.2361 439.642 15.5709 438.653 13.9722C437.663 12.3545 436.331 11.0413 434.656 10.0326C433 9.00493 431.012 8.49108 428.69 8.49108C425.987 8.49108 423.627 9.27138 421.61 10.832C419.612 12.3926 418.061 14.6288 416.957 17.5406C415.872 20.4525 415.329 23.9258 415.329 27.9605C415.329 31.9952 415.872 35.478 416.957 38.4089C418.061 41.3207 419.612 43.5665 421.61 45.1461C423.627 46.7257 425.987 47.5155 428.69 47.5155C430.65 47.5155 432.372 47.1444 433.857 46.4022C435.341 45.6599 436.588 44.6798 437.597 43.4618C438.605 42.2247 439.366 40.883 439.88 39.4366C440.394 37.9711 440.651 36.5247 440.651 35.0974H442.878ZM464.592 27.0755V25.3341L481.435 49H478.894L463.193 27.1326L464.363 27.2753L459.425 33.5558L459.767 32.0142V49H457.569V6.89242H459.767V30.9009L459.31 30.5298L477.667 6.89242H480.15L464.592 27.0755Z" fill="#6B21A8"/>
<path d="M21.4995 0.162598C17.7027 0.162598 14.7738 2.0934 12.8971 4.65667C11.6062 6.42154 10.7709 8.48056 10.3804 10.5062H12.3872C12.756 8.86844 13.4612 7.19085 14.4809 5.79662C16.0755 3.61908 18.3536 2.10202 21.4995 2.10202C24.6453 2.10202 26.9234 3.61908 28.5181 5.79662C29.5378 7.19085 30.2429 8.86844 30.6117 10.5062H32.6186C32.228 8.48056 31.3927 6.42154 30.1018 4.65667C28.2252 2.0934 25.2962 0.162598 21.4995 0.162598ZM3.3021 12.4456L0 50.1566H43L39.7022 12.4456H3.3021ZM11.0855 14.9237C11.5458 14.9237 11.9873 15.1054 12.3128 15.4287C12.6383 15.752 12.8211 16.1905 12.8211 16.6477C12.8211 17.1049 12.6383 17.5434 12.3128 17.8667C11.9873 18.19 11.5458 18.3716 11.0855 18.3716C10.6251 18.3716 10.1837 18.19 9.85817 17.8667C9.53267 17.5434 9.34981 17.1049 9.34981 16.6477C9.34981 16.1905 9.53267 15.752 9.85817 15.4287C10.1837 15.1054 10.6251 14.9237 11.0855 14.9237ZM31.9134 14.9237C32.3738 14.9237 32.8152 15.1054 33.1407 15.4287C33.4662 15.752 33.6491 16.1905 33.6491 16.6477C33.6491 17.1049 33.4662 17.5434 33.1407 17.8667C32.8152 18.19 32.3738 18.3716 31.9134 18.3716C31.4531 18.3716 31.0116 18.19 30.6861 17.8667C30.3606 17.5434 30.1778 17.1049 30.1778 16.6477C30.1778 16.1905 30.3606 15.752 30.6861 15.4287C31.0116 15.1054 31.4531 14.9237 31.9134 14.9237Z" fill="#6B21A8"/>
</svg>
