<svg width="494" height="98" viewBox="0 0 494 98" fill="none" xmlns="http://www.w3.org/2000/svg">
<path d="M0.770684 86L7.97121 52.1759H17.2356L10.0351 86H0.770684ZM29.5104 86H20.4983L27.6988 52.1759H42.742L43.3382 83.2253L42.6961 83.5922L49.3692 52.1759H58.3813L51.1808 86H36.023L35.4039 55.0653L36.1606 54.6983L29.5104 86ZM70.7551 86H61.743L68.9435 52.1759H83.9866L84.5829 83.2253L83.9408 83.5922L90.6139 52.1759H99.626L92.4255 86H77.2677L76.6485 55.0653L77.4053 54.6983L70.7551 86ZM119.063 86.5962C116.54 86.5962 114.247 86.0688 112.183 85.0139C110.135 83.9591 108.506 82.3921 107.299 80.313C106.091 78.2338 105.487 75.6655 105.487 72.6079C105.487 69.6268 105.953 66.8674 106.886 64.3296C107.819 61.7766 109.149 59.5522 110.876 57.6565C112.604 55.7456 114.667 54.2626 117.068 53.2078C119.483 52.1377 122.166 51.6026 125.117 51.6026C127.685 51.6026 129.993 52.1224 132.042 53.1619C134.091 54.2015 135.711 55.7456 136.903 57.7941C138.111 59.8427 138.715 62.3881 138.715 65.4303C138.715 68.3962 138.241 71.1632 137.293 73.7316C136.361 76.2846 135.023 78.5319 133.28 80.4735C131.537 82.3997 129.466 83.9056 127.066 84.991C124.666 86.0612 121.998 86.5962 119.063 86.5962ZM119.888 79.4416C121.539 79.4416 122.961 79.0211 124.154 78.1803C125.346 77.3395 126.324 76.2311 127.089 74.8552C127.853 73.4793 128.419 71.9659 128.786 70.3148C129.153 68.6484 129.336 66.9897 129.336 65.3386C129.336 63.657 129.107 62.3422 128.648 61.3944C128.189 60.4313 127.578 59.7509 126.814 59.3535C126.064 58.956 125.224 58.7572 124.291 58.7572C122.625 58.7572 121.195 59.1547 120.003 59.9497C118.81 60.7446 117.832 61.8071 117.068 63.1372C116.319 64.4672 115.768 65.9501 115.417 67.5859C115.065 69.2217 114.889 70.8881 114.889 72.585C114.889 75.1839 115.371 76.9802 116.334 77.9739C117.297 78.9524 118.482 79.4416 119.888 79.4416ZM149.148 86L148.552 52.1759H158.573L157.403 80.7028H157.059L167.562 52.1759H178.042L163.09 86H149.148ZM175.43 86L190.496 52.1759H205.195L205.814 86H196.756L197.077 57.7024H197.123L185.313 86H175.43ZM183.823 78.8912L185.313 71.9429H202.007L200.517 78.8912H183.823Z" fill="white"/>
<path d="M243.987 84.5139C241.17 84.5139 238.81 84.0666 236.907 83.1721C235.004 82.2776 233.567 80.9264 232.596 79.1184C231.626 77.2913 231.14 75.017 231.14 72.2955C231.14 71.8578 231.14 71.5057 231.14 71.2393C231.14 70.9538 231.14 70.5922 231.14 70.1545H233.367C233.367 70.5922 233.367 70.9443 233.367 71.2107C233.367 71.4772 233.367 71.8292 233.367 72.267C233.367 75.8069 234.271 78.4047 236.079 80.0604C237.887 81.6972 240.485 82.5155 243.872 82.5155C247.431 82.5155 250.096 81.7923 251.866 80.3459C253.655 78.8805 254.549 76.7584 254.549 73.9798C254.549 72.0386 254.102 70.4494 253.207 69.2124C252.332 67.9563 251.095 66.9 249.496 66.0436C247.917 65.1872 246.042 64.3974 243.872 63.6742C241.398 62.8558 239.229 61.9233 237.364 60.8765C235.498 59.8107 234.052 58.5261 233.024 57.0226C231.997 55.5001 231.483 53.6064 231.483 51.3416C231.483 49.1911 231.968 47.3831 232.939 45.9176C233.928 44.4522 235.327 43.3483 237.135 42.6061C238.962 41.8448 241.132 41.4642 243.644 41.4642C246.328 41.4642 248.621 41.8829 250.524 42.7203C252.427 43.5387 253.883 44.8043 254.892 46.5171C255.919 48.2109 256.433 50.371 256.433 52.9974C256.433 53.4922 256.433 53.9014 256.433 54.2249C256.433 54.5294 256.433 54.9291 256.433 55.4239H254.207C254.207 54.9481 254.207 54.558 254.207 54.2535C254.207 53.93 254.207 53.5303 254.207 53.0545C254.207 49.6669 253.284 47.2213 251.438 45.7178C249.61 44.2143 247.032 43.4625 243.701 43.4625C240.523 43.4625 238.058 44.1191 236.307 45.4323C234.556 46.7455 233.681 48.7153 233.681 51.3416C233.681 53.3019 234.166 54.9291 235.137 56.2233C236.127 57.4984 237.478 58.5737 239.191 59.4491C240.903 60.3056 242.854 61.1049 245.043 61.8471C247.517 62.6655 249.62 63.579 251.352 64.5877C253.103 65.5964 254.435 66.8334 255.349 68.2989C256.281 69.7643 256.747 71.6294 256.747 73.8942C256.747 76.1209 256.253 78.0241 255.263 79.6037C254.292 81.1833 252.855 82.4013 250.952 83.2578C249.068 84.0952 246.746 84.5139 243.987 84.5139ZM281.304 84.4853C280.523 84.4853 279.772 84.3711 279.048 84.1427C278.344 83.9144 277.716 83.5432 277.164 83.0294C276.612 82.4965 276.175 81.7828 275.851 80.8883C275.527 79.9748 275.366 78.8329 275.366 77.4626C275.366 77.082 275.366 76.6823 275.366 76.2636C275.366 75.8259 275.366 75.3596 275.366 74.8648V55.6523H268.2V53.6825H273.91C274.271 53.6825 274.547 53.673 274.738 53.654C274.947 53.635 275.09 53.5779 275.166 53.4827C275.261 53.3685 275.318 53.2067 275.337 52.9974C275.356 52.769 275.366 52.4455 275.366 52.0268V44.1762H277.592V53.6825H287.527V55.6523H277.592V74.094C277.592 74.5888 277.592 75.0551 277.592 75.4928C277.592 75.9306 277.592 76.3302 277.592 76.6918C277.592 78.5379 277.897 79.9653 278.506 80.974C279.115 81.9826 280.143 82.487 281.589 82.487C282.122 82.487 282.655 82.4489 283.188 82.3728C283.74 82.2776 284.139 82.1539 284.387 82.0017V83.9715C284.101 84.1237 283.673 84.2474 283.102 84.3426C282.531 84.4377 281.932 84.4853 281.304 84.4853ZM313.842 84.5139C310.95 84.5139 308.39 83.8287 306.163 82.4584C303.936 81.0691 302.185 79.1945 300.91 76.8346C299.654 74.4556 299.026 71.7721 299.026 68.7842C299.026 65.7962 299.654 63.1413 300.91 60.8194C302.185 58.4785 303.936 56.642 306.163 55.3097C308.39 53.9585 310.95 53.2829 313.842 53.2829C316.735 53.2829 319.295 53.9585 321.522 55.3097C323.748 56.642 325.49 58.4785 326.746 60.8194C328.021 63.1413 328.659 65.7962 328.659 68.7842C328.659 71.7721 328.021 74.4556 326.746 76.8346C325.49 79.1945 323.748 81.0691 321.522 82.4584C319.295 83.8287 316.735 84.5139 313.842 84.5139ZM313.842 82.487C316.297 82.487 318.467 81.8875 320.351 80.6885C322.254 79.4895 323.748 77.8623 324.833 75.8069C325.918 73.7324 326.46 71.3915 326.46 68.7842C326.46 66.1959 325.918 63.8835 324.833 61.8471C323.748 59.8107 322.254 58.2121 320.351 57.0511C318.467 55.8902 316.297 55.3097 313.842 55.3097C311.387 55.3097 309.208 55.8902 307.305 57.0511C305.421 58.2121 303.936 59.8107 302.852 61.8471C301.767 63.8835 301.224 66.1959 301.224 68.7842C301.224 71.3915 301.767 73.7324 302.852 75.8069C303.936 77.8623 305.421 79.4895 307.305 80.6885C309.208 81.8875 311.387 82.487 313.842 82.487ZM344.693 84V53.6825H346.863V62.2182L345.978 62.047C346.111 61.2667 346.387 60.3817 346.806 59.392C347.225 58.3834 347.824 57.4223 348.604 56.5087C349.404 55.5762 350.412 54.8054 351.63 54.1964C352.848 53.5874 354.304 53.2829 355.998 53.2829C357.197 53.2829 358.158 53.3971 358.881 53.6254C359.605 53.8348 360.061 54.0061 360.252 54.1393L359.567 56.2233C359.376 56.09 358.986 55.9188 358.396 55.7094C357.806 55.5001 356.931 55.3954 355.77 55.3954C354.152 55.3954 352.772 55.7284 351.63 56.3946C350.507 57.0416 349.594 57.879 348.89 58.9067C348.186 59.9344 347.672 61.0192 347.348 62.1612C347.025 63.3031 346.863 64.3498 346.863 65.3014V84H344.693ZM372.671 69.8404V67.8707H398.335L397.793 68.3845C397.793 68.2703 397.793 68.1752 397.793 68.099C397.793 68.0229 397.793 67.9468 397.793 67.8707C397.793 65.682 397.327 63.6361 396.394 61.7329C395.462 59.8107 394.12 58.2597 392.369 57.0797C390.637 55.8807 388.553 55.2812 386.117 55.2812C383.662 55.2812 381.483 55.8807 379.58 57.0797C377.677 58.2787 376.183 59.9059 375.098 61.9613C374.013 64.0167 373.471 66.3291 373.471 68.8984C373.471 71.5438 374.013 73.8942 375.098 75.9496C376.183 77.986 377.677 79.5942 379.58 80.7741C381.502 81.9351 383.681 82.5155 386.117 82.5155C388.02 82.5155 389.667 82.2491 391.056 81.7162C392.445 81.1643 393.597 80.4696 394.51 79.6322C395.424 78.7948 396.118 77.9194 396.594 77.0059C397.089 76.0923 397.374 75.2549 397.45 74.4937H399.677C399.582 75.5214 399.23 76.6157 398.621 77.7766C398.012 78.9376 397.146 80.0319 396.023 81.0596C394.9 82.0683 393.511 82.8962 391.855 83.5432C390.199 84.1903 388.277 84.5139 386.089 84.5139C383.253 84.5139 380.722 83.8573 378.495 82.5441C376.287 81.2119 374.536 79.3753 373.242 77.0344C371.967 74.6935 371.329 72.0005 371.329 68.9555C371.329 65.8914 371.967 63.1889 373.242 60.848C374.536 58.488 376.297 56.642 378.523 55.3097C380.75 53.9585 383.281 53.2829 386.117 53.2829C388.972 53.2829 391.446 53.9775 393.539 55.3668C395.633 56.7371 397.251 58.5737 398.393 60.8765C399.553 63.1793 400.134 65.7201 400.134 68.4987C400.134 68.689 400.124 68.9269 400.105 69.2124C400.105 69.4979 400.096 69.7072 400.077 69.8404H372.671Z" fill="white"/>
<path fill-rule="evenodd" clip-rule="evenodd" d="M443.331 7.4329C446.435 3.19342 451.279 0 457.559 0C463.838 0 468.683 3.19342 471.786 7.4329C473.922 10.3519 475.303 13.7574 475.949 17.1076H472.63C472.02 14.3989 470.854 11.6243 469.167 9.3183C466.53 5.71679 462.762 3.20768 457.559 3.20768C452.356 3.20768 448.588 5.71679 445.95 9.3183C444.264 11.6243 443.098 14.3989 442.488 17.1076H439.168C439.814 13.7574 441.196 10.3519 443.331 7.4329ZM422 82.6867L427.461 20.3153H487.665L493.119 82.6867H422ZM442.365 25.2491C441.826 24.7144 441.096 24.414 440.335 24.414C439.573 24.414 438.843 24.7144 438.305 25.2491C437.766 25.7838 437.464 26.509 437.464 27.2652C437.464 28.0214 437.766 28.7467 438.305 29.2814C438.843 29.8161 439.573 30.1165 440.335 30.1165C441.096 30.1165 441.826 29.8161 442.365 29.2814C442.903 28.7467 443.205 28.0214 443.205 27.2652C443.205 26.509 442.903 25.7838 442.365 25.2491ZM476.813 25.2491C476.274 24.7144 475.544 24.414 474.783 24.414C474.021 24.414 473.291 24.7144 472.753 25.2491C472.215 25.7838 471.912 26.509 471.912 27.2652C471.912 28.0214 472.215 28.7467 472.753 29.2814C473.291 29.8161 474.021 30.1165 474.783 30.1165C475.544 30.1165 476.274 29.8161 476.813 29.2814C477.351 28.7467 477.653 28.0214 477.653 27.2652C477.653 26.509 477.351 25.7838 476.813 25.2491ZM431.078 45.593V66.6513H436.914V55.429L446.21 66.6513H451.114V45.593H445.278V56.8153L435.982 45.593H431.078ZM455.315 45.593V66.6513H461.272V45.593H455.315ZM471.376 66.2903C472.8 66.8118 474.344 67.0725 476.009 67.0725C477.954 67.0725 479.689 66.7316 481.213 66.0497C482.757 65.3477 484.041 64.365 485.064 63.1015L481.273 59.672C480.591 60.4742 479.839 61.0859 479.017 61.5071C478.215 61.9283 477.312 62.1388 476.309 62.1388C475.447 62.1388 474.655 61.9985 473.933 61.7177C473.211 61.4369 472.589 61.0358 472.068 60.5143C471.566 59.9728 471.165 59.3311 470.864 58.589C470.584 57.847 470.443 57.0247 470.443 56.1222C470.443 55.2197 470.584 54.3974 470.864 53.6553C471.165 52.9133 471.566 52.2815 472.068 51.7601C472.589 51.2186 473.211 50.8075 473.933 50.5267C474.655 50.2459 475.447 50.1055 476.309 50.1055C477.312 50.1055 478.215 50.3161 479.017 50.7373C479.839 51.1584 480.591 51.7701 481.273 52.5723L485.064 49.1429C484.041 47.8593 482.757 46.8766 481.213 46.1947C479.689 45.5128 477.954 45.1719 476.009 45.1719C474.344 45.1719 472.8 45.4426 471.376 45.9841C469.972 46.5055 468.749 47.2576 467.706 48.2404C466.683 49.2231 465.881 50.3863 465.299 51.73C464.717 53.0537 464.427 54.5177 464.427 56.1222C464.427 57.7266 464.717 59.2007 465.299 60.5444C465.881 61.8681 466.683 63.0213 467.706 64.004C468.749 64.9867 469.972 65.7488 471.376 66.2903Z" fill="white"/>
</svg>
