<svg width="153" height="176" viewBox="0 0 153 176" fill="none" xmlns="http://www.w3.org/2000/svg">
<path d="M44.3536 18.0002L44.3534 18.0004L44.3521 18.0022L44.3521 18.0022C39.6659 24.4467 36.6744 31.8979 35.2768 39.1896C35.1632 39.7826 35.1482 40.3828 35.226 40.968H17.9175C15.036 40.968 12.6328 43.1711 12.3829 46.0417L1.73915 168.312C1.60411 169.863 2.12634 171.4 3.1786 172.548L3.81043 171.969L3.17861 172.548C4.23088 173.696 5.71659 174.349 7.27378 174.349H145.877C147.434 174.349 148.92 173.696 149.972 172.548C151.024 171.4 151.546 169.864 151.412 168.312L140.782 46.0424C140.532 43.1714 138.129 40.968 135.247 40.968H117.921C117.999 40.3828 117.984 39.7826 117.87 39.1896C116.473 31.8979 113.481 24.4467 108.795 18.0022L108.794 18.0002C101.903 8.53274 90.9085 1.14286 76.5736 1.14286C62.2387 1.14286 51.2445 8.53274 44.3536 18.0002ZM53.2574 24.4611L53.2571 24.4615C50.0311 28.8983 47.7691 34.1835 46.5209 39.3782H41.7817C42.0388 38.1787 42.3446 36.9772 42.6992 35.7805C44.1548 30.8693 46.4312 26.0469 49.5383 21.7739C55.4575 13.6416 64.6588 7.55555 76.5736 7.55555C88.4884 7.55555 97.6897 13.6416 103.609 21.7739C106.716 26.0469 108.992 30.8693 110.448 35.7805C110.803 36.9772 111.108 38.1787 111.366 39.3782H106.626C105.378 34.1835 103.116 28.8983 99.8901 24.4615L99.8898 24.4611C94.622 17.2254 87.0404 12.1294 76.5736 12.1294C66.1068 12.1294 58.5252 17.2254 53.2574 24.4611ZM134.461 47.3807L144.942 167.936H8.20878L18.7033 47.3807H134.461ZM43.0059 60.114C43.0179 60.114 43.0284 60.1188 43.0353 60.1257C43.0387 60.1291 43.0411 60.1328 43.0427 60.1366C43.0442 60.1404 43.045 60.1442 43.045 60.1479C43.045 60.1553 43.0421 60.1634 43.0353 60.1701C43.0284 60.1771 43.0179 60.1818 43.0059 60.1818C42.9939 60.1818 42.9834 60.1771 42.9765 60.1701C42.9697 60.1634 42.9668 60.1553 42.9668 60.1479C42.9668 60.1405 42.9697 60.1325 42.9765 60.1257C42.9834 60.1188 42.9939 60.114 43.0059 60.114ZM110.141 60.114C110.153 60.114 110.164 60.1188 110.171 60.1257C110.177 60.1324 110.18 60.1405 110.18 60.1479C110.18 60.1553 110.177 60.1634 110.171 60.1701C110.164 60.177 110.153 60.1818 110.141 60.1818C110.129 60.1818 110.119 60.177 110.112 60.1701C110.109 60.1671 110.107 60.1638 110.105 60.1604C110.103 60.1563 110.102 60.152 110.102 60.1479C110.102 60.1405 110.105 60.1324 110.112 60.1257C110.119 60.1188 110.129 60.114 110.141 60.114ZM47.5677 55.5892C46.3577 54.3803 44.7168 53.7013 43.0059 53.7013C41.295 53.7013 39.6541 54.3803 38.4441 55.5892C37.2341 56.7981 36.5541 58.4379 36.5541 60.1479C36.5541 61.8579 37.2341 63.4977 38.4441 64.7066C39.6541 65.9155 41.295 66.5945 43.0059 66.5945C44.7168 66.5945 46.3577 65.9155 47.5677 64.7066C48.7777 63.4977 49.4577 61.8579 49.4577 60.1479C49.4577 58.4379 48.7777 56.7981 47.5677 55.5892ZM114.703 55.5892C113.493 54.3803 111.852 53.7013 110.141 53.7013C108.43 53.7013 106.789 54.3803 105.579 55.5892C104.369 56.7981 103.69 58.4379 103.69 60.1479C103.69 61.8579 104.369 63.4977 105.579 64.7066C106.789 65.9155 108.43 66.5945 110.141 66.5945C111.852 66.5945 113.493 65.9155 114.703 64.7066C115.913 63.4977 116.593 61.8579 116.593 60.1479C116.593 58.4379 115.913 56.7981 114.703 55.5892Z" stroke="#6B21A8" stroke-width="1.71428"/>
<path fill-rule="evenodd" clip-rule="evenodd" d="M48.8452 21.2695C54.8944 12.9587 64.3353 6.69844 76.5736 6.69844C88.8118 6.69844 98.2527 12.9587 104.302 21.2695C108.463 26.9918 111.155 33.6677 112.414 40.2354H105.945C104.756 34.9254 102.484 29.4861 99.1968 24.9656C94.0567 17.9054 86.7138 12.9866 76.5736 12.9866C66.4333 12.9866 59.0904 17.9054 53.9503 24.9656C50.6635 29.4861 48.3907 34.9254 47.2018 40.2354H40.733C41.9918 33.6677 44.6842 26.9918 48.8452 21.2695ZM7.27374 168.794L17.9175 46.5236H135.247L145.877 168.794H7.27374ZM46.9618 56.1956C45.9127 55.1473 44.4896 54.5584 43.0059 54.5584C41.5221 54.5584 40.0991 55.1473 39.0499 56.1956C38.0007 57.2438 37.4112 58.6655 37.4112 60.1479C37.4112 61.6304 38.0007 63.0521 39.0499 64.1003C40.0991 65.1485 41.5221 65.7374 43.0059 65.7374C44.4896 65.7374 45.9127 65.1485 46.9618 64.1003C48.011 63.0521 48.6005 61.6304 48.6005 60.1479C48.6005 58.6655 48.011 57.2438 46.9618 56.1956ZM114.097 56.1956C113.048 55.1473 111.625 54.5584 110.141 54.5584C108.657 54.5584 107.234 55.1473 106.185 56.1956C105.136 57.2438 104.547 58.6655 104.547 60.1479C104.547 61.6304 105.136 63.0521 106.185 64.1003C107.234 65.1485 108.657 65.7374 110.141 65.7374C111.625 65.7374 113.048 65.1485 114.097 64.1003C115.146 63.0521 115.736 61.6304 115.736 60.1479C115.736 58.6655 115.146 57.2438 114.097 56.1956ZM79.1186 86.1741C79.9819 86.6153 80.941 86.8359 81.9961 86.8359C83.2238 86.8359 84.3396 86.6121 85.3436 86.1645C86.3475 85.7105 87.2139 85.0806 87.9429 84.2749C88.6718 83.4629 89.2313 82.5229 89.6214 81.455C90.0178 80.3808 90.2161 79.2234 90.2161 77.9829C90.2161 76.7104 89.9635 75.6458 89.4583 74.7889C88.9596 73.9321 88.2818 73.2862 87.4249 72.8514C86.5681 72.4166 85.6025 72.1992 84.5283 72.1992C83.2942 72.1992 82.1719 72.423 81.1616 72.8706C80.1577 73.3118 79.2945 73.9321 78.5719 74.7314C77.8493 75.5243 77.293 76.4546 76.903 77.5225C76.5129 78.584 76.3179 79.7381 76.3179 80.985C76.3179 82.2639 76.5705 83.3382 77.0756 84.2078C77.5808 85.0774 78.2618 85.7329 79.1186 86.1741ZM84.1254 83.3158C83.6267 83.6675 83.032 83.8433 82.3414 83.8433C81.7531 83.8433 81.2575 83.6387 80.8547 83.2295C80.4519 82.8138 80.2504 82.0625 80.2504 80.9755C80.2504 80.2657 80.324 79.5687 80.471 78.8845C80.6181 78.2003 80.8483 77.58 81.1616 77.0237C81.4814 76.4674 81.8906 76.023 82.3894 75.6905C82.8881 75.358 83.486 75.1917 84.183 75.1917C84.573 75.1917 84.9247 75.2749 85.238 75.4411C85.5578 75.6074 85.8135 75.8919 86.0054 76.2948C86.1972 76.6912 86.2931 77.2411 86.2931 77.9445C86.2931 78.6351 86.2164 79.3289 86.0629 80.0259C85.9095 80.7165 85.6729 81.3495 85.3531 81.925C85.0334 82.5005 84.6242 82.9641 84.1254 83.3158ZM94.5798 86.5865L94.3304 72.439H98.5219L98.0508 83.9311L102.282 72.439H106.665L100.411 86.5865H94.5798ZM111.874 72.439L105.573 86.5865H109.707L110.947 83.6132H114.526L114.493 86.5865H118.281L118.022 72.439H111.874ZM114.559 80.7069L114.626 74.7978L112.16 80.7069H114.559ZM61.7906 86.5865H58.0211L61.0329 72.439H67.3249L67.5547 84.4072L70.0969 72.439H73.8664L70.8546 86.5865H64.5146L64.2801 74.8688L61.7906 86.5865ZM44.5393 86.5865H40.7698L43.7816 72.439H50.0736L50.3034 84.4072L52.8456 72.439H56.6151L53.6033 86.5865H47.2633L47.0288 74.8688L44.5393 86.5865ZM32.5184 86.5865L35.5301 72.439H39.4051L36.3934 86.5865H32.5184ZM23.7118 96.8493H22.5436V95.0874H23.7118V96.8493ZM26.0482 96.8493H28.3847V95.0874H26.0482V96.8493ZM33.0575 96.8493H30.7211V95.0874H33.0575V96.8493ZM35.394 96.8493H37.7304V95.0874H35.394V96.8493ZM42.4033 96.8493H40.0669V95.0874H42.4033V96.8493ZM44.7397 96.8493H47.0762V95.0874H44.7397V96.8493ZM51.749 96.8493H49.4126V95.0874H51.749V96.8493ZM54.0855 96.8493H56.4219V95.0874H54.0855V96.8493ZM61.0948 96.8493H58.7584V95.0874H61.0948V96.8493ZM63.4312 96.8493H65.7677V95.0874H63.4312V96.8493ZM70.4406 96.8493H68.1041V95.0874H70.4406V96.8493ZM72.777 96.8493H75.1134V95.0874H72.777V96.8493ZM79.7863 96.8493H77.4499V95.0874H79.7863V96.8493ZM82.1227 96.8493H84.4592V95.0874H82.1227V96.8493ZM89.1321 96.8493H86.7956V95.0874H89.1321V96.8493ZM91.4685 96.8493H93.8049V95.0874H91.4685V96.8493ZM98.4778 96.8493H96.1414V95.0874H98.4778V96.8493ZM100.814 96.8493H103.151V95.0874H100.814V96.8493ZM107.824 96.8493H105.487V95.0874H107.824V96.8493ZM110.16 96.8493H112.496V95.0874H110.16V96.8493ZM117.169 96.8493H114.833V95.0874H117.169V96.8493ZM119.506 96.8493H121.842V95.0874H119.506V96.8493ZM126.515 96.8493H124.179V95.0874H126.515V96.8493ZM128.851 96.8493H130.02V95.0874H128.851V96.8493ZM105.386 158.261C108.326 158.261 110.948 157.746 113.252 156.715C115.587 155.654 117.527 154.169 119.073 152.259L113.343 147.075C112.313 148.288 111.176 149.212 109.933 149.849C108.72 150.485 107.356 150.804 105.841 150.804C104.537 150.804 103.34 150.591 102.248 150.167C101.157 149.743 100.217 149.136 99.429 148.348C98.6712 147.53 98.0649 146.56 97.6102 145.438C97.1858 144.316 96.9736 143.073 96.9736 141.709C96.9736 140.345 97.1858 139.102 97.6102 137.981C98.0649 136.859 98.6712 135.904 99.429 135.116C100.217 134.297 101.157 133.676 102.248 133.252C103.34 132.827 104.537 132.615 105.841 132.615C107.356 132.615 108.72 132.933 109.933 133.57C111.176 134.206 112.313 135.131 113.343 136.344L119.073 131.16C117.527 129.22 115.587 127.734 113.252 126.704C110.948 125.673 108.326 125.158 105.386 125.158C102.87 125.158 100.535 125.567 98.3832 126.385C96.2612 127.174 94.412 128.31 92.8356 129.796C91.2896 131.281 90.077 133.039 89.1979 135.07C88.3188 137.071 87.8792 139.284 87.8792 141.709C87.8792 144.134 88.3188 146.363 89.1979 148.394C90.077 150.394 91.2896 152.137 92.8356 153.623C94.412 155.108 96.2612 156.26 98.3832 157.079C100.535 157.867 102.87 158.261 105.386 158.261ZM74.1074 125.794V157.624H83.1108V125.794H74.1074ZM37.4726 125.794V157.624H46.2941V140.662L60.3448 157.624H67.7567V125.794H58.9352V142.757L44.8845 125.794H37.4726ZM105.091 112.492C105.119 112.603 105.152 112.709 105.19 112.81C105.342 113.221 105.584 113.536 105.916 113.755C106.247 113.967 106.682 114.073 107.219 114.073C107.537 114.073 107.809 114.05 108.035 114.004C108.26 113.957 108.439 113.898 108.572 113.825C108.711 113.752 108.814 113.672 108.88 113.586C108.953 113.5 108.996 113.417 109.009 113.337H112.968C112.922 113.801 112.753 114.249 112.461 114.68C112.176 115.111 111.781 115.499 111.277 115.844C110.773 116.182 110.166 116.451 109.457 116.65C108.747 116.842 107.945 116.938 107.05 116.938C105.81 116.938 104.735 116.706 103.827 116.242C102.918 115.771 102.219 115.121 101.728 114.292C101.237 113.457 100.992 112.498 100.992 111.418C100.992 110.31 101.244 109.342 101.748 108.513C102.252 107.684 102.958 107.041 103.867 106.583C104.782 106.126 105.843 105.897 107.05 105.897C108.296 105.897 109.371 106.132 110.273 106.603C111.181 107.067 111.881 107.731 112.371 108.593C112.862 109.448 113.107 110.466 113.107 111.646C113.107 111.845 113.104 112.014 113.097 112.154C113.091 112.293 113.081 112.406 113.068 112.492H105.091ZM105.127 110.105H109.065C109.04 109.936 108.978 109.763 108.88 109.587C108.754 109.342 108.545 109.136 108.253 108.971C107.968 108.805 107.584 108.722 107.1 108.722C106.629 108.722 106.234 108.821 105.916 109.02C105.598 109.219 105.359 109.514 105.2 109.906C105.173 109.97 105.149 110.036 105.127 110.105ZM89.4382 106.116V116.679H93.4567V112.223C93.4567 111.872 93.5064 111.527 93.6059 111.189C93.7054 110.844 93.8645 110.536 94.0834 110.264C94.3022 109.985 94.5907 109.766 94.9487 109.607C95.3068 109.441 95.7445 109.359 96.2617 109.359C96.5535 109.359 96.8022 109.395 97.0077 109.468C97.2133 109.534 97.3459 109.584 97.4056 109.617L97.9527 106.116C97.8997 106.083 97.7604 106.04 97.5349 105.987C97.3161 105.927 96.9912 105.897 96.5601 105.897C96.0429 105.897 95.5721 105.98 95.1477 106.146C94.7299 106.305 94.3586 106.54 94.0336 106.852C93.8167 107.06 93.6244 107.3 93.4567 107.573V106.116H89.4382ZM76.4203 116.232C77.3288 116.696 78.3798 116.928 79.5735 116.928C80.7671 116.928 81.8148 116.696 82.7167 116.232C83.6252 115.768 84.3314 115.121 84.8354 114.292C85.346 113.463 85.6013 112.502 85.6013 111.408C85.6013 110.313 85.346 109.352 84.8354 108.523C84.3314 107.694 83.6252 107.051 82.7167 106.593C81.8148 106.129 80.7671 105.897 79.5735 105.897C78.3798 105.897 77.3288 106.129 76.4203 106.593C75.5184 107.051 74.8122 107.694 74.3016 108.523C73.7976 109.352 73.5456 110.313 73.5456 111.408C73.5456 112.502 73.7976 113.463 74.3016 114.292C74.8122 115.121 75.5184 115.768 76.4203 116.232ZM80.6278 113.586C80.3361 113.792 79.9846 113.894 79.5735 113.894C79.169 113.894 78.8175 113.792 78.5191 113.586C78.2273 113.38 78.0019 113.092 77.8427 112.721C77.6902 112.349 77.6139 111.912 77.6139 111.408C77.6139 110.904 77.6902 110.469 77.8427 110.105C78.0019 109.733 78.2273 109.448 78.5191 109.249C78.8175 109.044 79.169 108.941 79.5735 108.941C79.9846 108.941 80.3361 109.044 80.6278 109.249C80.9196 109.448 81.1418 109.733 81.2943 110.105C81.4534 110.469 81.533 110.904 81.533 111.408C81.533 111.912 81.4534 112.349 81.2943 112.721C81.1418 113.092 80.9196 113.38 80.6278 113.586ZM66.2333 116.829C66.7439 116.902 67.228 116.938 67.6855 116.938C68.0768 116.938 68.415 116.908 68.7001 116.849C68.9919 116.789 69.214 116.726 69.3665 116.66V113.765C69.2604 113.811 69.1013 113.858 68.8891 113.904C68.6769 113.951 68.4514 113.974 68.2127 113.974C67.8082 113.974 67.5595 113.841 67.4667 113.576C67.3738 113.311 67.3274 112.986 67.3274 112.601V109.1H70.2419V106.116H67.3274V102.654H63.3089V103.271C63.3089 103.947 63.2823 104.478 63.2293 104.863C63.1829 105.247 63.0834 105.529 62.9309 105.708C62.7784 105.887 62.5463 106 62.2346 106.046C61.9296 106.093 61.5184 106.116 61.0012 106.116H60.9515V109.1H63.3089V113.636C63.3089 114.378 63.4481 114.972 63.7266 115.416C64.0052 115.854 64.3666 116.182 64.8109 116.401C65.2552 116.62 65.7293 116.762 66.2333 116.829ZM49.0264 116.421C49.8884 116.766 50.8632 116.938 51.9508 116.938C53.0648 116.938 54.0562 116.772 54.9249 116.441C55.8002 116.109 56.4865 115.625 56.9839 114.988C57.4812 114.345 57.7299 113.563 57.7299 112.641C57.7299 111.759 57.5409 111.036 57.1629 110.473C56.7916 109.909 56.271 109.441 55.6013 109.07C54.9315 108.692 54.1523 108.347 53.2637 108.036C52.6736 107.823 52.1431 107.624 51.6722 107.439C51.2081 107.253 50.8433 107.054 50.5781 106.842C50.3128 106.623 50.1802 106.371 50.1802 106.086C50.1802 105.681 50.336 105.373 50.6477 105.161C50.966 104.949 51.4169 104.843 52.0005 104.843C52.5907 104.843 53.0051 104.992 53.2439 105.29C53.4892 105.589 53.6119 105.953 53.6119 106.384V106.693H57.6205V106.195C57.6205 105.227 57.3718 104.415 56.8745 103.758C56.3771 103.102 55.7007 102.605 54.8453 102.266C53.9965 101.928 53.0317 101.759 51.9508 101.759C50.9096 101.759 49.9614 101.931 49.1059 102.276C48.2571 102.621 47.5807 103.118 47.0768 103.768C46.5728 104.412 46.3208 105.187 46.3208 106.096C46.3208 106.978 46.5164 107.717 46.9077 108.314C47.2989 108.904 47.8029 109.385 48.4196 109.756C49.0429 110.128 49.6994 110.423 50.3891 110.642C51.0257 110.841 51.6026 111.049 52.1199 111.268C52.6437 111.487 53.0582 111.719 53.3632 111.965C53.6749 112.21 53.8307 112.475 53.8307 112.76C53.8307 113.145 53.6649 113.423 53.3334 113.596C53.0084 113.762 52.5608 113.845 51.9905 113.845C51.4004 113.845 50.9594 113.689 50.6676 113.377C50.3825 113.065 50.2399 112.677 50.2399 112.213V111.776H46.2313V112.293C46.2313 113.314 46.48 114.17 46.9773 114.859C47.4813 115.549 48.1643 116.069 49.0264 116.421Z" fill="#6B21A8"/>
</svg>
