<svg width="152" height="176" viewBox="0 0 152 176" fill="none" xmlns="http://www.w3.org/2000/svg">
<path d="M43.7767 18.0022L43.7767 18.0022C39.0905 24.4467 36.0991 31.8979 34.7015 39.1896C34.5878 39.7826 34.5728 40.3828 34.6507 40.968H17.3422C14.4607 40.968 12.0575 43.1711 11.8076 46.0417L1.1638 168.312C1.02876 169.863 1.55099 171.4 2.60326 172.548L3.23422 171.969L2.60326 172.548C3.65553 173.696 5.14124 174.349 6.69843 174.349H145.302C146.859 174.349 148.344 173.696 149.397 172.548C150.449 171.4 150.971 169.864 150.836 168.312L140.206 46.0424C139.957 43.1714 137.554 40.968 134.672 40.968H117.346C117.424 40.3828 117.409 39.7826 117.295 39.1896C115.897 31.8979 112.906 24.4467 108.22 18.0022L108.218 18.0002C101.327 8.53274 90.3331 1.14286 75.9982 1.14286C61.6634 1.14286 50.6692 8.53274 43.7782 18.0002L43.778 18.0004L43.7767 18.0022ZM52.6821 24.4611L52.6818 24.4615C49.4558 28.8983 47.1938 34.1835 45.9455 39.3782H41.2063C41.4634 38.1787 41.7692 36.9772 42.1239 35.7805C43.5795 30.8693 45.8559 26.0469 48.9629 21.7739C54.8822 13.6416 64.0834 7.55555 75.9982 7.55555C87.9131 7.55555 97.1143 13.6416 103.034 21.7739C106.141 26.0469 108.417 30.8693 109.873 35.7805C110.227 36.9772 110.533 38.1787 110.79 39.3782H106.051C104.803 34.1835 102.541 28.8983 99.3147 24.4615L99.3144 24.4611C94.0466 17.2254 86.465 12.1294 75.9982 12.1294C65.5315 12.1294 57.9499 17.2254 52.6821 24.4611ZM7.63343 167.936L18.128 47.3807H133.886L144.367 167.936H7.63343ZM42.4305 60.114C42.4425 60.114 42.453 60.1188 42.46 60.1257C42.4634 60.1291 42.4658 60.1329 42.4674 60.1367C42.4689 60.1404 42.4696 60.1443 42.4696 60.1479C42.4696 60.1553 42.4667 60.1634 42.46 60.1701C42.453 60.1771 42.4425 60.1818 42.4305 60.1818C42.4186 60.1818 42.4081 60.1771 42.4011 60.1701C42.3944 60.1634 42.3915 60.1553 42.3915 60.1479C42.3915 60.1405 42.3944 60.1325 42.4011 60.1257C42.4081 60.1188 42.4186 60.114 42.4305 60.114ZM109.566 60.114C109.578 60.114 109.588 60.1188 109.595 60.1257L110.201 59.5193L109.595 60.1257C109.602 60.1324 109.605 60.1405 109.605 60.1479C109.605 60.1553 109.602 60.1634 109.595 60.1701L110.201 60.7765L109.595 60.1701C109.588 60.177 109.578 60.1818 109.566 60.1818C109.554 60.1818 109.543 60.177 109.537 60.1701L108.931 60.7765L109.537 60.1701C109.53 60.1634 109.527 60.1553 109.527 60.1479C109.527 60.1405 109.53 60.1324 109.537 60.1257L108.931 59.5193L109.537 60.1257C109.543 60.1188 109.554 60.114 109.566 60.114ZM46.9924 55.5892C45.7824 54.3803 44.1414 53.7013 42.4305 53.7013C40.7197 53.7013 39.0787 54.3803 37.8687 55.5892C36.6587 56.7981 35.9788 58.4379 35.9788 60.1479C35.9788 61.8579 36.6587 63.4977 37.8687 64.7066C39.0787 65.9155 40.7197 66.5945 42.4305 66.5945C44.1414 66.5945 45.7824 65.9155 46.9923 64.7066C48.2024 63.4977 48.8823 61.8579 48.8823 60.1479C48.8823 58.4379 48.2024 56.7981 46.9924 55.5892ZM114.128 55.5892C112.918 54.3803 111.277 53.7013 109.566 53.7013C107.855 53.7013 106.214 54.3803 105.004 55.5892C103.794 56.7981 103.114 58.4379 103.114 60.1479C103.114 61.8579 103.794 63.4977 105.004 64.7066C106.214 65.9155 107.855 66.5945 109.566 66.5945C111.277 66.5945 112.918 65.9155 114.128 64.7066C115.338 63.4977 116.018 61.8579 116.018 60.1479C116.018 58.4379 115.338 56.7981 114.128 55.5892Z" stroke="white" stroke-width="1.71428"/>
<path fill-rule="evenodd" clip-rule="evenodd" d="M89.046 81.455C88.656 82.5229 88.0965 83.4629 87.3675 84.275C86.6386 85.0806 85.7721 85.7105 84.7682 86.1645C83.7643 86.6121 82.6485 86.8359 81.4208 86.8359C80.3657 86.8359 79.4065 86.6153 78.5433 86.1741C77.6865 85.7329 77.0055 85.0774 76.5003 84.2078C75.9951 83.3382 75.7426 82.2639 75.7426 80.9851C75.7426 79.7381 75.9376 78.584 76.3276 77.5225C76.7177 76.4546 77.274 75.5243 77.9966 74.7314C78.7191 73.9321 79.5824 73.3118 80.5863 72.8706C81.5966 72.423 82.7188 72.1992 83.9529 72.1992C85.0272 72.1992 85.9927 72.4166 86.8496 72.8514C87.7064 73.2862 88.3842 73.9321 88.883 74.7889C89.3881 75.6458 89.6407 76.7104 89.6407 77.9829C89.6407 79.2234 89.4425 80.3808 89.046 81.455ZM81.7661 83.8433C82.4566 83.8433 83.0513 83.6675 83.5501 83.3158C84.0488 82.9641 84.4581 82.5005 84.7778 81.925C85.0975 81.3495 85.3341 80.7165 85.4876 80.0259C85.641 79.3289 85.7178 78.6351 85.7178 77.9445C85.7178 77.2412 85.6219 76.6912 85.43 76.2948C85.2382 75.8919 84.9824 75.6074 84.6627 75.4411C84.3494 75.2749 83.9977 75.1918 83.6076 75.1918C82.9106 75.1918 82.3128 75.358 81.814 75.6905C81.3153 76.023 80.906 76.4674 80.5863 77.0237C80.273 77.5801 80.0428 78.2003 79.8957 78.8845C79.7486 79.5687 79.6751 80.2657 79.6751 80.9755C79.6751 82.0625 79.8765 82.8138 80.2794 83.2295C80.6822 83.6387 81.1778 83.8433 81.7661 83.8433ZM93.755 72.439L94.0044 86.5865H99.8361L106.09 72.439H101.706L97.4754 83.9311L97.9466 72.439H93.755ZM145.302 168.794L134.672 46.5236L17.3422 46.5236H134.672L145.302 168.794ZM104.997 86.5865L111.299 72.439H117.447L117.706 86.5865H113.917L113.951 83.6132H110.372L109.131 86.5865H104.997ZM114.051 74.7978L113.984 80.7069H111.585L114.051 74.7978ZM57.4458 86.5865H61.2153L63.7047 74.8688L63.9393 86.5865H70.2793L73.291 72.439H69.5215L66.9794 84.4072L66.7496 72.439H60.4575L57.4458 86.5865ZM40.1945 86.5865H43.964L46.4534 74.8688L46.688 86.5865H53.028L56.0397 72.439H52.2702L49.7281 84.4072L49.4983 72.439H43.2062L40.1945 86.5865ZM34.9548 72.439L31.943 86.5865H35.818L38.8298 72.439H34.9548ZM21.9682 95.0874V96.8493H23.1364V95.0874H21.9682ZM27.8093 95.0874V96.8493H25.4729V95.0874H27.8093ZM30.1458 95.0874V96.8493H32.4822V95.0874H30.1458ZM37.1551 95.0874V96.8493H34.8186V95.0874H37.1551ZM39.4915 95.0874V96.8493H41.828V95.0874H39.4915ZM46.5008 95.0874V96.8493H44.1644V95.0874H46.5008ZM48.8373 95.0874V96.8493H51.1737V95.0874H48.8373ZM55.8466 95.0874V96.8493H53.5101V95.0874H55.8466ZM58.183 95.0874V96.8493H60.5195V95.0874H58.183ZM65.1923 95.0874V96.8493H62.8559V95.0874H65.1923ZM67.5288 95.0874V96.8493H69.8652V95.0874H67.5288ZM74.5381 95.0874V96.8493H72.2017V95.0874H74.5381ZM76.8745 95.0874V96.8493H79.211V95.0874H76.8745ZM83.8838 95.0874V96.8493H81.5474V95.0874H83.8838ZM86.2203 95.0874V96.8493H88.5567V95.0874H86.2203ZM93.2296 95.0874V96.8493H90.8932V95.0874H93.2296ZM95.566 95.0874V96.8493H97.9025V95.0874H95.566ZM102.575 95.0874V96.8493H100.239V95.0874H102.575ZM104.912 95.0874V96.8493H107.248V95.0874H104.912ZM111.921 95.0874V96.8493H109.585V95.0874H111.921ZM114.258 95.0874V96.8493H116.594V95.0874H114.258ZM121.267 95.0874V96.8493H118.93V95.0874H121.267ZM123.603 95.0874V96.8493H125.94V95.0874H123.603ZM129.444 95.0874V96.8493H128.276V95.0874H129.444ZM112.677 156.715C110.373 157.746 107.751 158.261 104.81 158.261C102.294 158.261 99.9602 157.867 97.8078 157.079C95.6858 156.26 93.8367 155.108 92.2603 153.623C90.7143 152.137 89.5017 150.394 88.6226 148.394C87.7435 146.363 87.3039 144.134 87.3039 141.709C87.3039 139.284 87.7435 137.071 88.6226 135.07C89.5017 133.039 90.7143 131.281 92.2603 129.796C93.8367 128.31 95.6858 127.174 97.8078 126.385C99.9602 125.567 102.294 125.158 104.81 125.158C107.751 125.158 110.373 125.673 112.677 126.704C115.011 127.734 116.951 129.22 118.497 131.16L112.768 136.344C111.737 135.131 110.601 134.206 109.358 133.57C108.145 132.933 106.781 132.615 105.265 132.615C103.962 132.615 102.764 132.827 101.673 133.252C100.582 133.676 99.6419 134.297 98.8537 135.116C98.0958 135.904 97.4895 136.859 97.0348 137.981C96.6104 139.102 96.3982 140.345 96.3982 141.709C96.3982 143.073 96.6104 144.316 97.0348 145.438C97.4895 146.56 98.0958 147.53 98.8537 148.348C99.6419 149.136 100.582 149.743 101.673 150.167C102.764 150.591 103.962 150.804 105.265 150.804C106.781 150.804 108.145 150.485 109.358 149.849C110.601 149.212 111.737 148.288 112.768 147.075L118.497 152.259C116.951 154.168 115.011 155.654 112.677 156.715ZM73.5321 157.624V125.794H82.5354V157.624H73.5321ZM36.8973 157.624V125.794H44.3091L58.3598 142.757V125.794H67.1813V157.624H59.7695L45.7187 140.662V157.624H36.8973ZM104.614 112.81C104.577 112.709 104.544 112.603 104.516 112.492H112.492C112.506 112.406 112.516 112.293 112.522 112.154C112.529 112.014 112.532 111.845 112.532 111.646C112.532 110.466 112.287 109.448 111.796 108.593C111.305 107.731 110.606 107.067 109.697 106.603C108.795 106.132 107.721 105.897 106.474 105.897C105.268 105.897 104.207 106.126 103.291 106.583C102.383 107.041 101.677 107.684 101.173 108.513C100.669 109.342 100.417 110.31 100.417 111.418C100.417 112.498 100.662 113.457 101.153 114.292C101.644 115.121 102.343 115.771 103.252 116.242C104.16 116.706 105.234 116.938 106.474 116.938C107.37 116.938 108.172 116.842 108.882 116.65C109.591 116.451 110.198 116.182 110.702 115.844C111.206 115.499 111.6 115.111 111.886 114.68C112.177 114.249 112.346 113.801 112.393 113.337H108.434C108.421 113.417 108.378 113.5 108.305 113.586C108.238 113.672 108.136 113.752 107.996 113.825C107.864 113.898 107.685 113.957 107.459 114.004C107.234 114.05 106.962 114.073 106.644 114.073C106.106 114.073 105.672 113.967 105.34 113.755C105.009 113.536 104.767 113.221 104.614 112.81ZM108.305 109.587C108.402 109.763 108.464 109.936 108.49 110.105H104.552C104.574 110.036 104.598 109.97 104.624 109.906C104.783 109.514 105.022 109.219 105.34 109.02C105.659 108.821 106.053 108.722 106.524 108.722C107.008 108.722 107.393 108.805 107.678 108.971C107.97 109.136 108.179 109.342 108.305 109.587ZM88.8628 116.679V106.116H92.8814V107.573C93.049 107.3 93.2413 107.06 93.4583 106.852C93.7832 106.54 94.1546 106.305 94.5723 106.146C94.9967 105.98 95.4676 105.897 95.9848 105.897C96.4158 105.897 96.7408 105.927 96.9596 105.987C97.1851 106.04 97.3243 106.083 97.3774 106.116L96.8303 109.617C96.7706 109.584 96.638 109.534 96.4324 109.468C96.2268 109.395 95.9782 109.359 95.6864 109.359C95.1692 109.359 94.7315 109.441 94.3734 109.607C94.0153 109.766 93.7269 109.985 93.508 110.264C93.2892 110.536 93.13 110.844 93.0306 111.189C92.9311 111.527 92.8814 111.872 92.8814 112.223V116.679H88.8628ZM78.9981 116.928C77.8045 116.928 76.7534 116.696 75.845 116.232C74.9431 115.768 74.2369 115.121 73.7263 114.292C73.2223 113.463 72.9703 112.502 72.9703 111.408C72.9703 110.313 73.2223 109.352 73.7263 108.523C74.2369 107.694 74.9431 107.051 75.845 106.593C76.7534 106.129 77.8045 105.897 78.9981 105.897C80.1918 105.897 81.2395 106.129 82.1413 106.593C83.0498 107.051 83.7561 107.694 84.26 108.523C84.7706 109.352 85.026 110.313 85.026 111.408C85.026 112.502 84.7706 113.463 84.26 114.292C83.7561 115.121 83.0498 115.768 82.1413 116.232C81.2395 116.696 80.1918 116.928 78.9981 116.928ZM78.9981 113.894C79.4093 113.894 79.7607 113.792 80.0525 113.586C80.3443 113.38 80.5664 113.092 80.7189 112.721C80.8781 112.349 80.9577 111.912 80.9577 111.408C80.9577 110.904 80.8781 110.469 80.7189 110.105C80.5664 109.733 80.3443 109.448 80.0525 109.249C79.7607 109.044 79.4093 108.941 78.9981 108.941C78.5936 108.941 78.2422 109.044 77.9438 109.249C77.652 109.448 77.4265 109.733 77.2674 110.105C77.1149 110.469 77.0386 110.904 77.0386 111.408C77.0386 111.912 77.1149 112.349 77.2674 112.721C77.4265 113.092 77.652 113.38 77.9438 113.586C78.2422 113.792 78.5936 113.894 78.9981 113.894ZM67.1102 116.938C66.6526 116.938 66.1685 116.902 65.6579 116.829C65.154 116.762 64.6798 116.62 64.2355 116.401C63.7912 116.182 63.4298 115.854 63.1513 115.416C62.8728 114.972 62.7335 114.378 62.7335 113.636V109.1H60.3761V106.116H60.4259C60.9431 106.116 61.3542 106.093 61.6593 106.046C61.9709 106 62.203 105.887 62.3556 105.708C62.5081 105.529 62.6075 105.247 62.654 104.863C62.707 104.478 62.7335 103.947 62.7335 103.271V102.654H66.7521V106.116H69.6665V109.1H66.7521V112.601C66.7521 112.986 66.7985 113.311 66.8913 113.576C66.9842 113.841 67.2329 113.974 67.6374 113.974C67.8761 113.974 68.1016 113.951 68.3138 113.904C68.526 113.858 68.6851 113.811 68.7912 113.765V116.66C68.6387 116.726 68.4165 116.789 68.1248 116.849C67.8396 116.908 67.5014 116.938 67.1102 116.938ZM51.3754 116.938C50.2879 116.938 49.3131 116.766 48.451 116.421C47.589 116.069 46.9059 115.549 46.402 114.859C45.9046 114.17 45.6559 113.314 45.6559 112.293V111.776H49.6646V112.213C49.6646 112.677 49.8071 113.065 50.0923 113.377C50.384 113.689 50.825 113.845 51.4152 113.845C51.9855 113.845 52.4331 113.762 52.758 113.596C53.0896 113.423 53.2554 113.145 53.2554 112.76C53.2554 112.475 53.0995 112.21 52.7879 111.965C52.4828 111.719 52.0684 111.487 51.5445 111.268C51.0273 111.049 50.4504 110.841 49.8138 110.642C49.1241 110.423 48.4676 110.128 47.8443 109.756C47.2276 109.385 46.7236 108.904 46.3323 108.314C45.9411 107.717 45.7455 106.978 45.7455 106.096C45.7455 105.187 45.9975 104.412 46.5014 103.768C47.0054 103.118 47.6818 102.621 48.5306 102.276C49.386 101.931 50.3343 101.759 51.3754 101.759C52.4563 101.759 53.4212 101.928 54.27 102.266C55.1254 102.605 55.8018 103.102 56.2991 103.758C56.7965 104.415 57.0452 105.227 57.0452 106.195V106.693H53.0366V106.384C53.0366 105.953 52.9139 105.589 52.6685 105.29C52.4298 104.992 52.0153 104.843 51.4252 104.843C50.8416 104.843 50.3907 104.949 50.0724 105.161C49.7607 105.373 49.6049 105.681 49.6049 106.086C49.6049 106.371 49.7375 106.623 50.0027 106.842C50.268 107.054 50.6327 107.253 51.0969 107.439C51.5677 107.624 52.0982 107.823 52.6884 108.036C53.577 108.347 54.3562 108.692 55.0259 109.07C55.6957 109.441 56.2162 109.909 56.5876 110.473C56.9656 111.036 57.1546 111.759 57.1546 112.641C57.1546 113.563 56.9059 114.345 56.4086 114.988C55.9112 115.625 55.2249 116.109 54.3495 116.441C53.4809 116.772 52.4895 116.938 51.3754 116.938Z" fill="white"/>
</svg>
