<svg width="65" height="65" viewBox="0 0 65 65" fill="none" xmlns="http://www.w3.org/2000/svg">
<path d="M55.5201 32.9543C50.2932 32.9543 46.0424 37.2062 46.0424 42.4331C46.0424 47.658 50.2932 51.911 55.5201 51.911C60.7471 51.911 65 47.658 65 42.4331C65 37.2062 60.7471 32.9543 55.5201 32.9543Z" fill="#57137E"/>
<path d="M55.5201 37.6921C52.9078 37.6921 50.7812 39.8185 50.7812 42.433C50.7812 45.0455 52.9078 47.1719 55.5201 47.1719C58.1346 47.1719 60.2612 45.0455 60.2612 42.433C60.2612 39.8185 58.1346 37.6921 55.5201 37.6921Z" fill="white"/>
<path d="M55.5222 43.7859C55.0441 43.7859 54.5799 43.532 54.334 43.0837L48.9168 33.1963C48.5578 32.5397 48.7977 31.7184 49.4543 31.3574C50.1088 30.9983 50.9321 31.2383 51.2911 31.8949L56.7084 41.7823C57.0675 42.4369 56.8275 43.2602 56.1709 43.6192C55.9645 43.7324 55.7423 43.7859 55.5222 43.7859Z" fill="white"/>
<path d="M9.47977 32.9543C4.25289 32.9543 0 37.2062 0 42.4331C0 47.658 4.25301 51.911 9.47977 51.911C14.7065 51.911 18.9576 47.658 18.9576 42.4331C18.9576 37.2062 14.7067 32.9543 9.47977 32.9543Z" fill="#57137E"/>
<path d="M9.47979 37.6921C6.8654 37.6921 4.73889 39.8185 4.73889 42.433C4.73889 45.0455 6.8654 47.1719 9.47979 47.1719C12.0923 47.1719 14.2188 45.0455 14.2188 42.433C14.2188 39.8185 12.0923 37.6921 9.47979 37.6921Z" fill="white"/>
<path d="M59.553 24.4304C58.8825 21.2625 56.8214 16.7001 50.8229 12.9511C50.2952 12.6217 49.613 12.6932 49.1666 13.1236L46.4569 15.7281C46.0304 16.1387 45.9193 16.7794 46.185 17.3091L47.5577 20.0545C45.1177 19.4852 41.5432 18.8108 38.3119 18.8108C36.2828 18.8108 34.6064 19.0826 33.327 19.6222C30.8693 20.6596 28.6197 24.3491 27.6716 26.0809L6.83567 23.5893C6.2683 23.5219 5.72087 23.8154 5.46493 24.3253C5.30826 24.6367 5.16544 25.1465 5.38355 25.7972C5.74258 26.8683 7.10735 28.5246 14.5222 32.6963C16.5376 33.8311 18.5372 34.8852 20.0229 35.6529L8.87483 41.221C8.3392 41.4869 8.04365 42.072 8.14483 42.6612C8.24602 43.2484 8.71817 43.7026 9.3113 43.776L19.6838 45.0713L22.0642 47.4516C22.3182 47.7055 22.6613 47.8484 23.0203 47.8484H43.3329C43.6979 47.8484 44.049 47.7016 44.3029 47.4397C44.5568 47.1798 44.6957 46.8268 44.6877 46.4618C44.6857 46.3923 44.5667 39.5051 48.7979 35.1531C51.077 32.8095 54.2528 31.6133 58.234 31.5993C58.835 31.5973 59.3628 31.1986 59.5293 30.6214C59.5608 30.5123 60.2929 27.9116 59.553 24.4304Z" fill="#57137E"/>
<path d="M27.6718 26.0807L6.83567 23.5892C6.2683 23.5217 5.72087 23.8153 5.46493 24.3251C5.30826 24.6365 5.16544 25.1464 5.38355 25.797C5.74258 26.8682 7.10735 28.5244 14.5222 32.6962C16.5376 33.8309 18.5372 34.885 20.0229 35.6527C20.0229 35.6527 20.4355 28.213 27.6718 26.0807Z" fill="#57137E"/>
<path d="M47.5578 20.0544C45.1179 19.4852 41.5433 18.8108 38.312 18.8108C36.2829 18.8108 34.6066 19.0826 33.3271 19.6222C30.8694 20.6595 28.6199 24.3491 27.6718 26.0809C27.6718 26.0809 31.0361 26.9636 37.8281 25.111C46.9688 22.6173 47.5578 20.0544 47.5578 20.0544Z" fill="#57137E"/>
<path d="M27.769 47.8483L17.2637 37.0295L20.0229 35.6528L31.6907 47.8483H27.769Z" fill="white"/>
<path d="M31.1452 34.3088C28.9057 34.3088 27.0828 36.1289 27.0828 38.3704C27.0828 40.6099 28.9057 42.4329 31.1452 42.4329C33.3867 42.4329 35.2078 40.6099 35.2078 38.3704C35.2078 36.1287 33.3867 34.3088 31.1452 34.3088Z" fill="white"/>
<path d="M36.1659 41.4749C36.6955 42.0025 36.6955 42.8615 36.1659 43.3891C35.6362 43.9188 34.7792 43.9188 34.2516 43.3891C33.722 42.8615 33.722 42.0025 34.2516 41.4749C34.7792 40.9452 35.6362 40.9452 36.1659 41.4749Z" fill="white"/>
<path d="M49.9322 29.1575L41.4501 33.3391L46.5085 38.4579C47.0759 37.2974 47.8197 36.1568 48.7976 35.1531C50.1524 33.7596 51.8246 32.7718 53.7942 32.1964L49.9322 29.1575Z" fill="white"/>
</svg>
