<svg width="69" height="68" viewBox="0 0 69 68" fill="none" xmlns="http://www.w3.org/2000/svg">
<path fill-rule="evenodd" clip-rule="evenodd" d="M59.4158 51.2964L36.4159 60V40.0201C37.2787 41.066 38.4363 41.8256 39.7367 42.1992C41.0372 42.5729 42.4198 42.5431 43.703 42.1137L59.4158 36.8566V51.2964ZM52.3549 47.3497C52.8373 47.1885 53.2361 46.8414 53.4636 46.3849C53.6911 45.9284 53.7287 45.3998 53.5681 44.9155C53.4075 44.4312 53.0618 44.0308 52.6071 43.8023C52.1524 43.5739 51.6259 43.5362 51.1435 43.6974L42.5186 46.5839C42.0361 46.7451 41.6373 47.0922 41.4098 47.5487C41.1823 48.0052 41.1447 48.5338 41.3053 49.0181C41.4659 49.5024 41.8116 49.9028 42.2663 50.1313C42.721 50.3597 43.2475 50.3974 43.7299 50.2362L52.3549 47.3497ZM35.126 8.10579C34.72 7.96474 34.2785 7.96474 33.8725 8.10579L8.95974 16.7651L8.91565 16.7786C8.58052 16.9033 8.28699 17.12 8.06849 17.4039L0.421012 27.0023C0.227854 27.2443 0.0958101 27.5296 0.0361243 27.8338C-0.0235614 28.1381 -0.00912081 28.4523 0.0782174 28.7498C0.165556 29.0472 0.323204 29.3191 0.537736 29.5422C0.752268 29.7653 1.01733 29.933 1.31034 30.0311L27.1853 38.6904C27.5771 38.8212 28.0006 38.8214 28.3925 38.691C28.7845 38.5607 29.1241 38.3067 29.3607 37.9669L34.4992 30.5969L39.6359 37.9669C39.8726 38.3071 40.2125 38.5613 40.6049 38.6917C40.9973 38.8221 41.4211 38.8217 41.8132 38.6904L67.6881 30.0311C67.9813 29.9333 68.2466 29.7657 68.4613 29.5427C68.6761 29.3197 68.8339 29.0478 68.9215 28.7504C69.009 28.4529 69.0236 28.1386 68.964 27.8342C68.9045 27.5298 68.7725 27.2444 68.5794 27.0023L60.9319 17.4039C60.7032 17.1071 60.3926 16.8843 60.0387 16.7632L35.126 8.10579ZM34.4992 25.2069L53.5566 18.5835L34.4992 11.9601L15.4419 18.5835L34.4992 25.2069Z" fill="white"/>
<path d="M25.2954 42.1137C26.5787 42.5431 27.9613 42.5729 29.2617 42.1992C30.5622 41.8256 31.7197 41.066 32.5825 40.0201V60L9.5826 51.2964V36.8566L25.2954 42.1137Z" fill="white"/>
</svg>
