<svg width="132" height="120" viewBox="0 0 132 120" fill="none" xmlns="http://www.w3.org/2000/svg">
<path d="M21.9626 107.368C19.3026 107.368 17.0384 106.433 15.1701 104.565C13.3017 102.697 12.3676 100.435 12.3676 97.7785V33.0657C12.3676 31.9098 12.5516 30.8213 12.9197 29.8001C13.2879 28.7788 13.842 27.8387 14.5822 26.9797L23.8329 15.8766C24.6918 14.7168 25.7665 13.842 27.0569 13.2522C28.3473 12.6625 29.7308 12.3676 31.2072 12.3676H88.3022C89.7747 12.3676 91.176 12.6625 92.506 13.2522C93.836 13.842 94.9305 14.7148 95.7894 15.8707L105.153 27.2113C105.893 28.0703 106.447 29.0302 106.815 30.091C107.183 31.1479 107.368 32.2562 107.368 33.416V47.191C104.941 47.3454 102.685 47.8758 100.599 48.7822C98.5207 49.6887 96.5712 50.987 94.7504 52.6772L77.6801 69.7476V34.9776H42.0551V75.2813L59.8676 66.3751L74.0166 73.411L58.9532 88.3201V107.368H21.9626ZM73.1141 107.368V94.2457L104.779 62.7354C105.365 62.2208 105.972 61.8447 106.602 61.6072C107.235 61.3618 107.868 61.2391 108.502 61.2391C109.155 61.2391 109.816 61.3658 110.485 61.6191C111.158 61.8764 111.747 62.2604 112.254 62.771L117.746 68.376C118.233 68.9618 118.605 69.5714 118.863 70.2047C119.116 70.8341 119.243 71.4655 119.243 72.0988C119.243 72.7321 119.14 73.3694 118.934 74.0107C118.728 74.6519 118.332 75.2655 117.746 75.8513L86.2301 107.368H73.1141ZM108.502 77.7691L113.994 72.0929L108.502 66.4938L102.861 72.1344L108.502 77.7691ZM20.5613 29.0401H99.0551L91.1582 19.5638C90.7742 19.1838 90.3348 18.879 89.8401 18.6494C89.3453 18.4198 88.8307 18.3051 88.2963 18.3051H31.3201C30.7896 18.3051 30.2751 18.4198 29.7763 18.6494C29.2776 18.879 28.8421 19.1838 28.4701 19.5638L20.5613 29.0401Z" fill="#57137E"/>
</svg>
