<svg width="59" height="59" viewBox="0 0 59 59" fill="none" xmlns="http://www.w3.org/2000/svg">
<path d="M45.4358 7.09333L39.6025 4.03083C34.4808 1.34458 31.92 0 29.1667 0C26.4133 0 23.8525 1.34167 18.7308 4.03083L17.7946 4.52375L43.82 19.3958L55.5333 13.5333C53.6492 11.3983 50.61 9.80292 45.4358 7.0875M57.5983 17.395L45.9375 23.2283V32.0833C45.9375 32.6635 45.707 33.2199 45.2968 33.6301C44.8866 34.0404 44.3302 34.2708 43.75 34.2708C43.1698 34.2708 42.6134 34.0404 42.2032 33.6301C41.793 33.2199 41.5625 32.6635 41.5625 32.0833V25.4158L31.3542 30.52V58.0533C33.4483 57.5312 35.8312 56.2829 39.6025 54.3025L45.4358 51.24C51.7096 47.9471 54.8479 46.3021 56.5921 43.3417C58.3333 40.3842 58.3333 36.7004 58.3333 29.3417V29.0004C58.3333 23.4792 58.3333 20.0258 57.5983 17.395ZM26.9792 58.0533V30.52L0.735 17.395C2.6077e-07 20.0258 0 23.4792 0 28.9946V29.3358C0 36.7004 -3.47694e-07 40.3842 1.74125 43.3417C3.48542 46.3021 6.62375 47.95 12.8975 51.2429L18.7308 54.3025C22.5021 56.2829 24.885 57.5312 26.9792 58.0533ZM2.8 13.5362L29.1667 26.7196L39.1154 21.7467L13.1979 6.93583L12.8975 7.09333C7.72625 9.80583 4.68417 11.4013 2.8 13.5392" fill="#2A2A2A"/>
</svg>
