<svg width="232" height="232" viewBox="0 0 232 232" fill="none" xmlns="http://www.w3.org/2000/svg">
<path d="M85.9515 120.61C88.5958 111.864 94.9449 104.743 103.159 101.099C106.989 99.3992 111.224 98.4558 115.678 98.4558C116.141 98.4558 116.602 98.466 117.061 98.4862C118.999 98.5716 120.891 98.8359 122.721 99.2628C136.487 102.474 146.746 114.895 146.746 129.728C146.746 134.211 145.808 138.474 144.12 142.329C142.504 146.021 140.199 149.338 137.369 152.116L137.25 151.996C131.383 157.649 123.55 160.766 115.428 160.677C107.307 160.588 99.5424 157.302 93.7987 151.521C88.055 145.741 84.7886 137.926 84.699 129.751C84.6648 126.63 85.0945 123.552 85.9515 120.61Z" fill="#4B4B4B"/>
<path fill-rule="evenodd" clip-rule="evenodd" d="M115.502 71C110.108 71 104.827 71.558 99.7126 72.6242C93.1981 73.9584 86.9814 76.1106 81.1742 78.9691C77.5489 80.7536 74.0833 82.8133 70.8044 85.121L70.8727 85.1899C55.6022 95.9752 44.6982 111.932 40.1542 130.144C39.8045 131.644 40.055 133.222 40.8516 134.537C41.6483 135.852 42.927 136.799 44.4115 137.172C45.896 137.546 47.467 137.317 48.785 136.534C50.103 135.752 51.0621 134.479 51.4552 132.99C52.2495 129.809 53.2719 126.711 54.5071 123.716C60.7628 107.585 73.6984 94.6059 90.061 87.9221C97.8275 84.7497 106.366 82.9954 115.329 82.9954C133.262 82.9954 149.672 90.1287 161.597 101.593C169.717 109.56 175.711 119.548 178.913 130.628C179.142 131.42 179.357 132.218 179.557 133.021C179.959 134.498 180.92 135.758 182.233 136.532C183.547 137.305 185.108 137.531 186.585 137.16C188.061 136.789 189.335 135.851 190.133 134.548C190.651 133.703 190.942 132.748 190.992 131.773C191.019 131.244 190.975 130.709 190.858 130.183C186.65 113.274 176.948 98.2658 163.295 87.5427C149.642 76.8196 132.82 70.997 115.502 71Z" fill="#4B4B4B"/>
</svg>
