<svg width="20" height="21" viewBox="0 0 20 21" fill="none" xmlns="http://www.w3.org/2000/svg">
<path d="M10 20C9.182 20 8.4 19.67 6.837 19.012C2.946 17.373 1 16.554 1 15.175V5.542M10 20C10.818 20 11.6 19.67 13.163 19.012C17.054 17.373 19 16.554 19 15.175V5.542M10 20V10.03M1 5.542C1 6.155 1.802 6.542 3.405 7.315L6.325 8.725C8.129 9.595 9.03 10.03 10 10.03M1 5.542C1 4.93 1.802 4.543 3.405 3.77L5 3M19 5.542C19 6.155 18.198 6.542 16.595 7.315L13.675 8.725C11.871 9.595 10.97 10.03 10 10.03M19 5.542C19 4.93 18.198 4.543 16.595 3.77L15 3M4 11.026L6 12.023M8 1L10 3M10 3L12 5M10 3L8 5M10 3L12 1" stroke="white" stroke-width="1.5" stroke-linecap="round" stroke-linejoin="round"/>
</svg>
