<svg width="18" height="18" viewBox="0 0 18 18" fill="none" xmlns="http://www.w3.org/2000/svg">
<path d="M11.25 14.5125L15.705 10.0575C15.87 9.89249 16.08 9.80999 16.335 9.80999C16.59 9.80999 16.8 9.89249 16.965 10.0575C17.13 10.2225 17.2125 10.4325 17.2125 10.6875C17.2125 10.9425 17.13 11.1525 16.965 11.3175L11.88 16.4025C11.7 16.5825 11.49 16.6725 11.25 16.6725C11.01 16.6725 10.8 16.5825 10.62 16.4025L8.05499 13.8375C7.88999 13.6725 7.80749 13.4625 7.80749 13.2075C7.80749 12.9525 7.88999 12.7425 8.05499 12.5775C8.21999 12.4125 8.42999 12.33 8.68499 12.33C8.93999 12.33 9.14999 12.4125 9.31499 12.5775L11.25 14.5125ZM1.8 18C1.305 18 0.881399 17.8239 0.5292 17.4717C0.177 17.1195 0.0006 16.6956 0 16.2V3.6C0 3.105 0.1764 2.6814 0.5292 2.3292C0.881999 1.977 1.3056 1.8006 1.8 1.8H5.5575C5.7225 1.275 6.045 0.843899 6.525 0.5067C7.005 0.1695 7.52999 0.0006 8.09999 0C8.69999 0 9.23639 0.1689 9.70919 0.5067C10.182 0.844499 10.5006 1.2756 10.665 1.8H14.4C14.895 1.8 15.3189 1.9764 15.6717 2.3292C16.0245 2.682 16.2006 3.1056 16.2 3.6V7.2C16.2 7.45499 16.1136 7.66889 15.9408 7.84169C15.768 8.01449 15.5544 8.10059 15.3 8.09999C15.0456 8.09939 14.832 8.01299 14.6592 7.84079C14.4864 7.66859 14.4 7.45499 14.4 7.2V3.6H12.6V5.4C12.6 5.655 12.5136 5.8689 12.3408 6.0417C12.168 6.2145 11.9544 6.3006 11.7 6.3H4.5C4.245 6.3 4.0314 6.2136 3.8592 6.0408C3.687 5.868 3.6006 5.6544 3.6 5.4V3.6H1.8V16.2H6.3C6.555 16.2 6.7689 16.2864 6.9417 16.4592C7.1145 16.632 7.2006 16.8456 7.2 17.1C7.1994 17.3544 7.113 17.5683 6.9408 17.7417C6.7686 17.9151 6.555 18.0012 6.3 18H1.8ZM8.09999 3.6C8.35499 3.6 8.56889 3.5136 8.74169 3.3408C8.91449 3.168 9.00059 2.9544 8.99999 2.7C8.99939 2.4456 8.91299 2.232 8.74079 2.0592C8.56859 1.8864 8.35499 1.8 8.09999 1.8C7.84499 1.8 7.63139 1.8864 7.45919 2.0592C7.287 2.232 7.2006 2.4456 7.2 2.7C7.1994 2.9544 7.2858 3.1683 7.45919 3.3417C7.63259 3.5151 7.84619 3.6012 8.09999 3.6Z" fill="#57137E"/>
</svg>
