<svg width="22" height="22" viewBox="0 0 22 22" fill="none" xmlns="http://www.w3.org/2000/svg">
<path d="M11.5567 2.05441C11.2004 1.69798 10.7171 1.49768 10.2131 1.49757H3.39802C2.89399 1.49757 2.4106 1.6978 2.05419 2.05421C1.69779 2.41061 1.49756 2.894 1.49756 3.39804V10.2131C1.49767 10.7171 1.69796 11.2004 2.05439 11.5567L10.3252 19.8275C10.7571 20.2567 11.3412 20.4976 11.9501 20.4976C12.559 20.4976 13.1431 20.2567 13.575 19.8275L19.8275 13.575C20.2567 13.1431 20.4976 12.559 20.4976 11.9501C20.4976 11.3413 20.2567 10.7571 19.8275 10.3252L11.5567 2.05441Z" stroke="white" stroke-width="1.42535" stroke-linecap="round" stroke-linejoin="round"/>
<path d="M6.72383 7.19896C6.98623 7.19896 7.19895 6.98624 7.19895 6.72385C7.19895 6.46145 6.98623 6.24873 6.72383 6.24873C6.46143 6.24873 6.24871 6.46145 6.24871 6.72385C6.24871 6.98624 6.46143 7.19896 6.72383 7.19896Z" stroke="white" stroke-width="1.42535" stroke-linecap="round" stroke-linejoin="round"/>
</svg>
