<svg width="33" height="32" viewBox="0 0 33 32" fill="none" xmlns="http://www.w3.org/2000/svg">
<path d="M20 24.342V24.992C20 25.2572 19.8946 25.5116 19.7071 25.6991C19.5196 25.8867 19.2652 25.992 19 25.992H17C12.4913 25.992 8.1673 24.201 4.97918 21.0128C1.79107 17.8247 0 13.5007 0 8.99202L0 6.99202C0 6.7268 0.105357 6.47245 0.292893 6.28491C0.48043 6.09738 0.734784 5.99202 1 5.99202H5C5.26522 5.99202 5.51957 6.09738 5.70711 6.28491C5.89464 6.47245 6 6.7268 6 6.99202V10.992C6 11.552 5.69 12.302 5.3 12.692L3.16 14.832C4.68 18.432 7.56 21.312 11.16 22.832L13.28 20.712C13.68 20.312 14.43 20.002 14.98 20.002H19C19.2635 20.0047 19.5153 20.1112 19.7007 20.2984C19.886 20.4857 19.99 20.7385 19.99 21.002V24.352L20 24.342Z" fill="#2A2A2A"/>
<path d="M32 0.49202V31.492" stroke="#828282"/>
</svg>
