<svg width="46" height="52" viewBox="0 0 46 52" fill="none" xmlns="http://www.w3.org/2000/svg">
<path d="M21.7385 27.4709L19.987 33.0794C19.9039 33.3469 19.8852 33.6303 19.9325 33.9065C19.9797 34.1827 20.0915 34.4437 20.2588 34.6685C20.4261 34.8932 20.6441 35.0752 20.8951 35.1997C21.1461 35.3241 21.423 35.3875 21.7031 35.3847H24.2968C25.5141 35.3847 26.3721 34.2135 26.013 33.0776L24.2615 27.4692C23.8846 26.2289 22.1331 26.2289 21.7385 27.4692M18.4301 37.6546C19.7517 38.3446 21.3263 38.7374 23 38.7374C24.6914 38.7374 26.2483 38.3446 27.5699 37.6546C28.0228 37.4246 28.5076 37.9165 28.2228 38.3446C27.651 39.2055 26.8746 39.911 25.9631 40.398C25.0515 40.8849 24.0334 41.138 23 41.1347C21.9666 41.138 20.9485 40.8849 20.0369 40.398C19.1254 39.911 18.349 39.2055 17.7772 38.3446C17.4942 37.9342 17.9789 37.4246 18.4301 37.6546ZM15.1128 23.7078C12.9649 23.7078 11.1497 25.1939 10.6419 27.1878C10.6093 27.3219 10.6077 27.4617 10.6374 27.5965C10.667 27.7313 10.727 27.8575 10.8129 27.9655C10.8987 28.0736 11.0081 28.1606 11.1327 28.2199C11.2573 28.2792 11.3939 28.3093 11.5318 28.3078H12.9472C12.8271 27.8708 12.8095 27.412 12.8958 26.9671C12.9821 26.5222 13.1699 26.1033 13.4446 25.7429C13.7193 25.3825 14.0735 25.0903 14.4796 24.8893C14.8857 24.6882 15.3328 24.5835 15.786 24.5835C16.2391 24.5835 16.6862 24.6882 17.0923 24.8893C17.4984 25.0903 17.8526 25.3825 18.1273 25.7429C18.4021 26.1033 18.5899 26.5222 18.6761 26.9671C18.7624 27.412 18.7448 27.8708 18.6247 28.3078H18.8865C18.9978 28.3085 19.1078 28.2847 19.2088 28.2381C19.3098 28.1915 19.3993 28.1232 19.4709 28.038C19.5426 27.9529 19.5945 27.853 19.6232 27.7455C19.6518 27.638 19.6564 27.5256 19.6367 27.4161C19.4267 26.3707 18.8614 25.4302 18.0368 24.7542C17.2122 24.0783 16.179 23.7085 15.1128 23.7078ZM30.8872 23.7078C33.0351 23.7078 34.8503 25.1939 35.3581 27.1878C35.3907 27.3219 35.3922 27.4617 35.3626 27.5965C35.333 27.7313 35.2729 27.8575 35.1871 27.9655C35.1012 28.0736 34.9918 28.1606 34.8672 28.2199C34.7426 28.2792 34.6061 28.3093 34.4681 28.3078H33.0528C33.1741 27.8697 33.1923 27.4094 33.1059 26.9631C33.0196 26.5168 32.8311 26.0965 32.5552 25.7353C32.2792 25.374 31.9234 25.0815 31.5156 24.8808C31.1077 24.6801 30.6589 24.5765 30.2043 24.5782C29.8175 24.5763 29.4342 24.6513 29.0766 24.7989C28.7191 24.9464 28.3944 25.1635 28.1215 25.4376C27.8485 25.7117 27.6328 26.0372 27.4868 26.3954C27.3408 26.7536 27.2674 27.1372 27.2709 27.524C27.2709 27.8024 27.3063 28.0636 27.3771 28.3078H27.1135C27.0022 28.3085 26.8922 28.2847 26.7912 28.2381C26.6902 28.1915 26.6007 28.1232 26.529 28.038C26.4574 27.9529 26.4054 27.853 26.3768 27.7455C26.3482 27.638 26.3435 27.5256 26.3633 27.4161C26.5702 26.3692 27.1346 25.4267 27.9599 24.7502C28.7852 24.0737 29.8201 23.7052 30.8872 23.7078Z" fill="#2A2A2A"/>
<path d="M15.7939 25.8502C16.083 25.8494 16.3674 25.9235 16.6194 26.0651C16.8714 26.2068 17.0824 26.4112 17.232 26.6586C17.3816 26.906 17.4647 27.1878 17.4731 27.4768C17.4815 27.7657 17.415 28.052 17.2801 28.3076H14.3096C14.1864 28.0646 14.121 27.7963 14.1185 27.5238C14.1185 27.2195 14.1999 26.9329 14.3432 26.687C14.4042 26.7832 14.4951 26.8567 14.6018 26.8965C14.7086 26.9362 14.8254 26.9399 14.9345 26.907C15.0435 26.8741 15.1388 26.8065 15.2059 26.7144C15.2729 26.6222 15.3079 26.5107 15.3056 26.3968C15.3059 26.3199 15.2894 26.2438 15.2573 26.1738C15.2253 26.1039 15.1784 26.0417 15.1199 25.9917C15.3324 25.8985 15.5619 25.8503 15.7939 25.8502ZM28.7925 26.595C28.6078 26.8696 28.5093 27.193 28.5094 27.5238C28.5094 27.8016 28.5802 28.0635 28.704 28.3076H31.6728C31.8328 28.0054 31.8965 27.6614 31.8553 27.3218C31.8141 26.9823 31.67 26.6635 31.4423 26.4083C31.2147 26.1531 30.9143 25.9737 30.5817 25.8941C30.2491 25.8146 29.9001 25.8388 29.5816 25.9634C29.6732 26.0281 29.742 26.1203 29.778 26.2266C29.814 26.3328 29.8154 26.4478 29.782 26.5549C29.7486 26.6621 29.6821 26.7558 29.592 26.8228C29.502 26.8898 29.393 26.9265 29.2808 26.9276C29.1756 26.9268 29.073 26.8948 28.9861 26.8355C28.8991 26.7763 28.8318 26.6926 28.7925 26.595ZM33.0457 18.3698C34.063 18.6901 34.7353 19.2244 35.3139 19.7268C35.4969 19.8864 35.609 20.1121 35.6256 20.3543C35.6422 20.5965 35.5619 20.8354 35.4023 21.0184C35.2428 21.2014 35.0171 21.3135 34.7749 21.3301C34.5327 21.3467 34.2938 21.2664 34.1108 21.1068C33.5924 20.6539 33.1501 20.3213 32.4955 20.1161C31.8267 19.9038 30.8554 19.8047 29.2684 19.9975C29.1478 20.0153 29.0248 20.0087 28.9067 19.9782C28.7886 19.9477 28.6778 19.8939 28.5809 19.82C28.4839 19.7461 28.4026 19.6535 28.342 19.5477C28.2813 19.442 28.2424 19.3251 28.2275 19.2041C28.2126 19.083 28.2221 18.9602 28.2554 18.8429C28.2887 18.7256 28.3451 18.6161 28.4213 18.5209C28.4975 18.4257 28.592 18.3467 28.6992 18.2886C28.8064 18.2304 28.9241 18.1943 29.0455 18.1823C30.7846 17.97 32.0443 18.0549 33.0457 18.3698ZM11.2594 19.6915L11.2576 19.695C11.0657 19.8435 10.9407 20.0622 10.91 20.3029C10.8793 20.5436 10.9455 20.7867 11.094 20.9786C11.2425 21.1705 11.4612 21.2955 11.7019 21.3262C11.9426 21.3569 12.1856 21.2907 12.3776 21.1422L12.3864 21.1352L12.4395 21.0962C12.4926 21.0585 12.5751 21.0054 12.6872 20.937C14.0686 20.134 15.6747 19.8047 17.2606 19.9993C17.3799 20.0141 17.501 20.0052 17.6169 19.9731C17.7327 19.9411 17.8412 19.8866 17.936 19.8127C18.0307 19.7387 18.11 19.6468 18.1693 19.5423C18.2286 19.4377 18.2667 19.3225 18.2815 19.2032C18.2962 19.0838 18.2873 18.9628 18.2553 18.8469C18.2233 18.7311 18.1688 18.6226 18.0948 18.5278C18.0209 18.433 17.929 18.3537 17.8244 18.2945C17.7199 18.2352 17.6046 18.1971 17.4853 18.1823C15.4951 17.9381 13.4798 18.3546 11.7495 19.3677C11.5966 19.4599 11.4473 19.5579 11.3019 19.6614L11.2736 19.6826L11.2629 19.6897L11.2594 19.6915Z" fill="#2A2A2A"/>
<path d="M43.1958 10.7392C42.2725 9.11151 40.7854 7.87802 39.0151 7.27154C37.1592 6.63462 35.5668 5.41385 34.5531 3.73308C33.8736 2.59859 32.9126 1.65881 31.7633 1.00479C30.6139 0.350761 29.3152 0.00465608 27.9928 0C26.9242 0 25.9104 0.23 24.9833 0.619231C23.7236 1.16769 22.3065 1.16769 21.0468 0.619231C20.0884 0.217344 19.0606 0.00697746 18.0214 0C15.2738 0 12.8765 1.45077 11.5106 3.62692C10.4486 5.3302 8.83897 6.62168 6.946 7.28923C6.65585 7.39185 6.36923 7.47677 6.08438 7.56346C4.63538 7.99692 3.24831 8.418 1.76923 10.7392C2.38419e-07 13.5169 -0.212308 16.7546 1.36231 19.0723C1.94085 19.9215 2.25577 20.93 2.25577 21.9562L2.25754 23.1415C1.54515 23.804 0.977006 24.6063 0.58858 25.4982C0.200153 26.3901 -0.000210513 27.3526 1.65971e-07 28.3254C1.65971e-07 30.3795 0.874 32.2283 2.27169 33.5216C2.25636 34.1338 2.23631 34.7465 2.21154 35.3598C2.21154 37.3662 3.84808 39.2256 5.73408 40.549C6.58992 43.6487 8.43961 46.3819 10.9991 48.3287C13.5586 50.2754 16.6863 51.3282 19.9021 51.3254H26.1245C29.3441 51.328 32.4754 50.2724 35.0363 48.3211C37.5973 46.3698 39.4459 43.6309 40.2978 40.526C42.1714 39.2026 43.7885 37.3555 43.7885 35.3598L43.7849 33.4668C44.4844 32.8055 45.0416 32.0084 45.4225 31.1244C45.8033 30.2404 45.9998 29.288 46 28.3254C45.9999 27.3484 45.7976 26.3821 45.4057 25.4872C45.0138 24.5923 44.4409 23.7882 43.723 23.1256V21.9562C43.723 20.93 44.0379 19.9215 44.6147 19.0723C46.2778 16.6838 44.735 13.4462 43.1958 10.7392ZM7.96154 19.9923C7.96154 14.8155 12.2059 10.6154 17.3208 10.6154H21.5192C21.6029 10.6167 21.6843 10.6428 21.7533 10.6904C21.8222 10.7379 21.8756 10.8048 21.9066 10.8825L21.919 10.9144L21.9332 10.9462C22.6982 12.6722 23.9472 14.1393 25.5288 15.1702C27.1104 16.2011 28.9569 16.7514 30.8448 16.7546H35.4218C36.1715 16.8016 36.8764 17.1275 37.398 17.668C37.9196 18.2086 38.22 18.9247 38.2402 19.6756L37.9465 24.5728L39.5158 24.8365C40.3736 24.9806 41.1483 25.4358 41.6919 26.1149C42.2354 26.7941 42.5098 27.6497 42.4625 28.5183C42.4152 29.3869 42.0497 30.2076 41.4356 30.8238C40.8216 31.4399 40.0021 31.8083 39.1336 31.8585L37.5678 31.9488L37.1786 38.1482C36.8139 40.8202 35.4928 43.2694 33.4602 45.0418C31.4275 46.8141 28.8213 47.7894 26.1245 47.7869H19.9038C17.2059 47.7902 14.5983 46.8147 12.5649 45.0416C10.5314 43.2684 9.21016 40.8179 8.84615 38.1446L8.43923 31.9452L6.87523 31.8568C6.01372 31.8068 5.20018 31.4437 4.58768 30.8358C3.97517 30.2279 3.60592 29.4171 3.54939 28.556C3.49287 27.6949 3.75297 26.8428 4.28077 26.1601C4.80856 25.4774 5.56765 25.011 6.41523 24.8488L6.86462 24.7639L7.96154 24.6029V19.9923Z" fill="#2A2A2A"/>
</svg>
