<svg width="33" height="31" viewBox="0 0 33 31" fill="none" xmlns="http://www.w3.org/2000/svg">
<path fill-rule="evenodd" clip-rule="evenodd" d="M10 5.5C4.477 5.5 0 9.977 0 15.5C0 21.023 4.477 25.5 10 25.5C15.523 25.5 20 21.023 20 15.5C20 9.977 15.523 5.5 10 5.5ZM6.5 13C6.5 12.5404 6.59053 12.0852 6.76642 11.6606C6.94231 11.236 7.20012 10.8501 7.52513 10.5251C7.85013 10.2001 8.23597 9.94231 8.66061 9.76642C9.08525 9.59053 9.54037 9.5 10 9.5C10.4596 9.5 10.9148 9.59053 11.3394 9.76642C11.764 9.94231 12.1499 10.2001 12.4749 10.5251C12.7999 10.8501 13.0577 11.236 13.2336 11.6606C13.4095 12.0852 13.5 12.5404 13.5 13C13.5 13.9283 13.1313 14.8185 12.4749 15.4749C11.8185 16.1313 10.9283 16.5 10 16.5C9.07174 16.5 8.1815 16.1313 7.52513 15.4749C6.86875 14.8185 6.5 13.9283 6.5 13ZM16.258 20.484C15.5094 21.4256 14.5578 22.186 13.4742 22.7082C12.3905 23.2305 11.2029 23.5011 10 23.5C8.79709 23.5011 7.60946 23.2305 6.52583 22.7082C5.4422 22.186 4.49056 21.4256 3.742 20.484C5.363 19.321 7.575 18.5 10 18.5C12.425 18.5 14.637 19.321 16.258 20.484Z" fill="#2A2A2A"/>
<path d="M32 0V31" stroke="#828282"/>
</svg>
