<svg width="50" height="50" viewBox="0 0 50 50" fill="none" xmlns="http://www.w3.org/2000/svg">
<path d="M15.4427 25.0001C12.6302 25.0869 10.3299 26.198 8.54167 28.3334H5.05208C3.62847 28.3334 2.43056 27.9819 1.45833 27.2787C0.486111 26.5756 0 25.547 0 24.1928C0 18.0643 1.07639 15.0001 3.22917 15.0001C3.33333 15.0001 3.71094 15.1824 4.36198 15.547C5.01302 15.9115 5.85937 16.2805 6.90104 16.6537C7.94271 17.027 8.97569 17.2136 10 17.2136C11.1632 17.2136 12.3177 17.014 13.4635 16.6147C13.3767 17.257 13.3333 17.8299 13.3333 18.3334C13.3333 20.7466 14.0365 22.9688 15.4427 25.0001ZM43.3333 41.5886C43.3333 43.672 42.6997 45.3169 41.4323 46.5235C40.1649 47.7301 38.4809 48.3334 36.3802 48.3334H13.6198C11.5191 48.3334 9.83507 47.7301 8.56771 46.5235C7.30035 45.3169 6.66667 43.672 6.66667 41.5886C6.66667 40.6685 6.69705 39.77 6.75781 38.8933C6.81858 38.0166 6.9401 37.0704 7.1224 36.0548C7.30469 35.0391 7.53472 34.0973 7.8125 33.2292C8.09028 32.3612 8.46354 31.5148 8.93229 30.6902C9.40104 29.8655 9.93924 29.1624 10.5469 28.5808C11.1545 27.9992 11.8967 27.5348 12.7734 27.1876C13.6502 26.8404 14.6181 26.6667 15.6771 26.6667C15.8507 26.6667 16.224 26.8534 16.7969 27.2266C17.3698 27.5999 18.0035 28.0166 18.6979 28.4766C19.3924 28.9367 20.3212 29.3534 21.4844 29.7266C22.6476 30.0999 23.8194 30.2865 25 30.2865C26.1806 30.2865 27.3524 30.0999 28.5156 29.7266C29.6788 29.3534 30.6076 28.9367 31.3021 28.4766C31.9965 28.0166 32.6302 27.5999 33.2031 27.2266C33.776 26.8534 34.1493 26.6667 34.3229 26.6667C35.3819 26.6667 36.3498 26.8404 37.2266 27.1876C38.1033 27.5348 38.8455 27.9992 39.4531 28.5808C40.0608 29.1624 40.599 29.8655 41.0677 30.6902C41.5365 31.5148 41.9097 32.3612 42.1875 33.2292C42.4653 34.0973 42.6953 35.0391 42.8776 36.0548C43.0599 37.0704 43.1814 38.0166 43.2422 38.8933C43.303 39.77 43.3333 40.6685 43.3333 41.5886ZM16.6667 8.33342C16.6667 10.1737 16.0156 11.7449 14.7135 13.047C13.4115 14.349 11.8403 15.0001 10 15.0001C8.15972 15.0001 6.58854 14.349 5.28646 13.047C3.98437 11.7449 3.33333 10.1737 3.33333 8.33342C3.33333 6.49314 3.98437 4.92196 5.28646 3.61987C6.58854 2.31779 8.15972 1.66675 10 1.66675C11.8403 1.66675 13.4115 2.31779 14.7135 3.61987C16.0156 4.92196 16.6667 6.49314 16.6667 8.33342ZM35 18.3334C35 21.0938 34.0234 23.4506 32.0703 25.4037C30.1172 27.3569 27.7604 28.3334 25 28.3334C22.2396 28.3334 19.8828 27.3569 17.9297 25.4037C15.9766 23.4506 15 21.0938 15 18.3334C15 15.573 15.9766 13.2162 17.9297 11.2631C19.8828 9.30998 22.2396 8.33342 25 8.33342C27.7604 8.33342 30.1172 9.30998 32.0703 11.2631C34.0234 13.2162 35 15.573 35 18.3334ZM50 24.1928C50 25.547 49.5139 26.5756 48.5417 27.2787C47.5694 27.9819 46.3715 28.3334 44.9479 28.3334H41.4583C39.6701 26.198 37.3698 25.0869 34.5573 25.0001C35.9635 22.9688 36.6667 20.7466 36.6667 18.3334C36.6667 17.8299 36.6233 17.257 36.5365 16.6147C37.6823 17.014 38.8368 17.2136 40 17.2136C41.0243 17.2136 42.0573 17.027 43.099 16.6537C44.1406 16.2805 44.987 15.9115 45.638 15.547C46.2891 15.1824 46.6667 15.0001 46.7708 15.0001C48.9236 15.0001 50 18.0643 50 24.1928ZM46.6667 8.33342C46.6667 10.1737 46.0156 11.7449 44.7135 13.047C43.4115 14.349 41.8403 15.0001 40 15.0001C38.1597 15.0001 36.5885 14.349 35.2865 13.047C33.9844 11.7449 33.3333 10.1737 33.3333 8.33342C33.3333 6.49314 33.9844 4.92196 35.2865 3.61987C36.5885 2.31779 38.1597 1.66675 40 1.66675C41.8403 1.66675 43.4115 2.31779 44.7135 3.61987C46.0156 4.92196 46.6667 6.49314 46.6667 8.33342Z" fill="white"/>
</svg>
