<svg width="41" height="40" viewBox="0 0 41 40" fill="none" xmlns="http://www.w3.org/2000/svg">
<path d="M38.6667 33.2552C38.6667 35.3385 38.033 36.9835 36.7656 38.1901C35.4983 39.3967 33.8142 40 31.7135 40H8.95312C6.85243 40 5.1684 39.3967 3.90104 38.1901C2.63368 36.9835 2 35.3385 2 33.2552C2 32.3351 2.03038 31.4366 2.09115 30.5599C2.15191 29.6832 2.27344 28.737 2.45573 27.7214C2.63802 26.7057 2.86806 25.7639 3.14583 24.8958C3.42361 24.0278 3.79687 23.1814 4.26562 22.3568C4.73437 21.5321 5.27257 20.829 5.88021 20.2474C6.48785 19.6658 7.23003 19.2014 8.10677 18.8542C8.98351 18.5069 9.95139 18.3333 11.0104 18.3333C11.184 18.3333 11.5573 18.52 12.1302 18.8932C12.7031 19.2665 13.3368 19.6832 14.0312 20.1432C14.7257 20.6033 15.6545 21.02 16.8177 21.3932C17.9809 21.7665 19.1528 21.9531 20.3333 21.9531C21.5139 21.9531 22.6858 21.7665 23.849 21.3932C25.0122 21.02 25.941 20.6033 26.6354 20.1432C27.3299 19.6832 27.9635 19.2665 28.5365 18.8932C29.1094 18.52 29.4826 18.3333 29.6562 18.3333C30.7153 18.3333 31.6832 18.5069 32.5599 18.8542C33.4366 19.2014 34.1788 19.6658 34.7865 20.2474C35.3941 20.829 35.9323 21.5321 36.401 22.3568C36.8698 23.1814 37.2431 24.0278 37.5208 24.8958C37.7986 25.7639 38.0286 26.7057 38.2109 27.7214C38.3932 28.737 38.5148 29.6832 38.5755 30.5599C38.6363 31.4366 38.6667 32.3351 38.6667 33.2552ZM30.3333 10C30.3333 12.7604 29.3568 15.1172 27.4036 17.0703C25.4505 19.0234 23.0938 20 20.3333 20C17.5729 20 15.2161 19.0234 13.263 17.0703C11.3099 15.1172 10.3333 12.7604 10.3333 10C10.3333 7.23958 11.3099 4.88281 13.263 2.92969C15.2161 0.976562 17.5729 0 20.3333 0C23.0938 0 25.4505 0.976562 27.4036 2.92969C29.3568 4.88281 30.3333 7.23958 30.3333 10Z" fill="#57137E"/>
</svg>
