<svg width="56" height="55" viewBox="0 0 56 55" fill="none" xmlns="http://www.w3.org/2000/svg">
<path d="M42.8553 31.1012C42.5563 30.2282 41.7874 29.6825 40.8903 29.6825H39.534V4.58333C39.534 2.02802 37.5493 0 35.0485 0H10.9126C8.25767 0 6 2.30694 6 5.01984V44.9603C6 47.5575 8.33883 49.7619 10.8592 49.7619H35.2542C35.512 49.7619 35.7391 49.9767 35.7199 50.2394C35.6996 50.5158 35.4736 50.6349 35.2087 50.6349H25.4903L32.9126 55H50L42.8553 31.1012ZM23.0981 47.623C22.4148 47.623 21.9022 47.0994 21.9019 46.4012C21.9017 45.7366 22.4481 45.1786 23.0985 45.1786C23.7818 45.1788 24.2942 45.7026 24.2942 46.4008C24.2728 47.0992 23.7816 47.623 23.0981 47.623ZM36.3301 29.6825H32.133C31.001 29.6825 30.0398 30.7083 30.0398 31.8651C30.0398 33.0218 31.001 34.0476 32.133 34.0476H36.3621V43.2143H9.41748V6.32937H36.3301V29.6825ZM22.767 9.38492C17.5175 9.38492 13.2621 13.7332 13.2621 19.0972C13.2621 24.4613 17.5175 28.8095 22.767 28.8095C28.0164 28.8095 32.2718 24.4613 32.2718 19.0972C32.2718 13.7332 28.0164 9.38492 22.767 9.38492ZM26.4055 14.6204H24.6233C24.1312 14.6204 23.7322 15.0281 23.7322 15.531V17.3521H26.4055L26.1084 19.7801H23.7324V25.8504H21.3562V19.7801H19.2028V17.3521H21.3562V15.4818C21.3562 13.6972 22.8264 12.2807 24.5699 12.3857L26.4057 12.4959L26.4055 14.6204Z" fill="#57137E"/>
</svg>
