<svg width="18" height="18" viewBox="0 0 18 18" fill="none" xmlns="http://www.w3.org/2000/svg">
<path d="M16.1145 13.3259H14.6733C14.5749 13.3259 14.4826 13.3689 14.4211 13.4448C14.2776 13.6191 14.1238 13.7872 13.9619 13.9471C13.2995 14.6102 12.5148 15.1386 11.6514 15.5031C10.7568 15.881 9.79531 16.0748 8.82423 16.0731C7.84222 16.0731 6.89095 15.8804 5.9971 15.5031C5.13363 15.1386 4.34899 14.6102 3.6866 13.9471C3.02301 13.2862 2.49387 12.503 2.12849 11.6407C1.74922 10.7468 1.55856 9.79762 1.55856 8.8156C1.55856 7.83359 1.75127 6.88438 2.12849 5.99052C2.49342 5.12741 3.01825 4.35041 3.6866 3.68412C4.35494 3.01783 5.13194 2.49299 5.9971 2.12807C6.89095 1.75084 7.84222 1.55813 8.82423 1.55813C9.80624 1.55813 10.7575 1.74879 11.6514 2.12807C12.5165 2.49299 13.2935 3.01783 13.9619 3.68412C14.1238 3.84608 14.2755 4.01419 14.4211 4.1864C14.4826 4.26226 14.5769 4.30531 14.6733 4.30531H16.1145C16.2437 4.30531 16.3236 4.1618 16.2519 4.05314C14.6794 1.60939 11.9281 -0.0081695 8.80168 3.10363e-05C3.88956 0.0123318 -0.0487471 3.99984 0.000456061 8.90581C0.0496593 13.7339 3.98182 17.6312 8.82423 17.6312C11.9425 17.6312 14.6815 16.0157 16.2519 13.5781C16.3216 13.4694 16.2437 13.3259 16.1145 13.3259ZM17.9371 8.68645L15.0279 6.3903C14.9193 6.30419 14.7614 6.3821 14.7614 6.51945V8.07756H8.324C8.23379 8.07756 8.15999 8.15136 8.15999 8.24157V9.38964C8.15999 9.47985 8.23379 9.55365 8.324 9.55365H14.7614V11.1118C14.7614 11.2491 14.9213 11.327 15.0279 11.2409L17.9371 8.94476C17.9567 8.92942 17.9725 8.90982 17.9834 8.88744C17.9943 8.86506 18 8.8405 18 8.8156C18 8.79071 17.9943 8.76615 17.9834 8.74377C17.9725 8.72139 17.9567 8.70179 17.9371 8.68645Z" fill="white"/>
</svg>
